<svg id="Layer_1" data-name="Layer 1" xmlns="http://www.w3.org/2000/svg" xmlns:xlink="http://www.w3.org/1999/xlink" width="1191.7" height="645.4" viewBox="0 0 1191.7 645.4"><defs><clipPath id="clip-path"><rect x="-386.9" y="-100.6" width="2058.8" height="792" fill="none"/></clipPath><clipPath id="clip-path-2"><rect x="-386.9" y="-100.6" width="2058.8" height="792" fill="none"/></clipPath><clipPath id="clip-path-8"><rect x="1079.5" y="276.7" width="15.7" height="41.93" fill="none"/></clipPath></defs><g clip-path="url(#clip-path)"><rect x="36.5" y="224.2" width="1043.1" height="146.76" fill="none" stroke="#f17299" stroke-linecap="square" stroke-miterlimit="10"/><line x1="392.9" y1="224.2" x2="392.9" y2="227.2" fill="none" stroke="#f17299" stroke-linecap="square" stroke-miterlimit="10"/><line x1="392.9" y1="235.6" x2="392.9" y2="363.8" fill="none" stroke="#f17299" stroke-linecap="square" stroke-miterlimit="10" stroke-dasharray="6.3 8.4"/><line x1="392.9" y1="368" x2="392.9" y2="371" fill="none" stroke="#f17299" stroke-linecap="square" stroke-miterlimit="10"/><line x1="560.6" y1="224.2" x2="560.6" y2="227.2" fill="none" stroke="#f17299" stroke-linecap="square" stroke-miterlimit="10"/><line x1="560.6" y1="235.6" x2="560.6" y2="363.8" fill="none" stroke="#f17299" stroke-linecap="square" stroke-miterlimit="10" stroke-dasharray="6.3 8.4"/><line x1="560.6" y1="368" x2="560.6" y2="371" fill="none" stroke="#f17299" stroke-linecap="square" stroke-miterlimit="10"/><line x1="770.3" y1="224.2" x2="770.3" y2="227.2" fill="none" stroke="#f17299" stroke-linecap="square" stroke-miterlimit="10"/><line x1="770.3" y1="235.6" x2="770.3" y2="363.8" fill="none" stroke="#f17299" stroke-linecap="square" stroke-miterlimit="10" stroke-dasharray="6.3 8.4"/><line x1="770.3" y1="368" x2="770.3" y2="371" fill="none" stroke="#f17299" stroke-linecap="square" stroke-miterlimit="10"/><line x1="938" y1="224.2" x2="938" y2="227.2" fill="none" stroke="#f17299" stroke-linecap="square" stroke-miterlimit="10"/><line x1="938" y1="235.6" x2="938" y2="363.8" fill="none" stroke="#f17299" stroke-linecap="square" stroke-miterlimit="10" stroke-dasharray="6.3 8.4"/><line x1="938" y1="368" x2="938" y2="371" fill="none" stroke="#f17299" stroke-linecap="square" stroke-miterlimit="10"/><g clip-path="url(#clip-path-2)"><path d="M738.8,297.6a55,55,0,1,1-55-55,55.1,55.1,0,0,1,55,55" fill="#f17299"/><path d="M738.8,297.6a55,55,0,1,1-55-55A55.1,55.1,0,0,1,738.8,297.6Z" fill="none" stroke="#f17299" stroke-linecap="square" stroke-miterlimit="10"/><path d="M854.2,297.6a31.5,31.5,0,1,1-31.5-31.4,31.5,31.5,0,0,1,31.5,31.4" fill="#f17299"/><circle cx="822.7" cy="297.6" r="31.4" transform="translate(-51.3 337.5) rotate(-22.5)" fill="none" stroke="#f17299" stroke-linecap="square" stroke-miterlimit="10"/><line x1="1079.5" y1="376.2" x2="1079.5" y2="386.7" fill="none" stroke="#7b7c7f" stroke-miterlimit="10"/><line x1="1095.3" y1="213.8" x2="1095.3" y2="271.4" fill="none" stroke="#7b7c7f" stroke-miterlimit="10"/><line x1="1074.3" y1="381.5" x2="1026.7" y2="381.5" fill="none" stroke="#7b7c7f" stroke-miterlimit="10"/><line x1="938" y1="376.2" x2="938" y2="386.7" fill="none" stroke="#7b7c7f" stroke-miterlimit="10"/><line x1="943.3" y1="381.5" x2="992.7" y2="381.5" fill="none" stroke="#7b7c7f" stroke-miterlimit="10"/></g><path d="M996.4,383.4l1.5-.2a3.7,3.7,0,0,0,.9,1.9,2.5,2.5,0,0,0,1.6.6,2.7,2.7,0,0,0,2.6-2.6,2.4,2.4,0,0,0-2.5-2.5l-1.1.2.2-1.3h.3a3.4,3.4,0,0,0,1.7-.5,1.9,1.9,0,0,0,.8-1.6,1.8,1.8,0,0,0-.6-1.4,1.7,1.7,0,0,0-1.4-.6,2,2,0,0,0-1.5.6,2.7,2.7,0,0,0-.8,1.7l-1.5-.3a4.6,4.6,0,0,1,1.2-2.4,4.1,4.1,0,0,1,2.5-.8,4.1,4.1,0,0,1,1.9.4,3,3,0,0,1,1.3,1.2,3.3,3.3,0,0,1,.5,1.6,2.5,2.5,0,0,1-.5,1.5,3.2,3.2,0,0,1-1.2,1.1,2.7,2.7,0,0,1,1.7,1,3.4,3.4,0,0,1,.6,2,3.8,3.8,0,0,1-1.2,2.8,4,4,0,0,1-3,1.1,4.5,4.5,0,0,1-2.8-.9A4,4,0,0,1,996.4,383.4Z" fill="#7b7c7f"/><path d="M1007.5,379.5h.9a2.3,2.3,0,0,0,.5,1.1,1.8,1.8,0,0,0,1,.4,1.6,1.6,0,0,0,1.1-.5,1.7,1.7,0,0,0,0-2.2,1.8,1.8,0,0,0-1.1-.4h-.6v-.8h.1a2,2,0,0,0,1.1-.3,1.1,1.1,0,0,0,.5-.9,1.1,1.1,0,0,0-.4-.9,1.2,1.2,0,0,0-.9-.3l-.9.3a2.8,2.8,0,0,0-.4,1.1l-.9-.2a2.1,2.1,0,0,1,.7-1.4,2,2,0,0,1,1.5-.6,2.7,2.7,0,0,1,1.2.3,1.6,1.6,0,0,1,.7.7,1.9,1.9,0,0,1,.3,1,2.9,2.9,0,0,1-.2.9,1.6,1.6,0,0,1-.8.6,1.4,1.4,0,0,1,1,.7,1.6,1.6,0,0,1,.4,1.2,2.4,2.4,0,0,1-.7,1.6,2.4,2.4,0,0,1-1.8.7,2.5,2.5,0,0,1-1.7-.6A2.1,2.1,0,0,1,1007.5,379.5Z" fill="#7b7c7f"/><path d="M1008.9,387.2l9.4-13.2h1.3l-9.4,13.2Z" fill="#7b7c7f"/><path d="M1017.4,382.7l-.8-.6a1.7,1.7,0,0,1-.3-1,2,2,0,0,1,.6-1.4,2.5,2.5,0,0,1,1.6-.5,2.3,2.3,0,0,1,1.6.6,2,2,0,0,1,.5,1.4,1.5,1.5,0,0,1-.2.9l-.9.6a1.4,1.4,0,0,1,1.1.7,2.1,2.1,0,0,1,.4,1.2,2.4,2.4,0,0,1-.7,1.6,2.9,2.9,0,0,1-1.8.7,2.5,2.5,0,0,1-1.8-.7,2,2,0,0,1-.7-1.6,2,2,0,0,1,.4-1.3A1.7,1.7,0,0,1,1017.4,382.7Zm-.4,1.9a1.2,1.2,0,0,0,.7,1.3l.8.2a1.4,1.4,0,0,0,1.5-1.5,1.4,1.4,0,0,0-.4-1.1,1.5,1.5,0,0,0-1.1-.4,1.4,1.4,0,0,0-1.5,1.5Zm.3-3.5a1.4,1.4,0,0,0,.3.9,1.2,1.2,0,0,0,.9.3,1.6,1.6,0,0,0,.9-.3,1.4,1.4,0,0,0,.3-.9,1.1,1.1,0,0,0-.3-.8,1.8,1.8,0,0,0-.9-.4,1.3,1.3,0,0,0-.9.4A1.1,1.1,0,0,0,1017.3,381.1Z" fill="#7b7c7f"/><path d="M1022.1,375.9v-1.8h1.6v1.4a5.1,5.1,0,0,1-.2,1.6,2.5,2.5,0,0,1-1.2,1.1l-.4-.6a.9.9,0,0,0,.7-.6,2,2,0,0,0,.3-1.1Zm2.6,0v-1.8h1.7v1.4a3,3,0,0,1-.3,1.6,2,2,0,0,1-1.1,1.1l-.4-.6a1.3,1.3,0,0,0,.7-.6,3.6,3.6,0,0,0,.2-1.1Z" fill="#7b7c7f"/><g clip-path="url(#clip-path-2)"><line x1="770.3" y1="376.2" x2="770.3" y2="386.7" fill="none" stroke="#7b7c7f" stroke-miterlimit="10"/><line x1="775.5" y1="381.5" x2="843.7" y2="381.5" fill="none" stroke="#7b7c7f" stroke-miterlimit="10"/><line x1="864.6" y1="381.5" x2="932.8" y2="381.5" fill="none" stroke="#7b7c7f" stroke-miterlimit="10"/></g><path d="M1080,205.1l.9-.2a2.7,2.7,0,0,0,.5,1.2,1.7,1.7,0,0,0,1,.3,1.5,1.5,0,0,0,1.1-.4,1.6,1.6,0,0,0,.4-1.2,1.3,1.3,0,0,0-.4-1,1.4,1.4,0,0,0-1.1-.4h-.6v-.8h.2a1.9,1.9,0,0,0,1-.3,1.1,1.1,0,0,0,.5-1,.9.9,0,0,0-.4-.8,1.1,1.1,0,0,0-.8-.3,1.2,1.2,0,0,0-.9.3,1.6,1.6,0,0,0-.5,1h-.9a2.4,2.4,0,0,1,.7-1.5,2.5,2.5,0,0,1,1.5-.5,2.7,2.7,0,0,1,1.2.3,1.8,1.8,0,0,1,.8.7,3,3,0,0,1,.2,1,1.9,1.9,0,0,1-.2.8,2.7,2.7,0,0,1-.8.7,1.7,1.7,0,0,1,1,.6,1.6,1.6,0,0,1,.4,1.2,2.2,2.2,0,0,1-.7,1.7,2.9,2.9,0,0,1-1.8.7,2.5,2.5,0,0,1-1.7-.6A2.1,2.1,0,0,1,1080,205.1Z" fill="#7b7c7f"/><path d="M1081.4,212.8l9.4-13.2h1.3l-9.3,13.2Z" fill="#7b7c7f"/><path d="M1089.9,208.2a1.6,1.6,0,0,1-.8-.6,1.4,1.4,0,0,1-.3-.9,1.8,1.8,0,0,1,.6-1.4,2.1,2.1,0,0,1,1.6-.6,2.3,2.3,0,0,1,1.6.6,2,2,0,0,1,.6,1.4,1.2,1.2,0,0,1-.3.9,1.6,1.6,0,0,1-.8.6,2.6,2.6,0,0,1,1,.7,2.8,2.8,0,0,1,.4,1.2,2.6,2.6,0,0,1-.7,1.7,3,3,0,0,1-3.6,0,2.2,2.2,0,0,1-.7-1.7,1.6,1.6,0,0,1,.4-1.2A1.8,1.8,0,0,1,1089.9,208.2Zm-.4,1.9a1.2,1.2,0,0,0,.2.8l.5.6.8.2a1.6,1.6,0,0,0,1.1-.5,1.4,1.4,0,0,0,.4-1.1,1.5,1.5,0,0,0-.4-1.1,2.1,2.1,0,0,0-1.1-.4,1.8,1.8,0,0,0-1.1.4A1.5,1.5,0,0,0,1089.5,210.1Zm.3-3.4a1.1,1.1,0,0,0,.3.8,1.3,1.3,0,0,0,.9.4,1.5,1.5,0,0,0,.9-.4,1.2,1.2,0,0,0,0-1.6,1.3,1.3,0,0,0-1.8-.1A1.4,1.4,0,0,0,1089.8,206.7Z" fill="#7b7c7f"/><path d="M1094.6,201.4v-1.8h1.6v1.5a3.4,3.4,0,0,1-.2,1.6,2.3,2.3,0,0,1-1.2,1l-.3-.6a.9.9,0,0,0,.6-.6,1.6,1.6,0,0,0,.3-1.1Zm2.6,0v-1.8h1.7v1.5a3.2,3.2,0,0,1-.3,1.6,1.8,1.8,0,0,1-1.1,1l-.4-.6a1.3,1.3,0,0,0,.7-.6,2.7,2.7,0,0,0,.2-1.1Z" fill="#7b7c7f"/><path d="M853.4,386.7v-3H848v-1.4l5.7-8.1h1.2v8.1h1.7v1.4h-1.7v3Zm0-4.4v-5.6l-3.9,5.6Z" fill="#7b7c7f"/><path d="M857.8,375.9v-1.8h1.6v1.4a3,3,0,0,1-.3,1.6,2,2,0,0,1-1.1,1.1l-.4-.6a1.1,1.1,0,0,0,.7-.6,3.5,3.5,0,0,0,.3-1.1Zm2.6,0v-1.8H862v1.4a3.2,3.2,0,0,1-.2,1.6,2.2,2.2,0,0,1-1.2,1.1l-.3-.6a.9.9,0,0,0,.6-.6,2,2,0,0,0,.3-1.1Z" fill="#7b7c7f"/><g clip-path="url(#clip-path-2)"><line x1="560.6" y1="376.2" x2="560.6" y2="386.7" fill="none" stroke="#7b7c7f" stroke-miterlimit="10"/><line x1="565.9" y1="381.5" x2="655" y2="381.5" fill="none" stroke="#7b7c7f" stroke-miterlimit="10"/><line x1="675.9" y1="381.5" x2="765.1" y2="381.5" fill="none" stroke="#7b7c7f" stroke-miterlimit="10"/></g><path d="M659.8,383.4h1.6a3,3,0,0,0,.8,1.8,2.4,2.4,0,0,0,3.5-.3,3.1,3.1,0,0,0,.7-2.2,3,3,0,0,0-.7-2.1,2.5,2.5,0,0,0-1.9-.7,3.2,3.2,0,0,0-1.4.3,2.6,2.6,0,0,0-.9.9l-1.4-.2,1.2-6.4h6.2v1.5h-5l-.7,3.3a4.6,4.6,0,0,1,2.4-.8,3.4,3.4,0,0,1,2.7,1.2,3.7,3.7,0,0,1,1.2,2.9,4.8,4.8,0,0,1-1,2.9,4,4,0,0,1-3.3,1.5,4.3,4.3,0,0,1-2.8-.9A4,4,0,0,1,659.8,383.4Z" fill="#7b7c7f"/><path d="M669.1,375.9v-1.8h1.6v1.4a3,3,0,0,1-.3,1.6,2,2,0,0,1-1.1,1.1l-.4-.6a1.1,1.1,0,0,0,.7-.6,3.5,3.5,0,0,0,.3-1.1Zm2.6,0v-1.8h1.6v1.4a3.2,3.2,0,0,1-.2,1.6,2.2,2.2,0,0,1-1.2,1.1l-.3-.6a1.3,1.3,0,0,0,.7-.6,3.6,3.6,0,0,0,.2-1.1Z" fill="#7b7c7f"/><g clip-path="url(#clip-path-2)"><line x1="392.9" y1="376.2" x2="392.9" y2="386.7" fill="none" stroke="#7b7c7f" stroke-miterlimit="10"/><line x1="398.1" y1="381.5" x2="466.3" y2="381.5" fill="none" stroke="#7b7c7f" stroke-miterlimit="10"/><line x1="487.2" y1="381.5" x2="555.4" y2="381.5" fill="none" stroke="#7b7c7f" stroke-miterlimit="10"/></g><path d="M477.2,386.7v-3h-5.5v-1.4l5.8-8.1h1.2v8.1h1.7v1.4h-1.7v3Zm0-4.4v-5.6l-3.9,5.6Z" fill="#7b7c7f"/><path d="M481.5,375.9v-1.8h1.7v1.4a3,3,0,0,1-.3,1.6,2,2,0,0,1-1.1,1.1l-.4-.6a1.3,1.3,0,0,0,.7-.6,3.6,3.6,0,0,0,.2-1.1Zm2.7,0v-1.8h1.6v1.4a5.1,5.1,0,0,1-.2,1.6,2.5,2.5,0,0,1-1.2,1.1l-.4-.6a1.1,1.1,0,0,0,.7-.6,2,2,0,0,0,.3-1.1Z" fill="#7b7c7f"/><g clip-path="url(#clip-path-2)"><line x1="199" y1="376.2" x2="199" y2="386.7" fill="none" stroke="#7b7c7f" stroke-miterlimit="10"/><line x1="309" y1="381.5" x2="387.7" y2="381.5" fill="none" stroke="#7b7c7f" stroke-miterlimit="10"/></g><path d="M286.1,386.7v-3h-5.4v-1.4l5.7-8.1h1.3v8.1h1.7v1.4h-1.7v3Zm0-4.4v-5.6l-3.9,5.6Z" fill="#7b7c7f"/><path d="M292.3,379.5h1a1.3,1.3,0,0,0,.5,1.1,1.3,1.3,0,0,0,.9.4,1.6,1.6,0,0,0,1.1-.5,2.2,2.2,0,0,0,.5-1.4,1.7,1.7,0,0,0-.5-1.2,1.3,1.3,0,0,0-1.1-.5l-.8.2-.6.5h-.8l.7-3.8h3.7v.9h-3l-.4,2a2.7,2.7,0,0,1,1.4-.5,2.2,2.2,0,0,1,1.7.7,2.4,2.4,0,0,1,.7,1.7,2.8,2.8,0,0,1-.6,1.8,2.7,2.7,0,0,1-3.7.3A2.4,2.4,0,0,1,292.3,379.5Z" fill="#7b7c7f"/><path d="M293.7,387.2l9.4-13.2h1.4l-9.4,13.2Z" fill="#7b7c7f"/><path d="M302.3,382.7l-.9-.6a1.7,1.7,0,0,1-.3-1,2,2,0,0,1,.6-1.4,2.5,2.5,0,0,1,1.6-.5,2.3,2.3,0,0,1,1.6.6,1.7,1.7,0,0,1,.6,1.4,1.6,1.6,0,0,1-.3.9l-.8.6a1.4,1.4,0,0,1,1,.7,1.6,1.6,0,0,1,.4,1.2,2,2,0,0,1-.7,1.6,2.7,2.7,0,0,1-3.6,0,2.4,2.4,0,0,1-.7-1.6,2.8,2.8,0,0,1,.4-1.3A2,2,0,0,1,302.3,382.7Zm-.5,1.9a1,1,0,0,0,.2.7,1,1,0,0,0,.5.6l.8.2a1.4,1.4,0,0,0,1.1-.4,1.5,1.5,0,0,0,.4-1.1,1.4,1.4,0,0,0-.4-1.1,1.7,1.7,0,0,0-2.2,0A1.4,1.4,0,0,0,301.8,384.6Zm.3-3.5a1.4,1.4,0,0,0,.3.9,1.5,1.5,0,0,0,1.8,0,1.4,1.4,0,0,0,.3-.9,1.1,1.1,0,0,0-.3-.8,1.8,1.8,0,0,0-.9-.4,1.5,1.5,0,0,0-.9.4A1.1,1.1,0,0,0,302.1,381.1Z" fill="#7b7c7f"/><path d="M306.9,375.9v-1.8h1.7v1.4a3,3,0,0,1-.3,1.6,2.2,2.2,0,0,1-1.2,1.1l-.3-.6a1.3,1.3,0,0,0,.7-.6,3.6,3.6,0,0,0,.2-1.1Zm2.7,0v-1.8h1.6v1.4a3,3,0,0,1-.3,1.6,2,2,0,0,1-1.1,1.1l-.4-.6a1.1,1.1,0,0,0,.7-.6,3.5,3.5,0,0,0,.3-1.1Z" fill="#7b7c7f"/><g clip-path="url(#clip-path-2)"><line x1="204.2" y1="381.5" x2="277.6" y2="381.5" fill="none" stroke="#7b7c7f" stroke-miterlimit="10"/><line x1="36.5" y1="376.2" x2="36.5" y2="386.7" fill="none" stroke="#7b7c7f" stroke-miterlimit="10"/><line x1="41.7" y1="381.5" x2="109.9" y2="381.5" fill="none" stroke="#7b7c7f" stroke-miterlimit="10"/><line x1="130.8" y1="381.5" x2="193.7" y2="381.5" fill="none" stroke="#7b7c7f" stroke-miterlimit="10"/><line x1="36.5" y1="392" x2="36.5" y2="413.3" fill="none" stroke="#7b7c7f" stroke-miterlimit="10"/><line x1="1095.3" y1="324.1" x2="1095.3" y2="412.9" fill="none" stroke="#7b7c7f" stroke-miterlimit="10"/><line x1="41.7" y1="402.5" x2="544.9" y2="402.5" fill="none" stroke="#7b7c7f" stroke-miterlimit="10"/></g><path d="M556.6,406.2v1.5h-8.3a4.3,4.3,0,0,1,.2-1.1,7,7,0,0,1,1-1.6,18.8,18.8,0,0,1,2-1.9,14.6,14.6,0,0,0,2.8-2.7,2.7,2.7,0,0,0,.7-1.8,2.3,2.3,0,0,0-.6-1.6,2.5,2.5,0,0,0-1.7-.6,2.4,2.4,0,0,0-2.5,2.5h-1.6a3.5,3.5,0,0,1,1.3-2.7,3.7,3.7,0,0,1,2.8-1,4.1,4.1,0,0,1,2.8,1,3.4,3.4,0,0,1,1.1,2.5,4,4,0,0,1-.3,1.5,6.5,6.5,0,0,1-1,1.5,31.1,31.1,0,0,1-2.4,2.2l-1.8,1.6c-.2.3-.5.5-.6.8Z" fill="#7b7c7f"/><path d="M564.8,407.7v-3h-5.4v-1.4l5.7-8.1h1.2v8.1H568v1.4h-1.7v3Zm0-4.4v-5.6l-3.9,5.6Z" fill="#7b7c7f"/><path d="M574.4,402.4h-.9v-5.8l-.9.6-.9.5v-.9a3.8,3.8,0,0,0,1.3-.9,2.4,2.4,0,0,0,.8-1h.6Z" fill="#7b7c7f"/><path d="M572.4,408.2l9.4-13.2h1.3l-9.4,13.2Z" fill="#7b7c7f"/><path d="M582.5,407.7v-1.8h-3.3v-.8l3.4-4.9h.8v4.9h1v.8h-1v1.8Zm0-2.6v-3.4l-2.4,3.4Z" fill="#7b7c7f"/><path d="M585.6,396.8v-1.7h1.6v1.4a5.7,5.7,0,0,1-.2,1.6,3.2,3.2,0,0,1-1.2,1.1l-.4-.7a1,1,0,0,0,.7-.5,2.1,2.1,0,0,0,.3-1.2Zm2.6,0v-1.7h1.7v1.4a3.2,3.2,0,0,1-.3,1.6,2.3,2.3,0,0,1-1.1,1.1l-.4-.7a1.8,1.8,0,0,0,.7-.5,3.7,3.7,0,0,0,.2-1.2Z" fill="#7b7c7f"/><g clip-path="url(#clip-path-8)"><path d="M1094.3,317.6h-19V277.7h19Zm1-40.9h-21v41.9h21Z" fill="#f17299"/></g><g clip-path="url(#clip-path-2)"><rect x="1079.5" y="276.7" width="15.7" height="41.93" fill="none" stroke="#f17299" stroke-miterlimit="10"/><line x1="1100.5" y1="276.7" x2="1111" y2="276.7" fill="none" stroke="#7b7c7f" stroke-miterlimit="10"/><line x1="1100.5" y1="318.6" x2="1111" y2="318.6" fill="none" stroke="#7b7c7f" stroke-miterlimit="10"/><line x1="1105.8" y1="281.9" x2="1105.8" y2="292.4" fill="none" stroke="#7b7c7f" stroke-miterlimit="10"/><line x1="1105.8" y1="313.3" x2="1105.8" y2="302.9" fill="none" stroke="#7b7c7f" stroke-miterlimit="10"/></g><path d="M1111,297.7v1.2h-7.8l.8,1.1a6.9,6.9,0,0,1,.6,1.3h-1.1l-1.2-1.8a6.7,6.7,0,0,0-1.4-1.1v-.7Z" fill="#7b7c7f"/><path d="M1102.3,292.7h-1.4v-1.3h1.1l1.3.2a1.8,1.8,0,0,1,.9,1l-.5.3a1,1,0,0,0-.5-.6l-.9-.2Zm0,2.2h-1.4v-1.4h1.1a2.1,2.1,0,0,1,1.3.3,2,2,0,0,1,.9.9l-.5.3a1,1,0,0,0-.5-.6l-.9-.2Z" fill="#7b7c7f"/><g clip-path="url(#clip-path-2)"><line x1="178" y1="276.7" x2="188.5" y2="276.7" fill="none" stroke="#7b7c7f" stroke-miterlimit="10"/><line x1="178" y1="318.6" x2="188.5" y2="318.6" fill="none" stroke="#7b7c7f" stroke-miterlimit="10"/><line x1="183.2" y1="281.9" x2="183.2" y2="292.4" fill="none" stroke="#7b7c7f" stroke-miterlimit="10"/><line x1="183.2" y1="313.3" x2="183.2" y2="302.9" fill="none" stroke="#7b7c7f" stroke-miterlimit="10"/></g><path d="M188.5,297.5v1.6h-9.8l1.1,1.4a7.1,7.1,0,0,1,.7,1.6h-1.4a8.6,8.6,0,0,0-1.5-2.2,5.3,5.3,0,0,0-1.7-1.4v-1Z" fill="#7b7c7f"/><path d="M177.6,291.4h-1.8v-1.7h1.5a3.2,3.2,0,0,1,1.6.3,1.8,1.8,0,0,1,1,1.1l-.6.4a1.3,1.3,0,0,0-.6-.7l-1.1-.2Zm0,2.6h-1.8v-1.6h1.5l1.6.2a2.3,2.3,0,0,1,1,1.2l-.6.4a1.1,1.1,0,0,0-.6-.7,1.6,1.6,0,0,0-1.1-.3Z" fill="#7b7c7f"/><g clip-path="url(#clip-path-2)"><line x1="199" y1="219" x2="199" y2="213.8" fill="none" stroke="#7b7c7f" stroke-miterlimit="10"/><line x1="193.7" y1="219" x2="193.7" y2="213.8" fill="none" stroke="#7b7c7f" stroke-miterlimit="10"/></g><path d="M192.8,207h-1v-5.8l-.8.6-1,.5v-.9a6.7,6.7,0,0,0,1.4-.9l.8-1h.6Z" fill="#7b7c7f"/><path d="M190.7,212.8l9.4-13.2h1.4l-9.4,13.2Z" fill="#7b7c7f"/><path d="M199.3,208.2a1.5,1.5,0,0,1-.9-.6,1.4,1.4,0,0,1-.3-.9,1.8,1.8,0,0,1,.6-1.4,2.4,2.4,0,0,1,3.2,0,2,2,0,0,1,.6,1.4,1.2,1.2,0,0,1-.3.9,1.6,1.6,0,0,1-.8.6,2.6,2.6,0,0,1,1,.7,1.9,1.9,0,0,1,.4,1.2,2.2,2.2,0,0,1-.7,1.7,2.4,2.4,0,0,1-1.8.6,2.8,2.8,0,0,1-1.8-.6,2.6,2.6,0,0,1-.7-1.7,2.1,2.1,0,0,1,.4-1.2A2.1,2.1,0,0,1,199.3,208.2Zm-.5,1.9a2.4,2.4,0,0,0,.2.8l.5.6.8.2a1.4,1.4,0,0,0,1.1-.5,1.4,1.4,0,0,0,.4-1.1,1.5,1.5,0,0,0-.4-1.1,1.7,1.7,0,0,0-2.2,0A1.5,1.5,0,0,0,198.8,210.1Zm.3-3.4a1.1,1.1,0,0,0,.3.8,1.8,1.8,0,0,0,.9.4,1.3,1.3,0,0,0,.9-.4,1.2,1.2,0,0,0,0-1.6,1.1,1.1,0,0,0-.9-.4,1.6,1.6,0,0,0-.9.3A1.4,1.4,0,0,0,199.1,206.7Z" fill="#7b7c7f"/><path d="M203.9,201.4v-1.8h1.7v1.5a3.2,3.2,0,0,1-.3,1.6,1.8,1.8,0,0,1-1.1,1l-.4-.6a1.3,1.3,0,0,0,.7-.6,2.7,2.7,0,0,0,.2-1.1Zm2.7,0v-1.8h1.6v1.5a3.2,3.2,0,0,1-.3,1.6,1.8,1.8,0,0,1-1.1,1l-.4-.6a1.1,1.1,0,0,0,.7-.6c.2-.2.2-.6.3-1.1Z" fill="#7b7c7f"/><g clip-path="url(#clip-path-2)"><line x1="193.7" y1="216.4" x2="199" y2="216.4" fill="none" stroke="#7b7c7f" stroke-miterlimit="10"/><line x1="628.8" y1="219" x2="628.8" y2="208.5" fill="none" stroke="#7b7c7f" stroke-miterlimit="10"/><line x1="738.8" y1="219" x2="738.8" y2="208.5" fill="none" stroke="#7b7c7f" stroke-miterlimit="10"/><line x1="634" y1="213.8" x2="666.5" y2="213.8" fill="none" stroke="#7b7c7f" stroke-miterlimit="10"/><line x1="733.6" y1="213.8" x2="700.3" y2="213.8" fill="none" stroke="#7b7c7f" stroke-miterlimit="10"/></g><path d="M679.1,217.5V219h-8.2a2.2,2.2,0,0,1,.2-1.1,4.7,4.7,0,0,1,1-1.6,9.3,9.3,0,0,1,2-1.9,13.4,13.4,0,0,0,2.7-2.7,2.9,2.9,0,0,0,.8-1.8,2.6,2.6,0,0,0-.7-1.6,2.4,2.4,0,0,0-1.7-.6,2.4,2.4,0,0,0-1.8.7,3,3,0,0,0-.7,1.8h-1.5a3.8,3.8,0,0,1,1.2-2.7,3.7,3.7,0,0,1,2.8-1,4.4,4.4,0,0,1,2.9,1,3.3,3.3,0,0,1,1,2.5,4,4,0,0,1-.3,1.5,4.4,4.4,0,0,1-1,1.5,31.1,31.1,0,0,1-2.4,2.2,14.6,14.6,0,0,0-1.7,1.6l-.7.8Z" fill="#7b7c7f"/><path d="M682.1,211.8h1a2.8,2.8,0,0,0,.5,1.1l.9.3a1.4,1.4,0,0,0,1.1-.4,1.6,1.6,0,0,0,.5-1.1,1.8,1.8,0,0,0-.4-1.1,1.5,1.5,0,0,0-1.1-.4H684v-.8h.1a2,2,0,0,0,1.1-.3,1.1,1.1,0,0,0,.4-1,1.1,1.1,0,0,0-.3-.8,1.2,1.2,0,0,0-.9-.3,1.6,1.6,0,0,0-.9.3,1.5,1.5,0,0,0-.4,1h-1a3.1,3.1,0,0,1,.8-1.5,2.5,2.5,0,0,1,1.5-.5,2,2,0,0,1,1.1.3,1.9,1.9,0,0,1,.8.7,1.7,1.7,0,0,1,.3,1,1.6,1.6,0,0,1-.3.9,2.2,2.2,0,0,1-.7.6,2.1,2.1,0,0,1,1,.6,2.5,2.5,0,0,1,.4,1.2,2.3,2.3,0,0,1-.8,1.7,2.1,2.1,0,0,1-1.8.7,2.3,2.3,0,0,1-1.6-.6A2.8,2.8,0,0,1,682.1,211.8Z" fill="#7b7c7f"/><path d="M683.6,219.5l9.4-13.2h1.3l-9.4,13.2Z" fill="#7b7c7f"/><path d="M692.1,214.9a1,1,0,0,1-.8-.6,1.2,1.2,0,0,1-.3-.9,1.9,1.9,0,0,1,2.1-1.9,2.5,2.5,0,0,1,1.6.5,2,2,0,0,1,.6,1.4,1.2,1.2,0,0,1-.3.9,1,1,0,0,1-.8.6,2.3,2.3,0,0,1,1.1.8,2.3,2.3,0,0,1-.4,2.8,2.4,2.4,0,0,1-1.7.6,2.4,2.4,0,0,1-1.8-.6,2.2,2.2,0,0,1-.7-1.7,1.6,1.6,0,0,1,.4-1.2A1.8,1.8,0,0,1,692.1,214.9Zm-.5,1.9a2.4,2.4,0,0,0,.2.8l.6.6.8.2a1.6,1.6,0,0,0,1.1-.5,1.5,1.5,0,0,0,.4-1,1.4,1.4,0,0,0-.5-1.1,1.3,1.3,0,0,0-1.1-.5,1.8,1.8,0,0,0-1.5,1.5Zm.3-3.4a.9.9,0,0,0,.4.8,1,1,0,0,0,.9.4,1.2,1.2,0,0,0,0-2.4,1,1,0,0,0-.9.4A.9.9,0,0,0,691.9,213.4Z" fill="#7b7c7f"/><path d="M696.8,208.1v-1.7h1.6v1.4a3.2,3.2,0,0,1-.3,1.6,2.3,2.3,0,0,1-1.1,1.1l-.4-.6a2.2,2.2,0,0,0,.7-.6,3.5,3.5,0,0,0,.3-1.2Zm2.6,0v-1.7h1.7v1.4a3.2,3.2,0,0,1-.3,1.6,2.6,2.6,0,0,1-1.2,1.1l-.3-.6.7-.6a3.7,3.7,0,0,0,.2-1.2Z" fill="#7b7c7f"/><g clip-path="url(#clip-path-2)"><line x1="791.3" y1="219" x2="791.3" y2="208.5" fill="none" stroke="#7b7c7f" stroke-miterlimit="10"/><line x1="854.2" y1="219" x2="854.2" y2="208.5" fill="none" stroke="#7b7c7f" stroke-miterlimit="10"/><line x1="796.5" y1="213.8" x2="809.9" y2="213.8" fill="none" stroke="#7b7c7f" stroke-miterlimit="10"/><line x1="848.9" y1="213.8" x2="836.1" y2="213.8" fill="none" stroke="#7b7c7f" stroke-miterlimit="10"/></g><path d="M816.5,219H815v-9.8l-1.4,1.1-1.7.8v-1.5a9.1,9.1,0,0,0,2.3-1.5,7,7,0,0,0,1.4-1.7h.9Z" fill="#7b7c7f"/><path d="M823.1,213.8h-1v-5.9l-.8.6-1,.5v-.9a4.2,4.2,0,0,0,1.4-.9l.8-1h.6Z" fill="#7b7c7f"/><path d="M820.7,219.5l9.4-13.2h1.4l-9.4,13.2Z" fill="#7b7c7f"/><path d="M832.7,218.1v.9h-5a1.4,1.4,0,0,1,.2-.6,2.1,2.1,0,0,1,.6-1,4.5,4.5,0,0,1,1.2-1.2,7.9,7.9,0,0,0,1.6-1.6,1.7,1.7,0,0,0,.4-1.1,1.6,1.6,0,0,0-.3-.9,1.8,1.8,0,0,0-1.1-.4,1.5,1.5,0,0,0-1,.4,1.5,1.5,0,0,0-.4,1.1h-1a2.6,2.6,0,0,1,.7-1.6,2.6,2.6,0,0,1,1.8-.5,2.5,2.5,0,0,1,1.7.6,2,2,0,0,1,.6,1.4,2.9,2.9,0,0,1-.2.9,2.4,2.4,0,0,1-.6.9,18.2,18.2,0,0,1-1.4,1.4l-1.1.9-.4.5Z" fill="#7b7c7f"/><path d="M833.9,208.1v-1.7h1.7v1.4a3.2,3.2,0,0,1-.3,1.6,2.3,2.3,0,0,1-1.1,1.1l-.4-.6.7-.6a3.7,3.7,0,0,0,.2-1.2Zm2.7,0v-1.7h1.6v1.4a5.7,5.7,0,0,1-.2,1.6,3.2,3.2,0,0,1-1.2,1.1l-.4-.6a2.2,2.2,0,0,0,.7-.6,2.1,2.1,0,0,0,.3-1.2Z" fill="#7b7c7f"/><g clip-path="url(#clip-path-2)"><line x1="738.8" y1="276.7" x2="738.8" y2="229.5" fill="none" stroke="#f17299" stroke-miterlimit="10"/><line x1="628.8" y1="276.7" x2="628.8" y2="229.5" fill="none" stroke="#f17299" stroke-miterlimit="10"/><line x1="791.3" y1="281.9" x2="791.3" y2="229.5" fill="none" stroke="#f17299" stroke-miterlimit="10"/><line x1="854.2" y1="281.9" x2="854.2" y2="229.5" fill="none" stroke="#f17299" stroke-miterlimit="10"/><line x1="193.7" y1="271.4" x2="193.7" y2="229.5" fill="none" stroke="#7b7c7f" stroke-miterlimit="10"/></g><path d="M120.7,386.7v-3h-5.4v-1.4l5.7-8.1h1.3v8.1H124v1.4h-1.7v3Zm0-4.4v-5.6l-3.9,5.6Z" fill="#7b7c7f"/><path d="M125.1,375.9v-1.8h1.6v1.4a3.2,3.2,0,0,1-.2,1.6,2.2,2.2,0,0,1-1.2,1.1l-.3-.6a1.3,1.3,0,0,0,.7-.6,3.6,3.6,0,0,0,.2-1.1Zm2.6,0v-1.8h1.7v1.4a3,3,0,0,1-.3,1.6,2,2,0,0,1-1.1,1.1l-.4-.6a1.3,1.3,0,0,0,.7-.6,3.6,3.6,0,0,0,.2-1.1Z" fill="#7b7c7f"/><g clip-path="url(#clip-path-2)"><line x1="586.8" y1="402.5" x2="1090" y2="402.5" fill="none" stroke="#7b7c7f" stroke-miterlimit="10"/><line x1="1079.5" y1="213.8" x2="1079.5" y2="219" fill="none" stroke="#7b7c7f" stroke-miterlimit="10"/><line x1="1079.5" y1="216.4" x2="1095.3" y2="216.4" fill="none" stroke="#7b7c7f" stroke-miterlimit="10"/><rect x="194.2" y="277.2" width="3.9" height="40.93" fill="#f17299"/><path d="M197.6,317.6h-2.9V277.7h2.9Zm1-40.9h-4.9v41.9h4.9Z" fill="#f17299"/></g></g><circle cx="577.2" cy="70.1" r="68.1" fill="#1e6550"/><circle cx="737.5" cy="70.1" r="68.1" fill="#fff200"/><path d="M172.7,481.4V469.2h1.6V480h6v1.4Z" fill="#7b7c7f"/><path d="M189.7,478.6h1.5a3.8,3.8,0,0,1-1.3,2.1,4.2,4.2,0,0,1-2.6.8,3.9,3.9,0,0,1-3-1.2,4.5,4.5,0,0,1-1.2-3.3,4.8,4.8,0,0,1,1.2-3.5,3.9,3.9,0,0,1,3-1.2,3.6,3.6,0,0,1,2.8,1.2,4.5,4.5,0,0,1,1.2,3.4v.4h-6.6a3.1,3.1,0,0,0,.8,2.2,2.6,2.6,0,0,0,1.9.8,2.4,2.4,0,0,0,1.4-.5A4.8,4.8,0,0,0,189.7,478.6Zm-4.9-2.5h4.9a3,3,0,0,0-.6-1.6,2.1,2.1,0,0,0-1.8-.9,2.4,2.4,0,0,0-1.8.7A2.9,2.9,0,0,0,184.8,476.1Z" fill="#7b7c7f"/><path d="M194.4,482.1l1.5.2a1.1,1.1,0,0,0,.5,1,2.1,2.1,0,0,0,1.5.4,2.5,2.5,0,0,0,1.6-.4,1.9,1.9,0,0,0,.7-1.2,6.6,6.6,0,0,0,.2-1.9,3.2,3.2,0,0,1-2.5,1.2,3.6,3.6,0,0,1-2.8-1.3,4.9,4.9,0,0,1-1-3.2,5.9,5.9,0,0,1,.5-2.3,3.4,3.4,0,0,1,1.3-1.6,3.4,3.4,0,0,1,2-.6,3.2,3.2,0,0,1,2.6,1.2v-1h1.4v7.6a9,9,0,0,1-.4,2.9,3.8,3.8,0,0,1-1.4,1.4,4.8,4.8,0,0,1-2.2.5,4.2,4.2,0,0,1-2.6-.8A2.3,2.3,0,0,1,194.4,482.1Zm1.2-5.3a4.5,4.5,0,0,0,.7,2.6,2.4,2.4,0,0,0,1.8.7,2.3,2.3,0,0,0,1.7-.7,4.8,4.8,0,0,0,0-5,2.5,2.5,0,0,0-1.8-.8,2.5,2.5,0,0,0-1.7.8A4.3,4.3,0,0,0,195.6,476.8Z" fill="#7b7c7f"/><path d="M211.7,478.6h1.6a3.9,3.9,0,0,1-3.9,2.9,3.8,3.8,0,0,1-3-1.2,4.5,4.5,0,0,1-1.2-3.3,4.8,4.8,0,0,1,1.2-3.5,4.1,4.1,0,0,1,5.8,0,4.5,4.5,0,0,1,1.1,3.4v.4h-6.5a3.1,3.1,0,0,0,.8,2.2,2.5,2.5,0,0,0,1.8.8,2.2,2.2,0,0,0,1.4-.5A2.5,2.5,0,0,0,211.7,478.6Zm-4.9-2.5h5a3,3,0,0,0-.6-1.6,2.3,2.3,0,0,0-1.8-.9,2.4,2.4,0,0,0-1.8.7A3.7,3.7,0,0,0,206.8,476.1Z" fill="#7b7c7f"/><path d="M216.8,481.4v-8.8h1.3v1.2a3.2,3.2,0,0,1,2.8-1.4,4,4,0,0,1,1.5.3l1,.7a3.6,3.6,0,0,1,.4,1.1,5.8,5.8,0,0,1,.1,1.5v5.4h-1.5V476a2.4,2.4,0,0,0-.2-1.3,1.6,1.6,0,0,0-.6-.8l-1-.2a2.7,2.7,0,0,0-1.7.6,3.2,3.2,0,0,0-.6,2.3v4.8Z" fill="#7b7c7f"/><path d="M233.5,481.4v-1.1a3,3,0,0,1-2.5,1.3,3.3,3.3,0,0,1-1.9-.6,4.4,4.4,0,0,1-1.4-1.6,7.4,7.4,0,0,1,0-4.8A3,3,0,0,1,229,473a3.6,3.6,0,0,1,2-.6,3.2,3.2,0,0,1,1.4.3,2.8,2.8,0,0,1,1,.9v-4.4h1.5v12.2Zm-4.7-4.4a3.6,3.6,0,0,0,.7,2.5,2,2,0,0,0,3.3.1,3.7,3.7,0,0,0,.7-2.5,3.7,3.7,0,0,0-.7-2.6,2,2,0,0,0-1.7-.9,2.1,2.1,0,0,0-1.6.8A3.8,3.8,0,0,0,228.8,477Z" fill="#7b7c7f"/><path d="M239.7,500.3v-1.7h1.7v1.7Zm0,7.1v-1.7h1.7v1.7Z" fill="#7b7c7f"/><path d="M245.9,507.4V495.2h8.2v1.5h-6.6v3.7h5.7v1.5h-5.7v5.5Z" fill="#7b7c7f"/><path d="M257,503a4.4,4.4,0,0,1,1.4-3.6,3.6,3.6,0,0,1,2.7-1,4.1,4.1,0,0,1,3,1.2,4.5,4.5,0,0,1,1.2,3.3,4.8,4.8,0,0,1-.6,2.6,2.9,2.9,0,0,1-1.4,1.5,4.3,4.3,0,0,1-2.2.6,4.1,4.1,0,0,1-3-1.2A5,5,0,0,1,257,503Zm1.5,0a3.6,3.6,0,0,0,.8,2.5,2.3,2.3,0,0,0,1.8.9,2.3,2.3,0,0,0,1.9-.9,3.8,3.8,0,0,0,.7-2.6,3.3,3.3,0,0,0-.7-2.4,2.3,2.3,0,0,0-1.9-.9,2.3,2.3,0,0,0-1.8.9A3.6,3.6,0,0,0,258.5,503Z" fill="#7b7c7f"/><path d="M268.6,507.4V495.2h1.5v12.2Z" fill="#7b7c7f"/><path d="M279.7,507.4v-1.1a3,3,0,0,1-2.5,1.3,3.3,3.3,0,0,1-1.9-.6,3.6,3.6,0,0,1-1.4-1.6,6,6,0,0,1,0-4.8,3,3,0,0,1,1.3-1.6,3.4,3.4,0,0,1,2-.6,3.2,3.2,0,0,1,1.4.3,2.8,2.8,0,0,1,1,.9v-4.4h1.5v12.2ZM275,503a3.6,3.6,0,0,0,.7,2.5,2,2,0,0,0,1.7.9,2.1,2.1,0,0,0,1.6-.8,3.7,3.7,0,0,0,.7-2.5,3.7,3.7,0,0,0-.7-2.6,2.1,2.1,0,0,0-1.7-.9,2.3,2.3,0,0,0-1.7.8A4.5,4.5,0,0,0,275,503Z" fill="#7b7c7f"/><path d="M291.4,507.4V495.2h1.7V506H299v1.4Z" fill="#7b7c7f"/><path d="M302.4,496.9v-1.7h1.5v1.7Zm0,10.5v-8.8h1.5v8.8Z" fill="#7b7c7f"/><path d="M307.7,507.4v-8.8h1.4v1.2a3.1,3.1,0,0,1,2.8-1.4,3.2,3.2,0,0,1,1.4.3,2,2,0,0,1,1,.7,2.2,2.2,0,0,1,.5,1.1c0,.3.1.8.1,1.5v5.4h-1.5V502a3.9,3.9,0,0,0-.2-1.3,1.6,1.6,0,0,0-.6-.8l-1-.2a2.5,2.5,0,0,0-1.7.6c-.5.4-.7,1.1-.7,2.3v4.8Z" fill="#7b7c7f"/><path d="M324.8,504.6h1.5a3.8,3.8,0,0,1-1.3,2.1,4.1,4.1,0,0,1-2.5.8,4,4,0,0,1-3.1-1.2,4.4,4.4,0,0,1-1.1-3.3,4.8,4.8,0,0,1,1.1-3.5,4.1,4.1,0,0,1,3-1.2,3.8,3.8,0,0,1,2.9,1.2,5,5,0,0,1,1.1,3.4v.4h-6.6a3.6,3.6,0,0,0,.8,2.2,2.6,2.6,0,0,0,1.9.8,2.4,2.4,0,0,0,1.4-.5A2.5,2.5,0,0,0,324.8,504.6Zm-4.9-2.5h4.9a3,3,0,0,0-.6-1.6,2.1,2.1,0,0,0-1.8-.9,2.1,2.1,0,0,0-1.7.7A2.5,2.5,0,0,0,319.9,502.1Z" fill="#7b7c7f"/><path d="M239.7,526.3v-1.7h1.7v1.7Zm0,7.1v-1.7h1.7v1.7Z" fill="#7b7c7f"/><path d="M245.8,533.4V521.2H250l2.1.2a5.1,5.1,0,0,1,1.8.9,4.7,4.7,0,0,1,1.5,2.1,8.2,8.2,0,0,1,.4,2.8,9,9,0,0,1-.3,2.5,7.5,7.5,0,0,1-.8,1.8l-1.1,1.1-1.5.6-1.9.2Zm1.6-1.4H250a5,5,0,0,0,1.9-.3,2.4,2.4,0,0,0,1.1-.6,9.9,9.9,0,0,0,.9-1.5,8.8,8.8,0,0,0,.3-2.4,5.7,5.7,0,0,0-.6-2.9,3.5,3.5,0,0,0-1.6-1.4,5.6,5.6,0,0,0-2.1-.2h-2.5Z" fill="#7b7c7f"/><path d="M259.5,522.9v-1.7H261v1.7Zm0,10.5v-8.8H261v8.8Z" fill="#7b7c7f"/><path d="M270.8,530.6h1.6a3.9,3.9,0,0,1-3.9,2.9,3.8,3.8,0,0,1-3-1.2,4.5,4.5,0,0,1-1.2-3.3,4.8,4.8,0,0,1,1.2-3.5,4.1,4.1,0,0,1,5.8,0,4.5,4.5,0,0,1,1.1,3.4v.4h-6.5a3.1,3.1,0,0,0,.8,2.2,2.5,2.5,0,0,0,1.8.8,2.2,2.2,0,0,0,1.4-.5A2.5,2.5,0,0,0,270.8,530.6Zm-4.9-2.5h5a3,3,0,0,0-.6-1.6,2.3,2.3,0,0,0-1.8-.9,2.4,2.4,0,0,0-1.8.7A3.7,3.7,0,0,0,265.9,528.1Z" fill="#7b7c7f"/><path d="M282.3,533.4V521.2h1.6V532h6v1.4Z" fill="#7b7c7f"/><path d="M293.2,522.9v-1.7h1.5v1.7Zm0,10.5v-8.8h1.5v8.8Z" fill="#7b7c7f"/><path d="M298.6,533.4v-8.8h1.3v1.2a3.4,3.4,0,0,1,2.8-1.4,3.7,3.7,0,0,1,1.5.3,2.6,2.6,0,0,1,1,.7,2.1,2.1,0,0,1,.4,1.1,5.8,5.8,0,0,1,.1,1.5v5.4h-1.5V528a4.5,4.5,0,0,0-.1-1.3,2.7,2.7,0,0,0-.7-.8l-1-.2a2.3,2.3,0,0,0-1.6.6c-.5.4-.7,1.1-.7,2.3v4.8Z" fill="#7b7c7f"/><path d="M315.6,530.6h1.6a3.9,3.9,0,0,1-3.9,2.9,4.1,4.1,0,0,1-3.1-1.2,4.9,4.9,0,0,1-1.1-3.3,4.8,4.8,0,0,1,1.2-3.5,4.1,4.1,0,0,1,5.8,0,4.5,4.5,0,0,1,1.1,3.4v.4h-6.5a3.1,3.1,0,0,0,.8,2.2,2.5,2.5,0,0,0,1.8.8,2.2,2.2,0,0,0,1.4-.5A2.5,2.5,0,0,0,315.6,530.6Zm-4.9-2.5h5a3,3,0,0,0-.6-1.6,2.4,2.4,0,0,0-3.6-.2A3,3,0,0,0,310.7,528.1Z" fill="#7b7c7f"/><path d="M239.7,552.3v-1.7h1.7v1.7Zm0,7.1v-1.7h1.7v1.7Z" fill="#7b7c7f"/><path d="M254.5,555.1l1.6.4a5.7,5.7,0,0,1-1.9,3.1,5.3,5.3,0,0,1-3.2,1,6.3,6.3,0,0,1-3.2-.8,4.7,4.7,0,0,1-1.8-2.3,7.2,7.2,0,0,1-.7-3.3,8.4,8.4,0,0,1,.7-3.3,4.7,4.7,0,0,1,2.1-2.1,6.1,6.1,0,0,1,3-.8,4.4,4.4,0,0,1,3,1,4.6,4.6,0,0,1,1.8,2.6l-1.6.3A3.8,3.8,0,0,0,253,549a3.2,3.2,0,0,0-2-.6,3.5,3.5,0,0,0-2.3.7,3,3,0,0,0-1.3,1.8,5.9,5.9,0,0,0-.4,2.3,7.7,7.7,0,0,0,.4,2.7,3,3,0,0,0,1.4,1.7,4.2,4.2,0,0,0,2.1.6,3.1,3.1,0,0,0,2.3-.8A4.7,4.7,0,0,0,254.5,555.1Z" fill="#7b7c7f"/><path d="M265.2,559.4v-1.3a3.4,3.4,0,0,1-4.2,1.2,2.1,2.1,0,0,1-1-.8,2.8,2.8,0,0,1-.5-1.1,4.9,4.9,0,0,1-.1-1.4v-5.4h1.5v4.9a5.3,5.3,0,0,0,.1,1.5,2.1,2.1,0,0,0,.6,1,2,2,0,0,0,1.1.3,2.8,2.8,0,0,0,1.3-.3,1.9,1.9,0,0,0,.8-1,3.7,3.7,0,0,0,.3-1.7v-4.7h1.5v8.8Z" fill="#7b7c7f"/><path d="M273.7,558.1l.3,1.3h-1.2a2.1,2.1,0,0,1-1.2-.3c-.3-.1-.5-.4-.7-.6a7.7,7.7,0,0,1-.1-1.8v-5.1h-1.1v-1.1h1.1v-2.2l1.4-.9v3.1h1.5v1.1h-1.5v5.2a5.4,5.4,0,0,0,.1.8l.3.3h1.1Z" fill="#7b7c7f"/><path d="M280.1,558.1l.2,1.3h-1.2a2.1,2.1,0,0,1-1.2-.3,1.2,1.2,0,0,1-.6-.6,3.9,3.9,0,0,1-.2-1.8v-5.1H276v-1.1h1.1v-2.2l1.5-.9v3.1h1.5v1.1h-1.5v6l.3.3h1.2Z" fill="#7b7c7f"/><path d="M289.1,553.5a6.7,6.7,0,0,1,1.7-4.8,5.3,5.3,0,0,1,4.1-1.7,6.2,6.2,0,0,1,3.1.8,5,5,0,0,1,2,2.3,6.6,6.6,0,0,1,.8,3.2,6.7,6.7,0,0,1-.8,3.3,5,5,0,0,1-2.1,2.2,6,6,0,0,1-6,0,5.8,5.8,0,0,1-2.1-2.3A8.2,8.2,0,0,1,289.1,553.5Zm1.7,0A5,5,0,0,0,292,557a3.8,3.8,0,0,0,2.9,1.2,3.8,3.8,0,0,0,3-1.3,4.9,4.9,0,0,0,1.2-3.6,7.1,7.1,0,0,0-.5-2.6,3.5,3.5,0,0,0-1.5-1.7,3.7,3.7,0,0,0-2.1-.6,4.1,4.1,0,0,0-3,1.2A5.4,5.4,0,0,0,290.8,553.5Z" fill="#7b7c7f"/><path d="M310,559.4v-1.3a3.4,3.4,0,0,1-4.2,1.2,3.1,3.1,0,0,1-1.1-.8,2.8,2.8,0,0,1-.4-1.1,4.9,4.9,0,0,1-.1-1.4v-5.4h1.5v4.9a5.3,5.3,0,0,0,.1,1.5,2.1,2.1,0,0,0,.6,1,2,2,0,0,0,1.1.3,2.8,2.8,0,0,0,1.3-.3,2.5,2.5,0,0,0,.8-1,3.9,3.9,0,0,0,.2-1.7v-4.7h1.5v8.8Z" fill="#7b7c7f"/><path d="M318.5,558.1l.2,1.3h-1.1a2.1,2.1,0,0,1-1.2-.3,1.4,1.4,0,0,1-.7-.6,6.2,6.2,0,0,1-.2-1.8v-5.1h-1.1v-1.1h1.1v-2.2l1.5-.9v3.1h1.5v1.1H317v5.2a5.4,5.4,0,0,0,.1.8c.1.1.1.2.3.3h1.1Z" fill="#7b7c7f"/><path d="M325.8,559.4l4.7-12.2h1.7l5,12.2h-1.8l-1.5-3.7h-5l-1.4,3.7Zm3.5-5h4.1l-1.2-3.4c-.4-1-.7-1.8-.9-2.5a15.5,15.5,0,0,1-.6,2.3Z" fill="#7b7c7f"/><path d="M339.9,559.4v-8.8h1.3v1.3a4.6,4.6,0,0,1,.9-1.2,1.9,1.9,0,0,1,1-.3,2.3,2.3,0,0,1,1.5.5l-.5,1.3a2,2,0,0,0-1.1-.3,1.1,1.1,0,0,0-.8.3,1.6,1.6,0,0,0-.6.8,5.2,5.2,0,0,0-.3,1.8v4.6Z" fill="#7b7c7f"/><path d="M353.1,556.6h1.6a3.9,3.9,0,0,1-3.9,2.9,3.8,3.8,0,0,1-3-1.2,4.5,4.5,0,0,1-1.2-3.3,4.8,4.8,0,0,1,1.2-3.5,4.1,4.1,0,0,1,5.8,0,4.5,4.5,0,0,1,1.1,3.4v.4h-6.5a3.1,3.1,0,0,0,.8,2.2,2.5,2.5,0,0,0,1.8.8,2.2,2.2,0,0,0,1.4-.5A2.5,2.5,0,0,0,353.1,556.6Zm-4.8-2.5h4.9a3,3,0,0,0-.6-1.6,2.3,2.3,0,0,0-1.8-.9,2.4,2.4,0,0,0-1.8.7A2.9,2.9,0,0,0,348.3,554.1Z" fill="#7b7c7f"/><path d="M363.9,558.3a4.7,4.7,0,0,1-1.6,1,4.1,4.1,0,0,1-1.6.3,3.9,3.9,0,0,1-2.3-.7,2.4,2.4,0,0,1-.7-1.8,3.7,3.7,0,0,1,.2-1.2,2.4,2.4,0,0,1,.8-.9l1.1-.5,1.3-.2a11.9,11.9,0,0,0,2.7-.5v-.4a2.2,2.2,0,0,0-.4-1.3,2.9,2.9,0,0,0-1.7-.5,2.4,2.4,0,0,0-1.6.4,2,2,0,0,0-.7,1.3l-1.5-.2a3.5,3.5,0,0,1,.7-1.5,2.5,2.5,0,0,1,1.3-.9,6,6,0,0,1,2-.3l1.8.2a1.9,1.9,0,0,1,1.5,1.7,4.9,4.9,0,0,1,.1,1.4v2a14.3,14.3,0,0,0,.1,2.6,2.5,2.5,0,0,0,.4,1.1h-1.6A2,2,0,0,1,363.9,558.3Zm-.1-3.3a10.9,10.9,0,0,1-2.5.5l-1.3.3a1.2,1.2,0,0,0-.5.5,1.1,1.1,0,0,0-.3.7,1.2,1.2,0,0,0,.5,1,1.7,1.7,0,0,0,1.3.4,2.9,2.9,0,0,0,1.6-.4,2.2,2.2,0,0,0,.9-1,2.8,2.8,0,0,0,.3-1.5Z" fill="#7b7c7f"/><path d="M213.8,294.5c18.1-.7,56.6-8.6,55.8-89.2" fill="none" stroke="#7b7c7f" stroke-miterlimit="10"/><polygon points="206.8 294.5 216.8 298.5 214.4 294.4 216.7 290.3 206.8 294.5" fill="#7b7c7f"/><path d="M233.7,195.6V183.5h1.6v12.1Z" fill="#7b7c7f"/><path d="M239.5,195.6v-8.8h1.3v1.3a3.2,3.2,0,0,1,2.8-1.5,3.7,3.7,0,0,1,1.5.3,2.7,2.7,0,0,1,1,.8,1.8,1.8,0,0,1,.4,1.1,4.5,4.5,0,0,1,.1,1.4v5.4h-1.5v-5.3a5.3,5.3,0,0,0-.1-1.4c-.1-.3-.4-.5-.6-.7a2,2,0,0,0-1.1-.3,2.3,2.3,0,0,0-1.6.6,2.9,2.9,0,0,0-.7,2.3v4.8Z" fill="#7b7c7f"/><path d="M249.9,193l1.5-.3a2.1,2.1,0,0,0,.7,1.4,2.3,2.3,0,0,0,1.5.5,3.4,3.4,0,0,0,1.6-.4,1.6,1.6,0,0,0,.5-1,.9.9,0,0,0-.5-.8,4.1,4.1,0,0,0-1.5-.5l-2.3-.7a2,2,0,0,1-.9-.9,2.1,2.1,0,0,1-.4-1.1,2,2,0,0,1,.3-1.1,3.1,3.1,0,0,1,.7-.9l1-.4,1.3-.2a4.8,4.8,0,0,1,1.8.3,2.4,2.4,0,0,1,1.1.8,2.2,2.2,0,0,1,.5,1.4l-1.4.2a2,2,0,0,0-.6-1.1,2.3,2.3,0,0,0-1.3-.3,2.8,2.8,0,0,0-1.5.3.9.9,0,0,0-.4.8.6.6,0,0,0,.2.5,1,1,0,0,0,.5.4l1.3.4,2.2.7a1.5,1.5,0,0,1,1,.7,2,2,0,0,1,.4,1.3,2.4,2.4,0,0,1-.5,1.4,2,2,0,0,1-1.2,1,3.8,3.8,0,0,1-1.9.4,4,4,0,0,1-2.6-.7A3.6,3.6,0,0,1,249.9,193Z" fill="#7b7c7f"/><path d="M266.5,192.8l1.6.2a3.3,3.3,0,0,1-1.4,2,3.9,3.9,0,0,1-2.5.8,3.8,3.8,0,0,1-3-1.2,4.5,4.5,0,0,1-1.2-3.3,4.5,4.5,0,0,1,1.2-3.4,3.5,3.5,0,0,1,2.9-1.3,3.7,3.7,0,0,1,2.9,1.2,4.5,4.5,0,0,1,1.1,3.4v.4h-6.5a2.9,2.9,0,0,0,.8,2.2,2.5,2.5,0,0,0,1.8.8,2.5,2.5,0,0,0,2.3-1.8Zm-4.8-2.4h4.9a3.4,3.4,0,0,0-.6-1.7,2.2,2.2,0,0,0-1.8-.8,2.8,2.8,0,0,0-1.8.6A2.9,2.9,0,0,0,261.7,190.4Z" fill="#7b7c7f"/><path d="M271.5,195.6v-8.8h1.3v1.4a3.8,3.8,0,0,1,1-1.3,1.6,1.6,0,0,1,.9-.3,3.3,3.3,0,0,1,1.6.5l-.5,1.4-1.1-.3a1.4,1.4,0,0,0-.9.3,1.7,1.7,0,0,0-.6.8,8.8,8.8,0,0,0-.2,1.7v4.6Z" fill="#7b7c7f"/><path d="M282,194.3l.2,1.3h-1.1l-1.3-.2a1.3,1.3,0,0,1-.6-.7,6.2,6.2,0,0,1-.2-1.8v-5h-1.1v-1.2H279v-2.1l1.5-.9v3H282V188h-1.5v5.1c0,.4,0,.7.1.8l.2.3H282Z" fill="#7b7c7f"/><path d="M291.6,195.6V183.5h1.6v5h6.3v-5h1.6v12.1h-1.6v-5.7h-6.3v5.7Z" fill="#7b7c7f"/><path d="M304.6,191.2a4,4,0,0,1,4.1-4.6,3.7,3.7,0,0,1,2.9,1.2,4.5,4.5,0,0,1,1.2,3.3,6,6,0,0,1-.5,2.6,4.6,4.6,0,0,1-1.5,1.6,5.4,5.4,0,0,1-2.1.5,3.9,3.9,0,0,1-3-1.2A4.5,4.5,0,0,1,304.6,191.2Zm1.5,0a3.6,3.6,0,0,0,.7,2.5,2.3,2.3,0,0,0,1.9.9,2.3,2.3,0,0,0,1.8-.9,3.6,3.6,0,0,0,.8-2.5,3.7,3.7,0,0,0-.8-2.5,2.2,2.2,0,0,0-1.8-.8,2.2,2.2,0,0,0-1.9.8A3.6,3.6,0,0,0,306.1,191.2Z" fill="#7b7c7f"/><path d="M316.1,195.6V183.5h1.5v12.1Z" fill="#7b7c7f"/><path d="M327.5,192.8l1.5.2a3,3,0,0,1-1.4,2,3.7,3.7,0,0,1-2.5.8,3.9,3.9,0,0,1-3-1.2,4.4,4.4,0,0,1-1.1-3.3,4.5,4.5,0,0,1,1.1-3.4,3.7,3.7,0,0,1,3-1.3,3.6,3.6,0,0,1,2.8,1.2,4.5,4.5,0,0,1,1.1,3.4v.4h-6.5a3.4,3.4,0,0,0,.8,2.2,2.5,2.5,0,0,0,1.8.8,2,2,0,0,0,1.4-.5A2.8,2.8,0,0,0,327.5,192.8Zm-4.9-2.4h4.9a3.4,3.4,0,0,0-.6-1.7,2.2,2.2,0,0,0-1.8-.8,2.4,2.4,0,0,0-1.7.6A2.6,2.6,0,0,0,322.6,190.4Z" fill="#7b7c7f"/><path d="M1124,195.6V183.5h1.6v12.1Z" fill="#7b7c7f"/><path d="M1129.8,195.6v-8.8h1.3v1.3a3.2,3.2,0,0,1,2.8-1.5,3.3,3.3,0,0,1,1.5.3,2.7,2.7,0,0,1,1,.8,2.8,2.8,0,0,1,.5,1.1v6.8h-1.5v-5.3a5.3,5.3,0,0,0-.1-1.4,1.3,1.3,0,0,0-.6-.7,2,2,0,0,0-1.1-.3,2.3,2.3,0,0,0-1.6.6,2.9,2.9,0,0,0-.7,2.3v4.8Z" fill="#7b7c7f"/><path d="M1140.2,193l1.5-.3a2.1,2.1,0,0,0,.7,1.4,2.3,2.3,0,0,0,1.5.5,3.4,3.4,0,0,0,1.6-.4,1.6,1.6,0,0,0,.5-1,.9.9,0,0,0-.5-.8,4.1,4.1,0,0,0-1.5-.5l-2.3-.7a2,2,0,0,1-.9-.9,2,2,0,0,1-.3-1.1,2,2,0,0,1,.2-1.1,2.3,2.3,0,0,1,.8-.9l.9-.4,1.3-.2a4.8,4.8,0,0,1,1.8.3,2.4,2.4,0,0,1,1.1.8,3,3,0,0,1,.6,1.4l-1.5.2a2,2,0,0,0-.6-1.1,2.3,2.3,0,0,0-1.3-.3,2.8,2.8,0,0,0-1.5.3.9.9,0,0,0-.4.8c0,.2.1.3.2.5a1,1,0,0,0,.5.4l1.4.4,2.2.7a1.6,1.6,0,0,1,.9.7,2,2,0,0,1,.4,1.3,3.3,3.3,0,0,1-.4,1.4,2.6,2.6,0,0,1-1.3,1,3.7,3.7,0,0,1-5.6-2.4Z" fill="#7b7c7f"/><path d="M1156.8,192.8l1.6.2a3.3,3.3,0,0,1-1.4,2,3.9,3.9,0,0,1-2.5.8,3.8,3.8,0,0,1-3-1.2,4.5,4.5,0,0,1-1.2-3.3,4.5,4.5,0,0,1,1.2-3.4,3.5,3.5,0,0,1,2.9-1.3,3.7,3.7,0,0,1,2.9,1.2,4.5,4.5,0,0,1,1.1,3.4v.4h-6.5a2.9,2.9,0,0,0,.8,2.2,2.5,2.5,0,0,0,1.8.8,2.5,2.5,0,0,0,2.3-1.8Zm-4.8-2.4h4.9a3.4,3.4,0,0,0-.6-1.7,2.2,2.2,0,0,0-1.8-.8,2.8,2.8,0,0,0-1.8.6A2.9,2.9,0,0,0,1152,190.4Z" fill="#7b7c7f"/><path d="M1161.8,195.6v-8.8h1.4v1.4a2.9,2.9,0,0,1,.9-1.3,1.7,1.7,0,0,1,1-.3,3,3,0,0,1,1.5.5l-.5,1.4-1.1-.3-.9.3a1.1,1.1,0,0,0-.5.8,4.7,4.7,0,0,0-.3,1.7v4.6Z" fill="#7b7c7f"/><path d="M1172.3,194.3l.2,1.3h-1.1l-1.3-.2a1.3,1.3,0,0,1-.6-.7,6.2,6.2,0,0,1-.2-1.8v-5h-1.1v-1.2h1.1v-2.1l1.5-.9v3h1.5V188h-1.5v5.1c0,.4,0,.7.1.8l.2.3h1.2Z" fill="#7b7c7f"/><path d="M1122.8,298.1c15.3-1.5,29.4-10.7,28.5-92.3" fill="none" stroke="#7b7c7f" stroke-miterlimit="10"/><polygon points="1115.8 298.4 1125.9 301.9 1123.3 298 1125.4 293.8 1115.8 298.4" fill="#7b7c7f"/><path d="M451.4,195.6V183.5H453v10.7h6v1.4Z" fill="#7b7c7f"/><path d="M462.3,185.2v-1.7h1.5v1.7Zm0,10.4v-8.8h1.5v8.8Z" fill="#7b7c7f"/><path d="M467.4,196.3l1.4.2c.1.5.2.8.5,1a2.4,2.4,0,0,0,1.5.4,2.5,2.5,0,0,0,1.6-.4,2.8,2.8,0,0,0,.8-1.1,9.8,9.8,0,0,0,.1-2,3.1,3.1,0,0,1-2.4,1.2,3.2,3.2,0,0,1-2.8-1.3,4.8,4.8,0,0,1-1-3.1,6.4,6.4,0,0,1,.4-2.4,4.2,4.2,0,0,1,1.3-1.6,3.7,3.7,0,0,1,2.1-.6,2.9,2.9,0,0,1,2.5,1.3v-1.1h1.4v7.6a6.8,6.8,0,0,1-.4,2.9,3.5,3.5,0,0,1-1.3,1.4,5.2,5.2,0,0,1-2.3.5,3.9,3.9,0,0,1-2.5-.8A2.1,2.1,0,0,1,467.4,196.3Zm1.2-5.2a3.7,3.7,0,0,0,.7,2.5,2.2,2.2,0,0,0,3.4,0,3.7,3.7,0,0,0,.7-2.5,3.3,3.3,0,0,0-.7-2.4,2.1,2.1,0,0,0-1.7-.8,2,2,0,0,0-1.7.8A3.3,3.3,0,0,0,468.6,191.1Z" fill="#7b7c7f"/><path d="M478.6,195.6V183.5h1.5v4.3a3.4,3.4,0,0,1,2.6-1.2,3.9,3.9,0,0,1,1.7.4,2.3,2.3,0,0,1,1.1,1.1,4.7,4.7,0,0,1,.3,1.9v5.6h-1.5V190a2.5,2.5,0,0,0-.5-1.6,2,2,0,0,0-1.4-.5,1.9,1.9,0,0,0-1.2.4,1.4,1.4,0,0,0-.8.9,3.5,3.5,0,0,0-.3,1.6v4.8Z" fill="#7b7c7f"/><path d="M492.9,194.3l.2,1.3H492l-1.3-.2a1.3,1.3,0,0,1-.6-.7,6.2,6.2,0,0,1-.2-1.8v-5h-1.1v-1.2h1.1v-2.1l1.5-.9v3h1.5V188h-1.5v5.1c0,.4,0,.7.1.8l.2.3h1.2Z" fill="#7b7c7f"/><path d="M497.3,195.6h-1.4V183.5h1.5v4.3a2.9,2.9,0,0,1,2.4-1.2,2.8,2.8,0,0,1,1.5.4,2.7,2.7,0,0,1,1.2.9,3.1,3.1,0,0,1,.7,1.4,4.8,4.8,0,0,1,.3,1.8,5.4,5.4,0,0,1-1.1,3.5,3.6,3.6,0,0,1-2.7,1.2,2.7,2.7,0,0,1-2.4-1.3Zm0-4.5a4.3,4.3,0,0,0,.4,2.3,2.2,2.2,0,0,0,1.9,1.2,2.2,2.2,0,0,0,1.7-.9,4.8,4.8,0,0,0,0-5,1.9,1.9,0,0,0-1.6-.9,2,2,0,0,0-1.7.9A3.6,3.6,0,0,0,497.3,191.1Z" fill="#7b7c7f"/><path d="M512.6,195.6v-1.3a3.1,3.1,0,0,1-2.7,1.5,3.7,3.7,0,0,1-1.5-.3,2.7,2.7,0,0,1-1-.8,1.8,1.8,0,0,1-.4-1.1,4.2,4.2,0,0,1-.1-1.3v-5.5h1.5v6.5a1.8,1.8,0,0,0,.6.9,2.1,2.1,0,0,0,1.2.3,2.7,2.7,0,0,0,1.2-.3,1.9,1.9,0,0,0,.8-1,3.7,3.7,0,0,0,.3-1.7v-4.7H514v8.8Z" fill="#7b7c7f"/><path d="M517.9,195.6V183.5h1.4v12.1Z" fill="#7b7c7f"/><path d="M524.6,195.6h-1.4V183.5h1.5v4.3a2.9,2.9,0,0,1,2.4-1.2,2.9,2.9,0,0,1,1.6.4,3.1,3.1,0,0,1,1.1.9,3.2,3.2,0,0,1,.8,1.4,9,9,0,0,1,.2,1.8,4.9,4.9,0,0,1-1.1,3.5,3.4,3.4,0,0,1-2.7,1.2,2.7,2.7,0,0,1-2.4-1.3Zm0-4.5a4.3,4.3,0,0,0,.4,2.3,2.2,2.2,0,0,0,1.9,1.2,2.1,2.1,0,0,0,1.7-.9,4.8,4.8,0,0,0,0-5,1.9,1.9,0,0,0-1.6-.9,2.1,2.1,0,0,0-1.7.9A3.6,3.6,0,0,0,524.6,191.1Z" fill="#7b7c7f"/><path d="M540.6,195.6V183.5h4.6a4.8,4.8,0,0,1,2.2.4,2.4,2.4,0,0,1,1.3,1.1,3,3,0,0,1,.5,1.6,2.3,2.3,0,0,1-.4,1.4,3,3,0,0,1-1.3,1.2,2.8,2.8,0,0,1,1.7,1.1,2.8,2.8,0,0,1,.6,1.8,2.9,2.9,0,0,1-.4,1.6,2.4,2.4,0,0,1-.9,1.1,2.6,2.6,0,0,1-1.3.6l-1.9.2Zm1.6-7h2.7l1.5-.2a1.5,1.5,0,0,0,.9-.6,1.5,1.5,0,0,0,.3-1,2,2,0,0,0-.3-1.1,1.2,1.2,0,0,0-.8-.6l-1.8-.2h-2.5Zm0,5.6h4.1l1-.3.6-.7a3,3,0,0,0,.2-1,2.1,2.1,0,0,0-.3-1.2,2.3,2.3,0,0,0-1-.7L545,190h-2.8Z" fill="#7b7c7f"/><path d="M559.1,194.5a4.7,4.7,0,0,1-1.6,1,4.1,4.1,0,0,1-1.6.3,2.9,2.9,0,0,1-2.2-.7,2.2,2.2,0,0,1-.8-1.8,2.7,2.7,0,0,1,.3-1.2,2.7,2.7,0,0,1,1.8-1.3l1.3-.3a11.9,11.9,0,0,0,2.7-.5v-.4c0-.6-.1-1-.4-1.2a2.3,2.3,0,0,0-1.7-.5,3.5,3.5,0,0,0-1.6.3,3.2,3.2,0,0,0-.7,1.3l-1.5-.2a5.2,5.2,0,0,1,.7-1.5,2.5,2.5,0,0,1,1.3-.9,6,6,0,0,1,2-.3,4.8,4.8,0,0,1,1.8.3,2,2,0,0,1,1,.7,1.6,1.6,0,0,1,.5,1,4.2,4.2,0,0,1,.1,1.3v2a14.3,14.3,0,0,0,.1,2.6,2.1,2.1,0,0,0,.4,1.1h-1.6A3.5,3.5,0,0,1,559.1,194.5Zm-.1-3.3-2.4.6a1.9,1.9,0,0,0-1.3.3.9.9,0,0,0-.6.4,1,1,0,0,0-.2.7,1.2,1.2,0,0,0,.4,1,1.8,1.8,0,0,0,1.3.4,4.1,4.1,0,0,0,1.6-.3,2.4,2.4,0,0,0,.9-1.1,2.8,2.8,0,0,0,.3-1.5Z" fill="#7b7c7f"/><path d="M563.8,193l1.5-.3a2,2,0,0,0,.6,1.4,2.5,2.5,0,0,0,1.6.5,2.7,2.7,0,0,0,1.5-.4,1.2,1.2,0,0,0,.5-1,.8.8,0,0,0-.4-.8,4.1,4.1,0,0,0-1.5-.5l-2.3-.7a2,2,0,0,1-.9-.9,1.5,1.5,0,0,1-.4-1.1,2,2,0,0,1,.3-1.1,3.1,3.1,0,0,1,.7-.9l1-.4,1.3-.2a5.2,5.2,0,0,1,1.8.3,2.4,2.4,0,0,1,1.1.8,2.9,2.9,0,0,1,.5,1.4l-1.4.2a2,2,0,0,0-.6-1.1,2.5,2.5,0,0,0-1.3-.4,2.7,2.7,0,0,0-1.5.4,1.1,1.1,0,0,0-.3,1.3l.6.4,1.3.4,2.2.7a1.8,1.8,0,0,1,1,.7,2.8,2.8,0,0,1,.4,1.3,2.4,2.4,0,0,1-.5,1.4,2.3,2.3,0,0,1-1.2,1,5,5,0,0,1-4.5-.3A3.1,3.1,0,0,1,563.8,193Z" fill="#7b7c7f"/><path d="M580.4,192.8l1.6.2a3.3,3.3,0,0,1-1.4,2,3.9,3.9,0,0,1-2.5.8,3.8,3.8,0,0,1-3-1.2,4.5,4.5,0,0,1-1.2-3.3,5,5,0,0,1,1.2-3.5,3.7,3.7,0,0,1,2.9-1.2,3.8,3.8,0,0,1,2.9,1.2,5,5,0,0,1,1.1,3.4v.4h-6.5a2.9,2.9,0,0,0,.8,2.2,2.5,2.5,0,0,0,1.8.8,2.5,2.5,0,0,0,2.3-1.8Zm-4.9-2.4h4.9a2.6,2.6,0,0,0-.5-1.7,2.3,2.3,0,0,0-1.9-.9,2.8,2.8,0,0,0-1.7.7A3,3,0,0,0,575.5,190.4Z" fill="#7b7c7f"/><path d="M591.9,195.6V183.5h1.6v5h6.3v-5h1.6v12.1h-1.6v-5.7h-6.3v5.7Z" fill="#7b7c7f"/><path d="M604.9,191.2a4.1,4.1,0,0,1,4.2-4.6,3.8,3.8,0,0,1,2.9,1.2,4.5,4.5,0,0,1,1.2,3.3,6,6,0,0,1-.5,2.6,4.6,4.6,0,0,1-1.5,1.6,5.4,5.4,0,0,1-2.1.5,3.8,3.8,0,0,1-3-1.2A4.5,4.5,0,0,1,604.9,191.2Zm1.6,0a3.6,3.6,0,0,0,.7,2.5,2.3,2.3,0,0,0,1.9.9,2.3,2.3,0,0,0,1.8-.9,3.6,3.6,0,0,0,.7-2.5,3.7,3.7,0,0,0-.7-2.5,2.2,2.2,0,0,0-1.8-.8,2.2,2.2,0,0,0-1.9.8A3.6,3.6,0,0,0,606.5,191.2Z" fill="#7b7c7f"/><path d="M616.5,195.6V183.5h1.4v12.1Z" fill="#7b7c7f"/><path d="M627.8,192.8l1.6.2a3.3,3.3,0,0,1-1.4,2,3.9,3.9,0,0,1-2.5.8,3.8,3.8,0,0,1-3-1.2,4.5,4.5,0,0,1-1.2-3.3,5,5,0,0,1,1.2-3.5,4.1,4.1,0,0,1,5.8,0,4.5,4.5,0,0,1,1.1,3.4v.4h-6.5a2.9,2.9,0,0,0,.8,2.2,2.5,2.5,0,0,0,1.8.8,2.5,2.5,0,0,0,2.3-1.8Zm-4.8-2.4h4.9a3.4,3.4,0,0,0-.6-1.7,2.3,2.3,0,0,0-1.8-.9,2.9,2.9,0,0,0-1.8.7A2.9,2.9,0,0,0,623,190.4Z" fill="#7b7c7f"/><path d="M855.2,195.6V183.5h1.6v10.7h5.9v1.4Z" fill="#7b7c7f"/><path d="M866.1,185.2v-1.7h1.4v1.7Zm0,10.4v-8.8h1.4v8.8Z" fill="#7b7c7f"/><path d="M871.1,196.3l1.5.2a1.1,1.1,0,0,0,.5,1,2.1,2.1,0,0,0,1.5.4,2.5,2.5,0,0,0,1.6-.4,2.6,2.6,0,0,0,.7-1.1,9.3,9.3,0,0,0,.1-2,2.9,2.9,0,0,1-2.4,1.2,3.3,3.3,0,0,1-2.8-1.3,5.5,5.5,0,0,1-1-3.1,6.4,6.4,0,0,1,.5-2.4,3.4,3.4,0,0,1,1.3-1.6,3.4,3.4,0,0,1,2-.6,3,3,0,0,1,2.6,1.3v-1.1h1.3v7.6a6.8,6.8,0,0,1-.4,2.9,2.9,2.9,0,0,1-1.3,1.4,4.8,4.8,0,0,1-2.2.5,3.7,3.7,0,0,1-2.5-.8A2.2,2.2,0,0,1,871.1,196.3Zm1.2-5.2a4.4,4.4,0,0,0,.7,2.5,2.5,2.5,0,0,0,1.8.8,2.5,2.5,0,0,0,1.7-.8,4.4,4.4,0,0,0,.7-2.5,3.3,3.3,0,0,0-.8-2.4,1.9,1.9,0,0,0-1.7-.8,2.1,2.1,0,0,0-1.7.8A3.8,3.8,0,0,0,872.3,191.1Z" fill="#7b7c7f"/><path d="M882.4,195.6V183.5h1.5v4.3a3.2,3.2,0,0,1,2.6-1.2,4.7,4.7,0,0,1,1.7.4,2.1,2.1,0,0,1,1,1.1,4.7,4.7,0,0,1,.3,1.9v5.6H888V190a2.5,2.5,0,0,0-.4-1.6,2.2,2.2,0,0,0-1.4-.5,2,2,0,0,0-1.3.4,2.4,2.4,0,0,0-.8.9,6.3,6.3,0,0,0-.2,1.6v4.8Z" fill="#7b7c7f"/><path d="M896.6,194.3l.2,1.3h-1.1l-1.2-.2a1.6,1.6,0,0,1-.7-.7,6.2,6.2,0,0,1-.2-1.8v-5h-1v-1.2h1v-2.1l1.5-.9v3h1.5V188h-1.5v5.1a5.4,5.4,0,0,0,.1.8c.1.1.1.2.3.3h1.1Z" fill="#7b7c7f"/><path d="M901,195.6h-1.3V183.5h1.4v4.3a3.1,3.1,0,0,1,2.4-1.2,2.9,2.9,0,0,1,1.6.4,2.7,2.7,0,0,1,1.2.9,4.6,4.6,0,0,1,.7,1.4,5.2,5.2,0,0,1,.3,1.8,5,5,0,0,1-1.2,3.5,3.4,3.4,0,0,1-2.6,1.2,2.8,2.8,0,0,1-2.5-1.3Zm0-4.5a5.5,5.5,0,0,0,.4,2.3,2.2,2.2,0,0,0,1.9,1.2,2,2,0,0,0,1.7-.9,3.6,3.6,0,0,0,.7-2.5,4.2,4.2,0,0,0-.6-2.5,2,2,0,0,0-1.7-.8,2.1,2.1,0,0,0-1.7.8A4.3,4.3,0,0,0,901,191.1Z" fill="#7b7c7f"/><path d="M916.4,195.6v-1.3a3.4,3.4,0,0,1-4.2,1.2,2.1,2.1,0,0,1-1-.8,2.8,2.8,0,0,1-.5-1.1c0-.2-.1-.7-.1-1.3v-5.5h1.5v4.9a6.2,6.2,0,0,0,.1,1.6,1.8,1.8,0,0,0,.6.9,2,2,0,0,0,1.1.3,2.8,2.8,0,0,0,1.3-.3,2.5,2.5,0,0,0,.8-1,3.9,3.9,0,0,0,.2-1.7v-4.7h1.5v8.8Z" fill="#7b7c7f"/><path d="M921.6,195.6V183.5h1.5v12.1Z" fill="#7b7c7f"/><path d="M928.4,195.6H927V183.5h1.5v4.3a2.9,2.9,0,0,1,2.4-1.2,2.8,2.8,0,0,1,1.5.4,2.7,2.7,0,0,1,1.2.9,4.6,4.6,0,0,1,.7,1.4,5.2,5.2,0,0,1,.3,1.8,5.4,5.4,0,0,1-1.1,3.5,3.7,3.7,0,0,1-2.7,1.2,2.7,2.7,0,0,1-2.4-1.3Zm-.1-4.5a4.1,4.1,0,0,0,.5,2.3,2.1,2.1,0,0,0,1.9,1.2,2.2,2.2,0,0,0,1.7-.9,4.8,4.8,0,0,0,0-5,2,2,0,0,0-1.7-.8,1.8,1.8,0,0,0-1.6.8A3.6,3.6,0,0,0,928.3,191.1Z" fill="#7b7c7f"/><path d="M947.2,195.6V184.9h-4v-1.4h9.6v1.4h-4v10.7Z" fill="#7b7c7f"/><path d="M953.5,191.2a4,4,0,0,1,4.1-4.6,3.7,3.7,0,0,1,2.9,1.2,4.5,4.5,0,0,1,1.2,3.3,6,6,0,0,1-.5,2.6,4.6,4.6,0,0,1-1.5,1.6,5.4,5.4,0,0,1-2.1.5,3.8,3.8,0,0,1-3-1.2A4.5,4.5,0,0,1,953.5,191.2Zm1.5,0a3.6,3.6,0,0,0,.7,2.5,2.3,2.3,0,0,0,1.9.9,2.3,2.3,0,0,0,1.8-.9,3.6,3.6,0,0,0,.7-2.5,3.7,3.7,0,0,0-.7-2.5,2.2,2.2,0,0,0-1.8-.8,2.2,2.2,0,0,0-1.9.8A3.6,3.6,0,0,0,955,191.2Z" fill="#7b7c7f"/><path d="M965,199V186.8h1.4V188a2.9,2.9,0,0,1,2.5-1.4,3.6,3.6,0,0,1,2,.6,4.2,4.2,0,0,1,1.3,1.6,5.9,5.9,0,0,1,.4,2.3,7,7,0,0,1-.5,2.5,3.6,3.6,0,0,1-1.4,1.6,3.3,3.3,0,0,1-1.9.6,2.5,2.5,0,0,1-1.3-.3,2.7,2.7,0,0,1-1-.8V199Zm1.3-7.7a4.4,4.4,0,0,0,.7,2.5,2.3,2.3,0,0,0,1.7.8,2.2,2.2,0,0,0,1.7-.9,3.7,3.7,0,0,0,.7-2.6,3.7,3.7,0,0,0-.7-2.5,2.3,2.3,0,0,0-1.6-.8,2.1,2.1,0,0,0-1.7.9A3.8,3.8,0,0,0,966.3,191.3Z" fill="#7b7c7f"/><path d="M982.5,195.6V183.5h1.6v5h6.3v-5H992v12.1h-1.6v-5.7h-6.3v5.7Z" fill="#7b7c7f"/><path d="M995.5,191.2a4.6,4.6,0,0,1,1.4-3.6,4.3,4.3,0,0,1,2.7-1,4.1,4.1,0,0,1,3,1.2,4.4,4.4,0,0,1,1.1,3.3,4.8,4.8,0,0,1-.5,2.6,3.6,3.6,0,0,1-1.4,1.6,5.4,5.4,0,0,1-2.2.5,3.7,3.7,0,0,1-2.9-1.2A4.5,4.5,0,0,1,995.5,191.2Zm1.6,0a3.6,3.6,0,0,0,.7,2.5,2.3,2.3,0,0,0,1.8.9,2.3,2.3,0,0,0,1.9-.9,3.6,3.6,0,0,0,.7-2.5,3.7,3.7,0,0,0-.7-2.5,2.2,2.2,0,0,0-1.9-.8,2.2,2.2,0,0,0-1.8.8A3.6,3.6,0,0,0,997.1,191.2Z" fill="#7b7c7f"/><path d="M1007,195.6V183.5h1.5v12.1Z" fill="#7b7c7f"/><path d="M1018.4,192.8l1.6.2a3.3,3.3,0,0,1-1.4,2,3.9,3.9,0,0,1-2.5.8,4.1,4.1,0,0,1-3.1-1.2,4.9,4.9,0,0,1-1.1-3.3,4.5,4.5,0,0,1,1.2-3.4,3.5,3.5,0,0,1,2.9-1.3,3.8,3.8,0,0,1,2.9,1.2,5,5,0,0,1,1.1,3.4v.4h-6.5a2.9,2.9,0,0,0,.8,2.2,2.5,2.5,0,0,0,1.8.8,2.4,2.4,0,0,0,1.4-.5A2.2,2.2,0,0,0,1018.4,192.8Zm-4.9-2.4h4.9a2.6,2.6,0,0,0-.5-1.7,2.2,2.2,0,0,0-1.9-.8,2.5,2.5,0,0,0-1.7.6A3,3,0,0,0,1013.5,190.4Z" fill="#7b7c7f"/><path d="M683.8,195.2c-1-8.6-9.4-7.5-45-7.7" fill="none" stroke="#7b7c7f" stroke-miterlimit="10"/><polygon points="683.6 202.3 687.8 192.3 683.7 194.7 679.6 192.3 683.6 202.3" fill="#7b7c7f"/><path d="M823.6,196.3c.7-6.3,5.5-7.4,22.1-7.5" fill="none" stroke="#7b7c7f" stroke-miterlimit="10"/><polygon points="823.8 203.4 827.8 193.4 823.7 195.8 819.7 193.5 823.8 203.4" fill="#7b7c7f"/><path d="M716.9,481.5V469.3h1.6v12.2Z" fill="#7b7c7f"/><path d="M722.7,481.5v-8.8h1.4v1.2a3.2,3.2,0,0,1,2.8-1.4,3.2,3.2,0,0,1,1.4.3,1.5,1.5,0,0,1,1,.7,2.2,2.2,0,0,1,.5,1.1,5.8,5.8,0,0,1,.1,1.5v5.4h-1.5v-5.4a3.9,3.9,0,0,0-.2-1.3,1.6,1.6,0,0,0-.6-.8l-1-.2a2.5,2.5,0,0,0-1.7.6,3.1,3.1,0,0,0-.7,2.3v4.8Z" fill="#7b7c7f"/><path d="M733.2,478.8l1.5-.2a2,2,0,0,0,.6,1.4,2.7,2.7,0,0,0,1.6.4,2.5,2.5,0,0,0,1.6-.4,1.4,1.4,0,0,0,.5-1,1,1,0,0,0-.5-.8l-1.5-.5a9.1,9.1,0,0,1-2.3-.7,2.4,2.4,0,0,1-.9-.8,1.9,1.9,0,0,1-.4-1.2,2.3,2.3,0,0,1,.3-1.1,2.7,2.7,0,0,1,.7-.8l1-.5h1.3a4.8,4.8,0,0,1,1.8.3,1.9,1.9,0,0,1,1.1.8,2.6,2.6,0,0,1,.6,1.3l-1.5.2a1.8,1.8,0,0,0-1.9-1.4,2.8,2.8,0,0,0-1.5.3,1,1,0,0,0-.4.8.7.7,0,0,0,.2.6l.5.4,1.3.3,2.3.7a2.4,2.4,0,0,1,.9.8,2,2,0,0,1,.4,1.3,2.5,2.5,0,0,1-1.7,2.4,3.8,3.8,0,0,1-1.9.4,4.7,4.7,0,0,1-2.6-.7A3.1,3.1,0,0,1,733.2,478.8Z" fill="#7b7c7f"/><path d="M747.1,480.1l.2,1.4h-1.1a2.5,2.5,0,0,1-1.3-.3,1.2,1.2,0,0,1-.6-.6,6.2,6.2,0,0,1-.2-1.8v-5.1H743v-1.1h1.1v-2.2l1.5-.9v3.1h1.5v1.1h-1.5V479c0,.4,0,.7.1.8s.1.2.3.3h1.1Z" fill="#7b7c7f"/><path d="M750.2,481.5v-8.8h1.3V474a3.2,3.2,0,0,1,1-1.2,1.4,1.4,0,0,1,.9-.3,2.3,2.3,0,0,1,1.5.5l-.5,1.3a2,2,0,0,0-1.1-.3,1.1,1.1,0,0,0-.8.3,1.6,1.6,0,0,0-.6.8,5.2,5.2,0,0,0-.2,1.8v4.6Z" fill="#7b7c7f"/><path d="M763.2,481.5v-1.3a3.2,3.2,0,0,1-2.8,1.5,4,4,0,0,1-1.5-.3,3.9,3.9,0,0,1-1-.8,2.8,2.8,0,0,1-.4-1.1,4.9,4.9,0,0,1-.1-1.4v-5.4h1.5v4.9a5.3,5.3,0,0,0,.1,1.5,2.1,2.1,0,0,0,.6,1,2,2,0,0,0,1.1.3,2.2,2.2,0,0,0,1.3-.4,1.8,1.8,0,0,0,.8-.9,4.2,4.2,0,0,0,.2-1.7v-4.7h1.5v8.8Z" fill="#7b7c7f"/><path d="M774.2,478.2l1.5.2a4.1,4.1,0,0,1-1.3,2.4,3.2,3.2,0,0,1-2.4.9,3.7,3.7,0,0,1-2.9-1.2,5,5,0,0,1-1.1-3.4,6.6,6.6,0,0,1,.5-2.5,3.6,3.6,0,0,1,1.4-1.6,4.1,4.1,0,0,1,2.1-.5,3.6,3.6,0,0,1,2.4.7,3.1,3.1,0,0,1,1.1,2.1l-1.4.2a2.7,2.7,0,0,0-.8-1.4,1.6,1.6,0,0,0-1.2-.4,2.6,2.6,0,0,0-1.9.8,4.3,4.3,0,0,0-.7,2.6,4.1,4.1,0,0,0,.7,2.5,2.2,2.2,0,0,0,1.8.8,2,2,0,0,0,1.5-.5A2.7,2.7,0,0,0,774.2,478.2Z" fill="#7b7c7f"/><path d="M781.8,480.1l.2,1.4h-1.1a2.3,2.3,0,0,1-1.3-.3,1.2,1.2,0,0,1-.6-.6,6.2,6.2,0,0,1-.2-1.8v-5.1h-1.1v-1.1h1.1v-2.2l1.5-.9v3.1h1.5v1.1h-1.5V479c0,.4,0,.7.1.8l.2.3h1.2Z" fill="#7b7c7f"/><path d="M784.9,471v-1.7h1.5V471Zm0,10.5v-8.8h1.5v8.8Z" fill="#7b7c7f"/><path d="M789.7,477.1a4.6,4.6,0,0,1,1.3-3.7,4.5,4.5,0,0,1,2.8-.9,4.1,4.1,0,0,1,3,1.2,4.6,4.6,0,0,1,1.1,3.2,6.2,6.2,0,0,1-.5,2.7,2.8,2.8,0,0,1-1.5,1.5,3.7,3.7,0,0,1-2.1.6,4.1,4.1,0,0,1-3-1.2A5,5,0,0,1,789.7,477.1Zm1.5,0a4.4,4.4,0,0,0,.7,2.5,2.4,2.4,0,0,0,1.9.8,2.1,2.1,0,0,0,1.8-.8,3.8,3.8,0,0,0,.8-2.6,3.7,3.7,0,0,0-.8-2.5,2.5,2.5,0,0,0-1.8-.8,2.7,2.7,0,0,0-1.9.8A4.5,4.5,0,0,0,791.2,477.1Z" fill="#7b7c7f"/><path d="M801.3,481.5v-8.8h1.3v1.2a3.4,3.4,0,0,1,2.8-1.4,4,4,0,0,1,1.5.3,2.3,2.3,0,0,1,1,.7,3.6,3.6,0,0,1,.4,1.1,5.8,5.8,0,0,1,.1,1.5v5.4h-1.5v-5.4a4.5,4.5,0,0,0-.1-1.3,2.7,2.7,0,0,0-.7-.8l-1-.2a2.7,2.7,0,0,0-1.7.6,3.2,3.2,0,0,0-.6,2.3v4.8Z" fill="#7b7c7f"/><path d="M811.7,478.8l1.5-.2a2.1,2.1,0,0,0,.7,1.4,2.5,2.5,0,0,0,1.6.4,2.2,2.2,0,0,0,1.5-.4,1.4,1.4,0,0,0,.5-1,1,1,0,0,0-.5-.8l-1.5-.5a10.7,10.7,0,0,1-2.3-.7,2.4,2.4,0,0,1-.9-.8,2.7,2.7,0,0,1-.3-1.2,2.2,2.2,0,0,1,.2-1.1,2,2,0,0,1,.8-.8l.9-.5h1.3a4.8,4.8,0,0,1,1.8.3,2.5,2.5,0,0,1,1.2.8,3.9,3.9,0,0,1,.5,1.3l-1.5.2a1.1,1.1,0,0,0-.6-1,1.7,1.7,0,0,0-1.3-.4,2.8,2.8,0,0,0-1.5.3,1,1,0,0,0-.4.8,1.4,1.4,0,0,0,.2.6l.5.4,1.4.3,2.2.7a3.9,3.9,0,0,1,1,.8,2.8,2.8,0,0,1,.3,1.3,2.3,2.3,0,0,1-.4,1.4,2.7,2.7,0,0,1-1.3,1,3.4,3.4,0,0,1-1.8.4,4.5,4.5,0,0,1-2.6-.7A3.6,3.6,0,0,1,811.7,478.8Z" fill="#7b7c7f"/><path d="M716.1,503.6l1.5-.2a3.3,3.3,0,0,0,.5,1.5,4,4,0,0,0,1.2,1,5.8,5.8,0,0,0,1.9.3l1.6-.2a3.1,3.1,0,0,0,1.1-.8,1.9,1.9,0,0,0,.3-1,1.7,1.7,0,0,0-.3-1,3,3,0,0,0-1.1-.7l-2.2-.6-2.3-.8A2.9,2.9,0,0,1,717,500a2.8,2.8,0,0,1,.1-3.3,3.1,3.1,0,0,1,1.5-1.2,7.8,7.8,0,0,1,2.2-.4,8.6,8.6,0,0,1,2.4.4,4.2,4.2,0,0,1,1.6,1.3,3.3,3.3,0,0,1,.6,1.9l-1.6.2a2.2,2.2,0,0,0-.8-1.8,3.3,3.3,0,0,0-2.1-.6,2.9,2.9,0,0,0-2.1.6,1.5,1.5,0,0,0-.7,1.3,1.1,1.1,0,0,0,.5,1,5.8,5.8,0,0,0,2.4.9l2.7.8a3.1,3.1,0,0,1,1.5,1.2,2.6,2.6,0,0,1,.5,1.7,3.2,3.2,0,0,1-.5,1.9,4.2,4.2,0,0,1-1.6,1.3,5.9,5.9,0,0,1-2.3.5,7.4,7.4,0,0,1-2.8-.5,4.2,4.2,0,0,1-1.8-1.4A4.3,4.3,0,0,1,716.1,503.6Z" fill="#7b7c7f"/><path d="M732.6,506.1l.2,1.4h-1.1a2.5,2.5,0,0,1-1.3-.3,1.2,1.2,0,0,1-.6-.6,6.2,6.2,0,0,1-.2-1.8v-5.1h-1.1v-1.1h1.1v-2.2l1.5-.9v3.1h1.5v1.1h-1.5V505c0,.4,0,.7.1.8l.2.3h1.2Z" fill="#7b7c7f"/><path d="M741.7,504.6l1.5.2a3.8,3.8,0,0,1-1.3,2.1,4.1,4.1,0,0,1-2.5.8,4,4,0,0,1-3.1-1.2,4.5,4.5,0,0,1-1.1-3.4,4.7,4.7,0,0,1,1.1-3.4,4.1,4.1,0,0,1,3-1.2,3.8,3.8,0,0,1,2.9,1.2,5,5,0,0,1,1.1,3.4v.4h-6.6a3.6,3.6,0,0,0,.8,2.2,2.5,2.5,0,0,0,1.9.7,2.3,2.3,0,0,0,1.4-.4A2.4,2.4,0,0,0,741.7,504.6Zm-4.9-2.4h4.9a3,3,0,0,0-.6-1.6,2.1,2.1,0,0,0-1.8-.9,2.1,2.1,0,0,0-1.7.7A2.3,2.3,0,0,0,736.8,502.2Z" fill="#7b7c7f"/><path d="M746.7,510.8V498.7h1.4v1.1a3.2,3.2,0,0,1,1-1,3.3,3.3,0,0,1,1.5-.3,3.4,3.4,0,0,1,2,.6,3,3,0,0,1,1.3,1.6,5.9,5.9,0,0,1,.4,2.3,6.1,6.1,0,0,1-.4,2.4,3.6,3.6,0,0,1-1.5,1.7,3.3,3.3,0,0,1-1.9.6,2.8,2.8,0,0,1-1.3-.3,4.4,4.4,0,0,1-1-.8v4.2Zm1.3-7.7a3.9,3.9,0,0,0,.7,2.5,2.1,2.1,0,0,0,1.7.8,2,2,0,0,0,1.7-.8,3.8,3.8,0,0,0,.7-2.6,3.6,3.6,0,0,0-.7-2.5,1.9,1.9,0,0,0-1.6-.9,2.1,2.1,0,0,0-1.7.9A4,4,0,0,0,748,503.1Z" fill="#7b7c7f"/><path d="M769.3,507.5h-1.5V498l-1.5,1-1.5.8v-1.5a10.2,10.2,0,0,0,2.2-1.4,8.3,8.3,0,0,0,1.3-1.6h1Z" fill="#7b7c7f"/><path d="M775.5,500.4v-1.7h1.7v1.7Zm0,7.1v-1.7h1.7v1.7Z" fill="#7b7c7f"/><path d="M801.1,507.5V495.3h4.2l2.1.2a3.8,3.8,0,0,1,1.8.9,4.8,4.8,0,0,1,1.4,2,6.8,6.8,0,0,1,.5,2.9,9,9,0,0,1-.3,2.5,7.5,7.5,0,0,1-.8,1.8l-1.1,1.1-1.5.6-2,.2Zm1.6-1.5h2.6a5.3,5.3,0,0,0,1.9-.2,1.7,1.7,0,0,0,1-.6,3.5,3.5,0,0,0,.9-1.6,7.3,7.3,0,0,0,.4-2.3,5.6,5.6,0,0,0-.7-2.9,2.9,2.9,0,0,0-1.5-1.4,5.6,5.6,0,0,0-2.1-.2h-2.5Z" fill="#7b7c7f"/><path d="M814.7,497v-1.7h1.5V497Zm0,10.5v-8.8h1.5v8.8Z" fill="#7b7c7f"/><path d="M819.5,504.8l1.5-.2a2.1,2.1,0,0,0,.7,1.4,2.4,2.4,0,0,0,1.6.4,2.4,2.4,0,0,0,1.5-.4,1.4,1.4,0,0,0,.5-1,1,1,0,0,0-.5-.8l-1.5-.5a10.7,10.7,0,0,1-2.3-.7,2.4,2.4,0,0,1-.9-.8,2.8,2.8,0,0,1-.4-1.2,2.3,2.3,0,0,1,.3-1.1,2,2,0,0,1,.8-.8l.9-.5H823a4.8,4.8,0,0,1,1.8.3,2.5,2.5,0,0,1,1.2.8,3.9,3.9,0,0,1,.5,1.3l-1.5.2a1.1,1.1,0,0,0-.6-1,1.7,1.7,0,0,0-1.3-.4,2.8,2.8,0,0,0-1.5.3,1,1,0,0,0-.4.8,1.4,1.4,0,0,0,.2.6l.5.4,1.4.3,2.2.7a3.9,3.9,0,0,1,1,.8,2.8,2.8,0,0,1,.3,1.3,2.3,2.3,0,0,1-.4,1.4,2.7,2.7,0,0,1-1.3,1,3.4,3.4,0,0,1-1.8.4,4.8,4.8,0,0,1-2.7-.7A3.6,3.6,0,0,1,819.5,504.8Z" fill="#7b7c7f"/><path d="M835.9,504.2l1.5.2a4.6,4.6,0,0,1-1.2,2.4,3.7,3.7,0,0,1-2.5.9,3.8,3.8,0,0,1-2.9-1.2,5,5,0,0,1-1.1-3.4,6.6,6.6,0,0,1,.5-2.5,3.6,3.6,0,0,1,1.4-1.6,4.1,4.1,0,0,1,2.1-.5,3.6,3.6,0,0,1,2.4.7,3.7,3.7,0,0,1,1.2,2.1l-1.5.2a2.6,2.6,0,0,0-.7-1.4,2,2,0,0,0-1.3-.4,2.2,2.2,0,0,0-1.8.8,3.7,3.7,0,0,0-.7,2.6,4.2,4.2,0,0,0,.6,2.5,2.2,2.2,0,0,0,1.8.8,2,2,0,0,0,1.5-.5A2.7,2.7,0,0,0,835.9,504.2Z" fill="#7b7c7f"/><path d="M839.7,503.1a4.7,4.7,0,0,1,1.4-3.7,4,4,0,0,1,2.7-.9,4.1,4.1,0,0,1,3,1.2,4.2,4.2,0,0,1,1.2,3.2,4.9,4.9,0,0,1-.6,2.7,2.9,2.9,0,0,1-1.4,1.5,4.3,4.3,0,0,1-2.2.6,4.1,4.1,0,0,1-3-1.2A5,5,0,0,1,839.7,503.1Zm1.5,0a3.7,3.7,0,0,0,.8,2.5,2.2,2.2,0,0,0,1.8.8,2.2,2.2,0,0,0,1.9-.8,3.8,3.8,0,0,0,.7-2.6,3.7,3.7,0,0,0-.7-2.5,2.6,2.6,0,0,0-1.9-.8,2.5,2.5,0,0,0-1.8.8A3.8,3.8,0,0,0,841.2,503.1Z" fill="#7b7c7f"/><path d="M851.3,507.5v-8.8h1.3v1.2a3.6,3.6,0,0,1,4.3-1.1,1.5,1.5,0,0,1,1,.7,3.7,3.7,0,0,1,.5,1.1c0,.3.1.8.1,1.5v5.4H857v-5.4a3.9,3.9,0,0,0-.2-1.3,1.6,1.6,0,0,0-.6-.8l-1.1-.2a2.3,2.3,0,0,0-1.6.6c-.5.4-.7,1.1-.7,2.3v4.8Z" fill="#7b7c7f"/><path d="M868.4,504.6l1.5.2a3.8,3.8,0,0,1-1.3,2.1,4.2,4.2,0,0,1-2.6.8,3.9,3.9,0,0,1-3-1.2,4.5,4.5,0,0,1-1.2-3.4,4.7,4.7,0,0,1,1.2-3.4,3.9,3.9,0,0,1,3-1.2,3.6,3.6,0,0,1,2.8,1.2,4.5,4.5,0,0,1,1.2,3.4v.4h-6.6a3.1,3.1,0,0,0,.8,2.2,2.4,2.4,0,0,0,1.8.7,2,2,0,0,0,1.4-.4A3.2,3.2,0,0,0,868.4,504.6Zm-4.9-2.4h4.9a3,3,0,0,0-.6-1.6,2.3,2.3,0,0,0-1.8-.9,2.4,2.4,0,0,0-1.8.7A2.7,2.7,0,0,0,863.5,502.2Z" fill="#7b7c7f"/><path d="M879.1,504.2l1.5.2a4.6,4.6,0,0,1-1.2,2.4,3.7,3.7,0,0,1-2.5.9,3.8,3.8,0,0,1-2.9-1.2,5,5,0,0,1-1.1-3.4,6.6,6.6,0,0,1,.5-2.5,3.6,3.6,0,0,1,1.4-1.6,4.1,4.1,0,0,1,2.1-.5,3.6,3.6,0,0,1,2.4.7,3.1,3.1,0,0,1,1.1,2.1l-1.4.2a2.6,2.6,0,0,0-.7-1.4,2,2,0,0,0-1.3-.4,2.2,2.2,0,0,0-1.8.8,3.7,3.7,0,0,0-.7,2.6,4.2,4.2,0,0,0,.6,2.5,2.2,2.2,0,0,0,1.8.8,2,2,0,0,0,1.5-.5A2.7,2.7,0,0,0,879.1,504.2Z" fill="#7b7c7f"/><path d="M886.7,506.1l.2,1.4h-1.1a2.5,2.5,0,0,1-1.3-.3,1.7,1.7,0,0,1-.6-.6,6.2,6.2,0,0,1-.2-1.8v-5.1h-1.1v-1.1h1.1v-2.2l1.5-.9v3.1h1.5v1.1h-1.5V505c0,.4,0,.7.1.8l.3.3h1.1Z" fill="#7b7c7f"/><path d="M901.8,506.4a4.7,4.7,0,0,1-1.6,1,4.1,4.1,0,0,1-1.6.3,3.4,3.4,0,0,1-2.2-.7,2.2,2.2,0,0,1-.8-1.8,2.1,2.1,0,0,1,.3-1.2,2.2,2.2,0,0,1,.7-.9l1.1-.5,1.3-.2a10.8,10.8,0,0,0,2.7-.5v-.4a1.7,1.7,0,0,0-.4-1.3,2.9,2.9,0,0,0-1.7-.5,2.5,2.5,0,0,0-1.6.4,2.6,2.6,0,0,0-.7,1.3l-1.5-.2a5.2,5.2,0,0,1,.7-1.5,2.5,2.5,0,0,1,1.3-.9,6.4,6.4,0,0,1,2-.3l1.8.2a2.3,2.3,0,0,1,1.1.7,1.8,1.8,0,0,1,.4,1,4.9,4.9,0,0,1,.1,1.4v2a15,15,0,0,0,.1,2.6,4.9,4.9,0,0,0,.4,1.1h-1.6Zm-.1-3.3a8.9,8.9,0,0,1-2.4.5l-1.3.3a1,1,0,0,0-.6.5,1,1,0,0,0-.2.7,1.3,1.3,0,0,0,.4,1,1.8,1.8,0,0,0,1.3.4,2.9,2.9,0,0,0,1.6-.4,2.4,2.4,0,0,0,1-1,4.9,4.9,0,0,0,.2-1.5Z" fill="#7b7c7f"/><path d="M907.1,507.5V495.3h1.5v12.2Z" fill="#7b7c7f"/><path d="M912.5,507.5V495.3H914v12.2Z" fill="#7b7c7f"/><path d="M929.9,504.2l1.5.2a4.6,4.6,0,0,1-1.2,2.4,3.7,3.7,0,0,1-2.5.9,3.7,3.7,0,0,1-2.9-1.2,5,5,0,0,1-1.1-3.4,6.6,6.6,0,0,1,.5-2.5,3.6,3.6,0,0,1,1.4-1.6,4.1,4.1,0,0,1,2.1-.5,3.6,3.6,0,0,1,2.4.7,3.1,3.1,0,0,1,1.1,2.1l-1.4.2a2.6,2.6,0,0,0-.7-1.4,2,2,0,0,0-1.3-.4,2.2,2.2,0,0,0-1.8.8,3.7,3.7,0,0,0-.7,2.6,4.2,4.2,0,0,0,.6,2.5,2.2,2.2,0,0,0,1.8.8,2,2,0,0,0,1.5-.5A2.7,2.7,0,0,0,929.9,504.2Z" fill="#7b7c7f"/><path d="M940,507.5v-1.3a3.4,3.4,0,0,1-4.2,1.2,2.1,2.1,0,0,1-1-.8,2.8,2.8,0,0,1-.5-1.1c0-.3-.1-.7-.1-1.4v-5.4h1.5v4.9a5.3,5.3,0,0,0,.1,1.5,2.1,2.1,0,0,0,.6,1,2.2,2.2,0,0,0,2.4-.1,1.4,1.4,0,0,0,.8-.9,4,4,0,0,0,.3-1.7v-4.7h1.5v8.8Z" fill="#7b7c7f"/><path d="M948.6,506.1l.2,1.4h-1.2a2.1,2.1,0,0,1-1.2-.3,1.2,1.2,0,0,1-.6-.6,3.9,3.9,0,0,1-.2-1.8v-5.1h-1.1v-1.1h1.1v-2.2l1.5-.9v3.1h1.5v1.1h-1.5v6l.3.3h1.2Z" fill="#7b7c7f"/><path d="M954.9,506.1l.2,1.4H954a2.3,2.3,0,0,1-1.3-.3,1.2,1.2,0,0,1-.6-.6,3.9,3.9,0,0,1-.2-1.8v-5.1h-1.1v-1.1h1.1v-2.2l1.5-.9v3.1h1.5v1.1h-1.5v6l.3.3h1.2Z" fill="#7b7c7f"/><path d="M963.7,503.1a4.6,4.6,0,0,1,1.3-3.7,4.5,4.5,0,0,1,2.8-.9,4.1,4.1,0,0,1,3,1.2,4.6,4.6,0,0,1,1.1,3.2,5,5,0,0,1-.5,2.7,2.8,2.8,0,0,1-1.5,1.5,3.7,3.7,0,0,1-2.1.6,4.1,4.1,0,0,1-3-1.2A5,5,0,0,1,963.7,503.1Zm1.5,0a4.4,4.4,0,0,0,.7,2.5,2.7,2.7,0,0,0,3.8,0,4.5,4.5,0,0,0,.7-2.6,3.7,3.7,0,0,0-.8-2.5,2.3,2.3,0,0,0-1.8-.8,2.7,2.7,0,0,0-1.9.8A4.5,4.5,0,0,0,965.2,503.1Z" fill="#7b7c7f"/><path d="M981,507.5v-1.3a3.1,3.1,0,0,1-2.8,1.5,3.2,3.2,0,0,1-1.4-.3,2.1,2.1,0,0,1-1-.8,2.8,2.8,0,0,1-.5-1.1c0-.3-.1-.7-.1-1.4v-5.4h1.5v4.9c0,.7.1,1.3.1,1.5a2.1,2.1,0,0,0,.6,1,2.2,2.2,0,0,0,2.4-.1,1.4,1.4,0,0,0,.8-.9,4,4,0,0,0,.3-1.7v-4.7h1.5v8.8Z" fill="#7b7c7f"/><path d="M989.6,506.1l.2,1.4h-1.1a2.3,2.3,0,0,1-1.3-.3,1.2,1.2,0,0,1-.6-.6,3.9,3.9,0,0,1-.2-1.8v-5.1h-1.1v-1.1h1.1v-2.2l1.5-.9v3.1h1.5v1.1h-1.5v6l.3.3h1.2Z" fill="#7b7c7f"/><path d="M1004.7,506.4a5.9,5.9,0,0,1-1.6,1,4.7,4.7,0,0,1-1.7.3,3.6,3.6,0,0,1-2.2-.7,2.5,2.5,0,0,1-.8-1.8,2.1,2.1,0,0,1,.3-1.2,2.4,2.4,0,0,1,.8-.9l1.1-.5,1.3-.2a11.9,11.9,0,0,0,2.7-.5v-.4a1.7,1.7,0,0,0-.5-1.3,2.5,2.5,0,0,0-1.7-.5,2.1,2.1,0,0,0-1.5.4,2.6,2.6,0,0,0-.8,1.3l-1.4-.2a3.4,3.4,0,0,1,.6-1.5,2.8,2.8,0,0,1,1.4-.9,5.6,5.6,0,0,1,2-.3l1.8.2a2,2,0,0,1,1,.7,3.1,3.1,0,0,1,.5,1c0,.3.1.7.1,1.4v2a15,15,0,0,0,.1,2.6,2.3,2.3,0,0,0,.3,1.1H1005A2,2,0,0,1,1004.7,506.4Zm-.1-3.3a10.9,10.9,0,0,1-2.5.5l-1.3.3-.6.5a1.9,1.9,0,0,0-.2.7,1.4,1.4,0,0,0,.5,1,1.7,1.7,0,0,0,1.3.4,2.4,2.4,0,0,0,1.5-.4,1.9,1.9,0,0,0,1-1,2.8,2.8,0,0,0,.3-1.5Z" fill="#7b7c7f"/><path d="M1010,507.5v-8.8h1.3V500a4.6,4.6,0,0,1,.9-1.2,1.9,1.9,0,0,1,1-.3,2.3,2.3,0,0,1,1.5.5l-.5,1.3a2,2,0,0,0-1.1-.3,1.1,1.1,0,0,0-.8.3,1.6,1.6,0,0,0-.6.8,5.2,5.2,0,0,0-.3,1.8v4.6Z" fill="#7b7c7f"/><path d="M1023.2,504.6l1.6.2a3.9,3.9,0,0,1-3.9,2.9,3.8,3.8,0,0,1-3-1.2,4.5,4.5,0,0,1-1.2-3.4,4.7,4.7,0,0,1,1.2-3.4,4.1,4.1,0,0,1,5.8,0,4.5,4.5,0,0,1,1.1,3.4v.4h-6.5a3.1,3.1,0,0,0,.8,2.2,2.4,2.4,0,0,0,1.8.7,2.1,2.1,0,0,0,1.4-.4A2.4,2.4,0,0,0,1023.2,504.6Zm-4.9-2.4h5a3,3,0,0,0-.6-1.6,2.3,2.3,0,0,0-1.8-.9,2.4,2.4,0,0,0-1.8.7A3.3,3.3,0,0,0,1018.3,502.2Z" fill="#7b7c7f"/><path d="M1034,506.4a5.9,5.9,0,0,1-1.6,1,4.5,4.5,0,0,1-1.6.3,3.9,3.9,0,0,1-2.3-.7,2.4,2.4,0,0,1-.7-1.8,2.2,2.2,0,0,1,.2-1.2,2.4,2.4,0,0,1,.8-.9l1.1-.5,1.3-.2a11.9,11.9,0,0,0,2.7-.5v-.4a2.2,2.2,0,0,0-.4-1.3,2.9,2.9,0,0,0-1.7-.5,2.4,2.4,0,0,0-1.6.4,2,2,0,0,0-.7,1.3l-1.5-.2a3.5,3.5,0,0,1,.7-1.5,2.5,2.5,0,0,1,1.3-.9,6,6,0,0,1,2-.3l1.8.2a2,2,0,0,1,1,.7,1.9,1.9,0,0,1,.5,1,4.9,4.9,0,0,1,.1,1.4v2a15,15,0,0,0,.1,2.6,2.5,2.5,0,0,0,.4,1.1h-1.6A2,2,0,0,1,1034,506.4Zm-.1-3.3a10.9,10.9,0,0,1-2.5.5l-1.3.3-.5.5a1.1,1.1,0,0,0-.3.7,1.4,1.4,0,0,0,.5,1,1.7,1.7,0,0,0,1.3.4,2.9,2.9,0,0,0,1.6-.4,2.2,2.2,0,0,0,.9-1,2.8,2.8,0,0,0,.3-1.5Z" fill="#7b7c7f"/><path d="M1038.7,504.8l1.5-.2a2.1,2.1,0,0,0,.7,1.4,2.4,2.4,0,0,0,1.6.4,2.4,2.4,0,0,0,1.5-.4,1.4,1.4,0,0,0,.5-1,1,1,0,0,0-.5-.8l-1.5-.5a10.7,10.7,0,0,1-2.3-.7,2.4,2.4,0,0,1-.9-.8,2.8,2.8,0,0,1-.4-1.2,2.3,2.3,0,0,1,.3-1.1,2,2,0,0,1,.8-.8l.9-.5h1.3a4.8,4.8,0,0,1,1.8.3,2.5,2.5,0,0,1,1.2.8,3.9,3.9,0,0,1,.5,1.3l-1.5.2a1.1,1.1,0,0,0-.6-1,1.7,1.7,0,0,0-1.3-.4,2.8,2.8,0,0,0-1.5.3,1,1,0,0,0-.4.8,1.4,1.4,0,0,0,.2.6l.5.4,1.4.3,2.2.7a3.9,3.9,0,0,1,1,.8,2.8,2.8,0,0,1,.3,1.3,2.3,2.3,0,0,1-.4,1.4,2.7,2.7,0,0,1-1.3,1,3.4,3.4,0,0,1-1.8.4,4.8,4.8,0,0,1-2.7-.7A3.6,3.6,0,0,1,1038.7,504.8Z" fill="#7b7c7f"/><path d="M716.1,529.6l1.5-.2a3.3,3.3,0,0,0,.5,1.5,4,4,0,0,0,1.2,1,5.8,5.8,0,0,0,1.9.3l1.6-.2a3.1,3.1,0,0,0,1.1-.8,1.9,1.9,0,0,0,.3-1,1.7,1.7,0,0,0-.3-1,3,3,0,0,0-1.1-.7,9,9,0,0,0-2.2-.6l-2.3-.8A2.9,2.9,0,0,1,717,526a2.8,2.8,0,0,1,.1-3.3,3.1,3.1,0,0,1,1.5-1.2,7.8,7.8,0,0,1,2.2-.4,8.6,8.6,0,0,1,2.4.4,4.2,4.2,0,0,1,1.6,1.3,3.3,3.3,0,0,1,.6,1.9l-1.6.2a2.2,2.2,0,0,0-.8-1.8,3.3,3.3,0,0,0-2.1-.6,2.9,2.9,0,0,0-2.1.6,1.5,1.5,0,0,0-.7,1.3,1.1,1.1,0,0,0,.5,1,5.8,5.8,0,0,0,2.4.9l2.7.8a3.1,3.1,0,0,1,1.5,1.2,2.6,2.6,0,0,1,.5,1.7,3.2,3.2,0,0,1-.5,1.9,4.2,4.2,0,0,1-1.6,1.3,5.9,5.9,0,0,1-2.3.5,7.4,7.4,0,0,1-2.8-.5,4.2,4.2,0,0,1-1.8-1.4A4.3,4.3,0,0,1,716.1,529.6Z" fill="#7b7c7f"/><path d="M732.6,532.1l.2,1.4h-1.1a2.5,2.5,0,0,1-1.3-.3,1.2,1.2,0,0,1-.6-.6,6.2,6.2,0,0,1-.2-1.8v-5.1h-1.1v-1.1h1.1v-2.2l1.5-.9v3.1h1.5v1.1h-1.5V531c0,.4,0,.7.1.8s.1.2.2.3h1.2Z" fill="#7b7c7f"/><path d="M741.7,530.6l1.5.2a3.8,3.8,0,0,1-1.3,2.1,4.1,4.1,0,0,1-2.5.8,4,4,0,0,1-3.1-1.2,4.5,4.5,0,0,1-1.1-3.4,4.7,4.7,0,0,1,1.1-3.4,4.1,4.1,0,0,1,3-1.2,3.8,3.8,0,0,1,2.9,1.2,5,5,0,0,1,1.1,3.4v.4h-6.6a3.6,3.6,0,0,0,.8,2.2,2.5,2.5,0,0,0,1.9.7,2.3,2.3,0,0,0,1.4-.4A2.4,2.4,0,0,0,741.7,530.6Zm-4.9-2.4h4.9a3,3,0,0,0-.6-1.6,2.1,2.1,0,0,0-1.8-.9,2.1,2.1,0,0,0-1.7.7A2.3,2.3,0,0,0,736.8,528.2Z" fill="#7b7c7f"/><path d="M746.7,536.8V524.7h1.4v1.1a3.2,3.2,0,0,1,1-1,3.3,3.3,0,0,1,1.5-.3,3.4,3.4,0,0,1,2,.6,3,3,0,0,1,1.3,1.6,5.9,5.9,0,0,1,.4,2.3,6.1,6.1,0,0,1-.4,2.4,3.6,3.6,0,0,1-1.5,1.7,3.3,3.3,0,0,1-1.9.6,2.8,2.8,0,0,1-1.3-.3,4.4,4.4,0,0,1-1-.8v4.2Zm1.3-7.7a3.9,3.9,0,0,0,.7,2.5,2.1,2.1,0,0,0,1.7.8,2,2,0,0,0,1.7-.8,3.8,3.8,0,0,0,.7-2.6,3.6,3.6,0,0,0-.7-2.5,1.9,1.9,0,0,0-1.6-.9,2.1,2.1,0,0,0-1.7.9A4,4,0,0,0,748,529.1Z" fill="#7b7c7f"/><path d="M771.5,532v1.5h-8.1a4.3,4.3,0,0,1,.2-1.1,5.9,5.9,0,0,1,1-1.6,12.8,12.8,0,0,1,2-1.8,15.3,15.3,0,0,0,2.6-2.6,2.7,2.7,0,0,0,.7-1.8,2,2,0,0,0-.6-1.5,2.4,2.4,0,0,0-1.7-.6,2.1,2.1,0,0,0-1.7.7,2.4,2.4,0,0,0-.6,1.7h-1.6a3.6,3.6,0,0,1,1.2-2.6,4.1,4.1,0,0,1,2.8-.9,3.8,3.8,0,0,1,2.7.9,3.4,3.4,0,0,1,1.1,2.4,4,4,0,0,1-.3,1.5l-1,1.5-2.3,2.1-1.8,1.5-.6.8Z" fill="#7b7c7f"/><path d="M775.5,526.4v-1.7h1.7v1.7Zm0,7.1v-1.7h1.7v1.7Z" fill="#7b7c7f"/><path d="M799.7,533.5l4.7-12.2h1.7l5,12.2h-1.8l-1.4-3.7h-5.1l-1.4,3.7Zm3.5-5h4.2l-1.3-3.4c-.4-1-.7-1.8-.9-2.5a9.8,9.8,0,0,1-.6,2.3Z" fill="#7b7c7f"/><path d="M819.4,533.5V521.3h8.2v1.5h-6.5v3.7h5.7V528h-5.7v5.5Z" fill="#7b7c7f"/><path d="M830.6,529.1a4.6,4.6,0,0,1,1.3-3.7,4.5,4.5,0,0,1,2.8-.9,4.1,4.1,0,0,1,3,1.2,4.6,4.6,0,0,1,1.1,3.2,5,5,0,0,1-.5,2.7,2.8,2.8,0,0,1-1.5,1.5,3.7,3.7,0,0,1-2.1.6,4.1,4.1,0,0,1-3-1.2A5,5,0,0,1,830.6,529.1Zm1.5,0a4.4,4.4,0,0,0,.7,2.5,2.7,2.7,0,0,0,3.8,0,4.5,4.5,0,0,0,.7-2.6,4.4,4.4,0,0,0-.7-2.5,2.7,2.7,0,0,0-3.8,0A4.5,4.5,0,0,0,832.1,529.1Z" fill="#7b7c7f"/><path d="M842.1,533.5V521.3h1.5v12.2Z" fill="#7b7c7f"/><path d="M853.3,533.5v-1.1a3,3,0,0,1-2.5,1.3,3.1,3.1,0,0,1-1.9-.6,3.6,3.6,0,0,1-1.4-1.6,6.6,6.6,0,0,1-.1-4.8,3.9,3.9,0,0,1,1.4-1.7,3.8,3.8,0,0,1,1.9-.5,2.9,2.9,0,0,1,1.4.3,2.4,2.4,0,0,1,1.1.9v-4.4h1.4v12.2Zm-4.8-4.4a4.4,4.4,0,0,0,.7,2.5,2.1,2.1,0,0,0,1.7.8,2,2,0,0,0,1.7-.8,3.8,3.8,0,0,0,.7-2.4,4.3,4.3,0,0,0-.7-2.6,2.2,2.2,0,0,0-1.7-.9,2.1,2.1,0,0,0-1.7.8A4.5,4.5,0,0,0,848.5,529.1Z" fill="#7b7c7f"/><path d="M864.7,530.7l1.4-.2a3.5,3.5,0,0,0,.7,1.5,2.1,2.1,0,0,0,1.3.5,2.8,2.8,0,0,0,1.3-.4,3,3,0,0,0,.8-.8,9.8,9.8,0,0,0,.6-1.4,11,11,0,0,0,.2-1.8v-.3a4.3,4.3,0,0,1-1.2,1.1,3.7,3.7,0,0,1-1.7.5,3.6,3.6,0,0,1-2.6-1.1,4.1,4.1,0,0,1-1-2.9,3.7,3.7,0,0,1,1.1-3,3.3,3.3,0,0,1,2.7-1.1,4.3,4.3,0,0,1,2.2.6,4.5,4.5,0,0,1,1.5,1.8,10.2,10.2,0,0,1,.5,3.4,13,13,0,0,1-.5,3.8,5.7,5.7,0,0,1-1.5,2.1,4.8,4.8,0,0,1-2.4.7,3.6,3.6,0,0,1-2.3-.8A3.3,3.3,0,0,1,864.7,530.7Zm6.1-5.4a2.6,2.6,0,0,0-.7-2,2.1,2.1,0,0,0-1.6-.8,2.5,2.5,0,0,0-1.8.8,3.8,3.8,0,0,0-.7,2.1,2.5,2.5,0,0,0,.7,1.9,2.3,2.3,0,0,0,1.7.7,2.1,2.1,0,0,0,1.7-.7A2.6,2.6,0,0,0,870.8,525.3Z" fill="#7b7c7f"/><path d="M875.5,527.5a10.8,10.8,0,0,1,.5-3.5,4.1,4.1,0,0,1,1.3-2,3.2,3.2,0,0,1,2.2-.7,3.3,3.3,0,0,1,1.7.4,2.5,2.5,0,0,1,1.2,1.1,7.5,7.5,0,0,1,.8,1.8,20.7,20.7,0,0,1,.2,2.9,10.5,10.5,0,0,1-.4,3.4,4.4,4.4,0,0,1-1.3,2.1,3.8,3.8,0,0,1-2.2.7,3.3,3.3,0,0,1-2.8-1.3C875.9,531.4,875.5,529.8,875.5,527.5Zm1.5,0a8.6,8.6,0,0,0,.7,4,2.4,2.4,0,0,0,1.8,1,2.2,2.2,0,0,0,1.7-1c.5-.7.7-2,.7-4s-.2-3.4-.7-4a2,2,0,0,0-3.4-.1A7.7,7.7,0,0,0,877,527.5Z" fill="#7b7c7f"/><path d="M886.9,523.4a2.4,2.4,0,1,1,.7,1.6A1.9,1.9,0,0,1,886.9,523.4Zm.9,0a1.4,1.4,0,1,0,.4-1A1.3,1.3,0,0,0,887.8,523.4Z" fill="#7b7c7f"/><path d="M716.1,555.6l1.5-.2a3.3,3.3,0,0,0,.5,1.5,4,4,0,0,0,1.2,1,5.8,5.8,0,0,0,1.9.3l1.6-.2a3.1,3.1,0,0,0,1.1-.8,1.9,1.9,0,0,0,.3-1,1.7,1.7,0,0,0-.3-1,3,3,0,0,0-1.1-.7,9,9,0,0,0-2.2-.6l-2.3-.8A2.9,2.9,0,0,1,717,552a2.8,2.8,0,0,1,.1-3.3,3.1,3.1,0,0,1,1.5-1.2,7.8,7.8,0,0,1,2.2-.4,8.6,8.6,0,0,1,2.4.4,4.2,4.2,0,0,1,1.6,1.3,3.3,3.3,0,0,1,.6,1.9l-1.6.2a2.2,2.2,0,0,0-.8-1.8,3.3,3.3,0,0,0-2.1-.6,2.9,2.9,0,0,0-2.1.6,1.5,1.5,0,0,0-.7,1.3,1.1,1.1,0,0,0,.5,1,5.8,5.8,0,0,0,2.4.9l2.7.8a3.1,3.1,0,0,1,1.5,1.2,2.6,2.6,0,0,1,.5,1.7,3.2,3.2,0,0,1-.5,1.9,4.2,4.2,0,0,1-1.6,1.3,5.9,5.9,0,0,1-2.3.5,7.4,7.4,0,0,1-2.8-.5,4.2,4.2,0,0,1-1.8-1.4A4.3,4.3,0,0,1,716.1,555.6Z" fill="#7b7c7f"/><path d="M732.6,558.1l.2,1.4h-1.1a2.5,2.5,0,0,1-1.3-.3,1.2,1.2,0,0,1-.6-.6,6.2,6.2,0,0,1-.2-1.8v-5.1h-1.1v-1.1h1.1v-2.2l1.5-.9v3.1h1.5v1.1h-1.5V557c0,.4,0,.7.1.8s.1.2.2.3h1.2Z" fill="#7b7c7f"/><path d="M741.7,556.6l1.5.2a3.8,3.8,0,0,1-1.3,2.1,4.1,4.1,0,0,1-2.5.8,4,4,0,0,1-3.1-1.2,4.5,4.5,0,0,1-1.1-3.4,4.7,4.7,0,0,1,1.1-3.4,4.1,4.1,0,0,1,3-1.2,3.8,3.8,0,0,1,2.9,1.2,5,5,0,0,1,1.1,3.4v.4h-6.6a3.6,3.6,0,0,0,.8,2.2,2.5,2.5,0,0,0,1.9.7,2.3,2.3,0,0,0,1.4-.4A2.4,2.4,0,0,0,741.7,556.6Zm-4.9-2.4h4.9a3,3,0,0,0-.6-1.6,2.1,2.1,0,0,0-1.8-.9,2.1,2.1,0,0,0-1.7.7A2.3,2.3,0,0,0,736.8,554.2Z" fill="#7b7c7f"/><path d="M746.7,562.8V550.7h1.4v1.1a3.2,3.2,0,0,1,1-1,3.3,3.3,0,0,1,1.5-.3,3.4,3.4,0,0,1,2,.6,3,3,0,0,1,1.3,1.6,5.9,5.9,0,0,1,.4,2.3,6.1,6.1,0,0,1-.4,2.4,3.6,3.6,0,0,1-1.5,1.7,3.3,3.3,0,0,1-1.9.6,2.8,2.8,0,0,1-1.3-.3,4.4,4.4,0,0,1-1-.8v4.2Zm1.3-7.7a3.9,3.9,0,0,0,.7,2.5,2.1,2.1,0,0,0,1.7.8,2,2,0,0,0,1.7-.8,3.8,3.8,0,0,0,.7-2.6,3.6,3.6,0,0,0-.7-2.5,1.9,1.9,0,0,0-1.6-.9,2.1,2.1,0,0,0-1.7.9A4,4,0,0,0,748,555.1Z" fill="#7b7c7f"/><path d="M763.6,556.3l1.5-.2a3.8,3.8,0,0,0,.9,1.8,2,2,0,0,0,1.5.6,2.5,2.5,0,0,0,1.8-.8,2.4,2.4,0,0,0,.7-1.8,2.2,2.2,0,0,0-.7-1.7,2.4,2.4,0,0,0-1.7-.6h-1l.2-1.3h.2a2.6,2.6,0,0,0,1.7-.5,1.6,1.6,0,0,0,.8-1.5,1.8,1.8,0,0,0-.6-1.4,2.2,2.2,0,0,0-1.4-.5,2.5,2.5,0,0,0-1.5.5,2.9,2.9,0,0,0-.7,1.7l-1.5-.3a3.9,3.9,0,0,1,1.2-2.3,3.5,3.5,0,0,1,2.4-.8,4.1,4.1,0,0,1,1.9.4,3.7,3.7,0,0,1,1.3,1.2,2.8,2.8,0,0,1,.4,1.5,2.6,2.6,0,0,1-.4,1.5,3.4,3.4,0,0,1-1.3,1,3.2,3.2,0,0,1,1.7,1,3.2,3.2,0,0,1,.6,2,3.7,3.7,0,0,1-1.2,2.7,4,4,0,0,1-2.9,1.1,3.8,3.8,0,0,1-2.7-1A3.5,3.5,0,0,1,763.6,556.3Z" fill="#7b7c7f"/><path d="M775.5,552.4v-1.7h1.7v1.7Zm0,7.1v-1.7h1.7v1.7Z" fill="#7b7c7f"/><path d="M801,559.5V547.3h4.6a4.8,4.8,0,0,1,2.2.4,2.4,2.4,0,0,1,1.3,1.1,3.3,3.3,0,0,1,.5,1.6,4.2,4.2,0,0,1-.4,1.5,2.8,2.8,0,0,1-1.3,1.1,3.4,3.4,0,0,1,1.7,1.1,2.8,2.8,0,0,1,.6,1.8,2.9,2.9,0,0,1-.4,1.6,2.7,2.7,0,0,1-.9,1.2l-1.3.6-2,.2Zm1.6-7.1h4.2a1.5,1.5,0,0,0,.9-.6,2,2,0,0,0,.3-1.1,1.7,1.7,0,0,0-.3-1,1.3,1.3,0,0,0-.8-.7h-4.3Zm0,5.6h4.1l1-.4a1.7,1.7,0,0,0,.6-.6,3.6,3.6,0,0,0,.2-1.1,2,2,0,0,0-.3-1.1,1.7,1.7,0,0,0-1-.7,4.4,4.4,0,0,0-1.8-.2h-2.8Z" fill="#7b7c7f"/><path d="M820.4,559.5V547.3h8.2v1.5H822v3.7h5.7V554H822v5.5Z" fill="#7b7c7f"/><path d="M831.5,555.1a4.7,4.7,0,0,1,1.4-3.7,4.2,4.2,0,0,1,2.7-.9,3.9,3.9,0,0,1,3,1.2,4.2,4.2,0,0,1,1.2,3.2,6.2,6.2,0,0,1-.5,2.7,3.6,3.6,0,0,1-1.5,1.5,4.3,4.3,0,0,1-2.2.6,3.7,3.7,0,0,1-2.9-1.2A4.5,4.5,0,0,1,831.5,555.1Zm1.5,0a3.7,3.7,0,0,0,.8,2.5,2.2,2.2,0,0,0,1.8.8,2.2,2.2,0,0,0,1.9-.8,3.8,3.8,0,0,0,.7-2.6,3.7,3.7,0,0,0-.7-2.5,2.6,2.6,0,0,0-1.9-.8,2.5,2.5,0,0,0-1.8.8A3.8,3.8,0,0,0,833,555.1Z" fill="#7b7c7f"/><path d="M843.1,559.5V547.3h1.5v12.2Z" fill="#7b7c7f"/><path d="M854.2,559.5v-1.1a3,3,0,0,1-2.5,1.3,3.3,3.3,0,0,1-1.9-.6,3.6,3.6,0,0,1-1.4-1.6,6,6,0,0,1,0-4.8,3.7,3.7,0,0,1,1.3-1.7,4.2,4.2,0,0,1,2-.5,3.2,3.2,0,0,1,1.4.3,2.8,2.8,0,0,1,1,.9v-4.4h1.5v12.2Zm-4.7-4.4a3.7,3.7,0,0,0,.7,2.5,2,2,0,0,0,1.7.8,1.8,1.8,0,0,0,1.6-.8,3.3,3.3,0,0,0,.7-2.4,3.7,3.7,0,0,0-.7-2.6,2,2,0,0,0-1.7-.9,2.3,2.3,0,0,0-1.7.8A4.5,4.5,0,0,0,849.5,555.1Z" fill="#7b7c7f"/><path d="M871,559.5h-1.5V550l-1.4,1-1.5.8v-1.5a7.7,7.7,0,0,0,2.1-1.4,6.4,6.4,0,0,0,1.4-1.6h.9Z" fill="#7b7c7f"/><path d="M876.5,556.3l1.5-.2a3,3,0,0,0,.8,1.8,2,2,0,0,0,1.5.6,2.5,2.5,0,0,0,1.8-.8,2.4,2.4,0,0,0,.7-1.8,2.5,2.5,0,0,0-.6-1.7,2.7,2.7,0,0,0-1.7-.6h-1.1l.2-1.3h.2a2.6,2.6,0,0,0,1.7-.5,1.6,1.6,0,0,0,.8-1.5,1.8,1.8,0,0,0-.6-1.4,2,2,0,0,0-1.4-.5,2.5,2.5,0,0,0-1.5.5,3.8,3.8,0,0,0-.7,1.7l-1.5-.3a3.5,3.5,0,0,1,1.3-2.3,3.2,3.2,0,0,1,2.4-.8,3.9,3.9,0,0,1,1.8.4,3,3,0,0,1,1.3,1.2,2.8,2.8,0,0,1,.4,1.5,2.6,2.6,0,0,1-.4,1.5,3.4,3.4,0,0,1-1.3,1,2.9,2.9,0,0,1,1.7,1,3.2,3.2,0,0,1,.6,2,4,4,0,0,1-1.1,2.7,4.4,4.4,0,0,1-3,1.1,3.5,3.5,0,0,1-2.6-1A3.5,3.5,0,0,1,876.5,556.3Z" fill="#7b7c7f"/><path d="M887.5,556.3h1.6a2.5,2.5,0,0,0,.8,1.7,2,2,0,0,0,1.5.6,2.3,2.3,0,0,0,1.8-.9,2.9,2.9,0,0,0,.8-2.1,2.6,2.6,0,0,0-.8-2,2.3,2.3,0,0,0-1.8-.8,2,2,0,0,0-1.3.4,2.4,2.4,0,0,0-.9.8l-1.4-.2,1.1-6.2H895v1.4h-4.9l-.6,3.3a4,4,0,0,1,2.3-.8,4,4,0,0,1,2.7,1.1,4.1,4.1,0,0,1,1,2.9,4.5,4.5,0,0,1-.9,2.8,3.9,3.9,0,0,1-3.2,1.5,4,4,0,0,1-2.7-.9A3.9,3.9,0,0,1,887.5,556.3Z" fill="#7b7c7f"/><path d="M898.9,549.4a2,2,0,0,1,.7-1.6,1.9,1.9,0,0,1,1.6-.7,2.3,2.3,0,0,1,0,4.6,2.4,2.4,0,0,1-2.3-2.3Zm.9,0a1.4,1.4,0,0,0,2.4,1,1.5,1.5,0,0,0,0-2,1.4,1.4,0,0,0-2.4,1Z" fill="#7b7c7f"/><path d="M716.1,581.6l1.5-.2a3.3,3.3,0,0,0,.5,1.5,4,4,0,0,0,1.2,1,5.8,5.8,0,0,0,1.9.3l1.6-.2a3.1,3.1,0,0,0,1.1-.8,1.9,1.9,0,0,0,.3-1,1.7,1.7,0,0,0-.3-1,3,3,0,0,0-1.1-.7,9,9,0,0,0-2.2-.6l-2.3-.8A2.9,2.9,0,0,1,717,578a2.8,2.8,0,0,1,.1-3.3,3.1,3.1,0,0,1,1.5-1.2,7.8,7.8,0,0,1,2.2-.4,8.6,8.6,0,0,1,2.4.4,4.2,4.2,0,0,1,1.6,1.3,3.3,3.3,0,0,1,.6,1.9l-1.6.2a2.2,2.2,0,0,0-.8-1.8,3.3,3.3,0,0,0-2.1-.6,2.9,2.9,0,0,0-2.1.6,1.5,1.5,0,0,0-.7,1.3,1.1,1.1,0,0,0,.5,1,5.8,5.8,0,0,0,2.4.9l2.7.8a3.1,3.1,0,0,1,1.5,1.2,2.6,2.6,0,0,1,.5,1.7,3.2,3.2,0,0,1-.5,1.9,4.2,4.2,0,0,1-1.6,1.3,5.9,5.9,0,0,1-2.3.5,7.4,7.4,0,0,1-2.8-.5,4.2,4.2,0,0,1-1.8-1.4A4.3,4.3,0,0,1,716.1,581.6Z" fill="#7b7c7f"/><path d="M732.6,584.1l.2,1.4h-1.1a2.5,2.5,0,0,1-1.3-.3,1.2,1.2,0,0,1-.6-.6,6.2,6.2,0,0,1-.2-1.8v-5.1h-1.1v-1.1h1.1v-2.2l1.5-.9v3.1h1.5v1.1h-1.5V583c0,.4,0,.7.1.8s.1.2.2.3h1.2Z" fill="#7b7c7f"/><path d="M741.7,582.6l1.5.2a3.8,3.8,0,0,1-1.3,2.1,4.1,4.1,0,0,1-2.5.8,4,4,0,0,1-3.1-1.2,4.5,4.5,0,0,1-1.1-3.4,4.7,4.7,0,0,1,1.1-3.4,4.1,4.1,0,0,1,3-1.2,3.8,3.8,0,0,1,2.9,1.2,5,5,0,0,1,1.1,3.4v.4h-6.6a3.6,3.6,0,0,0,.8,2.2,2.5,2.5,0,0,0,1.9.7,2.3,2.3,0,0,0,1.4-.4A2.4,2.4,0,0,0,741.7,582.6Zm-4.9-2.4h4.9a3,3,0,0,0-.6-1.6,2.1,2.1,0,0,0-1.8-.9,2.1,2.1,0,0,0-1.7.7A2.3,2.3,0,0,0,736.8,580.2Z" fill="#7b7c7f"/><path d="M746.7,588.8V576.7h1.4v1.1a3.2,3.2,0,0,1,1-1,3.3,3.3,0,0,1,1.5-.3,3.4,3.4,0,0,1,2,.6,3,3,0,0,1,1.3,1.6,5.9,5.9,0,0,1,.4,2.3,6.1,6.1,0,0,1-.4,2.4,3.6,3.6,0,0,1-1.5,1.7,3.3,3.3,0,0,1-1.9.6,2.8,2.8,0,0,1-1.3-.3,4.4,4.4,0,0,1-1-.8v4.2Zm1.3-7.7a3.9,3.9,0,0,0,.7,2.5,2.1,2.1,0,0,0,1.7.8,2,2,0,0,0,1.7-.8,3.8,3.8,0,0,0,.7-2.6,3.6,3.6,0,0,0-.7-2.5,1.9,1.9,0,0,0-1.6-.9,2.1,2.1,0,0,0-1.7.9A4,4,0,0,0,748,581.1Z" fill="#7b7c7f"/><path d="M768.4,585.5v-2.9h-5.3v-1.4l5.6-7.9h1.2v7.9h1.7v1.4h-1.7v2.9Zm0-4.3v-5.5l-3.8,5.5Z" fill="#7b7c7f"/><path d="M775.5,578.4v-1.7h1.7v1.7Zm0,7.1v-1.7h1.7v1.7Z" fill="#7b7c7f"/><path d="M809.7,581.2l1.6.4a5.1,5.1,0,0,1-1.8,3,5,5,0,0,1-3.2,1.1,6.1,6.1,0,0,1-3.2-.8,6.2,6.2,0,0,1-1.9-2.3,8.8,8.8,0,0,1-.6-3.3,6.7,6.7,0,0,1,.7-3.3,5.6,5.6,0,0,1,2.1-2.2,7.3,7.3,0,0,1,2.9-.7,5,5,0,0,1,3.1.9,5,5,0,0,1,1.7,2.7l-1.5.3a3.4,3.4,0,0,0-1.3-1.9,3.2,3.2,0,0,0-2-.6,3.5,3.5,0,0,0-2.3.7,3.2,3.2,0,0,0-1.4,1.8,8.5,8.5,0,0,0-.3,2.3,7.7,7.7,0,0,0,.4,2.7,3,3,0,0,0,1.4,1.7,3.9,3.9,0,0,0,2.1.6,3.8,3.8,0,0,0,2.3-.8A3.9,3.9,0,0,0,809.7,581.2Z" fill="#7b7c7f"/><path d="M821.3,585.5V573.3h8.2v1.5h-6.6v3.7h5.7V580h-5.7v5.5Z" fill="#7b7c7f"/><path d="M832.5,581.1a4.6,4.6,0,0,1,1.3-3.7,4.5,4.5,0,0,1,2.8-.9,3.7,3.7,0,0,1,2.9,1.2,4.2,4.2,0,0,1,1.2,3.2,6.2,6.2,0,0,1-.5,2.7,2.8,2.8,0,0,1-1.5,1.5,4.2,4.2,0,0,1-5.1-.6A4.5,4.5,0,0,1,832.5,581.1Zm1.5,0a3.7,3.7,0,0,0,.7,2.5,2.2,2.2,0,0,0,1.9.8,2.2,2.2,0,0,0,1.8-.8,3.8,3.8,0,0,0,.8-2.6,3.7,3.7,0,0,0-.8-2.5,2.5,2.5,0,0,0-1.8-.8,2.6,2.6,0,0,0-1.9.8A3.8,3.8,0,0,0,834,581.1Z" fill="#7b7c7f"/><path d="M844,585.5V573.3h1.5v12.2Z" fill="#7b7c7f"/><path d="M855.1,585.5v-1.1a2.8,2.8,0,0,1-2.4,1.3,3.6,3.6,0,0,1-2-.6,3.4,3.4,0,0,1-1.3-1.6,4.7,4.7,0,0,1-.5-2.4,6.1,6.1,0,0,1,.4-2.4,3.7,3.7,0,0,1,1.3-1.7,4.6,4.6,0,0,1,2-.5,3.2,3.2,0,0,1,1.4.3,2.2,2.2,0,0,1,1,.9v-4.4h1.5v12.2Zm-4.7-4.4a3.7,3.7,0,0,0,.7,2.5,2.1,2.1,0,0,0,1.7.8,2,2,0,0,0,1.7-.8,3.8,3.8,0,0,0,.6-2.4,4.3,4.3,0,0,0-.6-2.6,2.3,2.3,0,0,0-1.8-.9,2.1,2.1,0,0,0-1.6.8A3.8,3.8,0,0,0,850.4,581.1Z" fill="#7b7c7f"/><path d="M866.2,581.8v-1.5h4.6v1.5Z" fill="#7b7c7f"/><path d="M873.8,582.7l1.5-.2a2.1,2.1,0,0,0,.7,1.5,1.7,1.7,0,0,0,1.3.5,2.8,2.8,0,0,0,1.2-.4,3,3,0,0,0,.8-.8,9.8,9.8,0,0,0,.6-1.4,11,11,0,0,0,.2-1.8v-.3a4.3,4.3,0,0,1-1.2,1.1,3.4,3.4,0,0,1-1.7.5,3.6,3.6,0,0,1-2.6-1.1,4.7,4.7,0,0,1,.1-5.9,3.3,3.3,0,0,1,2.7-1.1,4.3,4.3,0,0,1,2.2.6,4.5,4.5,0,0,1,1.5,1.8,10.2,10.2,0,0,1,.5,3.4,13,13,0,0,1-.5,3.8,5.7,5.7,0,0,1-1.5,2.1,4.8,4.8,0,0,1-2.4.7,3.6,3.6,0,0,1-2.3-.8A3.3,3.3,0,0,1,873.8,582.7Zm6.1-5.4a2.6,2.6,0,0,0-.7-2,2.1,2.1,0,0,0-1.6-.8,2.3,2.3,0,0,0-1.7.8,3.2,3.2,0,0,0-.8,2.1,2.9,2.9,0,0,0,.7,1.9,2.4,2.4,0,0,0,1.8.7,2.2,2.2,0,0,0,1.7-.7A3,3,0,0,0,879.9,577.3Z" fill="#7b7c7f"/><path d="M884.6,579.5a10.8,10.8,0,0,1,.5-3.5,4.1,4.1,0,0,1,1.3-2,3.2,3.2,0,0,1,2.2-.7,3.1,3.1,0,0,1,1.7.4,2.5,2.5,0,0,1,1.2,1.1,4.9,4.9,0,0,1,.8,1.8,11.2,11.2,0,0,1,.3,2.9,10.2,10.2,0,0,1-.5,3.4,4.4,4.4,0,0,1-1.3,2.1,3.8,3.8,0,0,1-2.2.7,3.3,3.3,0,0,1-2.8-1.3C885,583.4,884.6,581.8,884.6,579.5Zm1.6,0c0,2,.2,3.3.7,4a1.9,1.9,0,0,0,3.4,0c.5-.7.7-2,.7-4s-.2-3.4-.7-4a1.9,1.9,0,0,0-1.7-1,2,2,0,0,0-1.7.9C886.4,576.1,886.2,577.5,886.2,579.5Z" fill="#7b7c7f"/><path d="M896,575.4a2.4,2.4,0,0,1,.7-1.6,2.1,2.1,0,0,1,1.6-.7,2.2,2.2,0,0,1,1.7.7,2.4,2.4,0,0,1,0,3.2,2.2,2.2,0,0,1-1.7.7,2.1,2.1,0,0,1-1.6-.7A2.2,2.2,0,0,1,896,575.4Zm.9,0a1.8,1.8,0,0,0,.4,1,1.4,1.4,0,1,0,0-2A1.8,1.8,0,0,0,896.9,575.4Z" fill="#7b7c7f"/><path d="M716.1,607.6l1.5-.2a3.3,3.3,0,0,0,.5,1.5,4,4,0,0,0,1.2,1,5.8,5.8,0,0,0,1.9.3l1.6-.2a3.1,3.1,0,0,0,1.1-.8,1.9,1.9,0,0,0,.3-1,1.7,1.7,0,0,0-.3-1,3,3,0,0,0-1.1-.7,9,9,0,0,0-2.2-.6l-2.3-.8A2.9,2.9,0,0,1,717,604a2.8,2.8,0,0,1,.1-3.3,3.1,3.1,0,0,1,1.5-1.2,7.8,7.8,0,0,1,2.2-.4,8.6,8.6,0,0,1,2.4.4,4.2,4.2,0,0,1,1.6,1.3,3.3,3.3,0,0,1,.6,1.9l-1.6.2a2.2,2.2,0,0,0-.8-1.8,3.3,3.3,0,0,0-2.1-.6,2.9,2.9,0,0,0-2.1.6,1.5,1.5,0,0,0-.7,1.3,1.1,1.1,0,0,0,.5,1,5.8,5.8,0,0,0,2.4.9l2.7.8a3.1,3.1,0,0,1,1.5,1.2,2.6,2.6,0,0,1,.5,1.7,3.2,3.2,0,0,1-.5,1.9,4.2,4.2,0,0,1-1.6,1.3,5.9,5.9,0,0,1-2.3.5,7.4,7.4,0,0,1-2.8-.5,4.2,4.2,0,0,1-1.8-1.4A4.3,4.3,0,0,1,716.1,607.6Z" fill="#7b7c7f"/><path d="M732.6,610.1l.2,1.4h-1.1a2.5,2.5,0,0,1-1.3-.3,1.2,1.2,0,0,1-.6-.6,6.2,6.2,0,0,1-.2-1.8v-5.1h-1.1v-1.1h1.1v-2.2l1.5-.9v3.1h1.5v1.1h-1.5V609c0,.4,0,.7.1.8s.1.2.2.3h1.2Z" fill="#7b7c7f"/><path d="M741.7,608.6l1.5.2a3.8,3.8,0,0,1-1.3,2.1,4.1,4.1,0,0,1-2.5.8,4,4,0,0,1-3.1-1.2,4.5,4.5,0,0,1-1.1-3.4,4.7,4.7,0,0,1,1.1-3.4,4.1,4.1,0,0,1,3-1.2,3.8,3.8,0,0,1,2.9,1.2,5,5,0,0,1,1.1,3.4v.4h-6.6a3.6,3.6,0,0,0,.8,2.2,2.5,2.5,0,0,0,1.9.7,2.3,2.3,0,0,0,1.4-.4A2.4,2.4,0,0,0,741.7,608.6Zm-4.9-2.4h4.9a3,3,0,0,0-.6-1.6,2.1,2.1,0,0,0-1.8-.9,2.1,2.1,0,0,0-1.7.7A2.3,2.3,0,0,0,736.8,606.2Z" fill="#7b7c7f"/><path d="M746.7,614.8V602.7h1.4v1.1a3.2,3.2,0,0,1,1-1,3.3,3.3,0,0,1,1.5-.3,3.4,3.4,0,0,1,2,.6,3,3,0,0,1,1.3,1.6,5.9,5.9,0,0,1,.4,2.3,6.1,6.1,0,0,1-.4,2.4,3.6,3.6,0,0,1-1.5,1.7,3.3,3.3,0,0,1-1.9.6,2.8,2.8,0,0,1-1.3-.3,4.4,4.4,0,0,1-1-.8v4.2Zm1.3-7.7a3.9,3.9,0,0,0,.7,2.5,2.1,2.1,0,0,0,1.7.8,2,2,0,0,0,1.7-.8,3.8,3.8,0,0,0,.7-2.6,3.6,3.6,0,0,0-.7-2.5,1.9,1.9,0,0,0-1.6-.9,2.1,2.1,0,0,0-1.7.9A4,4,0,0,0,748,607.1Z" fill="#7b7c7f"/><path d="M763.6,608.3h1.6a3,3,0,0,0,.8,1.7,2,2,0,0,0,1.5.6,2.3,2.3,0,0,0,1.9-.9,2.8,2.8,0,0,0,.7-2.1,2.6,2.6,0,0,0-2.6-2.8,2,2,0,0,0-1.3.4,2.4,2.4,0,0,0-.9.8l-1.4-.2,1.2-6.2h6v1.4h-4.8l-.7,3.3a4,4,0,0,1,2.3-.8,3.7,3.7,0,0,1,2.7,1.1,4.2,4.2,0,0,1,1.1,2.9,4,4,0,0,1-1,2.8,3.8,3.8,0,0,1-3.2,1.5,4,4,0,0,1-2.7-.9A3.9,3.9,0,0,1,763.6,608.3Z" fill="#7b7c7f"/><path d="M775.5,604.4v-1.7h1.7v1.7Zm0,7.1v-1.7h1.7v1.7Z" fill="#7b7c7f"/><path d="M801.1,611.5V599.3h4.2l2.1.2a3.8,3.8,0,0,1,1.8.9,4.8,4.8,0,0,1,1.4,2,6.8,6.8,0,0,1,.5,2.9,9,9,0,0,1-.3,2.5,7.5,7.5,0,0,1-.8,1.8l-1.1,1.1-1.5.6-2,.2Zm1.6-1.5h2.6a5.3,5.3,0,0,0,1.9-.2,1.7,1.7,0,0,0,1-.6,3.5,3.5,0,0,0,.9-1.6,7.3,7.3,0,0,0,.4-2.3,5.6,5.6,0,0,0-.7-2.9,2.9,2.9,0,0,0-1.5-1.4,5.6,5.6,0,0,0-2.1-.2h-2.5Z" fill="#7b7c7f"/><path d="M821.3,611.5V599.3h8.2v1.5h-6.6v3.7h5.7V606h-5.7v5.5Z" fill="#7b7c7f"/><path d="M832.5,607.1a4.6,4.6,0,0,1,1.3-3.7,4.5,4.5,0,0,1,2.8-.9,3.7,3.7,0,0,1,2.9,1.2,4.2,4.2,0,0,1,1.2,3.2,6.2,6.2,0,0,1-.5,2.7,2.8,2.8,0,0,1-1.5,1.5,4.2,4.2,0,0,1-5.1-.6A4.5,4.5,0,0,1,832.5,607.1Zm1.5,0a3.7,3.7,0,0,0,.7,2.5,2.2,2.2,0,0,0,1.9.8,2.2,2.2,0,0,0,1.8-.8,3.8,3.8,0,0,0,.8-2.6,3.7,3.7,0,0,0-.8-2.5,2.5,2.5,0,0,0-1.8-.8,2.6,2.6,0,0,0-1.9.8A3.8,3.8,0,0,0,834,607.1Z" fill="#7b7c7f"/><path d="M844,611.5V599.3h1.5v12.2Z" fill="#7b7c7f"/><path d="M855.1,611.5v-1.1a2.8,2.8,0,0,1-2.4,1.3,3.6,3.6,0,0,1-2-.6,3.4,3.4,0,0,1-1.3-1.6,4.7,4.7,0,0,1-.5-2.4,6.1,6.1,0,0,1,.4-2.4,3.7,3.7,0,0,1,1.3-1.7,4.6,4.6,0,0,1,2-.5,3.2,3.2,0,0,1,1.4.3,2.2,2.2,0,0,1,1,.9v-4.4h1.5v12.2Zm-4.7-4.4a3.7,3.7,0,0,0,.7,2.5,2.1,2.1,0,0,0,1.7.8,2,2,0,0,0,1.7-.8,3.8,3.8,0,0,0,.6-2.4,4.3,4.3,0,0,0-.6-2.6,2.3,2.3,0,0,0-1.8-.9,2.1,2.1,0,0,0-1.6.8A3.8,3.8,0,0,0,850.4,607.1Z" fill="#7b7c7f"/><path d="M872,611.5h-1.5V602l-1.4,1-1.6.8v-1.5a7.3,7.3,0,0,0,3.5-3h1Z" fill="#7b7c7f"/><path d="M877.4,608.3l1.5-.2a3.1,3.1,0,0,0,.9,1.8,2,2,0,0,0,1.5.6,2.1,2.1,0,0,0,1.7-.8,2.5,2.5,0,0,0,.8-1.8,2.6,2.6,0,0,0-.7-1.7,2.4,2.4,0,0,0-1.7-.6h-1.1l.2-1.3h.2a2.7,2.7,0,0,0,1.8-.5,1.6,1.6,0,0,0,.7-1.5,2.2,2.2,0,0,0-.5-1.4,2.5,2.5,0,0,0-1.5-.5,2.4,2.4,0,0,0-1.4.5,3,3,0,0,0-.8,1.7l-1.5-.3a3.5,3.5,0,0,1,1.3-2.3,3.2,3.2,0,0,1,2.4-.8,3.4,3.4,0,0,1,1.8.4,3,3,0,0,1,1.3,1.2,3,3,0,0,1,.5,1.5,2.7,2.7,0,0,1-.5,1.5,3.1,3.1,0,0,1-1.2,1,3.2,3.2,0,0,1,1.7,1,3.2,3.2,0,0,1,.6,2,3.7,3.7,0,0,1-1.2,2.7,4.4,4.4,0,0,1-2.9,1.1,3.6,3.6,0,0,1-2.7-1A3.5,3.5,0,0,1,877.4,608.3Z" fill="#7b7c7f"/><path d="M888.4,608.3H890a3,3,0,0,0,.8,1.7,2,2,0,0,0,1.5.6,2.5,2.5,0,0,0,1.9-.9,3.3,3.3,0,0,0,.7-2.1,2.6,2.6,0,0,0-2.6-2.8,2,2,0,0,0-1.3.4,2.4,2.4,0,0,0-.9.8l-1.4-.2,1.2-6.2h6v1.4h-4.8l-.7,3.3a4,4,0,0,1,2.3-.8,3.7,3.7,0,0,1,2.7,1.1,4.2,4.2,0,0,1,1.1,2.9,4,4,0,0,1-1,2.8,3.8,3.8,0,0,1-3.2,1.5,4,4,0,0,1-2.7-.9A3.9,3.9,0,0,1,888.4,608.3Z" fill="#7b7c7f"/><path d="M899.8,601.4a2.4,2.4,0,0,1,2.3-2.3,1.9,1.9,0,0,1,1.6.7,2.2,2.2,0,0,1,0,3.2,1.9,1.9,0,0,1-1.6.7,2,2,0,0,1-1.6-.7A1.9,1.9,0,0,1,899.8,601.4Zm.9,0a1.8,1.8,0,0,0,.4,1,1.4,1.4,0,1,0,0-2A1.8,1.8,0,0,0,900.7,601.4Z" fill="#7b7c7f"/><path d="M716.1,633.6l1.5-.2a3.3,3.3,0,0,0,.5,1.5,4,4,0,0,0,1.2,1,5.8,5.8,0,0,0,1.9.3l1.6-.2a3.1,3.1,0,0,0,1.1-.8,1.9,1.9,0,0,0,.3-1,1.7,1.7,0,0,0-.3-1,3,3,0,0,0-1.1-.7,9,9,0,0,0-2.2-.6l-2.3-.8A2.9,2.9,0,0,1,717,630a2.8,2.8,0,0,1,.1-3.3,3.1,3.1,0,0,1,1.5-1.2,7.8,7.8,0,0,1,2.2-.4,8.6,8.6,0,0,1,2.4.4,4.2,4.2,0,0,1,1.6,1.3,3.3,3.3,0,0,1,.6,1.9l-1.6.2a2.2,2.2,0,0,0-.8-1.8,3.3,3.3,0,0,0-2.1-.6,2.9,2.9,0,0,0-2.1.6,1.5,1.5,0,0,0-.7,1.3,1.1,1.1,0,0,0,.5,1,5.8,5.8,0,0,0,2.4.9l2.7.8a3.1,3.1,0,0,1,1.5,1.2,2.6,2.6,0,0,1,.5,1.7,3.2,3.2,0,0,1-.5,1.9,4.2,4.2,0,0,1-1.6,1.3,5.9,5.9,0,0,1-2.3.5,7.4,7.4,0,0,1-2.8-.5,4.2,4.2,0,0,1-1.8-1.4A4.3,4.3,0,0,1,716.1,633.6Z" fill="#7b7c7f"/><path d="M732.6,636.1l.2,1.4h-1.1a2.5,2.5,0,0,1-1.3-.3,1.2,1.2,0,0,1-.6-.6,6.2,6.2,0,0,1-.2-1.8v-5.1h-1.1v-1.1h1.1v-2.2l1.5-.9v3.1h1.5v1.1h-1.5V635c0,.4,0,.7.1.8s.1.2.2.3h1.2Z" fill="#7b7c7f"/><path d="M741.7,634.6l1.5.2a3.8,3.8,0,0,1-1.3,2.1,4.1,4.1,0,0,1-2.5.8,4,4,0,0,1-3.1-1.2,4.5,4.5,0,0,1-1.1-3.4,4.7,4.7,0,0,1,1.1-3.4,4.1,4.1,0,0,1,3-1.2,3.8,3.8,0,0,1,2.9,1.2,5,5,0,0,1,1.1,3.4v.4h-6.6a3.6,3.6,0,0,0,.8,2.2,2.5,2.5,0,0,0,1.9.7,2.3,2.3,0,0,0,1.4-.4A2.4,2.4,0,0,0,741.7,634.6Zm-4.9-2.4h4.9a3,3,0,0,0-.6-1.6,2.1,2.1,0,0,0-1.8-.9,2.1,2.1,0,0,0-1.7.7A2.3,2.3,0,0,0,736.8,632.2Z" fill="#7b7c7f"/><path d="M746.7,640.8V628.7h1.4v1.1a3.2,3.2,0,0,1,1-1,3.3,3.3,0,0,1,1.5-.3,3.4,3.4,0,0,1,2,.6,3,3,0,0,1,1.3,1.6,5.9,5.9,0,0,1,.4,2.3,6.1,6.1,0,0,1-.4,2.4,3.6,3.6,0,0,1-1.5,1.7,3.3,3.3,0,0,1-1.9.6,2.8,2.8,0,0,1-1.3-.3,4.4,4.4,0,0,1-1-.8v4.2Zm1.3-7.7a3.9,3.9,0,0,0,.7,2.5,2.1,2.1,0,0,0,1.7.8,2,2,0,0,0,1.7-.8,3.8,3.8,0,0,0,.7-2.6,3.6,3.6,0,0,0-.7-2.5,1.9,1.9,0,0,0-1.6-.9,2.1,2.1,0,0,0-1.7.9A4,4,0,0,0,748,633.1Z" fill="#7b7c7f"/><path d="M771.4,628.3h-1.5a2.3,2.3,0,0,0-.6-1.3,2,2,0,0,0-1.5-.6,1.7,1.7,0,0,0-1.2.4,2.5,2.5,0,0,0-1.1,1.5,7.2,7.2,0,0,0-.4,2.8,3,3,0,0,1,1.3-1.2,2.9,2.9,0,0,1,1.6-.4,3.4,3.4,0,0,1,2.5,1.1,3.9,3.9,0,0,1,1.1,2.8,5.4,5.4,0,0,1-.5,2.2,4,4,0,0,1-1.4,1.5,3.8,3.8,0,0,1-1.9.5,4,4,0,0,1-3.1-1.4,7.4,7.4,0,0,1-1.1-4.5c0-2.4.4-4.1,1.3-5.1a3.4,3.4,0,0,1,3-1.4,3.2,3.2,0,0,1,2.4.8A3.3,3.3,0,0,1,771.4,628.3Zm-6.1,5.2a4,4,0,0,0,.3,1.5,2.4,2.4,0,0,0,.9,1.1,2.8,2.8,0,0,0,1.3.4,2.3,2.3,0,0,0,1.6-.8,3.3,3.3,0,0,0,.7-2.1,3.2,3.2,0,0,0-.7-2,2.4,2.4,0,0,0-3.4,0A2.6,2.6,0,0,0,765.3,633.5Z" fill="#7b7c7f"/><path d="M775.5,630.4v-1.7h1.7v1.7Zm0,7.1v-1.7h1.7v1.7Z" fill="#7b7c7f"/><path d="M788,637.5V625.3h8.2v1.5h-6.6v3.7h5.7V632h-5.7v5.5Z" fill="#7b7c7f"/><path d="M799.7,627v-1.7h1.5V627Zm0,10.5v-8.8h1.5v8.8Z" fill="#7b7c7f"/><path d="M808.3,636.1l.2,1.4h-1.1a2.3,2.3,0,0,1-1.3-.3,1.2,1.2,0,0,1-.6-.6,6.2,6.2,0,0,1-.2-1.8v-5.1h-1.1v-1.1h1.1v-2.2l1.5-.9v3.1h1.5v1.1h-1.5V635c0,.4,0,.7.1.8s.1.2.2.3h1.2Z" fill="#7b7c7f"/><path d="M817.7,627v-1.7h1.5V627Zm0,10.5v-8.8h1.5v8.8Z" fill="#7b7c7f"/><path d="M823,637.5v-8.8h1.4v1.2a3.2,3.2,0,0,1,2.8-1.4,3.2,3.2,0,0,1,1.4.3,1.5,1.5,0,0,1,1,.7,2.2,2.2,0,0,1,.5,1.1,5.8,5.8,0,0,1,.1,1.5v5.4h-1.5v-5.4a3.9,3.9,0,0,0-.2-1.3,1.6,1.6,0,0,0-.6-.8l-1-.2a2.5,2.5,0,0,0-1.7.6,3.1,3.1,0,0,0-.7,2.3v4.8Z" fill="#7b7c7f"/><path d="M833.5,634.8l1.5-.2a2,2,0,0,0,.6,1.4,2.7,2.7,0,0,0,1.6.4,2.5,2.5,0,0,0,1.6-.4,1.4,1.4,0,0,0,.5-1,1,1,0,0,0-.5-.8l-1.5-.5a9.1,9.1,0,0,1-2.3-.7,2.4,2.4,0,0,1-.9-.8,1.9,1.9,0,0,1-.4-1.2,2.3,2.3,0,0,1,.3-1.1,2.7,2.7,0,0,1,.7-.8l1-.5H837a4.8,4.8,0,0,1,1.8.3,1.9,1.9,0,0,1,1.1.8,2.6,2.6,0,0,1,.6,1.3l-1.5.2a1.8,1.8,0,0,0-1.9-1.4,2.8,2.8,0,0,0-1.5.3,1,1,0,0,0-.4.8,1.3,1.3,0,0,0,.1.6l.6.4,1.3.3,2.2.7a2.1,2.1,0,0,1,1,.8,2,2,0,0,1,.4,1.3,2.5,2.5,0,0,1-1.7,2.4,4.1,4.1,0,0,1-1.9.4,4.7,4.7,0,0,1-2.6-.7A3.1,3.1,0,0,1,833.5,634.8Z" fill="#7b7c7f"/><path d="M850.2,634.6l1.5.2a3.8,3.8,0,0,1-1.3,2.1,4.1,4.1,0,0,1-2.5.8,4,4,0,0,1-3.1-1.2,4.5,4.5,0,0,1-1.1-3.4,4.7,4.7,0,0,1,1.1-3.4,4.1,4.1,0,0,1,3-1.2,4,4,0,0,1,2.9,1.2,5,5,0,0,1,1.1,3.4v.4h-6.6a3.6,3.6,0,0,0,.8,2.2,2.5,2.5,0,0,0,1.9.7,2.3,2.3,0,0,0,1.4-.4A2.4,2.4,0,0,0,850.2,634.6Zm-4.9-2.4h4.9a3,3,0,0,0-.6-1.6,2.1,2.1,0,0,0-1.8-.9,2.1,2.1,0,0,0-1.7.7A2.3,2.3,0,0,0,845.3,632.2Z" fill="#7b7c7f"/><path d="M855.2,637.5v-8.8h1.3V630a4.4,4.4,0,0,1,1-1.2,1.6,1.6,0,0,1,.9-.3,2.7,2.7,0,0,1,1.6.5l-.6,1.3a1.9,1.9,0,0,0-1-.3,1.2,1.2,0,0,0-.9.3,1.6,1.6,0,0,0-.6.8,9.9,9.9,0,0,0-.2,1.8v4.6Z" fill="#7b7c7f"/><path d="M865.7,636.1l.2,1.4h-1.1a2.3,2.3,0,0,1-1.3-.3,1.2,1.2,0,0,1-.6-.6,6.2,6.2,0,0,1-.2-1.8v-5.1h-1.1v-1.1h1.1v-2.2l1.5-.9v3.1h1.5v1.1h-1.5V635c0,.4,0,.7.1.8s.1.2.2.3h1.2Z" fill="#7b7c7f"/><path d="M875.1,627v-1.7h1.5V627Zm0,10.5v-8.8h1.5v8.8Z" fill="#7b7c7f"/><path d="M880.4,637.5v-8.8h1.4v1.2a3.2,3.2,0,0,1,2.8-1.4,3.2,3.2,0,0,1,1.4.3,1.5,1.5,0,0,1,1,.7,2.2,2.2,0,0,1,.5,1.1,5.8,5.8,0,0,1,.1,1.5v5.4h-1.5v-5.4a3.9,3.9,0,0,0-.2-1.3,1.6,1.6,0,0,0-.6-.8l-1-.2a2.5,2.5,0,0,0-1.7.6,3.1,3.1,0,0,0-.7,2.3v4.8Z" fill="#7b7c7f"/><path d="M894.7,636.1l.2,1.4h-1.1a2.1,2.1,0,0,1-1.2-.3c-.3-.1-.5-.4-.7-.6a6.2,6.2,0,0,1-.2-1.8v-5.1h-1v-1.1h1v-2.2l1.5-.9v3.1h1.5v1.1h-1.5V635a5.4,5.4,0,0,0,.1.8c.1.1.1.2.3.3h1.1Z" fill="#7b7c7f"/><path d="M897.2,633.1a4.7,4.7,0,0,1,1.4-3.7,4.3,4.3,0,0,1,2.8-.9,3.7,3.7,0,0,1,2.9,1.2,4.2,4.2,0,0,1,1.2,3.2,6.2,6.2,0,0,1-.5,2.7,3.6,3.6,0,0,1-1.5,1.5,4.2,4.2,0,0,1-2.1.6,3.8,3.8,0,0,1-3-1.2A4.5,4.5,0,0,1,897.2,633.1Zm1.6,0a3.7,3.7,0,0,0,.7,2.5,2.2,2.2,0,0,0,1.9.8,2.2,2.2,0,0,0,1.8-.8,3.8,3.8,0,0,0,.7-2.6,3.7,3.7,0,0,0-.7-2.5,2.5,2.5,0,0,0-1.8-.8,2.6,2.6,0,0,0-1.9.8A3.8,3.8,0,0,0,898.8,633.1Z" fill="#7b7c7f"/><path d="M915.1,627v-1.7h1.5V627Zm0,10.5v-8.8h1.5v8.8Z" fill="#7b7c7f"/><path d="M920.5,637.5v-8.8h1.3v1.2a3.6,3.6,0,0,1,4.3-1.1,1.5,1.5,0,0,1,1,.7,3.7,3.7,0,0,1,.5,1.1c0,.3.1.8.1,1.5v5.4h-1.5v-5.4a3.9,3.9,0,0,0-.2-1.3,1.6,1.6,0,0,0-.6-.8l-1.1-.2a2.3,2.3,0,0,0-1.6.6c-.5.4-.7,1.1-.7,2.3v4.8Z" fill="#7b7c7f"/><path d="M930.9,634.8l1.5-.2a2.1,2.1,0,0,0,.7,1.4,2.5,2.5,0,0,0,1.6.4,2.1,2.1,0,0,0,1.5-.4,1.1,1.1,0,0,0,.5-1,.9.9,0,0,0-.4-.8l-1.5-.5a9.1,9.1,0,0,1-2.3-.7,2.7,2.7,0,0,1-1-.8,2.7,2.7,0,0,1-.3-1.2,2.3,2.3,0,0,1,.3-1.1,1.8,1.8,0,0,1,.7-.8l.9-.5h1.3a5.8,5.8,0,0,1,1.9.3,1.9,1.9,0,0,1,1.1.8,2.5,2.5,0,0,1,.5,1.3l-1.4.2a1.7,1.7,0,0,0-.6-1,2,2,0,0,0-1.4-.4,2.6,2.6,0,0,0-1.4.3c-.3.3-.5.5-.5.8a1.4,1.4,0,0,0,.2.6l.6.4,1.3.3,2.2.7a2.7,2.7,0,0,1,1,.8,2.8,2.8,0,0,1,.4,1.3,2.4,2.4,0,0,1-.5,1.4,2.9,2.9,0,0,1-1.2,1,4.1,4.1,0,0,1-1.9.4,4.7,4.7,0,0,1-2.6-.7A3.6,3.6,0,0,1,930.9,634.8Z" fill="#7b7c7f"/><path d="M947.7,634.6l1.5.2a3.4,3.4,0,0,1-1.4,2.1,3.9,3.9,0,0,1-2.5.8,3.8,3.8,0,0,1-3-1.2,4.5,4.5,0,0,1-1.2-3.4,4.7,4.7,0,0,1,1.2-3.4,4.1,4.1,0,0,1,5.8,0,4.5,4.5,0,0,1,1.1,3.4v.4h-6.5a3.1,3.1,0,0,0,.8,2.2,2.4,2.4,0,0,0,1.8.7,2.1,2.1,0,0,0,1.4-.4A3.2,3.2,0,0,0,947.7,634.6Zm-4.9-2.4h4.9a3,3,0,0,0-.6-1.6,2.3,2.3,0,0,0-1.8-.9,2.4,2.4,0,0,0-1.8.7A2.7,2.7,0,0,0,942.8,632.2Z" fill="#7b7c7f"/><path d="M952.6,637.5v-8.8H954V630a3.1,3.1,0,0,1,.9-1.2,1.7,1.7,0,0,1,1-.3,2.3,2.3,0,0,1,1.5.5l-.5,1.3a2,2,0,0,0-1.1-.3,1.6,1.6,0,0,0-.9.3,2.2,2.2,0,0,0-.5.8,5.2,5.2,0,0,0-.3,1.8v4.6Z" fill="#7b7c7f"/><path d="M963.2,636.1l.2,1.4h-1.1a2.3,2.3,0,0,1-1.3-.3,1.2,1.2,0,0,1-.6-.6,3.9,3.9,0,0,1-.2-1.8v-5.1h-1.1v-1.1h1.1v-2.2l1.5-.9v3.1h1.5v1.1h-1.5v6l.3.3h1.2Z" fill="#7b7c7f"/><path d="M972.5,637.5V625.3H974v4.4a3.4,3.4,0,0,1,2.7-1.2,3.3,3.3,0,0,1,1.7.4,2.4,2.4,0,0,1,1,1,5.3,5.3,0,0,1,.3,2v5.6h-1.5v-5.6c0-.8-.1-1.3-.5-1.6a1.4,1.4,0,0,0-1.3-.5,2.8,2.8,0,0,0-1.3.3,1.4,1.4,0,0,0-.8.9,4,4,0,0,0-.3,1.7v4.8Z" fill="#7b7c7f"/><path d="M983,633.1a4.7,4.7,0,0,1,1.4-3.7,4.2,4.2,0,0,1,2.7-.9,3.9,3.9,0,0,1,3,1.2,4.2,4.2,0,0,1,1.2,3.2,6.2,6.2,0,0,1-.5,2.7,3.6,3.6,0,0,1-1.5,1.5,4.3,4.3,0,0,1-2.2.6,3.7,3.7,0,0,1-2.9-1.2A4.5,4.5,0,0,1,983,633.1Zm1.6,0a3.7,3.7,0,0,0,.7,2.5,2.2,2.2,0,0,0,1.8.8,2.2,2.2,0,0,0,1.9-.8,3.8,3.8,0,0,0,.7-2.6,3.7,3.7,0,0,0-.7-2.5,2.6,2.6,0,0,0-1.9-.8,2.5,2.5,0,0,0-1.8.8A3.8,3.8,0,0,0,984.6,633.1Z" fill="#7b7c7f"/><path d="M994.6,637.5V625.3h1.5v12.2Z" fill="#7b7c7f"/><path d="M1006,634.6l1.5.2a3.3,3.3,0,0,1-1.3,2.1,4.5,4.5,0,0,1-5.6-.4,5,5,0,0,1-1.1-3.4,5.1,5.1,0,0,1,1.1-3.4,4.1,4.1,0,0,1,3-1.2,3.8,3.8,0,0,1,2.9,1.2,5,5,0,0,1,1.1,3.4v.4H1001a4.4,4.4,0,0,0,.8,2.2,2.6,2.6,0,0,0,1.9.7,2.3,2.3,0,0,0,1.4-.4A2.4,2.4,0,0,0,1006,634.6Zm-4.9-2.4h4.9a2.3,2.3,0,0,0-.5-1.6,2.3,2.3,0,0,0-1.9-.9,2.1,2.1,0,0,0-1.7.7A2.7,2.7,0,0,0,1001.1,632.2Z" fill="#7b7c7f"/><path d="M18.8,436.8V424.6H27v1.5H20.4v3.7h5.7v1.5H20.4v5.5Z" fill="#7b7c7f"/><path d="M30,432.4a4.4,4.4,0,0,1,1.3-3.6,4,4,0,0,1,2.8-1,4.1,4.1,0,0,1,3,1.2,4.9,4.9,0,0,1,1.1,3.3,6,6,0,0,1-.5,2.6,2.8,2.8,0,0,1-1.5,1.5,3.7,3.7,0,0,1-2.1.6,4.1,4.1,0,0,1-3-1.2A4.5,4.5,0,0,1,30,432.4Zm1.5,0a3.6,3.6,0,0,0,.7,2.5,2.3,2.3,0,0,0,1.9.9,2.3,2.3,0,0,0,1.8-.9,3.7,3.7,0,0,0,.8-2.6,3.3,3.3,0,0,0-.8-2.4,2.3,2.3,0,0,0-1.8-.9,2.3,2.3,0,0,0-1.9.9A3.6,3.6,0,0,0,31.5,432.4Z" fill="#7b7c7f"/><path d="M41.5,436.8V424.6H43v12.2Z" fill="#7b7c7f"/><path d="M52.6,436.8v-1.1a2.5,2.5,0,0,1-2.4,1.3,3.6,3.6,0,0,1-2-.6,3.4,3.4,0,0,1-1.3-1.6,4.7,4.7,0,0,1-.5-2.4,6.1,6.1,0,0,1,.4-2.4,3.5,3.5,0,0,1,1.3-1.6,3.6,3.6,0,0,1,2-.6,3.2,3.2,0,0,1,1.4.3,2.2,2.2,0,0,1,1,.9v-4.4H54v12.2Zm-4.7-4.4a4.1,4.1,0,0,0,.7,2.5,2.2,2.2,0,0,0,1.7.9A2.3,2.3,0,0,0,52,435a4.4,4.4,0,0,0,.7-2.5,4.3,4.3,0,0,0-.7-2.6,2.3,2.3,0,0,0-1.8-.9,2.1,2.1,0,0,0-1.6.8A3.8,3.8,0,0,0,47.9,432.4Z" fill="#7b7c7f"/><path d="M57.4,434.2l1.4-.3a2.6,2.6,0,0,0,.7,1.4,2.5,2.5,0,0,0,1.6.5,2.1,2.1,0,0,0,1.5-.5,1,1,0,0,0,.5-.9.8.8,0,0,0-.4-.8,4.1,4.1,0,0,0-1.5-.5l-2.3-.8a2.5,2.5,0,0,1-1-.8,2.4,2.4,0,0,1-.3-1.2,2.3,2.3,0,0,1,.3-1.1,2.7,2.7,0,0,1,.7-.8,2.3,2.3,0,0,1,1-.4,2.7,2.7,0,0,1,1.3-.2,5.7,5.7,0,0,1,1.8.3,2.4,2.4,0,0,1,1.1.8,2.6,2.6,0,0,1,.5,1.4l-1.4.2a1.7,1.7,0,0,0-.6-1.1A1.8,1.8,0,0,0,61,429a2.1,2.1,0,0,0-1.5.4.8.8,0,0,0-.4.7,1.3,1.3,0,0,0,.1.6c.2.1.3.3.6.4l1.3.3,2.2.7a2.1,2.1,0,0,1,1,.8,2,2,0,0,1,.4,1.3,2.4,2.4,0,0,1-.5,1.4,2.9,2.9,0,0,1-1.2,1,4.1,4.1,0,0,1-1.9.4,4.7,4.7,0,0,1-2.6-.7A3.1,3.1,0,0,1,57.4,434.2Z" fill="#7b7c7f"/><path d="M387.4,436.8l4.7-12.2h1.7l5,12.2H397l-1.5-3.7h-5l-1.4,3.7Zm3.5-5H395l-1.2-3.4c-.4-1-.7-1.8-.9-2.5a15.5,15.5,0,0,1-.6,2.3Z" fill="#7b7c7f"/><path d="M556.4,436.8V424.6H561a6.7,6.7,0,0,1,2.2.4,2.8,2.8,0,0,1,1.3,1.1,3.7,3.7,0,0,1,.5,1.6,2.4,2.4,0,0,1-.4,1.5,2.8,2.8,0,0,1-1.3,1.1,3.4,3.4,0,0,1,1.7,1.1,3.1,3.1,0,0,1,.6,1.9,3.2,3.2,0,0,1-.4,1.6,3.1,3.1,0,0,1-.9,1.1l-1.3.6-2,.2Zm1.6-7.1h4.2a1.5,1.5,0,0,0,.9-.6,1.8,1.8,0,0,0,.3-1.1,1.7,1.7,0,0,0-.3-1,1.9,1.9,0,0,0-.8-.7H558Zm0,5.7h4.1l1-.3.6-.7a3,3,0,0,0,.2-1,2.1,2.1,0,0,0-.3-1.2,2.3,2.3,0,0,0-1-.7,4.4,4.4,0,0,0-1.8-.2H558Z" fill="#7b7c7f"/><path d="M774.8,432.5l1.6.4a5.1,5.1,0,0,1-1.8,3.1,5.5,5.5,0,0,1-3.2,1,6.1,6.1,0,0,1-3.2-.8,4.8,4.8,0,0,1-1.9-2.3,8.8,8.8,0,0,1-.6-3.3,7.2,7.2,0,0,1,.7-3.3,5.3,5.3,0,0,1,2.1-2.1,5.7,5.7,0,0,1,2.9-.8,4.6,4.6,0,0,1,3.1,1,4.4,4.4,0,0,1,1.7,2.6l-1.6.3a4.4,4.4,0,0,0-1.2-1.9,3.2,3.2,0,0,0-2-.6,3.8,3.8,0,0,0-2.4.7,3.5,3.5,0,0,0-1.3,1.8,8.5,8.5,0,0,0-.4,2.3,7.6,7.6,0,0,0,.5,2.7,3,3,0,0,0,1.4,1.7,3.7,3.7,0,0,0,2.1.6,2.9,2.9,0,0,0,2.2-.8A3.3,3.3,0,0,0,774.8,432.5Z" fill="#7b7c7f"/><path d="M933.9,436.8V424.6h4.2l2.1.2a5.1,5.1,0,0,1,1.8.9,4.6,4.6,0,0,1,1.4,2.1,6.4,6.4,0,0,1,.5,2.8,9,9,0,0,1-.3,2.5,7.5,7.5,0,0,1-.8,1.8,11.4,11.4,0,0,1-1.1,1.1l-1.5.6-1.9.2Zm1.6-1.4h2.6a5,5,0,0,0,1.9-.3,2.4,2.4,0,0,0,1.1-.6,5.3,5.3,0,0,0,.8-1.5,6.1,6.1,0,0,0,.4-2.4,5,5,0,0,0-.7-2.9,3.3,3.3,0,0,0-1.5-1.4l-2.1-.2h-2.5Z" fill="#7b7c7f"/><line x1="215.2" y1="499.3" x2="212.2" y2="499.3" fill="none" stroke="#f17299" stroke-linecap="square" stroke-miterlimit="10"/><line x1="204.1" y1="499.3" x2="151.4" y2="499.3" fill="none" stroke="#f17299" stroke-linecap="square" stroke-miterlimit="10" stroke-dasharray="6.08 8.11"/><line x1="147.3" y1="499.3" x2="144.3" y2="499.3" fill="none" stroke="#f17299" stroke-linecap="square" stroke-miterlimit="10"/><line x1="215.2" y1="525.2" x2="144.3" y2="525.2" fill="none" stroke="#f17299" stroke-linecap="square" stroke-miterlimit="10"/><rect x="144.3" y="540.5" width="71" height="17.7" fill="#f17299"/><path d="M214.7,541v16.7H144.8V541h69.9m1-1H143.8v18.7h71.9V540Z" fill="#f17299"/><line x1="199" y1="271.4" x2="199" y2="229.5" fill="none" stroke="#7b7c7f" stroke-miterlimit="10"/><circle cx="413" cy="70.1" r="68.1" fill="#a38978"/></svg>