<svg xmlns="http://www.w3.org/2000/svg"><symbol id="facebook" viewBox="0 0 256 256"><path id="Facebook" d="M153.1 163.6H178c1.9-12 3.7-23.8 5.6-35.9h-37.9v-14.4c.1-4.5-.3-9 .3-13.4 1.5-10.1 8.2-15.3 19.5-15.6 7.7-.2 15.4 0 23.4 0V52.7c-5-.6-10-1.3-15.1-1.8-10.1-.8-20.2-1.3-30.2 1.3-18.2 4.6-30.7 18.3-32.9 36.9-.8 7.2-.8 14.4-1 21.6-.2 5.5-.1 11-.1 16.8H80.9v36.1h28.6v91.7C55.6 248.2 1.1 201.8.6 128.7.1 57.5 56.2 3.3 121.8.2a127.6 127.6 0 0 1 134.1 123.1c2.6 77.4-56.1 123.6-102.8 132.1z"/></symbol><symbol id="instagram" viewBox="0 0 256 256"><g id="Facebook"><path d="M0 198.5v-141a5.4 5.4 0 0 0 .5-1.1 57.9 57.9 0 0 1 6.6-21.5C16.8 16.7 31.8 5.5 52 1.1L57.5 0h141l1.6.5c3.7.9 7.5 1.4 11.2 2.5 27.1 8.9 44.6 33.1 44.7 61.7v34.5c0 30.7-.1 61.3 0 92 0 9.1-1.4 18-5.4 26.2-12 25.1-32 38.4-59.9 38.5-41.7.3-83.5 0-125.2.1-10.9 0-21.2-2.1-30.8-7.2-18.1-9.7-29.2-24.7-33.6-44.8-.4-1.8-.7-3.7-1.1-5.5zM234.5 128h.1q0-31.2-.1-62.5a69.8 69.8 0 0 0-.5-7.9c-2.3-19.4-20.5-36-39.9-36.1-43.7-.1-87.4 0-131 0a34.1 34.1 0 0 0-5.5.5c-19.8 2.6-36 20.5-36.1 40.4-.1 43.5 0 87.1 0 130.7a45.5 45.5 0 0 0 .4 5.2c2.6 19.8 20.5 36.1 40.4 36.2h130.5a36.6 36.6 0 0 0 5.7-.5c19.4-2.4 35.8-20.5 36-40 .2-22 0-44 0-66z"/><path d="M192 128a64 64 0 1 1-64-64 64.1 64.1 0 0 1 64 64zm-21.4.2a42.6 42.6 0 1 0-42.8 42.4 42.6 42.6 0 0 0 42.8-42.4zM197 74.6a15.8 15.8 0 0 1-15.6-16.3c.3-8.8 7.5-15.9 16.1-15.7s16.2 7.7 15.9 16.3A16.1 16.1 0 0 1 197 74.6z"/></g></symbol><symbol id="email" viewBox="0 0 256 256"><g id="Facebook"><path d="M0 57l2-5.7L79.3 128 2 204.6 0 199zm13.3-17.5c3.2-.5 6.3-1.4 9.5-1.4h209.9c3.3 0 6.6.9 10.6 1.4l-2.1 2.4-105.8 106.2a10.1 10.1 0 0 1-14.8 0Q67.8 94.9 14.8 41.9l-1.6-1.3z"/><path d="M165.4 139.3c25.8 25.5 51.5 51 77.8 77.2-3.7.5-6.8 1.4-10 1.4-18.6.2-37.1.1-55.7.1h-154a21.5 21.5 0 0 1-10.2-2.1l77.4-76.7 1.1 1c6.3 6.3 12.5 12.7 18.9 19 10.1 10.1 24.5 10.1 34.7 0zm88.5 65.4L176.5 128l77.4-76.7a17.5 17.5 0 0 1 2.1 8.5V195a21.9 21.9 0 0 1-2.1 9.7z"/></g></symbol></svg>