<svg height="216.3" viewBox="0 0 216.3 216.3" width="216.3" xmlns="http://www.w3.org/2000/svg" xmlns:xlink="http://www.w3.org/1999/xlink"><radialGradient id="a" cx="108.17" cy="108.17" gradientUnits="userSpaceOnUse" r="108.17"><stop offset=".87" stop-color="#003950"/><stop offset=".88" stop-color="#094056"/><stop offset=".9" stop-color="#215367"/><stop offset=".92" stop-color="#497182"/><stop offset=".95" stop-color="#809ca8"/><stop offset=".98" stop-color="#c5d2d7"/><stop offset="1" stop-color="#fff"/></radialGradient><circle cx="108.2" cy="108.2" fill="url(#a)" r="108.2"/><g fill="#fff"><path d="m37.4 84.5c.4 0 .6.6.5 1.6a142.8 142.8 0 0 0 -1.7 18.7c0 .9-.4 1.8-.8 1.8l-20.3.2c-.5 0-.9-.8-.9-1.6 2.6-24.8 10.2-43 26.4-62.2l1.6-1.6 5.6-5.1c.3-.2.1.1-.4.8-10.9 14.5-16.2 31.3-20 48.8z"/><path d="m76.1 104.4c.2.9 0 1.9-.4 1.9h-11.2c-.5 0-1-.7-1.2-1.9-.8-5.8-1.2-8.7-1.7-14.3l-10.5.7c-.9 5.5-1.2 8.2-1.8 13.8-.2 1.1-.6 1.8-1.2 1.8h-11.1c-.5 0-.7-.9-.5-1.7a272.3 272.3 0 0 1 26.2-77.7 6.5 6.5 0 0 1 1.5-1.7 54.6 54.6 0 0 1 8.1-3.8c.4-.2.6.3.6.9-4.1 27.2-.6 55 3.2 82zm-15-55.4c-2.9 9.1-4.2 13.8-6.4 23.4l5.8-.8a151.3 151.3 0 0 1 .6-22.6z"/><path d="m115.5 14.7c.4 0 .7.8.7 1.7 1.6 29.2 1.9 58.5 1.8 87.8-.1 1-.4 2-.9 2h-9.8c-.4 0-.9-.7-1.2-1.9l-9.6-44.2c-.2 14.7-.3 29.4-.2 44.1 0 1-.3 2-.9 2h-10c-.4 0-.8-1.1-.8-2.1-.2-28.8.7-57.6 4.4-86.3.1-.9.5-1.7.9-1.7a65 65 0 0 1 7.7-1.1c.4-.1.8.4 1 1.3 2.2 12.7 4.9 25.4 7.7 37.9l.3-38.1c0-.9.3-1.7.7-1.7a74.9 74.9 0 0 1 8.2.3z"/><path d="m142.3 20.8a3.4 3.4 0 0 1 1.2 2c4.6 16 6.8 32.5 8.4 49 1.2 11.5-.7 36.1-14.7 36.5s-15-28.1-15.6-38.8c-.4-17.6-1-35.1-2.3-52.6-.1-1 .2-1.8.6-1.8 3.1.4 4.7.7 7.7 1.3.4.1.9 1 1 2 2.6 18 3.7 36 4.5 54.1.2 6.3 1.7 10.2 4.2 10.3s3.8-3.5 3.6-9.6c-1.1-17.9-2.7-35.7-6.1-53.3-.2-.9-.1-1.7.3-1.6a76.1 76.1 0 0 1 7.2 2.5z"/><path d="m153.2 25.9a5 5 0 0 1 1.2 1.7c9.7 25.4 13.4 49.8 13.8 77 0 .9-.4 1.9-.9 1.9h-9.9c-.4 0-.8-1-.8-1.9 0-27.4-2.2-54.5-10.4-80.8-.3-.8-.2-1.4.1-1.3 2.8 1.2 4.2 1.9 6.9 3.4z"/><path d="m174.1 41.5 1.5 1.4a70.3 70.3 0 0 1 9.3 11.7c.4.7.4 1 .1.8l-6.1-3.2a140 140 0 0 1 13 52.8c0 .8-.3 1.7-.7 1.7h-10c-.5 0-.8-.9-.8-1.8-.7-20-3.7-37.8-10.3-56.6-2.9-1.3-4.4-1.8-7.4-2.9a4 4 0 0 1 -1.1-1.8 128 128 0 0 0 -5.8-15.1c-.4-.8-.4-1.3-.1-1.1a74.8 74.8 0 0 1 18.4 14.1z"/><path d="m28.5 109.9c5.9 0 9.4 9.9 11.1 23.6 1 8.4.9 14-.9 15.2 3 2.4 6.1 9.5 9 18 4.2 11.9 5.5 17 1.8 14.3a83 83 0 0 1 -8.5-7.2l-1.3-1.4c-15.5-18.8-22.9-36.7-25.5-61.1 0-.7.3-1.6.6-1.6zm1.4 30.2c1.2.3 1.6-1.5 1-4.5s-1.7-5.3-3-5.4l-2.7-.4a97.9 97.9 0 0 0 2.1 9.7zm9.2 24.3c1 .4.9-1.1-.3-3.9s-2.6-5-3.7-5.4l-3-1.1a92.3 92.3 0 0 0 4.2 9z"/><path d="m65 173.7a2.2 2.2 0 0 1 .8 1.7 162 162 0 0 0 3.7 15.9c.2.7.2 1.3-.1 1.2a82 82 0 0 1 -11.4-5.9 5.2 5.2 0 0 1 -1.1-1.5c-11.2-23.2-14.7-47.7-15.3-73.2.1-1 .4-1.9.8-1.9h8c.4 0 .7.9.6 1.9.2 20.2 1.6 40.1 7 59.6z"/><path d="m94.6 198.1c.1.6.1 1.4-.2 1.3-2.9-.4-4.4-.6-7.2-1.2-.3-.1-.7-.7-1-1.6-1.1-4.6-1.6-7-2.7-11.9-2.9-.5-4.3-.8-7.2-1.5.4 4.6.6 6.8 1.2 11.1 0 .8-.1 1.2-.5 1.1-2.7-.9-4-1.4-6.6-2.5-.3-.1-.6-.9-.7-1.4-5.2-26.3-2.8-53.1.2-79.5.2-.8.7-1.8 1.2-1.8h9.3c.4 0 .9 1 1 1.9 3 28.9 7.5 57.5 13.2 86zm-18.6-55.2c-.5 10-.6 14.8-.4 23.9l4.5.6c-1.8-9.4-2.6-14.4-4.1-24.5z"/><path d="m118.8 110.3c.5 0 .7 1 .8 2.2.1 28.6-.3 57.3-2 85.9 0 .8-.3 1.6-.6 1.6l-6.5.4c-.3 0-.6-.6-.8-1.4-2.3-12.7-4.9-25.3-7.5-37.9.2 12.6.5 25.1.9 37.6 0 .8-.2 1.6-.6 1.5-2.6-.1-3.9-.2-6.5-.5-.3-.1-.6-.9-.7-1.6-2.3-28.5-2.8-57.1-2.7-85.7.1-1.1.4-2.1.7-2.1h7.9c.4 0 .9.7 1 1.9 2.6 14.5 5.2 29 7.9 43.4 0-14.3.1-28.7 0-43.1 0-1.2.4-2.2.7-2.2z"/><path d="m141.1 188.8a3.5 3.5 0 0 1 -.7 2c-2.9 4.5-6.5 8.2-8.6 8.2-10.6.5-10.3-31.9-10.1-40.9.3-11.7 1.4-48.1 16-50 2.9-.4 7.1 3.1 9.7 8a3.9 3.9 0 0 1 .5 2.5c-1.2 7.6-1.9 11.4-3.3 18.8-.3 1.2-.6 1.7-.9 1.2-1.6-2.7-3.2-3.5-5.1-3.4-4.1.2-6.9 9.5-7.6 22.3s1 20.2 4.6 19.6c1.8-.3 3.3-1.3 5.1-4.1.4-.5.6-.2.6.8a123.4 123.4 0 0 1 -.2 15z"/><path d="m175.7 110c.4 0 .7.9.7 1.9-.7 25.3-4.3 49.6-15.8 72.5a8.2 8.2 0 0 1 -1.1 1.5c-2.3 1.4-3.5 2.1-5.8 3.3-.3.1-.2-.4.1-1.1a145.6 145.6 0 0 0 7.3-23.1l-5.5 1.4a164.3 164.3 0 0 1 -6.4 23.8c-.2.7-.6 1.5-.9 1.6l-6.2 2.6c-.2.1-.3-.6-.1-1.3 6.1-26.9 8.4-53.2 8.4-80.9 0-1.1.3-2 .6-2h8.5c.4 0 .7.9.7 2 0 11.3-.5 22.2-1.4 33.5l6-.9c1.5-10.9 1.7-21.7 1.8-32.7 0-1 .2-1.9.6-1.9z"/><path d="m186.4 159.6c.2-.1.1.3-.3.9a73 73 0 0 1 -9.5 11.9l-1.4 1.4a77.8 77.8 0 0 1 -12.7 10.2c-.2.1-.1-.4.2-1 12.2-22.3 16.1-46.2 16.9-71.3 0-1.1.2-1.7.6-1.7l20.6-.3c.4 0 .8.8.7 1.5a83.3 83.3 0 0 1 -1.8 15.9c-.2.9-.6 1.6-1 1.6l-11.2 1.7a81.5 81.5 0 0 1 -1.6 8.6l8.7-1.9c.4 0 .4.6.2 1.2a91.1 91.1 0 0 1 -5.8 13.6c-.3.6-.8 1.4-1.2 1.5-2.8 1.1-4.2 1.7-7.1 2.7-1.3 3.4-2 5-3.5 8.2 3.8-1.8 5.6-2.7 9.2-4.7z"/></g></svg>