<svg id="Layer_1" data-name="Layer 1" xmlns="http://www.w3.org/2000/svg" width="512.8" height="200.5" viewBox="0 0 512.8 200.5"><ellipse cx="74.8" cy="60.6" rx="7.4" ry="7.4" fill="none" stroke="#231f20" stroke-miterlimit="10"/><path d="M73,62.2l-1,3H70.7l3.2-9.5h1.5l3.3,9.5H77.4l-1.1-3Zm3.1-.9-1-2.8a10.5,10.5,0,0,1-.4-1.7h-.1a8.4,8.4,0,0,1-.5,1.7l-.9,2.8Z" fill="#231f20"/><ellipse cx="177.3" cy="66.7" rx="7.4" ry="7.4" fill="none" stroke="#231f20" stroke-miterlimit="10"/><path d="M391.4,136.1h0l-1,.5V136l1.2-.6h.6v5.4h-.7Z" fill="#231f20"/><path d="M393.6,141.1l2.3-6h.6l-2.3,6Z" fill="#231f20"/><path d="M399.1,140.8v-1.5h-2.5v-.5l2.4-3.4h.7v3.3h.8v.6h-.8v1.5Zm0-2.1v-2.6h0a5.6,5.6,0,0,1-.5.8l-1.3,1.8h1.8Z" fill="#231f20"/><path d="M403.3,136.8l.6.8.4.7h0l.4-.7.6-.8h.8l-1.4,1.9,1.4,2.1h-.8l-.6-.9a4.3,4.3,0,0,0-.4-.7h0l-.5.7-.5.9h-.8l1.4-2.1-1.4-1.9Z" fill="#231f20"/><path d="M408.3,140.8v-.5l.6-.5c1.3-1.3,2-2,2-2.8a1,1,0,0,0-1.1-1.1,1.6,1.6,0,0,0-1.1.5l-.3-.5a2.6,2.6,0,0,1,1.6-.6,1.5,1.5,0,0,1,1.6,1.6c0,1-.7,1.8-1.8,2.8l-.5.4h2.4v.6Z" fill="#231f20"/><path d="M414.8,140.8v-1.5h-2.5v-.5l2.4-3.4h.7v3.3h.8v.6h-.8v1.5Zm0-2.1v-2.6h0a5.6,5.6,0,0,1-.5.8l-1.3,1.8h1.8Z" fill="#231f20"/><path d="M419,136.8l.6.8.4.7h0l.4-.7.6-.8h.8l-1.4,1.9,1.4,2.1H421l-.6-.9-.4-.7h0l-.5.7-.5.9h-.8l1.4-2.1-1.4-1.9Z" fill="#231f20"/><path d="M424,140.8v-.5l.6-.5c1.3-1.3,2-2,2-2.8a1,1,0,0,0-1.1-1.1,1.6,1.6,0,0,0-1.1.5l-.3-.5a2.5,2.5,0,0,1,1.5-.6,1.5,1.5,0,0,1,1.7,1.6c0,1-.7,1.8-1.9,2.8l-.4.4h2.4v.6Z" fill="#231f20"/><path d="M430.4,140.8v-1.5H428v-.5l2.3-3.4h.8v3.3h.8v.6h-.8v1.5Zm0-2.1V137c0-.3.1-.6.1-.9h-.1a5.9,5.9,0,0,1-.4.8l-1.3,1.8h1.7Z" fill="#231f20"/><path d="M433.6,135.1a13.8,13.8,0,0,1-.8,2h-.5a8.7,8.7,0,0,0,.5-1.9Zm1.2,0a13.8,13.8,0,0,1-.8,2h-.5a8.7,8.7,0,0,0,.5-1.9Z" fill="#231f20"/><path d="M436.6,135.3h1.3a2.1,2.1,0,0,1,1.5.4,1.1,1.1,0,0,1,.5,1,1.4,1.4,0,0,1-.9,1.2h0a1.4,1.4,0,0,1,.6,2.5,3.1,3.1,0,0,1-1.9.5h-1.1Zm.7,2.3h.7c.7,0,1.2-.4,1.2-1s-.5-.9-1.2-.9h-.7Zm0,2.6h.6c.8,0,1.4-.2,1.4-1s-.6-1.1-1.4-1.1h-.6Z" fill="#231f20"/><path d="M443.2,140.8v-.5h0a1.7,1.7,0,0,1-1.3.5,1.1,1.1,0,0,1-1.2-1.1c0-1,.9-1.5,2.4-1.5h0a.8.8,0,0,0-.9-.9,1.7,1.7,0,0,0-1,.3l-.2-.5a2.5,2.5,0,0,1,1.3-.3c1.2,0,1.5.8,1.5,1.6v1.5a3.4,3.4,0,0,0,.1,1Zm-.1-2.1c-.8,0-1.7.2-1.7.9a.7.7,0,0,0,.7.7,1,1,0,0,0,1-.7v-.9Z" fill="#231f20"/><path d="M445,134.9h.7v5.9H445Z" fill="#231f20"/><path d="M447.8,135.6v1.2h1v.5h-1v2.2c0,.5.1.7.5.7h.5v.5h-.7a.8.8,0,0,1-.7-.3,1.3,1.3,0,0,1-.3-1v-2.2h-.6v-.5h.6v-1Z" fill="#231f20"/><path d="M450.4,135.7a.4.4,0,0,1-.4.4.5.5,0,0,1-.5-.4.5.5,0,0,1,.5-.5C450.3,135.2,450.4,135.4,450.4,135.7Zm-.8,5.1v-4h.8v4Z" fill="#231f20"/><path d="M454.4,140.6a2.9,2.9,0,0,1-1.2.2,1.8,1.8,0,0,1-1.9-2,2,2,0,0,1,2.1-2.1l1,.2-.2.6-.8-.2a1.3,1.3,0,0,0-1.4,1.5,1.4,1.4,0,0,0,1.4,1.5l.9-.2Z" fill="#231f20"/><path d="M457,135.3h1.3a2.1,2.1,0,0,1,1.5.4,1.1,1.1,0,0,1,.5,1,1.4,1.4,0,0,1-1,1.2h0a1.4,1.4,0,0,1,1.2,1.4,1.4,1.4,0,0,1-.5,1.1,3.1,3.1,0,0,1-1.9.5H457Zm.7,2.3h.7c.7,0,1.2-.4,1.2-1s-.5-.9-1.3-.9h-.6Zm0,2.6h.6c.7,0,1.4-.2,1.4-1s-.6-1.1-1.4-1.1h-.6Z" fill="#231f20"/><path d="M462.2,135.7a.4.4,0,0,1-.4.4.5.5,0,0,1-.5-.4.5.5,0,0,1,.5-.5A.5.5,0,0,1,462.2,135.7Zm-.8,5.1v-4h.7v4Z" fill="#231f20"/><path d="M463.3,138v-1.2h.6v.8h0a1.1,1.1,0,0,1,1.1-.9h.2v.7h-.2a1,1,0,0,0-1,.9v2.5h-.7Z" fill="#231f20"/><path d="M468.8,140.6l-1.2.2a1.9,1.9,0,0,1-2-2,2.1,2.1,0,0,1,2.2-2.1l1,.2-.2.6-.8-.2a1.3,1.3,0,0,0-1.4,1.5,1.4,1.4,0,0,0,1.4,1.5l.8-.2Z" fill="#231f20"/><path d="M469.6,134.9h.7v2.5h0c.2-.2.3-.4.6-.5l.7-.2c.5,0,1.4.3,1.4,1.7v2.4h-.7v-2.3c0-.7-.3-1.2-1-1.2a1,1,0,0,0-.9.7c-.1.1-.1.2-.1.4v2.4h-.7Z" fill="#231f20"/><path d="M475.9,135.3h1.4a2.1,2.1,0,0,1,1.5.4,1.3,1.3,0,0,1,.5,1.2,1.6,1.6,0,0,1-.4,1.2,2.4,2.4,0,0,1-1.7.6h-.6v2.3h-.7Zm.7,2.7h.6c.9,0,1.4-.4,1.4-1.2s-.5-1.1-1.3-1.1h-.7Z" fill="#231f20"/><path d="M480.2,134.9h.7v5.9h-.7Z" fill="#231f20"/><path d="M482.4,136.8l.9,2.3a3.1,3.1,0,0,1,.2.8h.1a3.1,3.1,0,0,1,.2-.8l.8-2.3h.8l-1.1,2.8a5.4,5.4,0,0,1-1.4,2.5,2.8,2.8,0,0,1-.9.5V142l.6-.4a1.8,1.8,0,0,0,.6-.8c0-.1.1-.1.1-.2v-.2l-1.5-3.6Z" fill="#231f20"/><path d="M486.4,136.8l.5,2a6.1,6.1,0,0,1,.3,1.3h.1a6.1,6.1,0,0,1,.3-1.3l.7-2h.6l.6,2,.3,1.3h.1a3.1,3.1,0,0,1,.3-1.3l.5-2h.7l-1.2,4h-.7l-.6-1.9c-.1-.5-.3-.9-.4-1.3h0l-.3,1.3-.7,1.9h-.6l-1.2-4Z" fill="#231f20"/><path d="M495.7,138.7a1.9,1.9,0,0,1-2,2.1,1.8,1.8,0,0,1-1.9-2,2,2,0,0,1,2-2.1A1.9,1.9,0,0,1,495.7,138.7Zm-3.2.1a1.4,1.4,0,0,0,1.2,1.5c.7,0,1.2-.6,1.2-1.5s-.3-1.6-1.2-1.6S492.5,138,492.5,138.8Z" fill="#231f20"/><path d="M500.2,138.7a1.9,1.9,0,0,1-2,2.1,1.8,1.8,0,0,1-1.9-2,2,2,0,0,1,2-2.1A1.9,1.9,0,0,1,500.2,138.7Zm-3.2.1a1.4,1.4,0,0,0,1.2,1.5c.7,0,1.2-.6,1.2-1.5s-.3-1.6-1.2-1.6S497,138,497,138.8Z" fill="#231f20"/><path d="M504.5,134.9v5.9h-.6v-.7h-.1a1.4,1.4,0,0,1-1.3.7,1.8,1.8,0,0,1-1.7-2,1.9,1.9,0,0,1,1.8-2.1,1.4,1.4,0,0,1,1.2.6h0v-2.4Zm-.7,3.5v-.3a1,1,0,0,0-1.1-.8c-.7,0-1.2.6-1.2,1.5s.4,1.5,1.2,1.5a1.3,1.3,0,0,0,1.1-.9v-1Z" fill="#231f20"/><path d="M261.3,139.7a1.9,1.9,0,0,0,1.2.4,1.1,1.1,0,0,0,1.2-1.1c0-.7-.7-1-1.4-1h-.4v-.6h.4c.5,0,1.2-.3,1.2-.9a.8.8,0,0,0-.9-.8,1.6,1.6,0,0,0-1.1.4l-.2-.6a2.6,2.6,0,0,1,1.4-.4,1.3,1.3,0,0,1,1.5,1.3,1.4,1.4,0,0,1-1,1.3h0a1.3,1.3,0,0,1,1.2,1.3c0,.9-.6,1.6-1.9,1.6a2.6,2.6,0,0,1-1.4-.3Z" fill="#231f20"/><path d="M265,140.9l2.3-6h.5l-2.3,6Z" fill="#231f20"/><path d="M270.4,140.6v-1.5h-2.5v-.5l2.4-3.4h.8v3.3h.7v.6h-.7v1.5Zm0-2.1v-2.6h0a5.6,5.6,0,0,1-.5.8l-1.3,1.8h1.8Z" fill="#231f20"/><path d="M274.7,136.6l.5.8.4.7h.1a1.6,1.6,0,0,1,.4-.7l.5-.8h.8l-1.4,1.9,1.4,2.1h-.8l-.6-.9a4.3,4.3,0,0,0-.4-.7h0a4.3,4.3,0,0,0-.4.7l-.6.9h-.8l1.4-2.1-1.3-1.9Z" fill="#231f20"/><path d="M279.6,140.6v-.5l.6-.5c1.4-1.3,2-2,2-2.8a1,1,0,0,0-1.1-1.1,1.6,1.6,0,0,0-1.1.5l-.2-.5a2.3,2.3,0,0,1,1.5-.6,1.5,1.5,0,0,1,1.6,1.6c0,1-.7,1.8-1.8,2.8l-.5.4H283v.6Z" fill="#231f20"/><path d="M286.1,140.6v-1.5h-2.5v-.5l2.4-3.4h.8v3.3h.7v.6h-.7v1.5Zm0-2.1v-2.6h0a5.6,5.6,0,0,1-.5.8l-1.3,1.8h1.8Z" fill="#231f20"/><path d="M290.4,136.6l.5.8.4.7h0l.4-.7.6-.8h.8l-1.4,1.9,1.4,2.1h-.8l-.6-.9a4.3,4.3,0,0,0-.4-.7h0a1.6,1.6,0,0,0-.4.7l-.6.9h-.8l1.4-2.1-1.3-1.9Z" fill="#231f20"/><path d="M295.3,140.6v-.5l.6-.5c1.4-1.3,2-2,2-2.8a1,1,0,0,0-1.1-1.1,1.6,1.6,0,0,0-1.1.5l-.2-.5a2.1,2.1,0,0,1,1.5-.6,1.5,1.5,0,0,1,1.6,1.6c0,1-.7,1.8-1.8,2.8l-.5.4h2.4v.6Z" fill="#231f20"/><path d="M301.8,140.6v-1.5h-2.5v-.5l2.4-3.4h.7v3.3h.8v.6h-.8v1.5Zm0-2.1v-2.6h0a5.6,5.6,0,0,1-.5.8l-1.3,1.8h1.8Z" fill="#231f20"/><path d="M304.9,134.9a13.8,13.8,0,0,1-.8,2h-.5a10.5,10.5,0,0,0,.5-1.9Zm1.2,0a13.8,13.8,0,0,1-.8,2h-.4a10.6,10.6,0,0,0,.4-1.9Z" fill="#231f20"/><path d="M307.9,135.1h1.3a2.5,2.5,0,0,1,1.6.4,1.3,1.3,0,0,1,.4,1,1.3,1.3,0,0,1-.9,1.2h0a1.4,1.4,0,0,1,1.1,1.4,1.8,1.8,0,0,1-.4,1.1,3.4,3.4,0,0,1-2,.5h-1.1Zm.7,2.3h.7c.7,0,1.2-.4,1.2-1s-.5-.9-1.2-.9h-.7Zm0,2.6h.6c.8,0,1.5-.2,1.5-1s-.7-1.1-1.5-1.1h-.6Z" fill="#231f20"/><path d="M314.6,140.6v-.5h0a1.7,1.7,0,0,1-1.2.5,1.2,1.2,0,0,1-1.3-1.1c0-1,.9-1.5,2.4-1.5h0a.8.8,0,0,0-.9-.9,1.9,1.9,0,0,0-1,.3l-.2-.5a2.8,2.8,0,0,1,1.3-.3c1.2,0,1.5.8,1.5,1.6v1.5c0,.3.1.7.1,1Zm-.2-2.1c-.7,0-1.6.1-1.6.9s.3.7.6.7a.9.9,0,0,0,1-.7v-.9Z" fill="#231f20"/><path d="M316.3,134.7h.7v5.9h-.7Z" fill="#231f20"/><path d="M319.1,135.4v1.2h1v.5h-1v2.2c0,.5.2.7.6.7h.4v.5h-.6a1,1,0,0,1-.8-.3,1.3,1.3,0,0,1-.3-1v-2.2h-.6v-.5h.6v-1Z" fill="#231f20"/><path d="M321.8,135.5a.5.5,0,0,1-.5.4.4.4,0,0,1-.4-.4.5.5,0,0,1,.4-.5A.5.5,0,0,1,321.8,135.5Zm-.8,5.1v-4h.7v4Z" fill="#231f20"/><path d="M325.7,140.4l-1.1.2a1.9,1.9,0,0,1-2-2,2,2,0,0,1,2.1-2.1l1,.2v.6l-.9-.2a1.3,1.3,0,0,0-1.4,1.5,1.4,1.4,0,0,0,1.4,1.5l.9-.2Z" fill="#231f20"/><path d="M328.3,135.1h1.3a2.1,2.1,0,0,1,1.5.4,1.1,1.1,0,0,1,.5,1,1.4,1.4,0,0,1-.9,1.2h0a1.4,1.4,0,0,1,.6,2.5,3.1,3.1,0,0,1-1.9.5h-1.1Zm.7,2.3h.7c.7,0,1.2-.4,1.2-1s-.5-.9-1.2-.9H329Zm0,2.6h.6c.8,0,1.4-.2,1.4-1s-.6-1.1-1.4-1.1H329Z" fill="#231f20"/><path d="M333.5,135.5a.4.4,0,0,1-.4.4.5.5,0,0,1-.5-.4.5.5,0,0,1,.5-.5C333.4,135,333.5,135.2,333.5,135.5Zm-.8,5.1v-4h.8v4Z" fill="#231f20"/><path d="M334.7,137.8c0-.4-.1-.9-.1-1.2h.7v.8h0a1.1,1.1,0,0,1,1.1-.9h.2v.7h-.2a1.1,1.1,0,0,0-1,.9v2.5h-.7Z" fill="#231f20"/><path d="M340.1,140.4l-1.2.2a1.8,1.8,0,0,1-1.9-2,2,2,0,0,1,2.1-2.1l1,.2-.2.6-.8-.2a1.3,1.3,0,0,0-1.4,1.5,1.4,1.4,0,0,0,1.4,1.5l.9-.2Z" fill="#231f20"/><path d="M340.9,134.7h.7v2.5h.1l.5-.5.7-.2c.6,0,1.4.3,1.4,1.7v2.4h-.7v-2.3c0-.7-.3-1.2-.9-1.2a1,1,0,0,0-1,.7c0,.1-.1.2-.1.4v2.4h-.7Z" fill="#231f20"/><path d="M347.2,135.1h1.4a2.5,2.5,0,0,1,1.6.4,2,2,0,0,1,0,2.4,2.4,2.4,0,0,1-1.7.6H348v2.3h-.8Zm.8,2.7h.5c.9,0,1.4-.4,1.4-1.2s-.5-1.1-1.3-1.1H348Z" fill="#231f20"/><path d="M351.5,134.7h.8v5.9h-.8Z" fill="#231f20"/><path d="M353.7,136.6l.9,2.3.3.8h0c.1-.2.1-.5.2-.8l.8-2.3h.8l-1.1,2.8a5.4,5.4,0,0,1-1.4,2.5,4.5,4.5,0,0,1-.8.5l-.2-.6.6-.4a1.8,1.8,0,0,0,.6-.8v-.4l-1.4-3.6Z" fill="#231f20"/><path d="M357.7,136.6l.6,2a5.9,5.9,0,0,1,.2,1.3h.1l.3-1.3.7-2h.6l.6,2a6.1,6.1,0,0,1,.3,1.3h.1a3.1,3.1,0,0,1,.3-1.3l.5-2h.8l-1.3,4h-.7l-.6-1.9-.3-1.3h-.1l-.3,1.3-.7,1.9h-.6l-1.2-4Z" fill="#231f20"/><path d="M367,138.5a1.9,1.9,0,0,1-2,2.1,1.8,1.8,0,0,1-1.9-2,2,2,0,0,1,2-2.1A1.9,1.9,0,0,1,367,138.5Zm-3.2.1a1.3,1.3,0,1,0,2.5,0c0-.7-.4-1.6-1.2-1.6S363.8,137.8,363.8,138.6Z" fill="#231f20"/><path d="M371.5,138.5a1.9,1.9,0,0,1-2,2.1,1.8,1.8,0,0,1-1.9-2,2,2,0,0,1,2-2.1A1.9,1.9,0,0,1,371.5,138.5Zm-3.2.1a1.3,1.3,0,1,0,2.5,0c0-.7-.4-1.6-1.2-1.6S368.3,137.8,368.3,138.6Z" fill="#231f20"/><path d="M375.8,134.7v4.8a3.7,3.7,0,0,0,.1,1.1h-.7v-.7h0a1.6,1.6,0,0,1-1.4.7,1.8,1.8,0,0,1-1.7-2,1.9,1.9,0,0,1,1.8-2.1,1.4,1.4,0,0,1,1.2.6h0v-2.4Zm-.7,3.5v-.3a1,1,0,0,0-1.1-.8c-.7,0-1.2.6-1.2,1.5s.4,1.5,1.2,1.5a1.3,1.3,0,0,0,1.1-.9v-1Z" fill="#231f20"/><path d="M377.3,136.6l.8,2.2.3,1h0l.4-1,.7-2.2h.8l-1.6,4H378l-1.5-4Z" fill="#231f20"/><circle cx="286.9" cy="15.3" r="5.4" fill="none" stroke="#231f20" stroke-miterlimit="10"/><path d="M285.6,11.8h3.8v.7h-2.9v2.4h2.7v.7h-2.7v3.1h-.9Z" fill="#231f20"/><circle cx="287.6" cy="37.6" r="5.4" fill="none" stroke="#231f20" stroke-miterlimit="10"/><path d="M285.8,34.1V37h3.4V34.1h1v7h-1V37.8h-3.4v3.3h-.9v-7Z" fill="#231f20"/><circle cx="301.1" cy="68.1" r="4.9" fill="none" stroke="#231f20" stroke-miterlimit="10"/><path d="M303.5,71a7.7,7.7,0,0,1-2,.3,3.2,3.2,0,0,1-2.4-.8,3.1,3.1,0,0,1-.9-2.4,3.2,3.2,0,0,1,3.5-3.2,3.2,3.2,0,0,1,1.6.3l-.2.6-1.4-.2a2.3,2.3,0,0,0-2.6,2.5,2.3,2.3,0,0,0,2.5,2.5h1.1V68.6h-1.3v-.7h2.1Z" fill="#231f20"/><circle cx="284.3" cy="111.7" r="5.4" fill="none" stroke="#231f20" stroke-miterlimit="10"/><path d="M282.2,108.3h1.9a4,4,0,0,1,2.9.9,3.1,3.1,0,0,1,1,2.5,4.1,4.1,0,0,1-1,2.7,4.8,4.8,0,0,1-3.1,1h-1.7Zm.9,6.2h.9c2,0,3-1,3-2.9s-.9-2.7-2.8-2.7h-1.1Z" fill="#231f20"/><circle cx="315.6" cy="111.5" r="5.4" fill="none" stroke="#231f20" stroke-miterlimit="10"/><path d="M313.4,108.2l1.9-.2a3.9,3.9,0,0,1,2.9.9,3.4,3.4,0,0,1,1,2.5,3.5,3.5,0,0,1-1,2.7,4.3,4.3,0,0,1-3.1,1h-1.7Zm.9,6.1h.9a2.8,2.8,0,0,0,3.1-3,2.6,2.6,0,0,0-2.9-2.7h-1.1Z" fill="#231f20"/><circle cx="415.9" cy="74.7" r="5.4" fill="none" stroke="#231f20" stroke-miterlimit="10"/><path d="M416.4,71.2v6.9h-.9V71.2Z" fill="#231f20"/><circle cx="489.6" cy="104.2" r="5.4" fill="none" stroke="#231f20" stroke-miterlimit="10"/><path d="M490.1,100.7v6.9h-.9v-6.9Z" fill="#231f20"/><rect x="260.9" y="0.6" width="122.1" height="126.56" fill="none" stroke="#231f20" stroke-miterlimit="10"/><line x1="312.7" y1="0.3" x2="312.7" y2="29.8" fill="none" stroke="#231f20" stroke-miterlimit="10"/><line x1="260.6" y1="29.8" x2="312.7" y2="29.8" fill="none" stroke="#231f20" stroke-miterlimit="10"/><line x1="260.4" y1="44.3" x2="342.4" y2="44.5" fill="none" stroke="#231f20" stroke-miterlimit="10"/><line x1="312.7" y1="29.8" x2="342" y2="30.2" fill="none" stroke="#231f20" stroke-miterlimit="10"/><line x1="342.4" y1="44.5" x2="342" y2="30.2" fill="none" stroke="#231f20" stroke-miterlimit="10"/><path d="M301.2,77.6c-6-11.5-23.5-5.1-22,8.5l-10.2.4c-2.6-23.8,31.3-35.9,42.5-17.2Z" fill="none" stroke="#231f20" stroke-miterlimit="10"/><path d="M260.9,127.1l15.2-30.6h18.6" fill="none" stroke="#231f20" stroke-linecap="round" stroke-linejoin="round"/><path d="M307.5,127.1,294.7,96.5h41.7c-12.9,30.7-12.9,30.5-12.9,30.5" fill="none" stroke="#231f20" stroke-linecap="round" stroke-linejoin="round"/><path d="M336.4,96.5h7.9l12.9,30.6" fill="none" stroke="#231f20" stroke-linejoin="round"/><rect x="390.2" y="0.5" width="122.1" height="126.56" fill="none" stroke="#231f20" stroke-miterlimit="10"/><path d="M500.5,74.8c-16.1-7.4-45.5-4.6-68,9.9s-38-15-22.6-33.4c0,0,15,13.8,27.9,24.9,12.4-6,39.6-14.8,62.6-6.7v5.3" fill="none" stroke="#231f20" stroke-linejoin="round"/><path d="M405.3,105.5c16.2-7.4,45.5-4.6,68,9.9s38-15,22.6-33.4c0,0-15,13.8-27.9,24.9-12.4-6-39.6-14.8-62.6-6.7v5.3" fill="none" stroke="#231f20" stroke-linejoin="round"/><path d="M1.5,168.1a2.4,2.4,0,0,0,1.1.3c1,0,1.3-.6,1.3-1a1.2,1.2,0,0,0-1.4-1.1H2.1v-.6h.4c.5,0,1.2-.2,1.2-.9s-.3-.8-1-.8a1.5,1.5,0,0,0-1,.4l-.2-.5a2,2,0,0,1,1.4-.5,1.4,1.4,0,0,1,1.5,1.3,1.3,1.3,0,0,1-1,1.3h0a1.3,1.3,0,0,1,1.2,1.4A1.7,1.7,0,0,1,2.7,169a2.3,2.3,0,0,1-1.4-.4Z" fill="#231f20"/><path d="M5.1,169.2l2.3-6H8l-2.3,6Z" fill="#231f20"/><path d="M10.5,168.9v-1.5H8.1V167l2.4-3.5h.7v3.4H12v.5h-.8v1.5Zm0-2v-1.8c0-.3.1-.6.1-.9h-.1a2,2,0,0,1-.4.8l-1.3,1.9h1.7Z" fill="#231f20"/><path d="M14.8,164.9l.6.9.4.6h0l.4-.6.6-.9h.8l-1.4,1.9,1.4,2.1h-.8l-.6-.9a2.5,2.5,0,0,1-.4-.7h-.1a2.5,2.5,0,0,1-.4.7l-.5.9H14l1.4-2-1.4-2Z" fill="#231f20"/><path d="M20,168.1a3,3,0,0,0,1.2.3,1.1,1.1,0,0,0,1.2-1c0-.8-.7-1.1-1.4-1.1h-.4v-.6H21c.5,0,1.2-.2,1.2-.9s-.3-.8-1-.8a1.5,1.5,0,0,0-1,.4l-.2-.5a2,2,0,0,1,1.4-.5,1.4,1.4,0,0,1,1.5,1.3,1.3,1.3,0,0,1-1,1.3h0a1.3,1.3,0,0,1,1.2,1.4,1.7,1.7,0,0,1-1.9,1.6,2.3,2.3,0,0,1-1.4-.4Z" fill="#231f20"/><path d="M23.6,169.2l2.3-6h.6l-2.3,6Z" fill="#231f20"/><path d="M29.1,168.9v-1.5H26.6V167l2.4-3.5h.7v3.4h.8v.5h-.8v1.5Zm0-2v-2.7h0a5.6,5.6,0,0,1-.5.8l-1.3,1.9h1.8Z" fill="#231f20"/><path d="M33.3,164.9l.6.9.4.6h0l.4-.6.6-.9h.8l-1.4,1.9,1.4,2.1h-.8l-.6-.9a2.5,2.5,0,0,1-.4-.7h0l-.5.7-.5.9h-.8l1.4-2-1.4-2Z" fill="#231f20"/><path d="M38.7,168.4h.6a2.4,2.4,0,0,0,1.1-.6,1.9,1.9,0,0,0,.7-1.4h0a1.5,1.5,0,0,1-1.3.6,1.5,1.5,0,0,1-1.5-1.7,1.8,1.8,0,0,1,1.8-1.9c1.1,0,1.8.9,1.8,2.3a3.1,3.1,0,0,1-1,2.5,2.1,2.1,0,0,1-1.5.7h-.7Zm.3-3.1a1,1,0,0,0,1,1.1,1.3,1.3,0,0,0,1.1-.5v-.3c0-.9-.3-1.6-1.1-1.6S39,164.5,39,165.3Z" fill="#231f20"/><path d="M45.6,164H45a2.1,2.1,0,0,0-1.8,1.9h0a1.4,1.4,0,0,1,1.3-.6,1.6,1.6,0,0,1,1.6,1.7,1.8,1.8,0,0,1-1.8,1.9c-1.1,0-1.9-.9-1.9-2.3a3.3,3.3,0,0,1,.9-2.4,3,3,0,0,1,1.7-.8h.6Zm-.3,3.1c0-.7-.4-1.2-1-1.2a1.2,1.2,0,0,0-1.1.7v.3c0,.9.5,1.5,1.2,1.5S45.3,167.9,45.3,167.1Z" fill="#231f20"/><path d="M47.9,163.2a13.8,13.8,0,0,1-.8,2h-.5a11.7,11.7,0,0,0,.5-2Zm1.2,0a13.8,13.8,0,0,1-.8,2h-.5a11.7,11.7,0,0,0,.5-2Z" fill="#231f20"/><path d="M55.6,166.5a20.9,20.9,0,0,1-.1-2.4h0c-.2.6-.5,1.3-.7,2.1l-1,2.7h-.6l-.8-2.7c-.3-.8-.5-1.5-.7-2.1h0c0,.6-.1,1.6-.1,2.4l-.2,2.4h-.6l.3-5.6h1L53,166l.6,1.9h0a8.2,8.2,0,0,1,.6-1.9l1-2.7h.9l.3,5.6h-.7Z" fill="#231f20"/><path d="M61.1,166.9a2,2,0,1,1-1.9-2.1A1.8,1.8,0,0,1,61.1,166.9Zm-3.1,0c0,.9.5,1.5,1.2,1.5s1.2-.6,1.2-1.5-.4-1.5-1.2-1.5S58,166.2,58,166.9Z" fill="#231f20"/><path d="M62,163h.8v5.9H62Z" fill="#231f20"/><path d="M67.4,163v5.9h-.6v-.7h0a1.3,1.3,0,0,1-1.3.8,1.8,1.8,0,0,1-1.7-2c0-1.4.8-2.2,1.8-2.2a1.4,1.4,0,0,1,1.2.6h0V163Zm-.7,3.5a.4.4,0,0,0-.1-.3,1.1,1.1,0,0,0-1-.8c-.7,0-1.2.6-1.2,1.5s.4,1.5,1.2,1.5a1,1,0,0,0,1-.9.4.4,0,0,0,.1-.3Z" fill="#231f20"/><path d="M69.4,163.8a.5.5,0,0,1-.5.4.4.4,0,0,1-.4-.4.5.5,0,0,1,.5-.5A.5.5,0,0,1,69.4,163.8Zm-.8,5.1v-4h.7v4Z" fill="#231f20"/><path d="M70.5,166v-1.1h.6v.7h0a1.4,1.4,0,0,1,1.3-.8c.5,0,1.4.3,1.4,1.7v2.4h-.7v-2.3c0-.6-.3-1.2-.9-1.2a1.1,1.1,0,0,0-1,.8c0,.1-.1.2-.1.3v2.4h-.7Z" fill="#231f20"/><path d="M78.5,164.9v3.4a2.2,2.2,0,0,1-.6,1.8,2.1,2.1,0,0,1-1.5.5,2.8,2.8,0,0,1-1.3-.3l.2-.6a2.1,2.1,0,0,0,1.2.4c.7,0,1.2-.4,1.2-1.4v-.5h0a1.3,1.3,0,0,1-1.2.7,1.8,1.8,0,0,1-1.7-2,1.9,1.9,0,0,1,1.8-2.1,1.3,1.3,0,0,1,1.2.7h0v-.6Zm-.8,1.6v-.3a1,1,0,0,0-1-.8c-.7,0-1.2.6-1.2,1.5s.4,1.4,1.2,1.4a1.2,1.2,0,0,0,1-.7v-1.1Z" fill="#231f20"/><path d="M2.2,197.6a3,3,0,0,0,1.2.3,1.1,1.1,0,0,0,1.2-1.1c0-.7-.7-1-1.4-1H2.8v-.6h.4c.5,0,1.2-.2,1.2-.9a.8.8,0,0,0-.9-.8,1.6,1.6,0,0,0-1.1.4l-.2-.6a2.6,2.6,0,0,1,1.4-.4,1.3,1.3,0,0,1,1.5,1.3,1.3,1.3,0,0,1-1,1.3h0a1.3,1.3,0,0,1,1.2,1.4,1.7,1.7,0,0,1-1.9,1.6,2.6,2.6,0,0,1-1.4-.4Z" fill="#231f20"/><path d="M5.9,198.7l2.2-6h.6l-2.3,6Z" fill="#231f20"/><path d="M11.3,198.4v-1.5H8.8v-.5l2.4-3.4H12v3.4h.7v.5H12v1.5Zm0-2v-2.7h0a5.6,5.6,0,0,1-.5.8l-1.3,1.8h1.8Z" fill="#231f20"/><path d="M15.6,194.4l.5.8.4.7h.1l.3-.7.6-.8h.8l-1.4,1.9,1.4,2.1h-.8l-.6-.9-.4-.7h0a1.6,1.6,0,0,0-.4.7l-.6.9h-.8l1.4-2.1-1.3-1.9Z" fill="#231f20"/><path d="M22.8,198.4v-1.5H20.3v-.5l2.4-3.4h.7v3.4h.8v.5h-.8v1.5Zm0-2v-2.7h0a5.6,5.6,0,0,1-.5.8L21,196.3h1.8Z" fill="#231f20"/><path d="M24.7,197a1.5,1.5,0,0,1,1-1.4h0a1.3,1.3,0,0,1-.8-1.2,1.5,1.5,0,0,1,1.6-1.5,1.4,1.4,0,0,1,1.6,1.3,1.3,1.3,0,0,1-.9,1.3h0a1.6,1.6,0,0,1,1.1,1.4,1.7,1.7,0,0,1-1.8,1.6C25.3,198.5,24.7,197.8,24.7,197Zm2.8,0c0-.7-.4-1-1.1-1.2s-1,.6-1,1.1a1,1,0,0,0,1.1,1A.9.9,0,0,0,27.5,197Zm-1.9-2.7c0,.5.4.8,1,1a1.2,1.2,0,0,0,.8-1,.9.9,0,0,0-.9-.9A.8.8,0,0,0,25.6,194.3Z" fill="#231f20"/><path d="M30.1,192.7a13.8,13.8,0,0,1-.8,2h-.4c.1-.4.3-1.3.4-1.9Zm1.2,0a13.8,13.8,0,0,1-.8,2h-.4c.1-.4.4-1.3.5-1.9Z" fill="#231f20"/><path d="M33.1,192.9h1.6a2.9,2.9,0,0,1,2.2.7,2.5,2.5,0,0,1,.8,2,2.9,2.9,0,0,1-.8,2.1,3.2,3.2,0,0,1-2.5.8H33.1Zm.7,4.9h.8a2.1,2.1,0,0,0,2.3-2.4,2,2,0,0,0-2.2-2.2h-.9Z" fill="#231f20"/><path d="M42.2,196.4a2,2,0,0,1-2,2.1,1.9,1.9,0,0,1-1.9-2.1,2,2,0,0,1,2-2.1A1.9,1.9,0,0,1,42.2,196.4Zm-3.2,0a1.3,1.3,0,0,0,1.3,1.5,1.4,1.4,0,0,0,1.2-1.5c0-.7-.4-1.6-1.2-1.6S39,195.6,39,196.4Z" fill="#231f20"/><path d="M43.3,194.4l.6,2,.3,1.3h0l.3-1.3.7-2h.6l.6,2a9.3,9.3,0,0,1,.4,1.3h0l.3-1.3.6-2h.7l-1.3,4h-.7l-.6-1.9-.3-1.3h0l-.4,1.3-.6,1.9h-.7l-1.2-4Z" fill="#231f20"/><path d="M49.4,196.5a1.3,1.3,0,0,0,1.4,1.4l1.1-.2v.5a3.5,3.5,0,0,1-1.3.3,1.8,1.8,0,0,1-2-2c0-1.3.7-2.2,1.9-2.2s1.6,1.1,1.6,1.9v.3Zm2.1-.5c0-.5-.2-1.2-1-1.2s-1,.7-1.1,1.2Z" fill="#231f20"/><path d="M53.1,192.5h.7v5.9h-.7Z" fill="#231f20"/><rect x="223.4" y="148.5" width="159" height="7.1" fill="#58595b"/><path d="M1.8,140.7A3,3,0,0,0,3,141a1.1,1.1,0,0,0,1.2-1c0-.8-.7-1.1-1.4-1.1H2.4v-.5h.4c.5,0,1.2-.3,1.2-.9a.9.9,0,0,0-1-.9,1.5,1.5,0,0,0-1,.4l-.2-.5a2.6,2.6,0,0,1,1.4-.4c1,0,1.5.6,1.5,1.2a1.3,1.3,0,0,1-1,1.3h0A1.4,1.4,0,0,1,4.9,140c0,.9-.6,1.6-1.9,1.6a2.3,2.3,0,0,1-1.4-.4Z" fill="#231f20"/><path d="M5.4,141.8l2.3-5.9h.6L6,141.8Z" fill="#231f20"/><path d="M10.9,141.5v-1.4H8.4v-.5l2.4-3.5h.7v3.4h.8v.6h-.8v1.4Zm0-2v-2.6h0l-.5.7-1.3,1.9h1.8Z" fill="#231f20"/><path d="M15.1,137.5l.6.9.4.6h0a2.1,2.1,0,0,0,.4-.6l.6-.9h.8l-1.4,2,1.4,2h-.8l-.6-.9a4.3,4.3,0,0,1-.4-.7h0l-.5.7-.5.9h-.8l1.4-2-1.4-2Z" fill="#231f20"/><path d="M20.1,141.5v-.4l.6-.6c1.3-1.3,2-2,2-2.8a1,1,0,0,0-1.1-1,1.6,1.6,0,0,0-1.1.4l-.3-.5a2.5,2.5,0,0,1,1.6-.5,1.5,1.5,0,0,1,1.6,1.5c0,1-.7,1.8-1.8,2.9l-.5.4h2.4v.6Z" fill="#231f20"/><path d="M26.6,141.5v-1.4H24.1v-.5l2.4-3.5h.7v3.4H28v.6h-.8v1.4Zm0-2v-2.6h0l-.5.7-1.3,1.9h1.8Z" fill="#231f20"/><path d="M30.8,137.5l.6.9.4.6h0l.4-.6.6-.9h.8l-1.4,2,1.4,2h-.8l-.6-.9a1.6,1.6,0,0,1-.4-.7h0l-.5.7-.5.9H30l1.4-2-1.4-2Z" fill="#231f20"/><path d="M38,141.5v-1.4H35.6v-.5l2.3-3.5h.8v3.4h.8v.6h-.8v1.4Zm0-2v-1.8a1.9,1.9,0,0,1,.1-.8H38a4.3,4.3,0,0,1-.4.7l-1.3,1.9H38Z" fill="#231f20"/><path d="M39.9,140.2a1.6,1.6,0,0,1,1.1-1.5h0a1.3,1.3,0,0,1-.8-1.2,1.4,1.4,0,0,1,1.6-1.4c1,0,1.6.6,1.6,1.3a1.5,1.5,0,0,1-.9,1.2h0a1.5,1.5,0,0,1,1.1,1.3c0,1-.8,1.6-1.9,1.6A1.6,1.6,0,0,1,39.9,140.2Zm2.9-.1c0-.6-.4-.9-1.2-1.2a1.2,1.2,0,0,0-.9,1.2,1,1,0,0,0,1.1,1A.9.9,0,0,0,42.8,140.1Zm-2-2.7c0,.6.4.9,1.1,1a1.1,1.1,0,0,0,.8-.9.8.8,0,0,0-.9-.9A.9.9,0,0,0,40.8,137.4Z" fill="#231f20"/><path d="M45.4,135.9a12.1,12.1,0,0,1-.8,1.9h-.5a11.7,11.7,0,0,0,.5-2Zm1.2,0a12.1,12.1,0,0,1-.8,1.9h-.5a11.7,11.7,0,0,0,.5-2Z" fill="#231f20"/><path d="M48.4,136h1.3a2.1,2.1,0,0,1,1.5.4,1.2,1.2,0,0,1,.5,1,1.4,1.4,0,0,1-.9,1.2h0a1.5,1.5,0,0,1,1.1,1.4,1.3,1.3,0,0,1-.5,1.1,2.5,2.5,0,0,1-1.9.6H48.4Zm.7,2.3h.7c.7,0,1.2-.4,1.2-.9s-.5-.9-1.2-.9h-.7Zm0,2.7h.6c.8,0,1.4-.3,1.4-1.1s-.6-1.1-1.4-1.1h-.6Z" fill="#231f20"/><path d="M55,141.5V141h-.1a1.4,1.4,0,0,1-1.2.6,1.1,1.1,0,0,1-1.2-1.1c0-1,.9-1.5,2.4-1.5h0a.8.8,0,0,0-.9-.9,1.7,1.7,0,0,0-1,.3l-.2-.5a2.5,2.5,0,0,1,1.3-.4c1.2,0,1.5.9,1.5,1.7v1.5a2.8,2.8,0,0,0,.1.9Zm-.1-2c-.8,0-1.7.1-1.7.9a.8.8,0,0,0,.7.7,1.1,1.1,0,0,0,1-.7v-.9Z" fill="#231f20"/><path d="M56.8,135.7h.7v5.8h-.7Z" fill="#231f20"/><path d="M59.6,136.4v1.1h1v.6h-1v2.1c0,.5.1.8.5.8h.5v.5h-.7a.8.8,0,0,1-.7-.3,1.5,1.5,0,0,1-.3-1v-2.2h-.6v-.6h.6v-.9Z" fill="#231f20"/><path d="M62.2,136.4a.4.4,0,0,1-.4.4.5.5,0,0,1-.5-.4.5.5,0,0,1,.5-.5C62.1,135.9,62.2,136.1,62.2,136.4Zm-.8,5.1v-4h.8v4Z" fill="#231f20"/><path d="M66.2,141.4l-1.2.2a1.8,1.8,0,0,1-1.9-2,2,2,0,0,1,2.1-2.2l1,.2-.2.6-.8-.2a1.4,1.4,0,0,0-1.4,1.5,1.3,1.3,0,0,0,1.4,1.5l.9-.2Z" fill="#231f20"/><path d="M68.8,136h1.3a2.1,2.1,0,0,1,1.5.4,1.2,1.2,0,0,1,.5,1,1.4,1.4,0,0,1-1,1.2h0a1.5,1.5,0,0,1,1.2,1.4,1.3,1.3,0,0,1-.5,1.1,2.5,2.5,0,0,1-1.9.6H68.8Zm.7,2.3h.7c.7,0,1.2-.4,1.2-.9s-.5-.9-1.3-.9h-.6Zm0,2.7h.6c.7,0,1.4-.3,1.4-1.1s-.6-1.1-1.4-1.1h-.6Z" fill="#231f20"/><path d="M74,136.4a.4.4,0,0,1-.4.4.5.5,0,0,1-.5-.4.5.5,0,0,1,.5-.5A.5.5,0,0,1,74,136.4Zm-.8,5.1v-4h.7v4Z" fill="#231f20"/><path d="M75.1,138.8v-1.3h.6v.8h0a1.3,1.3,0,0,1,1.1-.9h.2v.6h-.3c-.5,0-.8.4-.9.9v2.5h-.7Z" fill="#231f20"/><path d="M80.6,141.4l-1.2.2a1.9,1.9,0,0,1-2-2,2.1,2.1,0,0,1,2.2-2.2l1,.2-.2.6-.8-.2a1.4,1.4,0,0,0-1.4,1.5,1.3,1.3,0,0,0,1.4,1.5l.8-.2Z" fill="#231f20"/><path d="M81.4,135.7h.7v2.4h0l.6-.5.7-.2a1.5,1.5,0,0,1,1.4,1.7v2.4h-.7v-2.3c0-.6-.3-1.2-1-1.2a1.1,1.1,0,0,0-.9.8.4.4,0,0,0-.1.3v2.4h-.7Z" fill="#231f20"/><path d="M87.7,136h1.4a2.1,2.1,0,0,1,1.5.5,1.3,1.3,0,0,1,.5,1.1,1.6,1.6,0,0,1-.4,1.2,2.4,2.4,0,0,1-1.7.6h-.6v2.2h-.7Zm.7,2.7H89c.9,0,1.4-.5,1.4-1.2s-.5-1.1-1.3-1.1h-.7Z" fill="#231f20"/><path d="M92,135.7h.7v5.8H92Z" fill="#231f20"/><path d="M94.2,137.5l.9,2.4a2.4,2.4,0,0,1,.2.8h.1a3.1,3.1,0,0,1,.2-.8l.8-2.4h.8l-1.1,2.9a6.8,6.8,0,0,1-1.4,2.5,1.4,1.4,0,0,1-.9.4v-.6l.6-.3.6-.8v-.2a.3.3,0,0,1-.1-.2l-1.5-3.7Z" fill="#231f20"/><path d="M98.2,137.5l.5,2.1a5.3,5.3,0,0,1,.3,1.2h.1a5.3,5.3,0,0,1,.3-1.2l.7-2.1h.6l.6,2,.3,1.3h.1a3.5,3.5,0,0,1,.3-1.3l.5-2h.7l-1.2,4h-.7l-.6-1.9c-.1-.4-.3-.8-.4-1.3h0l-.3,1.3-.7,1.9h-.6l-1.2-4Z" fill="#231f20"/><path d="M107.5,139.5a1.9,1.9,0,0,1-2,2.1,1.9,1.9,0,0,1-1.9-2,2,2,0,0,1,2-2.2A2,2,0,0,1,107.5,139.5Zm-3.2,0c0,.9.5,1.6,1.2,1.6s1.2-.7,1.2-1.6-.3-1.5-1.2-1.5S104.3,138.8,104.3,139.5Z" fill="#231f20"/><path d="M112,139.5a1.9,1.9,0,0,1-2,2.1,1.9,1.9,0,0,1-1.9-2,2,2,0,0,1,2-2.2A2,2,0,0,1,112,139.5Zm-3.2,0c0,.9.5,1.6,1.2,1.6s1.2-.7,1.2-1.6-.3-1.5-1.2-1.5S108.8,138.8,108.8,139.5Z" fill="#231f20"/><path d="M116.3,135.7v5.8h-.6v-.7h-.1a1.3,1.3,0,0,1-1.3.8,1.8,1.8,0,0,1-1.7-2c0-1.4.8-2.2,1.8-2.2a1.4,1.4,0,0,1,1.2.6h0v-2.3Zm-.7,3.4v-.3a1.2,1.2,0,0,0-1.1-.8,1.4,1.4,0,0,0-1.2,1.5c0,.9.4,1.5,1.2,1.5a1.2,1.2,0,0,0,1.1-.8v-1.1Z" fill="#231f20"/><path d="M175.4,68.3l-.9,3h-1.3l3.2-9.4h1.5l3.3,9.4h-1.3l-1.1-3Zm3.2-.9-1-2.7c-.2-.7-.3-1.2-.5-1.8h0a8.4,8.4,0,0,1-.5,1.7l-.9,2.8Z" fill="#231f20"/><rect x="0.5" y="0.6" width="251.2" height="127.47" fill="none" stroke="#231f20" stroke-miterlimit="10"/><path d="M178.2,77.9c2.5,11.6,21.1,38.6,35.1,41.7a24,24,0,0,1,2.5-3.1c-.3-.4,3.6,2.6,6.5,4.4,0-5.7.5-9.4.7-9.7a120.1,120.1,0,0,0,18.9-21.3s-6.2-5.4-7.1-8.5c-8.7,5.9-33.6,19.2-24.9-9.2,10.1-32.9,37.3-40,29.2-44.4-63.7-35.4-148.4-5.4-136.6.3,24.4,11.9,29.1,38.6,29.1,49.5C173.4,78.4,178.2,77.9,178.2,77.9Z" fill="none" stroke="#231f20" stroke-miterlimit="10"/><path d="M216.7,28.4c-44.7-12.7-77-4.8-88.8-1.2a2.1,2.1,0,0,0-1.1,3.2c13.1,17.2,53.1,39.2,90.5.6A1.6,1.6,0,0,0,216.7,28.4Z" fill="none" stroke="#231f20" stroke-miterlimit="10"/><path d="M73.5,50.8C71,39.2,52.3,12.3,38.3,9.1a35.9,35.9,0,0,1-2.4,3.2c.2.4-3.7-2.6-6.5-4.5,0,5.7-.5,9.5-.7,9.8a119.3,119.3,0,0,0-19,21.3s6.2,5.3,7.2,8.5c8.7-6,33.5-19.2,24.8,9.2C31.6,89.5,4.5,96.5,12.5,101c63.7,35.4,148.5,5.4,136.6-.4-24.4-11.8-29-38.5-29-49.4C78.2,50.3,73.5,50.8,73.5,50.8Z" fill="none" stroke="#231f20" stroke-miterlimit="10"/><path d="M35,100.3c44.7,12.8,77,4.9,88.8,1.3a2.1,2.1,0,0,0,1-3.2c-13.1-17.2-53-39.2-90.5-.6A1.5,1.5,0,0,0,35,100.3Z" fill="none" stroke="#231f20" stroke-miterlimit="10"/><rect x="1.4" y="148.6" width="381.3" height="6.88" fill="none" stroke="#231f20" stroke-linejoin="round"/><line x1="45.7" y1="148.5" x2="45.7" y2="155.7" fill="none" stroke="#231f20" stroke-linejoin="round"/><line x1="90.2" y1="148.6" x2="90.2" y2="155.6" fill="none" stroke="#231f20" stroke-linejoin="round"/><line x1="112.3" y1="148.6" x2="112.3" y2="155.6" fill="none" stroke="#231f20" stroke-linejoin="round"/><line x1="134.5" y1="148.1" x2="134.5" y2="155.6" fill="none" stroke="#231f20" stroke-linejoin="round"/><line x1="156.7" y1="148.8" x2="156.6" y2="155.8" fill="none" stroke="#231f20" stroke-linejoin="round"/><line x1="178.8" y1="148.1" x2="178.8" y2="155.4" fill="none" stroke="#231f20" stroke-linejoin="round"/><line x1="200.9" y1="148.4" x2="201.1" y2="155.4" fill="none" stroke="#231f20" stroke-linejoin="round"/><line x1="223.4" y1="148.5" x2="223.4" y2="155.6" fill="none" stroke="#231f20" stroke-linejoin="round"/><rect x="1.5" y="178.3" width="381.3" height="6.88" fill="none" stroke="#231f20" stroke-linejoin="round"/><line x1="25.1" y1="178.2" x2="25.1" y2="185.2" fill="none" stroke="#231f20" stroke-linejoin="round"/><line x1="47.2" y1="177.7" x2="47.2" y2="185.2" fill="none" stroke="#231f20" stroke-linejoin="round"/><ellipse cx="23.3" cy="152.2" rx="5.4" ry="5.5" fill="#fff" stroke="#231f20" stroke-miterlimit="10"/><path d="M25.4,155.5a3.9,3.9,0,0,1-1.8.3,3.3,3.3,0,0,1-3.5-3.5,3.5,3.5,0,0,1,3.7-3.7,4.6,4.6,0,0,1,1.7.3l-.3.8a2.6,2.6,0,0,0-1.4-.3,2.6,2.6,0,0,0-2.8,2.9,2.6,2.6,0,0,0,2.8,2.8,3.7,3.7,0,0,0,1.5-.3Z" fill="#231f20"/><ellipse cx="67.8" cy="152.3" rx="5.4" ry="5.5" fill="#fff" stroke="#231f20" stroke-miterlimit="10"/><path d="M70,155.6a6.8,6.8,0,0,1-1.9.3,3.3,3.3,0,0,1-3.5-3.6,3.5,3.5,0,0,1,3.7-3.6,4.2,4.2,0,0,1,1.7.3l-.2.7a5.7,5.7,0,0,0-1.5-.3,2.6,2.6,0,0,0-2.7,2.9,2.5,2.5,0,0,0,2.7,2.8,3.3,3.3,0,0,0,1.5-.3Z" fill="#231f20"/><ellipse cx="100.8" cy="152.2" rx="5.4" ry="5.5" fill="#fff" stroke="#231f20" stroke-miterlimit="10"/><path d="M98.7,148.8h1.7a2.6,2.6,0,0,1,1.9.5,1.4,1.4,0,0,1,.6,1.2,1.7,1.7,0,0,1-1.2,1.6h0a1.8,1.8,0,0,1,1.5,1.7,2,2,0,0,1-.6,1.4,3.4,3.4,0,0,1-2.5.7H98.7Zm.9,2.9h.8c1,0,1.6-.5,1.6-1.2s-.7-1.1-1.6-1.1h-.8Zm0,3.4h.8c.9,0,1.8-.3,1.8-1.4s-.8-1.3-1.8-1.3h-.8Z" fill="#231f20"/><ellipse cx="122.9" cy="152.2" rx="5.4" ry="5.5" fill="#fff" stroke="#231f20" stroke-miterlimit="10"/><path d="M120.8,148.9l1.7-.2a3.1,3.1,0,0,1,1.9.5,1.5,1.5,0,0,1,.6,1.3,1.8,1.8,0,0,1-1.2,1.5h0a1.8,1.8,0,0,1,1.4,1.8,1.8,1.8,0,0,1-.6,1.4,3.5,3.5,0,0,1-2.4.6h-1.4Zm.9,2.8h.8c1,0,1.6-.5,1.6-1.1s-.7-1.2-1.6-1.2h-.8Zm0,3.4h.8c.9,0,1.8-.3,1.8-1.3s-.8-1.4-1.8-1.4h-.8Z" fill="#231f20"/><ellipse cx="145" cy="152.2" rx="5.4" ry="5.5" fill="#fff" stroke="#231f20" stroke-miterlimit="10"/><path d="M143,148.8l1.6-.2a3,3,0,0,1,2,.6,1.4,1.4,0,0,1,.6,1.2,1.6,1.6,0,0,1-1.2,1.5h0a2,2,0,0,1,1.4,1.8,1.7,1.7,0,0,1-.6,1.4,3.8,3.8,0,0,1-2.4.7H143Zm.9,2.9h.8c1,0,1.5-.5,1.5-1.2s-.6-1.2-1.5-1.2h-.8Zm0,3.3h.7c1,0,1.8-.3,1.8-1.3s-.8-1.4-1.8-1.4h-.7Z" fill="#231f20"/><ellipse cx="167.3" cy="152.2" rx="5.4" ry="5.5" fill="#fff" stroke="#231f20" stroke-miterlimit="10"/><path d="M165.2,148.9l1.7-.2a3.1,3.1,0,0,1,1.9.5,1.5,1.5,0,0,1,.6,1.3,1.8,1.8,0,0,1-1.2,1.5h0a1.8,1.8,0,0,1,1.5,1.8,2.2,2.2,0,0,1-.6,1.4,4,4,0,0,1-2.5.6h-1.4Zm.9,2.8h.8c1,0,1.6-.5,1.6-1.1s-.7-1.2-1.6-1.2h-.8Zm0,3.4h.8c.9,0,1.8-.3,1.8-1.3s-.8-1.4-1.8-1.4h-.8Z" fill="#231f20"/><ellipse cx="189.3" cy="152.3" rx="5.4" ry="5.5" fill="#fff" stroke="#231f20" stroke-miterlimit="10"/><path d="M187.2,148.9h1.7a3.1,3.1,0,0,1,1.9.5,1.4,1.4,0,0,1,.6,1.2,1.7,1.7,0,0,1-1.2,1.6h0a1.8,1.8,0,0,1,1.5,1.7,2.3,2.3,0,0,1-.6,1.5,4,4,0,0,1-2.5.6h-1.4Zm.9,2.9h.9c.9,0,1.5-.5,1.5-1.2s-.6-1.1-1.6-1.1h-.8Zm0,3.4h.8c.9,0,1.8-.3,1.8-1.4s-.8-1.3-1.8-1.3h-.8Z" fill="#231f20"/><ellipse cx="211.5" cy="152.3" rx="5.4" ry="5.5" fill="#fff" stroke="#231f20" stroke-miterlimit="10"/><path d="M209.5,148.9l1.6-.2a3,3,0,0,1,2,.6,1.4,1.4,0,0,1,.6,1.2,1.6,1.6,0,0,1-1.2,1.5h0a2,2,0,0,1,1.4,1.8,1.7,1.7,0,0,1-.6,1.4,3.8,3.8,0,0,1-2.4.7h-1.4Zm.9,2.9h.8c1,0,1.5-.5,1.5-1.2s-.6-1.2-1.5-1.2h-.8Zm0,3.3h.7c1,0,1.9-.4,1.9-1.4s-.9-1.4-1.9-1.4h-.7Z" fill="#231f20"/><ellipse cx="13.7" cy="182" rx="5.4" ry="5.5" fill="#fff" stroke="#231f20" stroke-miterlimit="10"/><path d="M11.7,178.6h1.6a3,3,0,0,1,2,.5,1.7,1.7,0,0,1,.6,1.2,1.8,1.8,0,0,1-1.2,1.6h0a1.8,1.8,0,0,1,1.4,1.7,1.7,1.7,0,0,1-.6,1.4,3.3,3.3,0,0,1-2.4.7H11.7Zm.9,2.9h.8c1,0,1.5-.5,1.5-1.2s-.6-1.1-1.5-1.1h-.8Zm0,3.4h.7c1,0,1.9-.3,1.9-1.4s-.9-1.3-1.9-1.3h-.7Z" fill="#231f20"/><ellipse cx="36.6" cy="182.1" rx="5.4" ry="5.5" fill="#fff" stroke="#231f20" stroke-miterlimit="10"/><path d="M34.6,178.7h1.6a2.8,2.8,0,0,1,2,.5,1.2,1.2,0,0,1,.6,1.2,1.6,1.6,0,0,1-1.2,1.5h0a1.7,1.7,0,0,1,1.4,1.7,1.7,1.7,0,0,1-.6,1.4,3.3,3.3,0,0,1-2.4.7H34.6Zm.9,2.9h.8c1,0,1.5-.5,1.5-1.2s-.6-1.1-1.5-1.1h-.8Zm0,3.3h.8c.9,0,1.8-.4,1.8-1.4s-.9-1.4-1.9-1.4h-.7Z" fill="#231f20"/></svg>