<svg id="Layer_1" data-name="Layer 1" xmlns="http://www.w3.org/2000/svg" width="378.8" height="222.9" viewBox="0 0 378.8 222.9"><path d="M108.8,111.4c0,1.3.1,2.6.2,4" fill="none" stroke="#231f20" stroke-miterlimit="10"/><path d="M110.2,122.9c3.7,16,14.3,29.9,35.4,3.8,5.6-7,17.4-17.4,26.9-23.1" fill="none" stroke="#231f20" stroke-miterlimit="10" stroke-dasharray="7.55 7.55"/><path d="M175.8,101.8a26.8,26.8,0,0,1,3.6-1.6" fill="none" stroke="#231f20" stroke-miterlimit="10"/><path d="M158.6,207.1c8.4.1,9.1,1.5,6.9-7,0,0-1.6-4.8-4.3-10.7-8.2-17.8-18-29-33.1-35-11.1-4.6-15.2-5-24.9-2.4S85,158.4,89,163.4a109.7,109.7,0,0,0,7.9,9C112,185.9,135.4,205.7,158.6,207.1Z" fill="none" stroke="#231f20" stroke-linejoin="round"/><path d="M101.1,152.8c-10.3,3.8-10.9,7.1-8.5,10.7s5.7,6.2,9.4,9.4c8,7,19.9,15.8,22,17.2,10,6.5,27.6,16.9,42.6,15.4" fill="none" stroke="#231f20" stroke-miterlimit="10"/><path d="M177.4,222.9c11.7,0,8.9-3.2,7.1-10.8,0,0-2.1-6-14.4-54.8-1.9-7.8-5.2-21.2,3.1-25.9" fill="none" stroke="#231f20" stroke-miterlimit="10"/><path d="M193.8,145l-3.4,4.9c-1.4,2.1-3,2.1-3.6-.1a38.6,38.6,0,0,0-2.4-7.7c-3-6.7-9.7-12-14.3-10.8s-6.5,6.9-4.6,16.4c3.6,17.8,7,31.5,7,31.5,9,33.8,9.6,35.9,9.6,35.9,3.2,10.3-5.7,7.9-14.4,6.5-46.7-7.7-67.7-30.5-92.9-59.8-4.1-4.9-2-9.4.9-11.5,13.8-9,15.7-14.5,18.7-19.2s6.2-18.1,6.7-23.9c19.1,10.6,40.4,22,40.4,22,7.3-15.2,21.1-33.8,35.8-35.7" fill="none" stroke="#231f20" stroke-miterlimit="10"/><path d="M0,131.1l32.7,17.7" fill="none" stroke="#231f20" stroke-miterlimit="10"/><path d="M188.2,151.4c4.7.3,4.4.2,5.3-.8l4.5-5.8" fill="none" stroke="#231f20" stroke-miterlimit="10"/><path d="M184.3,98.6l4-.3c.1,5.4,0,3.5-.4,12.1,2.2,5.3,6.8,21.4,6.8,21.4l3.3,13-4.2.2s-5.9-25.7-10.1-34.3a112.8,112.8,0,0,0,.7-12.1h-.1a29.6,29.6,0,0,1-4.9,1.6" fill="none" stroke="#231f20" stroke-miterlimit="10"/><path d="M101.1,107.2l3.2-.3,8,4.5" fill="none" stroke="#231f20" stroke-miterlimit="10"/><path d="M110.7,108.5l-2.9.3" fill="none" stroke="#231f20" stroke-miterlimit="10"/><path d="M114,110.3l-3.3-1.8" fill="none" stroke="#231f20" stroke-miterlimit="10"/><path d="M114,110.3l2.3-.2" fill="none" stroke="#231f20" stroke-miterlimit="10"/><line x1="116.2" y1="110.1" x2="143.4" y2="125.4" fill="none" stroke="#231f20" stroke-miterlimit="10"/><path d="M107.2,130s2.8-.9,16.6-3.4c1.1-1.5.8-4.3-1.4-4.9-14.8,2.5-16.5,2.9-16.5,2.9" fill="none" stroke="#231f20" stroke-miterlimit="10"/><circle cx="163.9" cy="118.4" r="2.6" fill="none" stroke="#231f20" stroke-miterlimit="10"/><path d="M179.4,100.2c-1.3-.7-2.1-4.3-2.1-6.7l3.9-.6c.2,2.5,1.1,5.7,2,6.1" fill="none" stroke="#231f20" stroke-miterlimit="10"/><path d="M2.3,131.3l30.8,16.6" fill="none" stroke="#231f20" stroke-miterlimit="10"/><path d="M32.7,148.8c7.2-15.2,21-33.8,35.8-35.7,0,1.4.4,5.1,2.2,6.7C57.5,124.2,43.4,137,37.8,147,16.3,184.8.8,155.4,0,131l2.3.2" fill="none" stroke="#231f20" stroke-linecap="round" stroke-linejoin="round"/><path d="M71.8,119.8C58,125.1,45.6,136.1,38.5,147c-8.6,13.4-15.7,18.8-21.5,18" fill="none" stroke="#231f20" stroke-linecap="round" stroke-linejoin="round"/><path d="M70.7,119.8h1.1a11.6,11.6,0,0,1-2.2-6.7H68.5" fill="none" stroke="#231f20" stroke-linecap="round" stroke-linejoin="round"/><line x1="28.5" y1="162.2" x2="34.3" y2="161" fill="none" stroke="#231f20" stroke-linecap="round" stroke-linejoin="round"/><line x1="46" y1="158.5" x2="110" y2="144.9" fill="none" stroke="#231f20" stroke-linecap="round" stroke-linejoin="round" stroke-dasharray="11.9 11.9"/><line x1="115.9" y1="143.7" x2="121.7" y2="142.4" fill="none" stroke="#231f20" stroke-linecap="round" stroke-linejoin="round"/><line x1="125.7" y1="124.2" x2="163.9" y2="118.4" fill="none" stroke="#231f20" stroke-linecap="round" stroke-linejoin="round" stroke-dasharray="12"/><circle cx="106.4" cy="127.3" r="2.8" fill="none" stroke="#231f20" stroke-miterlimit="10"/><path d="M282.9,114.9A50.8,50.8,0,0,0,267,105c-11.2-4.6-15.3-5-25-2.4S223.8,109,227.8,114a109.7,109.7,0,0,0,7.9,9c11.2,10.1,27.1,23.6,44,30.4" fill="none" stroke="#231f20" stroke-miterlimit="10"/><path d="M298.8,157.7c7.3.2,7.6,1.1,5.5-7,0,0-1.6-4.8-4.3-10.7-.6-1.5-1.3-2.9-2-4.3" fill="none" stroke="#231f20" stroke-miterlimit="10"/><path d="M303,156.2h2.4" fill="none" stroke="#231f20" stroke-miterlimit="10"/><path d="M239.9,103.4c-10.3,3.8-10.9,7.1-8.5,10.7,1.4,2,5.7,6.2,9.4,9.4,8,7,19.9,15.8,22,17.2a121.8,121.8,0,0,0,21,11.3" fill="none" stroke="#231f20" stroke-miterlimit="10"/><path d="M316.2,173.5c11.7,0,8.9-3.3,7.1-10.8,0,0-2-6-14.3-54.9-2-7.7-5.3-21.1,3-25.9" fill="none" stroke="#231f20" stroke-miterlimit="10"/><path d="M239.4,61.8c.2-1.5.4-2.9.5-4,19.2,10.6,40.4,22,40.4,22,7.3-15.2,21.1-33.9,35.9-35.8" fill="none" stroke="#231f20" stroke-linecap="round" stroke-linejoin="round"/><path d="M265,158.6c-20.7-11.2-35.2-27.4-51.4-46.3-4.1-4.8-1.9-9.3.9-11.4A69.3,69.3,0,0,0,225,92.8" fill="none" stroke="#231f20" stroke-linecap="round" stroke-linejoin="round"/><path d="M332.7,95.6l-3.4,4.9c-1.4,2.1-3,2.1-3.6-.1a38.6,38.6,0,0,0-2.4-7.7c-3-6.7-9.7-12-14.3-10.8s-6.5,7-4.6,16.4c3.6,17.8,7,31.5,7,31.5,9,33.8,9.6,35.9,9.6,35.9,3.2,10.3-5.7,7.9-14.4,6.5a146,146,0,0,1-28-7.4" fill="none" stroke="#231f20" stroke-linecap="round" stroke-linejoin="round"/><path d="M327,102c4.8.3,4.4.2,5.3-.8l4.5-5.9" fill="none" stroke="#231f20" stroke-miterlimit="10"/><path d="M323.2,49.2l3.9-.3c.1,5.4,0,3.5-.3,12.1,2.1,5.3,6.7,21.4,6.7,21.4l3.3,12.9-4.2.3s-5.9-25.7-10.1-34.3a91.4,91.4,0,0,0,.7-12.1h0c-.5.1-2.5,1-5,1.6" fill="none" stroke="#231f20" stroke-miterlimit="10"/><path d="M239.9,57.8l3.2-.3,8,4.5" fill="none" stroke="#231f20" stroke-miterlimit="10"/><path d="M249.5,59.1l-2.9.3" fill="none" stroke="#231f20" stroke-miterlimit="10"/><path d="M252.8,60.9l-3.3-1.8" fill="none" stroke="#231f20" stroke-miterlimit="10"/><path d="M252.8,60.9l2.3-.2" fill="none" stroke="#231f20" stroke-miterlimit="10"/><line x1="255" y1="60.7" x2="282.2" y2="76" fill="none" stroke="#231f20" stroke-miterlimit="10"/><path d="M318.2,50.8c-1.3-.7-2.1-4.3-2-6.8l3.8-.5c.2,2.5,1.1,5.7,2,6.1" fill="none" stroke="#231f20" stroke-miterlimit="10"/><path d="M290.8,149.5l-62.5,22" fill="#fff" stroke="#231f20" stroke-linecap="round" stroke-miterlimit="10"/><path d="M290.8,149.5l15.3,3.2" fill="#fff" stroke="#231f20" stroke-linecap="round" stroke-miterlimit="10"/><path d="M306.1,155.1l-62.7,22" fill="#fff" stroke="#231f20" stroke-linecap="round" stroke-linejoin="round"/><path d="M306.1,152.7l-62.5,22Z" fill="#fff" stroke="#231f20" stroke-linecap="round" stroke-miterlimit="10"/><line x1="306.1" y1="155.1" x2="306.1" y2="152.7" fill="#fff" stroke="#231f20" stroke-linecap="round" stroke-miterlimit="10"/><path d="M228.3,174v-2.5" fill="#fff" stroke="#231f20" stroke-linecap="round" stroke-linejoin="round"/><path d="M243.6,177.1v-2.4" fill="#fff" stroke="#231f20" stroke-linecap="round" stroke-linejoin="round"/><path d="M228.3,171.5l15.3,3.2" fill="#fff" stroke="#231f20" stroke-linecap="round" stroke-miterlimit="10"/><path d="M228.3,174l15.3,3.1" fill="#fff" stroke="#231f20" stroke-linecap="round" stroke-miterlimit="10"/><path d="M323.7,95.5c3.2,0,3.2-5,0-5s-3.2,5,0,5Z" fill="#fff"/><path d="M327.5,90.8c-1.6-6.3-4.1-15.5-6.4-22.1l-2.6.2L316,72.1a226.5,226.5,0,0,1,6.3,22.2,34.1,34.1,0,0,1,2.6-3.3l2.6-.2-2.6,3.4h-2.6" fill="#fff" stroke="#231f20" stroke-linejoin="round"/><path d="M324.9,91c-1.6-6.3-4.1-15.6-6.4-22.1" fill="#fff" stroke="#231f20" stroke-linejoin="round"/><line x1="343" y1="57.7" x2="331.7" y2="59.4" fill="#fff" stroke="#231f20" stroke-linecap="round" stroke-miterlimit="10"/><line x1="353.2" y1="78.4" x2="336.8" y2="80.8" fill="#fff" stroke="#231f20" stroke-linecap="round" stroke-miterlimit="10"/><path d="M343,57.7c3.4,6,7.5,14.7,10.2,20.7" fill="#fff" stroke="#231f20" stroke-linecap="round" stroke-miterlimit="10"/><path d="M331.7,59.4c1.9,6.4,3.9,15.3,5.1,21.4" fill="#fff" stroke="#231f20" stroke-linecap="round" stroke-miterlimit="10"/><path d="M331.7,59.4l-1.9,3" fill="#fff" stroke="#231f20" stroke-linecap="round" stroke-linejoin="round"/><path d="M327.8,67.7h-.1" fill="#fff" stroke="#231f20" stroke-linejoin="round"/><path d="M336.8,80.8l-2,3.2" fill="#fff" stroke="#231f20" stroke-linecap="round" stroke-linejoin="round"/><path d="M329.8,62.4c1.9,6.5,3.8,15.5,5,21.6" fill="#fff" stroke="#231f20" stroke-linecap="round" stroke-miterlimit="10"/><path d="M353.2,78.4c-.3.3-.6,1-1.8,2.9" fill="#fff" stroke="#231f20" stroke-linecap="round" stroke-linejoin="round"/><line x1="351.4" y1="81.3" x2="334.8" y2="84" fill="#fff" stroke="#231f20" stroke-linecap="round" stroke-miterlimit="10"/><path d="M330.9,67.8l-9.1,5.9" fill="#fff"/><path d="M330.9,67.8c-.6.4-1.7,1-3.4,2.2" fill="none" stroke="#231f20" stroke-linecap="round" stroke-linejoin="round"/><path d="M325.1,71.5l-3.3,2.2" fill="none" stroke="#231f20" stroke-linecap="round" stroke-linejoin="round"/><path d="M337,63.9h-.1" fill="#fff" stroke="#231f20" stroke-linejoin="round"/><path d="M334.3,83l-8,4.4" fill="#fff"/><path d="M334.3,83l-3.5,2" fill="none" stroke="#231f20" stroke-linecap="round" stroke-linejoin="round"/><path d="M329.8,85.5l-3.5,1.9" fill="none" stroke="#231f20" stroke-linecap="round" stroke-linejoin="round"/><ellipse cx="325.4" cy="87.6" rx="0.6" ry="1" transform="translate(-11.4 76) rotate(-13.1)" fill="#231f20"/><ellipse cx="321.5" cy="73.9" rx="0.6" ry="1" transform="translate(-8.4 74.8) rotate(-13.1)" fill="#231f20"/><path d="M308.3,80.1c-.6-.1-.9-1.8-.2-2h.5c.5,0,.7,1.7.2,2.1Z" fill="none" stroke="#231f20" stroke-miterlimit="10" stroke-width="0.75"/><path d="M308.7,79.1a1,1,0,0,0-.2-.7" fill="none" stroke="#231f20" stroke-miterlimit="10" stroke-width="0.75"/><path d="M309,79.6c.2.1.3.1.3-.1s0-.5-.3-.9" fill="none" stroke="#231f20" stroke-miterlimit="10" stroke-width="0.75"/><path d="M309,78.4c.4-.6,1.2,1.7.3,1.1" fill="none" stroke="#231f20" stroke-miterlimit="10" stroke-width="0.75"/><path d="M309.3,78.4c.5-.6,1.2,1.7.4,1.1" fill="none" stroke="#231f20" stroke-miterlimit="10" stroke-width="0.75"/><path d="M309.1,79.5h.1q.2,0,0-.3" fill="none" stroke="#231f20" stroke-miterlimit="10" stroke-width="0.75"/><path d="M309.7,78.4c.4-.7,1.2,1.7.4,1.1" fill="none" stroke="#231f20" stroke-miterlimit="10" stroke-width="0.75"/><path d="M310,78.4c.5-.7,1.3,1.6.4,1" fill="none" stroke="#231f20" stroke-miterlimit="10" stroke-width="0.75"/><path d="M310.4,78.3c.4-.6,1.2,1.7.4,1.1" fill="none" stroke="#231f20" stroke-miterlimit="10" stroke-width="0.75"/><path d="M310.8,78.3c.4-.6,1.2,1.7.4,1.1" fill="none" stroke="#231f20" stroke-miterlimit="10" stroke-width="0.75"/><path d="M311.1,78.3c.5-.7,1.3,1.6.4,1" fill="none" stroke="#231f20" stroke-miterlimit="10" stroke-width="0.75"/><path d="M311.9,79.4l.2-.2a.8.8,0,0,0-.1-.8h-.5" fill="none" stroke="#231f20" stroke-miterlimit="10" stroke-width="0.75"/><line x1="318.8" y1="78.4" x2="312.7" y2="78.8" fill="#fff"/><line x1="318.8" y1="78.4" x2="312.7" y2="78.8" fill="none" stroke="#231f20" stroke-linecap="round" stroke-miterlimit="10" stroke-dasharray="6.06"/><ellipse cx="304.1" cy="68.4" rx="0.8" ry="0.8" transform="matrix(0.87, -0.5, 0.5, 0.87, 6.54, 161.23)" fill="#231f20"/><path d="M310.4,88.3c-.6-.1-.9-1.8-.2-2.1h.5c.5,0,.7,1.6.2,2Z" fill="none" stroke="#231f20" stroke-miterlimit="10" stroke-width="0.75"/><path d="M310.8,87.2a.7.7,0,0,0-.2-.6" fill="none" stroke="#231f20" stroke-miterlimit="10" stroke-width="0.75"/><path d="M311.1,87.8c.2.1.3.1.3-.1s0-.5-.3-.9" fill="none" stroke="#231f20" stroke-miterlimit="10" stroke-width="0.75"/><path d="M311.1,86.6c.4-.6,1.2,1.7.3,1.1" fill="none" stroke="#231f20" stroke-miterlimit="10" stroke-width="0.75"/><path d="M311.4,86.6c.5-.7,1.2,1.7.4,1.1" fill="none" stroke="#231f20" stroke-miterlimit="10" stroke-width="0.75"/><path d="M311.2,87.7h.1q.1,0,0-.3" fill="none" stroke="#231f20" stroke-miterlimit="10" stroke-width="0.75"/><path d="M311.8,86.6c.4-.7,1.2,1.7.4,1.1" fill="none" stroke="#231f20" stroke-miterlimit="10" stroke-width="0.75"/><path d="M312.1,86.5c.5-.6,1.3,1.7.4,1.1" fill="none" stroke="#231f20" stroke-miterlimit="10" stroke-width="0.75"/><path d="M312.5,86.5c.4-.6,1.2,1.7.4,1.1" fill="none" stroke="#231f20" stroke-miterlimit="10" stroke-width="0.75"/><path d="M312.9,86.5c.4-.7,1.2,1.7.4,1.1" fill="none" stroke="#231f20" stroke-miterlimit="10" stroke-width="0.75"/><path d="M313.2,86.5c.5-.7,1.3,1.6.4,1" fill="none" stroke="#231f20" stroke-miterlimit="10" stroke-width="0.75"/><path d="M314,87.6l.2-.2a.8.8,0,0,0-.1-.8l-.5-.2" fill="none" stroke="#231f20" stroke-miterlimit="10" stroke-width="0.75"/><line x1="320.9" y1="86.6" x2="314.8" y2="87" fill="#fff"/><line x1="320.9" y1="86.6" x2="314.8" y2="87" fill="none" stroke="#231f20" stroke-linecap="round" stroke-miterlimit="10" stroke-dasharray="6.06"/><ellipse cx="322" cy="86.4" rx="0.8" ry="0.8" transform="translate(0 172.5) rotate(-30)" fill="#231f20"/><path d="M276.6,80.1l3.7-.3" fill="none" stroke="#231f20" stroke-linecap="round" stroke-miterlimit="10"/><path d="M244.6,62.7c15.1,8.4,32,17.4,32,17.4" fill="none" stroke="#231f20" stroke-linecap="round" stroke-linejoin="round"/><path d="M222.4,91.8l2.6,1" fill="#fff" stroke="#231f20" stroke-miterlimit="10"/><path d="M280.4,138.2l2.7.7" fill="#fff" stroke="#231f20" stroke-miterlimit="10"/><path d="M299.1,105.2l2.7.7" fill="#fff" stroke="#231f20" stroke-miterlimit="10"/><path d="M301.8,105.9c2.2,14.5,5.3,27.9,5.3,27.9" fill="#fff" stroke="#231f20" stroke-linecap="round" stroke-miterlimit="10"/><path d="M286.6,109.3c-2.4,15.2-3.5,29.6-3.5,29.6" fill="#fff" stroke="#231f20" stroke-linecap="round" stroke-miterlimit="10"/><path d="M283.1,138.9c17.8-3.9,24-5.1,24-5.1" fill="#fff" stroke="#231f20" stroke-linecap="round" stroke-miterlimit="10"/><path d="M286.5,109.2l15.3-3.3" fill="#fff" stroke="#231f20" stroke-linecap="round" stroke-miterlimit="10"/><path d="M283.8,108.6l2.7.6" fill="#fff" stroke="#231f20" stroke-miterlimit="10"/><path d="M283.8,108.6l15.3-3.4" fill="#fff" stroke="#231f20" stroke-linecap="round" stroke-miterlimit="10"/><path d="M283.8,108.6c-2.3,15.3-3.4,29.6-3.4,29.6" fill="#fff" stroke="#231f20" stroke-linecap="round" stroke-miterlimit="10"/><path d="M276.5,80.1c-.1,1.4-.1,4.2-.1,4.2" fill="#fff" stroke="#231f20" stroke-miterlimit="10"/><path d="M276.4,84.3l3.7-.4" fill="none" stroke="#231f20" stroke-linecap="round" stroke-miterlimit="10"/><path d="M280.3,79.8c-.1,1.4-.2,4.1-.2,4.1" fill="#fff" stroke="#231f20" stroke-miterlimit="10"/><path d="M232.1,63.8c-4.2,14.9-7,29-7,29" fill="none" stroke="#231f20" stroke-linecap="round" stroke-miterlimit="10"/><path d="M225.1,92.8c10.1-1,15-1.3,18.7-1.6" fill="none" stroke="#231f20" stroke-linecap="round" stroke-miterlimit="10"/><path d="M232.1,63.8l15.7-1.5" fill="none" stroke="#231f20" stroke-linecap="round" stroke-miterlimit="10"/><path d="M229.5,62.7l2.6,1.1" fill="none" stroke="#231f20" stroke-miterlimit="10"/><path d="M229.5,62.7,246,61.2" fill="none" stroke="#231f20" stroke-linecap="round" stroke-miterlimit="10"/><path d="M229.5,62.8c-4.2,14.8-7.1,28.9-7.1,28.9" fill="none" stroke="#231f20" stroke-linecap="round" stroke-miterlimit="10"/><path d="M244.6,62.7c-.6,9.7-.9,28.4-.9,28.4" fill="none" stroke="#231f20" stroke-miterlimit="10"/><path d="M243.8,91.2l2.8,1.6" fill="none" stroke="#231f20" stroke-linecap="round" stroke-linejoin="round"/><path d="M247.3,68.4c13.8,7.7,29.1,15.9,29.1,15.9" fill="none" stroke="#231f20" stroke-miterlimit="10"/><path d="M246.7,92.8l3.8-.4" fill="none" stroke="#231f20" stroke-linecap="round" stroke-miterlimit="10"/><ellipse cx="245.3" cy="86.4" rx="0.9" ry="0.9" transform="translate(88.1 293.7) rotate(-72.2)"/><ellipse cx="245.7" cy="69.4" rx="0.9" ry="0.9" transform="translate(121.3 292.4) rotate(-76.6)"/><ellipse cx="252.2" cy="69.2" rx="0.9" ry="0.9" transform="translate(109.4 288.3) rotate(-72.2)"/><ellipse cx="261.7" cy="74.1" rx="0.9" ry="0.9" transform="translate(111.3 300.7) rotate(-72.2)"/><ellipse cx="270.7" cy="79.3" rx="0.9" ry="0.9" transform="translate(112.7 312.9) rotate(-72.2)"/><path d="M273.9,93.5c-.1.6-1.8.8-2,.1v-.5c0-.4,1.7-.6,2,0Z" fill="none" stroke="#231f20" stroke-miterlimit="10" stroke-width="0.75"/><path d="M272.9,93.1h-.7" fill="none" stroke="#231f20" stroke-miterlimit="10" stroke-width="0.75"/><path d="M273.5,92.8c.1-.1.1-.3-.1-.3s-.5,0-.9.2" fill="none" stroke="#231f20" stroke-miterlimit="10" stroke-width="0.75"/><path d="M272.3,92.8c-.6-.5,1.8-1.1,1.1-.3" fill="none" stroke="#231f20" stroke-miterlimit="10" stroke-width="0.75"/><path d="M272.3,92.4c-.6-.5,1.8-1.1,1.1-.3" fill="none" stroke="#231f20" stroke-miterlimit="10" stroke-width="0.75"/><path d="M273.4,92.7h0c0-.2-.1-.2-.3-.2" fill="none" stroke="#231f20" stroke-miterlimit="10" stroke-width="0.75"/><path d="M272.3,92c-.6-.4,1.8-1.1,1.1-.3" fill="none" stroke="#231f20" stroke-miterlimit="10" stroke-width="0.75"/><path d="M272.3,91.7c-.6-.5,1.8-1.1,1.1-.3" fill="none" stroke="#231f20" stroke-miterlimit="10" stroke-width="0.75"/><path d="M272.3,91.3c-.6-.5,1.7-1.1,1.1-.3" fill="none" stroke="#231f20" stroke-miterlimit="10" stroke-width="0.75"/><path d="M272.3,91c-.6-.5,1.7-1.2,1.1-.4" fill="none" stroke="#231f20" stroke-miterlimit="10" stroke-width="0.75"/><path d="M272.3,90.6c-.6-.5,1.7-1.1,1.1-.3" fill="none" stroke="#231f20" stroke-miterlimit="10" stroke-width="0.75"/><path d="M273.5,89.9l-.3-.3h-.7l-.2.5" fill="none" stroke="#231f20" stroke-miterlimit="10" stroke-width="0.75"/><line x1="272.9" y1="83" x2="272.9" y2="89.1" fill="#fff"/><line x1="272.9" y1="83" x2="272.9" y2="89.1" fill="none" stroke="#231f20" stroke-linecap="round" stroke-miterlimit="10" stroke-dasharray="6.06"/><line x1="345.6" y1="62.7" x2="360.2" y2="60.7" fill="none" stroke="#231f20" stroke-linecap="round" stroke-linejoin="round" stroke-dasharray="12"/><path d="M361.1,63.2s2.9-.6,16.8-1.7c1.3-1.3,1.3-4.2-.8-5l-16.8,1.2" fill="none" stroke="#231f20" stroke-miterlimit="10"/><circle cx="360.6" cy="60.5" r="2.8" fill="none" stroke="#231f20" stroke-miterlimit="10"/><path d="M292.4,70.3c-.6-.1-.9-1.9-.2-2.1h.5c.4,0,.7,1.6.2,2Z" fill="none" stroke="#231f20" stroke-miterlimit="10" stroke-width="0.75"/><path d="M292.8,69.2a1.1,1.1,0,0,0-.2-.7" fill="none" stroke="#231f20" stroke-miterlimit="10" stroke-width="0.75"/><path d="M293.1,69.8c.1.1.2,0,.3-.1a1.2,1.2,0,0,0-.3-.9" fill="none" stroke="#231f20" stroke-miterlimit="10" stroke-width="0.75"/><path d="M293,68.6c.5-.7,1.2,1.7.4,1.1" fill="none" stroke="#231f20" stroke-miterlimit="10" stroke-width="0.75"/><path d="M293.4,68.6c.4-.7,1.2,1.6.4,1.1" fill="none" stroke="#231f20" stroke-miterlimit="10" stroke-width="0.75"/><path d="M293.1,69.7h.1a.4.4,0,0,0,.1-.3" fill="none" stroke="#231f20" stroke-miterlimit="10" stroke-width="0.75"/><path d="M293.8,68.5c.4-.6,1.2,1.7.3,1.1" fill="none" stroke="#231f20" stroke-miterlimit="10" stroke-width="0.75"/><path d="M294.1,68.5c.4-.6,1.2,1.7.4,1.1" fill="none" stroke="#231f20" stroke-miterlimit="10" stroke-width="0.75"/><path d="M294.5,68.5c.4-.7,1.2,1.7.4,1.1" fill="none" stroke="#231f20" stroke-miterlimit="10" stroke-width="0.75"/><path d="M294.8,68.5c.5-.7,1.3,1.6.4,1" fill="none" stroke="#231f20" stroke-miterlimit="10" stroke-width="0.75"/><path d="M295.2,68.4c.4-.6,1.2,1.7.4,1.1" fill="none" stroke="#231f20" stroke-miterlimit="10" stroke-width="0.75"/><path d="M295.9,69.6l.3-.3a.6.6,0,0,0-.1-.7l-.5-.2" fill="none" stroke="#231f20" stroke-miterlimit="10" stroke-width="0.75"/><line x1="302.8" y1="68.6" x2="296.8" y2="69" fill="#fff"/><line x1="302.8" y1="68.6" x2="296.8" y2="69" fill="none" stroke="#231f20" stroke-linecap="round" stroke-miterlimit="10" stroke-dasharray="6.06"/><line x1="328.2" y1="65" x2="330.5" y2="64.7" fill="none" stroke="#231f20" stroke-linecap="round" stroke-linejoin="round" stroke-dasharray="12"/><path d="M244.3,62.6l3.7-.3" fill="none" stroke="#231f20" stroke-linecap="round" stroke-miterlimit="10"/><path d="M247.5,64.4c-.5,9.8-.8,28.4-.8,28.4" fill="#fff" stroke="#231f20" stroke-miterlimit="10"/><path d="M251.1,70.5c-.4,7.5-.7,22-.7,22" fill="#fff" stroke="#231f20" stroke-miterlimit="10"/><path d="M251.5,49.7l34.6-3.6" fill="none" stroke="#231f20" stroke-linecap="round" stroke-miterlimit="10"/><path d="M211.2,27.7c19.2,10.6,40.4,22,40.4,22" fill="none" stroke="#231f20" stroke-linecap="round" stroke-linejoin="round"/><path d="M245.7,24.1c19.1,10.6,40.4,22,40.4,22" fill="none" stroke="#231f20" stroke-linecap="round" stroke-linejoin="round"/><path d="M211.2,27.7l34.5-3.6" fill="none" stroke="#231f20" stroke-linecap="round" stroke-linejoin="round"/><path d="M286.1,46c-.1,1.2-.2,3.3-.2,3.3" fill="#fff" stroke="#231f20" stroke-miterlimit="10"/><path d="M211.2,27.7c-.1,1.1-.1,3.1-.1,3.1C230.2,41.4,251.5,53,251.5,53s0-2.1.1-3.3V53c33.9-3.5,34.5-3.7,34.5-3.7" fill="none" stroke="#231f20" stroke-linejoin="round"/><path d="M233.2,28.9h0" fill="none" stroke="#231f20" stroke-linecap="round" stroke-linejoin="round"/><path d="M232.7,28.9l8.3,5.3C254.7.2,230-5.4,218.6,6.1l4.1,9.5" fill="none" stroke="#231f20" stroke-linecap="round" stroke-linejoin="round"/><path d="M232.7,28.8c6.3-15.6-4.7-18.4-10-13.2" fill="none" stroke="#231f20" stroke-linecap="round" stroke-linejoin="round"/><path d="M240.9,34.2l3.6-.5" fill="none" stroke="#231f20" stroke-linecap="round" stroke-miterlimit="10"/><path d="M244.5,33.7c10-24.6-.2-34.3-11-33.4" fill="none" stroke="#231f20" stroke-linecap="round" stroke-linejoin="round"/><path d="M229.9.7l3.6-.4" fill="none" stroke="#231f20" stroke-linecap="round" stroke-miterlimit="10"/><path d="M200.5,109.4c.8,0,1.2,1.8.4,2.1h-.5c-.5,0-.9-1.7-.3-2.2Z" fill="none" stroke="#231f20" stroke-miterlimit="10" stroke-width="0.75"/><path d="M200.2,110.5a2.1,2.1,0,0,0,.3.7" fill="none" stroke="#231f20" stroke-miterlimit="10" stroke-width="0.75"/><path d="M199.8,109.9c-.1-.1-.2,0-.3.1a1.6,1.6,0,0,0,.4,1" fill="none" stroke="#231f20" stroke-miterlimit="10" stroke-width="0.75"/><path d="M200,111.2c-.4.8-1.4-1.7-.5-1.2" fill="none" stroke="#231f20" stroke-miterlimit="10" stroke-width="0.75"/><path d="M199.6,111.3c-.4.7-1.4-1.8-.5-1.2" fill="none" stroke="#231f20" stroke-miterlimit="10" stroke-width="0.75"/><path d="M199.8,110h-.1c-.1,0-.1.1-.1.2" fill="none" stroke="#231f20" stroke-miterlimit="10" stroke-width="0.75"/><path d="M199.2,111.3c-.4.8-1.4-1.7-.5-1.1" fill="none" stroke="#231f20" stroke-miterlimit="10" stroke-width="0.75"/><path d="M198.8,111.4c-.4.7-1.4-1.8-.5-1.2" fill="none" stroke="#231f20" stroke-miterlimit="10" stroke-width="0.75"/><path d="M198.4,111.4c-.4.8-1.4-1.7-.4-1.1" fill="none" stroke="#231f20" stroke-miterlimit="10" stroke-width="0.75"/><path d="M198.1,111.5c-.5.7-1.5-1.7-.5-1.1" fill="none" stroke="#231f20" stroke-miterlimit="10" stroke-width="0.75"/><path d="M197.7,111.5c-.5.8-1.5-1.7-.5-1.1" fill="none" stroke="#231f20" stroke-miterlimit="10" stroke-width="0.75"/><path d="M196.8,110.4l-.3.3a.7.7,0,0,0,.2.7l.6.2" fill="none" stroke="#231f20" stroke-miterlimit="10" stroke-width="0.75"/><line x1="189.4" y1="112" x2="195.9" y2="111.1" fill="#fff"/><line x1="189.4" y1="112" x2="195.9" y2="111.1" fill="none" stroke="#231f20" stroke-linecap="round" stroke-miterlimit="10" stroke-dasharray="6.57"/><ellipse cx="116.8" cy="128.8" rx="3.3" ry="3.4" fill="#fff" stroke="#231f20" stroke-miterlimit="10"/><path d="M116.9,126.6h.5v2.9c0,1.2-.5,1.5-1.3,1.5h-.6v-.4h.5c.5,0,.8-.3.8-1.1Z" fill="#231f20"/><ellipse cx="370.8" cy="62.7" rx="3.3" ry="3.4" fill="#fff" stroke="#231f20" stroke-miterlimit="10"/><path d="M370.9,60.5h.6v2.9c0,1.1-.6,1.5-1.4,1.5h-.6v-.5h.5c.5,0,.8-.2.8-1Z" fill="#231f20"/><ellipse cx="14.6" cy="149.8" rx="3.3" ry="3.4" fill="#fff" stroke="#231f20" stroke-miterlimit="10"/><path d="M15,147.6V152h-.6v-4.4Z" fill="#231f20"/><ellipse cx="236.3" cy="77.5" rx="3.3" ry="3.4" fill="#fff" stroke="#231f20" stroke-miterlimit="10"/><path d="M235,75.5h1.2a3,3,0,0,1,1.8.5,2.1,2.1,0,0,1,.6,1.6,2,2,0,0,1-.6,1.6,2.4,2.4,0,0,1-1.9.7H235Zm.6,3.8h.6a1.6,1.6,0,0,0,1.8-1.8,1.5,1.5,0,0,0-1.7-1.7h-.7Z" fill="#231f20"/><ellipse cx="240.3" cy="53.1" rx="3.3" ry="3.4" fill="none" stroke="#231f20" stroke-miterlimit="10"/><path d="M239.1,51h1a1.9,1.9,0,0,1,1.2.3,1.2,1.2,0,0,1,.4.8,1.1,1.1,0,0,1-.8,1h0a1,1,0,0,1,.9,1.1,1.1,1.1,0,0,1-.3.8,2.1,2.1,0,0,1-1.5.4h-.9Zm.5,1.8h.6c.6,0,.9-.3.9-.7s-.4-.7-1-.7h-.5Zm0,2.1h.5c.6,0,1.1-.2,1.1-.8s-.5-.9-1.1-.9h-.5Z" fill="#231f20"/><ellipse cx="344.1" cy="91.9" rx="3.3" ry="3.4" fill="none" stroke="#231f20" stroke-miterlimit="10"/><path d="M342.8,89.8h1.1a2.1,2.1,0,0,1,1.2.3,1,1,0,0,1,.3.8,1.1,1.1,0,0,1-.7.9h0a1.2,1.2,0,0,1,.9,1.1,1.3,1.3,0,0,1-.4.9,2.7,2.7,0,0,1-1.5.4h-.9Zm.6,1.7h.5c.6,0,.9-.3.9-.7s-.3-.7-.9-.7h-.5Zm0,2.1h.5c.5,0,1.1-.2,1.1-.8s-.5-.8-1.1-.8h-.5Z" fill="#231f20"/><rect x="242.6" y="64" width="3.5" height="4.17" transform="translate(-1.4 126.8) rotate(-29)" fill="none"/><polygon points="241.8 65.1 243.7 64.9 244.9 63.4 245.4 67.9 241.8 65.1" fill="#231f20"/><path d="M238.6,55.3c-.8.8-.5,2.2.3,3.8" fill="none" stroke="#231f20" stroke-miterlimit="10"/><path d="M240.8,61.9a37,37,0,0,0,2.5,3.1" fill="none" stroke="#231f20" stroke-miterlimit="10"/><rect x="326.7" y="91.4" width="3.5" height="4.17" transform="translate(184.4 403.2) rotate(-80.9)" fill="none"/><polygon points="330.8 92.1 329.8 93.7 330.2 95.6 326.4 93.2 330.8 92.1" fill="#231f20"/><path d="M340.9,93.7a19,19,0,0,1-4,.3" fill="none" stroke="#231f20" stroke-miterlimit="10"/><path d="M333.8,93.9c-2.2,0-4-.2-4-.2" fill="none" stroke="#231f20" stroke-miterlimit="10"/><ellipse cx="294.7" cy="122.6" rx="3.3" ry="3.4" fill="none" stroke="#231f20" stroke-miterlimit="10"/><path d="M293.4,120.5h1.2a2.4,2.4,0,0,1,1.8.6,1.8,1.8,0,0,1,.6,1.5,2.4,2.4,0,0,1-.6,1.7,2.8,2.8,0,0,1-2,.6h-1Zm.6,3.9h.5a1.7,1.7,0,0,0,1.9-1.8c0-1.1-.6-1.7-1.8-1.7H294Z" fill="#231f20"/><ellipse cx="271.2" cy="163.6" rx="3.3" ry="3.4" fill="#fffeff" stroke="#231f20" stroke-miterlimit="10"/><path d="M270.1,161.5v1.8h2.1v-1.8h.6v4.3h-.6v-2h-2.1v2h-.5v-4.3Z" fill="#231f20"/><path d="M285.3,143.6c.1-.7,1.9-.8,2.1-.1v.5c-.1.4-1.7.6-2.1,0Z" fill="none" stroke="#231f20" stroke-miterlimit="10" stroke-width="0.75"/><path d="M286.4,144h.6" fill="none" stroke="#231f20" stroke-miterlimit="10" stroke-width="0.75"/><path d="M285.8,144.3c-.2.1-.1.2,0,.3a1.1,1.1,0,0,0,1-.3" fill="none" stroke="#231f20" stroke-miterlimit="10" stroke-width="0.75"/><path d="M287,144.3c.6.5-1.8,1.1-1.2.3" fill="none" stroke="#231f20" stroke-miterlimit="10" stroke-width="0.75"/><path d="M287,144.7c.6.4-1.8,1.1-1.2.3" fill="none" stroke="#231f20" stroke-miterlimit="10" stroke-width="0.75"/><path d="M285.9,144.3h.2" fill="none" stroke="#231f20" stroke-miterlimit="10" stroke-width="0.75"/><path d="M287,145c.6.5-1.8,1.1-1.2.3" fill="none" stroke="#231f20" stroke-miterlimit="10" stroke-width="0.75"/><path d="M287,145.4c.6.5-1.8,1.1-1.1.3" fill="none" stroke="#231f20" stroke-miterlimit="10" stroke-width="0.75"/><path d="M287,145.8c.6.4-1.8,1.1-1.1.3" fill="none" stroke="#231f20" stroke-miterlimit="10" stroke-width="0.75"/><path d="M287,146.1c.6.5-1.8,1.1-1.1.3" fill="none" stroke="#231f20" stroke-miterlimit="10" stroke-width="0.75"/><path d="M287,146.5c.6.5-1.8,1.1-1.1.3" fill="none" stroke="#231f20" stroke-miterlimit="10" stroke-width="0.75"/><path d="M285.8,147.1l.2.3h.7l.3-.5" fill="none" stroke="#231f20" stroke-miterlimit="10" stroke-width="0.75"/><line x1="286.3" y1="154.1" x2="286.3" y2="148" fill="#fff"/><line x1="286.3" y1="154.1" x2="286.3" y2="148" fill="none" stroke="#231f20" stroke-linecap="round" stroke-miterlimit="10" stroke-dasharray="6.06"/><path d="M291.2,145.2c.1-.6,1.9-.8,2.1-.1v.5c-.1.5-1.7.6-2.1,0Z" fill="none" stroke="#231f20" stroke-miterlimit="10" stroke-width="0.75"/><path d="M292.2,145.6c.3,0,.4.1.7-.1" fill="none" stroke="#231f20" stroke-miterlimit="10" stroke-width="0.75"/><path d="M291.6,145.9c-.1.2,0,.3.1.3a1,1,0,0,0,1-.2" fill="none" stroke="#231f20" stroke-miterlimit="10" stroke-width="0.75"/><path d="M292.9,145.9c.6.5-1.8,1.1-1.2.3" fill="none" stroke="#231f20" stroke-miterlimit="10" stroke-width="0.75"/><path d="M292.9,146.3c.6.5-1.8,1.1-1.2.3" fill="none" stroke="#231f20" stroke-miterlimit="10" stroke-width="0.75"/><path d="M291.8,146h.2" fill="none" stroke="#231f20" stroke-miterlimit="10" stroke-width="0.75"/><path d="M292.9,146.7c.6.4-1.8,1.1-1.2.3" fill="none" stroke="#231f20" stroke-miterlimit="10" stroke-width="0.75"/><path d="M292.9,147c.6.5-1.8,1.1-1.1.3" fill="none" stroke="#231f20" stroke-miterlimit="10" stroke-width="0.75"/><path d="M292.8,147.4c.7.5-1.7,1.1-1,.3" fill="none" stroke="#231f20" stroke-miterlimit="10" stroke-width="0.75"/><path d="M292.9,147.7c.6.5-1.8,1.2-1.1.4" fill="none" stroke="#231f20" stroke-miterlimit="10" stroke-width="0.75"/><path d="M292.8,148.1c.7.5-1.7,1.1-1,.3" fill="none" stroke="#231f20" stroke-miterlimit="10" stroke-width="0.75"/><path d="M291.7,148.8l.2.3h.7l.3-.5" fill="none" stroke="#231f20" stroke-miterlimit="10" stroke-width="0.75"/><line x1="292.2" y1="155.7" x2="292.2" y2="149.7" fill="#fff"/><line x1="292.2" y1="155.7" x2="292.2" y2="149.7" fill="none" stroke="#231f20" stroke-linecap="round" stroke-miterlimit="10" stroke-dasharray="6.06"/><path d="M324.6,143.8v-1.1h-2v-.4l1.9-2.8h.6v2.7h.6v.5h-.6v1.1Zm0-1.6v-2.1h0a2.1,2.1,0,0,0-.4.6l-1,1.5h1.4Z" fill="#231f20"/><path d="M326.4,139.4h1.2a2.4,2.4,0,0,1,1.8.6,2,2,0,0,1,.6,1.6,2.4,2.4,0,0,1-.6,1.7,2.4,2.4,0,0,1-2,.7h-1Zm.5,4h.6a1.7,1.7,0,0,0,1.9-1.9c0-1.1-.6-1.7-1.8-1.7h-.7Z" fill="#231f20"/><path d="M332.2,139.3h2.4v.5h-1.8v1.5h1.6v.5h-1.6v2h-.6Z" fill="#231f20"/><path d="M335.9,139.7a.4.4,0,1,1-.4-.4A.4.4,0,0,1,335.9,139.7Zm-.7,4.1v-3.2h.6v3.2Z" fill="#231f20"/><path d="M336.8,141.5a2.8,2.8,0,0,0-.1-.9h.6v.5h0a1.2,1.2,0,0,1,1.1-.6c.4,0,1.1.3,1.1,1.4v1.9h-.6V142c0-.5-.2-1-.7-1a.9.9,0,0,0-.8.6v2.2h-.6Z" fill="#231f20"/><path d="M341.1,139.7a.4.4,0,0,1-.4.4c-.2,0-.3-.2-.3-.4s.1-.4.3-.4A.4.4,0,0,1,341.1,139.7Zm-.7,4.1v-3.2h.6v3.2Z" fill="#231f20"/><path d="M341.9,143.2a1.1,1.1,0,0,0,.8.3c.4,0,.6-.2.6-.5s-.2-.4-.6-.6-.8-.5-.8-.9a1,1,0,0,1,1.1-1l.8.2-.2.5-.6-.2c-.4,0-.6.2-.6.4s.2.4.6.6.9.5.9.9-.5,1-1.2,1l-.9-.2Z" fill="#231f20"/><path d="M344.6,139.1h.6v2h0l.4-.4.6-.2c.5,0,1.1.3,1.1,1.4v1.9h-.5V142c0-.5-.2-1-.8-1a.9.9,0,0,0-.8.6v2.2h-.6Z" fill="#231f20"/><path d="M349.7,143.8v-4.5h.6l1.5,2.3a10.9,10.9,0,0,1,.8,1.5h0a11.5,11.5,0,0,1-.1-1.9v-1.9h.6v4.5h-.6l-1.4-2.2-.9-1.5h0a9.7,9.7,0,0,1,.1,1.8v1.9Z" fill="#231f20"/><path d="M355.8,143.8v-.4h0a1.2,1.2,0,0,1-1,.5.9.9,0,0,1-1-.9c0-.8.7-1.2,1.9-1.2h0c0-.2,0-.7-.7-.7l-.8.2-.2-.4a3.5,3.5,0,0,1,1.1-.3c1,0,1.2.7,1.2,1.4v1.2a1.7,1.7,0,0,0,.1.7Zm-.1-1.6c-.6,0-1.3.1-1.3.7s.2.6.5.6a.8.8,0,0,0,.8-.6h0Z" fill="#231f20"/><path d="M357.9,139.7a.4.4,0,0,1-.4.4c-.2,0-.3-.2-.3-.4s.1-.4.3-.4A.4.4,0,0,1,357.9,139.7Zm-.6,4.1v-3.2h.5v3.2Z" fill="#231f20"/><path d="M358.8,139.1h.6v4.7h-.6Z" fill="#231f20"/><path d="M199,155v-1.3h-.5v-.4h.6v-.9h-.6V152h.7l.2-1.3h.3V152h.7v-1.3h.4V152h.5v.4h-.6v.9h.5v.4h-.6l-.2,1.3H200l.2-1.3h-.7V155Zm1.3-1.7v-.9h-.7v.9Z" fill="#231f20"/><path d="M201.9,153.9a1.2,1.2,0,0,1,.8-1.1h0c-.4-.3-.7-.6-.7-1a1.3,1.3,0,0,1,1.4-1.2,1.1,1.1,0,0,1,1.2,1.1.9.9,0,0,1-.7,1h0a1.2,1.2,0,0,1,.9,1.2,1.4,1.4,0,0,1-1.5,1.2C202.4,155.1,201.9,154.6,201.9,153.9Zm2.3,0c0-.5-.4-.8-.9-.9a.9.9,0,0,0-.8.9.8.8,0,0,0,.8.8C203.9,154.7,204.2,154.4,204.2,153.9Zm-1.6-2.2c0,.5.3.7.8.8s.7-.3.7-.7-.2-.7-.8-.7A.7.7,0,0,0,202.6,151.7Z" fill="#231f20"/><path d="M207.2,151.8l.5.7.3.5h0l.3-.5.5-.7h.6l-1.1,1.6,1.1,1.6h-.6l-.5-.7-.3-.5h-.1l-.3.5-.5.7h-.6l1.1-1.6-1.1-1.6Z" fill="#231f20"/><path d="M211.2,155v-.3l.5-.5c1.1-1,1.6-1.6,1.6-2.2a.8.8,0,0,0-.9-.9,1.3,1.3,0,0,0-.9.4l-.2-.4a1.7,1.7,0,0,1,1.2-.5,1.3,1.3,0,0,1,1.4,1.3c0,.8-.6,1.4-1.5,2.3l-.4.3h2v.4Z" fill="#231f20"/><path d="M215.5,150.5a7.6,7.6,0,0,1-.6,1.6h-.4a4.2,4.2,0,0,0,.4-1.6Zm1,0a7.6,7.6,0,0,1-.6,1.6h-.4a7.5,7.5,0,0,0,.4-1.6Z" fill="#231f20"/><path d="M218,150.5h2.4v.5h-1.8v1.5h1.7v.5h-1.7v2H218Z" fill="#231f20"/><path d="M221.1,150.3h.6V155h-.6Z" fill="#231f20"/><path d="M224.4,155v-.4h0a1.2,1.2,0,0,1-1,.5.9.9,0,0,1-1-.9c0-.8.7-1.2,1.9-1.2h0c0-.2,0-.7-.7-.7l-.8.2-.2-.4a3.5,3.5,0,0,1,1.1-.3c1,0,1.2.7,1.2,1.4v1.2a1.7,1.7,0,0,0,.1.7Zm-.1-1.6c-.6,0-1.3.1-1.3.7s.2.6.5.6a.8.8,0,0,0,.8-.6h0Z" fill="#231f20"/><path d="M226.5,150.9v.9h.9v.5h-.9V154c0,.4.1.6.5.6h.3v.4h-.5l-.6-.2c-.2-.2-.2-.5-.2-.9v-1.7h-.5v-.5h.5V151Z" fill="#231f20"/><path d="M228,150.3h.6v2h0l.4-.4.6-.2c.5,0,1.1.3,1.1,1.4V155h-.5v-1.8c0-.5-.2-1-.8-1a.9.9,0,0,0-.8.6V155H228Z" fill="#231f20"/><path d="M232,153.5a1.1,1.1,0,0,0,1.1,1.2l.9-.2v.4l-1.1.2a1.4,1.4,0,0,1-1.5-1.6c0-1,.5-1.8,1.5-1.8s1.3,1,1.3,1.6v.2Zm1.7-.4c0-.4-.1-.9-.8-.9s-.8.5-.9.9Z" fill="#231f20"/><path d="M236.8,155v-.4h0a1.1,1.1,0,0,1-1,.5.8.8,0,0,1-.9-.9c0-.8.6-1.2,1.9-1.2h0a.7.7,0,0,0-.7-.7l-.9.2V152a2.9,2.9,0,0,1,1-.3,1.2,1.2,0,0,1,1.3,1.4V155Zm-.1-1.6c-.6,0-1.4.1-1.4.7a.6.6,0,0,0,.6.6.9.9,0,0,0,.8-.6h0Z" fill="#231f20"/><path d="M241,150.3V155h-.5v-.5h0a1.1,1.1,0,0,1-1.1.6c-.7,0-1.3-.6-1.3-1.6s.6-1.8,1.4-1.8a1.4,1.4,0,0,1,1,.5h0v-1.9Zm-.6,2.8v-.2a.9.9,0,0,0-.9-.7c-.6,0-.9.5-.9,1.2s.3,1.2.9,1.2a.9.9,0,0,0,.9-.7v-.8Z" fill="#231f20"/><path d="M204.6,163l-1.1-4.4h.6l.6,2.2.3,1.6h0a12.4,12.4,0,0,1,.4-1.6l.6-2.2h.6l.5,2.2.3,1.6h0a12.4,12.4,0,0,1,.4-1.6l.6-2.2h.6l-1.3,4.4h-.6l-.6-2.3c-.1-.6-.2-1-.3-1.5h0a4.4,4.4,0,0,1-.3,1.5l-.6,2.3Z" fill="#231f20"/><path d="M212.2,161.4a1.5,1.5,0,0,1-1.6,1.7,1.4,1.4,0,0,1-1.5-1.6,1.6,1.6,0,0,1,1.5-1.8A1.6,1.6,0,0,1,212.2,161.4Zm-2.6,0c0,.7.4,1.3,1,1.3s1-.5,1-1.3a1.1,1.1,0,0,0-1-1.2C209.9,160.2,209.6,160.8,209.6,161.4Z" fill="#231f20"/><path d="M215.8,161.4a1.5,1.5,0,0,1-1.6,1.7,1.5,1.5,0,0,1-1.5-1.6,1.6,1.6,0,0,1,1.6-1.8A1.5,1.5,0,0,1,215.8,161.4Zm-2.5,0c0,.7.4,1.3,1,1.3s.9-.5.9-1.3-.2-1.2-.9-1.2S213.3,160.8,213.3,161.4Z" fill="#231f20"/><path d="M219.3,158.3v3.9a1.9,1.9,0,0,0,.1.8h-.6v-.5h0a1.4,1.4,0,0,1-1.1.6,1.4,1.4,0,0,1-1.4-1.6,1.6,1.6,0,0,1,1.5-1.8,1,1,0,0,1,.9.5h0v-1.9Zm-.6,2.8v-.2a.8.8,0,0,0-.8-.7c-.6,0-1,.5-1,1.3a1,1,0,0,0,1,1.1.8.8,0,0,0,.8-.7v-.8Z" fill="#231f20"/><path d="M221.6,162.3a2,2,0,0,0,1.1.3c.6,0,.9-.3.9-.7s-.2-.7-.8-.9-1.2-.7-1.2-1.3a1.3,1.3,0,0,1,1.4-1.2l1,.2v.5l-.9-.2c-.6,0-.8.3-.8.6s.2.7.9.9,1.1.7,1.1,1.3-.5,1.3-1.6,1.3a1.8,1.8,0,0,1-1.1-.3Z" fill="#231f20"/><path d="M227.3,162.9l-.9.2a1.5,1.5,0,0,1-1.6-1.6,1.6,1.6,0,0,1,1.7-1.7h.8v.5l-.7-.2a1.1,1.1,0,0,0-1.1,1.2c0,.8.4,1.2,1.1,1.2h.7Z" fill="#231f20"/><path d="M228,160.8a3.1,3.1,0,0,0-.1-1h.6v.7h0c.2-.5.5-.8.9-.8h.2v.5h-.2c-.5,0-.7.3-.8.8V163H228Z" fill="#231f20"/><path d="M230.4,161.5a1.1,1.1,0,0,0,1.1,1.2l.9-.2v.4l-1.1.2a1.5,1.5,0,0,1-1.6-1.6,1.6,1.6,0,0,1,1.5-1.8,1.5,1.5,0,0,1,1.4,1.6v.2Zm1.7-.4c0-.4-.1-.9-.8-.9s-.8.5-.9.9Z" fill="#231f20"/><path d="M233.6,159.8l.5,1.7a3.6,3.6,0,0,0,.2,1h0l.3-1,.5-1.7h.5l.5,1.6.3,1.1h0a6.1,6.1,0,0,1,.3-1.1l.4-1.6h.6l-1,3.2h-.6l-.5-1.5-.3-1.1h0a2,2,0,0,1-.3,1.1l-.5,1.5H234l-1-3.2Z" fill="#231f20"/><path d="M170.4,79.9l.2-1.3h-.5v-.4h.6v-1h-.6v-.4h.7V75.6h.4l-.2,1.2h.7l.2-1.2h.4l-.2,1.2h.6v.4h-.6v1h.5v.4h-.6l-.2,1.3h-.4l.2-1.3H171l-.2,1.3Zm1.4-1.7v-1h-.7v1Z" fill="#231f20"/><path d="M173.4,78.8a1.3,1.3,0,0,1,.8-1.2h0a1,1,0,0,1-.7-1c0-.7.6-1.1,1.4-1.1a1.1,1.1,0,0,1,1.2,1,1.3,1.3,0,0,1-.7,1.1h0a1.3,1.3,0,0,1,.9,1.1,1.4,1.4,0,0,1-1.5,1.3A1.3,1.3,0,0,1,173.4,78.8Zm2.3,0c0-.6-.4-.8-1-1a.9.9,0,0,0-.7.9c-.1.4.3.8.8.8A.8.8,0,0,0,175.7,78.8Zm-1.6-2.2c0,.4.3.7.8.8a.8.8,0,0,0,.7-.8.8.8,0,0,0-.8-.7A.6.6,0,0,0,174.1,76.6Z" fill="#231f20"/><path d="M178.7,76.7l.4.7c.2.1.2.3.4.5h0l.3-.6.4-.6h.7l-1.1,1.5,1.1,1.7h-.7l-.4-.7a2.1,2.1,0,0,1-.4-.6h0l-.3.6-.5.7H178l1.1-1.7L178,76.7Z" fill="#231f20"/><path d="M184,75.8h-.1l-.7.4v-.4l.9-.5h.5v4.3H184Z" fill="#231f20"/><path d="M185.8,79.9l1.8-4.8h.5l-1.9,4.8Z" fill="#231f20"/><path d="M190.2,79.6V78.5h-2v-.4l1.9-2.8h.6V78h.6v.5h-.6v1.1Zm0-1.6V75.9h0a2.1,2.1,0,0,0-.4.6l-1,1.5h1.4Z" fill="#231f20"/><path d="M192.7,75.3l-.6,1.6h-.4a15.5,15.5,0,0,0,.4-1.5Zm1,0a8.4,8.4,0,0,1-.7,1.6h-.3a15.5,15.5,0,0,0,.4-1.5Z" fill="#231f20"/><path d="M195.1,75.4h2.4v.5h-1.8v1.5h1.7v.5h-1.7v2h-.6Z" fill="#231f20"/><path d="M198.2,75.2h.6v4.7h-.6Z" fill="#231f20"/><path d="M201.6,79.9v-.4h0a1.4,1.4,0,0,1-1,.5.9.9,0,0,1-.9-1c0-.7.6-1.2,1.9-1.2h0c0-.3-.1-.8-.7-.8a1.4,1.4,0,0,0-.9.3v-.4a1.5,1.5,0,0,1,1-.3,1.2,1.2,0,0,1,1.3,1.3v2Zm-.1-1.7c-.6,0-1.4.1-1.4.8a.6.6,0,0,0,.6.5.8.8,0,0,0,.8-.5v-.8Z" fill="#231f20"/><path d="M203.7,75.7v1h.8v.4h-.8v1.7c0,.4.1.7.4.7h.3v.5H204a.9.9,0,0,1-.7-.3,1.9,1.9,0,0,1-.2-.8V77.1h-.5v-.4h.5v-.8Z" fill="#231f20"/><path d="M205.2,75.2h.5v2h.1l.4-.4.6-.2c.4,0,1.1.3,1.1,1.4v1.9h-.6V78c0-.5-.2-.9-.7-.9a.8.8,0,0,0-.8.6.3.3,0,0,0-.1.2v2h-.5Z" fill="#231f20"/><path d="M209.2,78.4a1,1,0,0,0,1.1,1.1l.9-.2v.5l-1,.2a1.6,1.6,0,0,1-1.6-1.7,1.6,1.6,0,0,1,1.5-1.7c1.1,0,1.3.9,1.3,1.5v.3Zm1.7-.4c0-.4-.2-1-.8-1a1,1,0,0,0-.9,1Z" fill="#231f20"/><path d="M213.9,79.9v-.4h0a1.6,1.6,0,0,1-1,.5.9.9,0,0,1-1-1c0-.7.7-1.2,1.9-1.2h0c0-.3,0-.8-.7-.8a1.1,1.1,0,0,0-.8.3l-.2-.4a2,2,0,0,1,1.1-.3c1,0,1.2.7,1.2,1.3v1.2a1.9,1.9,0,0,0,.1.8Zm-.1-1.7c-.6,0-1.3.1-1.3.8a.5.5,0,0,0,.5.5c.5,0,.7-.2.8-.5v-.8Z" fill="#231f20"/><path d="M218.1,75.2v4.7h-.5v-.6h0a1.2,1.2,0,0,1-1.1.7,1.7,1.7,0,0,1,.1-3.4.9.9,0,0,1,.9.5h0V75.2Zm-.6,2.8v-.3a1,1,0,0,0-.8-.7c-.6,0-1,.6-1,1.3s.3,1.2,1,1.2a.9.9,0,0,0,.8-.7V78Z" fill="#231f20"/><path d="M179,87.9l-1.2-4.5h.6l.6,2.3c.1.5.2,1.1.3,1.5h0a11.3,11.3,0,0,1,.4-1.5l.6-2.3h.6l.5,2.3a8,8,0,0,1,.3,1.5h0c.1-.5.3-1,.4-1.5l.6-2.3h.6L182,87.9h-.6l-.6-2.3a10.4,10.4,0,0,1-.2-1.5h-.1a4.9,4.9,0,0,1-.3,1.5l-.6,2.3Z" fill="#231f20"/><path d="M186.5,86.3a1.6,1.6,0,0,1-1.6,1.7,1.5,1.5,0,0,1-1.5-1.7,1.6,1.6,0,0,1,1.6-1.7A1.5,1.5,0,0,1,186.5,86.3Zm-2.5,0c0,.7.4,1.2.9,1.2s1-.5,1-1.2-.3-1.3-1-1.3S184,85.7,184,86.3Z" fill="#231f20"/><path d="M190.1,86.3a1.6,1.6,0,1,1-3.1,0,1.6,1.6,0,0,1,1.6-1.7A1.5,1.5,0,0,1,190.1,86.3Zm-2.5,0c0,.7.4,1.2,1,1.2s.9-.5.9-1.2-.2-1.3-.9-1.3S187.6,85.7,187.6,86.3Z" fill="#231f20"/><path d="M193.6,83.2v3.9a2.2,2.2,0,0,0,.1.8h-.6v-.6h0a1.2,1.2,0,0,1-1.1.7,1.5,1.5,0,0,1-1.4-1.7,1.6,1.6,0,0,1,1.5-1.7c.5,0,.8.2.9.5h.1V83.2Zm-.5,2.8a.4.4,0,0,0-.1-.3.9.9,0,0,0-.8-.6c-.6,0-1,.5-1,1.2s.4,1.2,1,1.2a.8.8,0,0,0,.8-.7.4.4,0,0,0,.1-.3Z" fill="#231f20"/><path d="M196,87.2a2.4,2.4,0,0,0,1,.3c.6,0,.9-.3.9-.8s-.2-.6-.8-.9-1.2-.6-1.2-1.3a1.3,1.3,0,0,1,1.4-1.2,2.2,2.2,0,0,1,1,.2V84l-.9-.2a.7.7,0,0,0-.8.7c0,.4.3.6.9.8s1.1.7,1.1,1.4A1.3,1.3,0,0,1,197,88a3.5,3.5,0,0,1-1.2-.3Z" fill="#231f20"/><path d="M201.6,87.8l-.9.2a1.6,1.6,0,0,1-1.6-1.7,1.6,1.6,0,0,1,1.7-1.7l.8.2v.4h-.7a1.1,1.1,0,0,0-1.1,1.2,1.1,1.1,0,0,0,1.1,1.2l.7-.2Z" fill="#231f20"/><path d="M202.3,85.7v-1h.5v.6h0a1.1,1.1,0,0,1,.9-.7h.2v.6h-.2c-.4,0-.7.4-.8.8v2h-.6Z" fill="#231f20"/><path d="M204.7,86.4a1,1,0,0,0,1.1,1.1l.9-.2v.5l-1.1.2c-1,0-1.5-.7-1.5-1.7a1.5,1.5,0,0,1,1.5-1.7,1.4,1.4,0,0,1,1.3,1.5v.3Zm1.7-.4c0-.4-.1-1-.8-1s-.8.6-.9,1Z" fill="#231f20"/><path d="M207.9,84.7l.5,1.6c.1.4.1.7.2,1h0l.3-1,.5-1.6h.5l.5,1.6.3,1h0l.3-1,.4-1.6h.6l-1,3.2h-.6l-.5-1.5a4.3,4.3,0,0,1-.2-1.1h0l-.3,1.1-.6,1.5h-.5l-1-3.2Z" fill="#231f20"/><path d="M105,96.7h0l-.8.4v-.4l.9-.5h.5v4.3H105Z" fill="#231f20"/><path d="M106.8,100.8l1.9-4.9h.4l-1.9,4.9Z" fill="#231f20"/><path d="M111.2,100.5V99.3h-2v-.4l1.9-2.7h.6v2.7h.6v.4h-.6v1.2Zm0-1.6V96.7h0a4.3,4.3,0,0,1-.4.7l-1,1.4h1.4Z" fill="#231f20"/><path d="M113.7,95.9a9.1,9.1,0,0,1-.6,1.6h-.4c.1-.4.3-1.1.4-1.6Zm1,0-.6,1.6h-.4c.1-.4.3-1.1.4-1.6Z" fill="#231f20"/><path d="M116.2,96.1h1.1a2.3,2.3,0,0,1,1.3.3,1.2,1.2,0,0,1,.3.9,1.1,1.1,0,0,1-.8,1.1h0q.5.1.6.9l.4,1.2h-.6a3,3,0,0,1-.3-1.1c-.2-.6-.4-.8-.9-.9h-.6v2h-.5Zm.5,2h.6c.6,0,1-.3,1-.8s-.4-.9-1-.9h-.6Z" fill="#231f20"/><path d="M122.6,98.9a1.6,1.6,0,1,1-3.1,0,1.6,1.6,0,0,1,1.6-1.7A1.5,1.5,0,0,1,122.6,98.9Zm-2.5,0c0,.7.4,1.2,1,1.2s.9-.5.9-1.2-.2-1.3-.9-1.3S120.1,98.3,120.1,98.9Z" fill="#231f20"/><path d="M126.1,99.6v.9h-.5V100h0a1.2,1.2,0,0,1-1,.6c-.5,0-1.1-.3-1.1-1.4V97.3h.5v1.8c0,.6.2,1,.8,1a.9.9,0,0,0,.7-.6c.1,0,.1-.1.1-.3V97.3h.6Z" fill="#231f20"/><path d="M127,98.1v-.8h.5v.5h.1a1.1,1.1,0,0,1,1-.6c.5,0,1.2.3,1.2,1.4v1.9h-.6V98.6c0-.5-.2-.9-.8-.9a.9.9,0,0,0-.8.6v2.2H127Z" fill="#231f20"/><path d="M133.5,95.8v4.7H133v-.6h0a1,1,0,0,1-1.1.7c-.7,0-1.3-.7-1.3-1.7a1.5,1.5,0,0,1,1.4-1.7,1.1,1.1,0,0,1,1,.5h0V95.8Zm-.6,2.8v-.3a.9.9,0,0,0-.9-.6c-.6,0-.9.5-.9,1.2s.3,1.2.9,1.2a1,1,0,0,0,.9-.7v-.8Z" fill="#231f20"/><path d="M135.8,98.5v.4h-1.6v-.4Z" fill="#231f20"/><path d="M140.4,98.2a2.1,2.1,0,0,1-2.1,2.4,2.1,2.1,0,0,1-2-2.3,2.2,2.2,0,0,1,2.1-2.4A2.1,2.1,0,0,1,140.4,98.2Zm-3.5.1a1.7,1.7,0,0,0,1.5,1.8c.9,0,1.4-.9,1.4-1.9s-.5-1.8-1.4-1.8S136.9,97.3,136.9,98.3Z" fill="#231f20"/><path d="M141.4,97.3l.7,1.8a2.4,2.4,0,0,1,.2.8h.1a2.4,2.4,0,0,1,.2-.8l.6-1.8h.7l-1.3,3.2H142l-1.2-3.2Z" fill="#231f20"/><path d="M144.7,99a1,1,0,0,0,1.1,1.1l.9-.2v.5l-1.1.2a1.6,1.6,0,0,1-1.6-1.7,1.6,1.6,0,0,1,1.5-1.7c1.1,0,1.3.9,1.3,1.5V99Zm1.7-.4c0-.4-.2-1-.8-1a1,1,0,0,0-.9,1Z" fill="#231f20"/><path d="M147.7,98.3a3.1,3.1,0,0,0-.1-1h.5v.6h0a1,1,0,0,1,.9-.7h.1v.6H149a.8.8,0,0,0-.7.8v2h-.5Z" fill="#231f20"/><path d="M44.4,102H42.7v1.7h1.9v.5H42.1V99.7h2.4v.4H42.7v1.5h1.7Z" fill="#231f20"/><path d="M47.1,104.2v-.4H47a1.1,1.1,0,0,1-.9.4.9.9,0,0,1-1-.9c0-.8.7-1.2,1.9-1.2h0a.7.7,0,0,0-.7-.7l-.9.2v-.4l1.1-.2c.9,0,1.2.6,1.2,1.3v2Zm-.1-1.7c-.6,0-1.3.1-1.3.7s.2.6.5.6a1,1,0,0,0,.8-.5v-.8Z" fill="#231f20"/><path d="M48.4,103.6l.8.2c.4,0,.6-.2.6-.5s-.1-.4-.6-.6-.8-.5-.8-.9.4-.9,1.1-.9a1.1,1.1,0,0,1,.8.2l-.2.4-.6-.2c-.4,0-.6.2-.6.4s.2.4.6.6.9.5.9,1-.4.9-1.2.9l-.9-.2Z" fill="#231f20"/><path d="M51.5,102.7a1,1,0,0,0,1.1,1.1l.9-.2v.4a2.2,2.2,0,0,1-1,.2,1.5,1.5,0,0,1-1.6-1.6,1.5,1.5,0,0,1,1.5-1.7c1.1,0,1.3.9,1.3,1.5v.3Zm1.7-.5a.9.9,0,0,0-.8-.9.9.9,0,0,0-.9.9Z" fill="#231f20"/><path d="M57.6,104.2v-.4h0a1.5,1.5,0,0,1-1,.4.9.9,0,0,1-1-.9c0-.8.7-1.2,1.9-1.2h0c0-.2,0-.7-.7-.7l-.8.2-.2-.4,1.1-.2c1,0,1.2.6,1.2,1.3v1.2a2.2,2.2,0,0,0,.1.8Zm0-1.7c-.7,0-1.4.1-1.4.7s.2.6.5.6a.8.8,0,0,0,.8-.5v-.8Z" fill="#231f20"/><path d="M59.1,99.4h.5v4.8h-.5Z" fill="#231f20"/><path d="M60.6,99.4h.6v4.8h-.6Z" fill="#231f20"/><path d="M63.9,102.7a1,1,0,0,0,1.1,1.1l.9-.2v.4l-1.1.2a1.4,1.4,0,0,1-1.5-1.6c0-1,.5-1.7,1.5-1.7a1.4,1.4,0,0,1,1.3,1.5v.3Zm1.7-.5a.8.8,0,0,0-.8-.9c-.6,0-.8.5-.9.9Z" fill="#231f20"/><path d="M69.7,99.4v4.8h-.5v-.6h-.1c-.1.4-.5.6-1.1.6s-1.3-.6-1.3-1.6.6-1.7,1.4-1.7a1.3,1.3,0,0,1,1,.4h0V99.4Zm-.6,2.8V102a.9.9,0,0,0-.9-.7c-.6,0-.9.5-.9,1.3s.3,1.2.9,1.2a1,1,0,0,0,.9-.7v-.9Z" fill="#231f20"/><path d="M73.4,100.9v2.8a2.1,2.1,0,0,1-.5,1.5,1.5,1.5,0,0,1-1.1.4,1.8,1.8,0,0,1-1.1-.3v-.5a1.5,1.5,0,0,0,1,.3c.6,0,1-.3,1-1.1v-.4h0a1.1,1.1,0,0,1-1,.5,1.4,1.4,0,0,1-1.4-1.5,1.5,1.5,0,0,1,1.5-1.7,1.1,1.1,0,0,1,1,.5h0v-.5Zm-.6,1.3v-.3a.9.9,0,0,0-.8-.6c-.6,0-1,.5-1,1.2s.3,1.2.9,1.2a1,1,0,0,0,.9-.6v-.9Z" fill="#231f20"/><path d="M74.7,102.7a1,1,0,0,0,1.1,1.1l.9-.2v.4l-1.1.2a1.5,1.5,0,0,1-1.6-1.6,1.5,1.5,0,0,1,1.5-1.7c1.1,0,1.3.9,1.3,1.5v.3Zm1.7-.5a.9.9,0,0,0-.8-.9.9.9,0,0,0-.9.9Z" fill="#231f20"/><path d="M77.6,103.6l.8.2c.4,0,.6-.2.6-.5s-.2-.4-.6-.6-.9-.5-.9-.9a1,1,0,0,1,1.1-.9c.4,0,.6,0,.8.2v.4l-.7-.2a.5.5,0,0,0-.5.4c0,.3.2.4.6.6s.8.5.8,1-.4.9-1.2.9l-.9-.2Z" fill="#231f20"/><rect x="296.2" y="145.1" width="3.5" height="4.17" transform="translate(149.8 444.6) rotate(-89.8)" fill="none"/><polygon points="300 145.4 299.3 147.2 300 148.9 295.8 147.2 300 145.4" fill="#231f20"/><path d="M340.8,145c.1,3.5-41.5,2.2-41.5,2.2" fill="none" stroke="#231f20" stroke-miterlimit="10"/><rect x="198.3" y="113" width="3.5" height="4.17" transform="translate(-29.3 89.6) rotate(-23.6)" fill="none"/><polygon points="202.5 116.3 200.6 116.3 199.3 117.7 199.2 113.2 202.5 116.3" fill="#231f20"/><path d="M215.4,148.9c-3.3-3.2-14.8-32.6-14.8-32.6" fill="none" stroke="#231f20" stroke-miterlimit="10"/><rect x="257.1" y="82.6" width="4.2" height="3.52" transform="translate(84.9 294) rotate(-68.3)" fill="none"/><polygon points="260.1 86.9 258.7 85.6 256.8 85.6 260 82.4 260.1 86.9" fill="#231f20"/><path d="M195,89.4c2.8,3.4,53,18.8,63.7-3.8" fill="none" stroke="#231f20" stroke-miterlimit="10"/><rect x="101.7" y="120.3" width="3.5" height="4.17" transform="translate(-52.1 84) rotate(-35.9)" fill="none"/><polygon points="100.9 121.8 102.7 121.3 103.7 119.7 104.7 124.1 100.9 121.8" fill="#231f20"/><path d="M102.8,98.3c-3.4,0-12,6.8-.1,23" fill="none" stroke="#231f20" stroke-miterlimit="10"/><rect x="109.8" y="135.5" width="4.2" height="3.52" transform="translate(-41 47.9) rotate(-20.5)" fill="none"/><polygon points="110.5 139.6 110.6 137.7 109.3 136.4 113.8 136.5 110.5 139.6" fill="#231f20"/><rect x="44.6" y="119.2" width="3.5" height="4.17" transform="translate(-66.7 57.4) rotate(-39.6)" fill="none"/><polygon points="43.7 120.8 45.5 120.2 46.4 118.5 47.7 122.9 43.7 120.8" fill="#231f20"/><path d="M45.5,120.2c-7.6-8.3,18.3-13,16.3-14.8,6.5,5,43.5,35.6,48.8,32.3" fill="none" stroke="#231f20" stroke-miterlimit="10"/><ellipse cx="263.6" cy="72.1" rx="0.5" ry="0.7" transform="translate(81.4 275.7) rotate(-63.5)"/><ellipse cx="257.1" cy="71.7" rx="3.3" ry="3.4" fill="#fff" stroke="#231f20" stroke-miterlimit="10"/><path d="M258,73.8a1.2,1.2,0,0,1-.9.3c-1,0-1.8-.8-1.8-2.2s.8-2.3,1.9-2.3a1.3,1.3,0,0,1,.8.2v.4h-.7c-.9,0-1.4.6-1.4,1.7s.5,1.8,1.4,1.8l.7-.2Z" fill="#231f20"/><ellipse cx="273" cy="77" rx="0.5" ry="0.7" transform="matrix(0.5, -0.87, 0.87, 0.5, 69.82, 274.9)"/><ellipse cx="254.6" cy="67.1" rx="0.5" ry="0.7" transform="translate(53.2 236.7) rotate(-54.9)"/><line x1="273.3" y1="50.5" x2="273.1" y2="77" fill="#fff"/><line x1="273.3" y1="50.5" x2="273.3" y2="54.5" fill="none" stroke="#231f20" stroke-linecap="round" stroke-miterlimit="10"/><line x1="273.2" y1="60.7" x2="273.2" y2="69.9" fill="none" stroke="#231f20" stroke-linecap="round" stroke-miterlimit="10" stroke-dasharray="6.14 6.14"/><line x1="273.2" y1="73" x2="273.1" y2="77" fill="none" stroke="#231f20" stroke-linecap="round" stroke-miterlimit="10"/><path d="M167.3,9.4h-1.7V11h1.9v.5H165V7h2.4v.5h-1.8V8.9h1.7Z" fill="#231f20"/><path d="M170,11.5v-.4h0a1.5,1.5,0,0,1-1,.4.9.9,0,0,1-1-.9c0-.8.7-1.2,1.9-1.2h0c0-.3,0-.8-.7-.8l-.8.2-.2-.3a2,2,0,0,1,1.1-.3c1,0,1.2.6,1.2,1.3v1.2a1.9,1.9,0,0,0,.1.8Zm0-1.7c-.7,0-1.4.1-1.4.8a.5.5,0,0,0,.5.5.8.8,0,0,0,.8-.5V9.8Z" fill="#231f20"/><path d="M171.4,10.9l.7.2c.5,0,.7-.2.7-.5s-.2-.4-.6-.6-.9-.5-.9-.9.4-.9,1.1-.9a1.5,1.5,0,0,1,.8.2v.4l-.7-.2a.5.5,0,0,0-.5.5c0,.2.2.3.6.5a1.1,1.1,0,0,1,.8,1c0,.5-.4.9-1.2.9a1.5,1.5,0,0,1-.9-.2Z" fill="#231f20"/><path d="M174.4,10a1,1,0,0,0,1.1,1.1l.9-.2v.4l-1.1.2a1.5,1.5,0,0,1-1.6-1.6,1.6,1.6,0,0,1,1.6-1.7,1.4,1.4,0,0,1,1.3,1.5V10Zm1.7-.5a.8.8,0,0,0-.8-.9c-.6,0-.8.5-.9.9Z" fill="#231f20"/><path d="M180.6,11.5v-.4h0a1.3,1.3,0,0,1-1,.4.8.8,0,0,1-.9-.9c0-.8.6-1.2,1.9-1.2h0c0-.3-.1-.8-.7-.8l-.9.2V8.5a1.7,1.7,0,0,1,1-.3,1.2,1.2,0,0,1,1.3,1.3v2Zm-.1-1.7c-.6,0-1.4.1-1.4.8a.6.6,0,0,0,.6.5,1,1,0,0,0,.8-.5V9.8Z" fill="#231f20"/><path d="M182,6.7h.6v4.8H182Z" fill="#231f20"/><path d="M183.6,6.7h.5v4.8h-.5Z" fill="#231f20"/><path d="M186.9,10a1,1,0,0,0,1.1,1.1l.8-.2v.4l-1,.2a1.5,1.5,0,0,1-1.6-1.6,1.5,1.5,0,0,1,1.5-1.7,1.4,1.4,0,0,1,1.3,1.5V10Zm1.7-.5a.9.9,0,0,0-.8-.9.9.9,0,0,0-.9.9Z" fill="#231f20"/><path d="M192.6,6.7v4.8h-.5v-.6h0a1.1,1.1,0,0,1-1.1.6,1.4,1.4,0,0,1-1.4-1.6,1.5,1.5,0,0,1,1.5-1.7.9.9,0,0,1,.9.5h0v-2ZM192,9.6V9.3a.8.8,0,0,0-.8-.7c-.6,0-1,.6-1,1.3s.3,1.2,1,1.2a.9.9,0,0,0,.8-.7V9.6Z" fill="#231f20"/><path d="M196.3,8.2V11a2.1,2.1,0,0,1-.4,1.5,1.7,1.7,0,0,1-1.2.4,2,2,0,0,1-1.1-.3l.2-.4.9.2a1,1,0,0,0,1.1-1.1v-.4h-.1a1.1,1.1,0,0,1-1,.6c-.8,0-1.3-.7-1.3-1.6a1.5,1.5,0,0,1,1.4-1.7,1.1,1.1,0,0,1,1,.5h0V8.2Zm-.6,1.3V9.3a.8.8,0,0,0-.8-.7c-.6,0-1,.5-1,1.3a1,1,0,0,0,1,1.1.8.8,0,0,0,.8-.6V9.5Z" fill="#231f20"/><path d="M197.6,10a1,1,0,0,0,1.1,1.1l.9-.2v.4l-1.1.2a1.4,1.4,0,0,1-1.5-1.6c0-1,.5-1.7,1.5-1.7a1.4,1.4,0,0,1,1.3,1.5V10Zm1.7-.5a.8.8,0,0,0-.8-.9c-.6,0-.8.5-.9.9Z" fill="#231f20"/><path d="M200.5,10.9l.8.2c.4,0,.6-.2.6-.5s-.1-.4-.6-.6-.8-.5-.8-.9.4-.9,1.1-.9l.8.2-.2.4a.8.8,0,0,0-.6-.2c-.4,0-.6.2-.6.5s.2.3.6.5.9.5.9,1-.5.9-1.2.9-.7,0-.9-.2Z" fill="#231f20"/><rect x="216.2" y="0.5" width="3.5" height="4.17" transform="translate(94.6 182.4) rotate(-56.2)" fill="none"/><polygon points="215.3 2.9 216.9 1.9 217.2 0 219.7 3.8 215.3 2.9" fill="#231f20"/><rect x="214.1" y="21.6" width="3.5" height="4.17" transform="matrix(0.64, -0.77, 0.77, 0.64, 59.71, 174.61)" fill="none"/><polygon points="213.1 23.7 214.8 22.9 215.3 21 217.4 25 213.1 23.7" fill="#231f20"/><path d="M216.9,1.9c-4.8-3.7-16.3,19.2-24.3,18.4,8.6.8,16.9-.2,22.2,2.6" fill="none" stroke="#231f20" stroke-miterlimit="10"/><path d="M192.6,20.3c-3-.1-8.6-1.5-9.3-7.3" fill="none" stroke="#231f20" stroke-miterlimit="10"/><ellipse cx="341" cy="69.6" rx="3.3" ry="3.4" fill="none" stroke="#231f20" stroke-miterlimit="10"/><path d="M342,69.8h-1.7v1.5h1.9v.5h-2.4V67.5h2.3v.4h-1.8v1.4H342Z" fill="#231f20"/><path d="M233.7,54.3c-.1.6-1.9.8-2,.1a2.8,2.8,0,0,1-.1-.5c.1-.5,1.7-.6,2.1-.1Z" fill="none" stroke="#231f20" stroke-miterlimit="10" stroke-width="0.75"/><path d="M232.7,53.9a.9.9,0,0,0-.7.1" fill="none" stroke="#231f20" stroke-miterlimit="10" stroke-width="0.75"/><path d="M233.3,53.6c.1-.2,0-.3-.1-.3a.8.8,0,0,0-.9.2" fill="none" stroke="#231f20" stroke-miterlimit="10" stroke-width="0.75"/><path d="M232.1,53.6c-.7-.5,1.8-1.1,1.1-.3" fill="none" stroke="#231f20" stroke-miterlimit="10" stroke-width="0.75"/><path d="M232.1,53.2c-.6-.5,1.7-1.1,1.1-.3" fill="none" stroke="#231f20" stroke-miterlimit="10" stroke-width="0.75"/><path d="M233.2,53.5h-.3" fill="none" stroke="#231f20" stroke-miterlimit="10" stroke-width="0.75"/><path d="M232.1,52.8c-.6-.4,1.7-1.1,1.1-.3" fill="none" stroke="#231f20" stroke-miterlimit="10" stroke-width="0.75"/><path d="M232.1,52.5c-.6-.5,1.7-1.1,1.1-.3" fill="none" stroke="#231f20" stroke-miterlimit="10" stroke-width="0.75"/><path d="M232.1,52.1c-.6-.5,1.7-1.1,1.1-.3" fill="none" stroke="#231f20" stroke-miterlimit="10" stroke-width="0.75"/><path d="M232.1,51.7c-.7-.4,1.7-1.1,1.1-.3" fill="none" stroke="#231f20" stroke-miterlimit="10" stroke-width="0.75"/><path d="M232.1,51.4c-.6-.5,1.7-1.2,1.1-.3" fill="none" stroke="#231f20" stroke-miterlimit="10" stroke-width="0.75"/><path d="M233.2,50.7l-.2-.3a.9.9,0,0,0-.7.1l-.2.5" fill="none" stroke="#231f20" stroke-miterlimit="10" stroke-width="0.75"/><line x1="232.7" y1="43.8" x2="232.7" y2="49.8" fill="#fff"/><line x1="232.7" y1="43.8" x2="232.7" y2="49.8" fill="none" stroke="#231f20" stroke-linecap="round" stroke-miterlimit="10" stroke-dasharray="6.06"/><ellipse cx="254.7" cy="40.2" rx="3.3" ry="3.4" fill="none" stroke="#231f20" stroke-miterlimit="10"/><path d="M256.2,42.2l-1.4.2a2.3,2.3,0,0,1-1.6-.6,2,2,0,0,1-.6-1.6A2.2,2.2,0,0,1,255,38l1.1.2-.2.4-.9-.2a1.7,1.7,0,0,0-1.8,1.8,1.6,1.6,0,0,0,1.7,1.7h.7V40.5h-.8v-.4h1.4Z" fill="#231f20"/><ellipse cx="236.3" cy="9" rx="3.3" ry="3.4" fill="none" stroke="#231f20" stroke-miterlimit="10"/><path d="M235.1,6.8h2.3v.5h-1.8V8.7h1.7v.5h-1.7v2h-.5Z" fill="#231f20"/></svg>