<svg id="Layer_1" data-name="Layer 1" xmlns="http://www.w3.org/2000/svg" width="438.1" height="175.3" viewBox="0 0 438.1 175.3"><rect width="438.1" height="175.26" fill="#00468b"/><path d="M199.3,155.2h-.5v11.6h-6.1V135H201c6.5,0,11.7,2.9,11.7,10.2,0,4.5-3,7.6-6.7,9l9.9,12.6h-7.4Zm-.5-14.7v9.7h2.3c3.4,0,5.6-1.9,5.6-4.9s-2-4.8-5.6-4.8Z" fill="#666"/><path d="M251.5,150.9c0,9.4-7.7,16.9-17.6,16.9s-17.5-7.5-17.5-16.9,7.7-16.9,17.5-16.9S251.5,141.5,251.5,150.9Zm-28.9,0a11.4,11.4,0,1,0,11.3-11.3A11.4,11.4,0,0,0,222.6,150.9Z" fill="#666"/><path d="M266.4,166.8H255.5V135h10c7.3,0,9.8,3.6,9.8,8.2a8,8,0,0,1-3.9,6.8,9.1,9.1,0,0,1,5.1,8.2C276.5,162.6,273.5,166.8,266.4,166.8ZM261.6,140v8.3h2.5c3.6,0,5.6-1.7,5.6-4.3s-1.2-4-5.5-4Zm0,12.7v9.2h3.2c4.3,0,5.6-2.1,5.6-4.5s-2.1-4.7-5.8-4.7Z" fill="#666"/><path d="M196,38.5V61h-3.5V32.9h3.7L211.9,55V32.9h3.4V61h-3.4Z" fill="#a6a6a6"/><path d="M249,46.9A15.4,15.4,0,1,1,233.7,32,15.1,15.1,0,0,1,249,46.9Zm-27.2,0a11.9,11.9,0,1,0,11.9-11.7A12,12,0,0,0,221.8,46.9Z" fill="#a6a6a6"/><path d="M216.8,72.4a13,13,0,0,0-7-2,11,11,0,0,0-11.4,11.2,11.2,11.2,0,0,0,11.4,11.5,13,13,0,0,0,7-2.1l2.7,4.6a17.1,17.1,0,0,1-10,3.1c-10.3,0-17.2-7.6-17.2-17s7-16.9,17.2-16.9a17.9,17.9,0,0,1,10,3Z" fill="#666"/><path d="M223.7,65.8h8.8c8.6,0,16.5,5.2,16.5,15.9s-7.8,15.9-16.4,15.9h-8.9Zm6,26.3h3c5.4,0,10.2-3.5,10.2-10.4s-4.8-10.4-10.2-10.4h-3Z" fill="#666"/><path d="M195.9,108v22.4h-3.4v-28h3.6l15.7,22.1V102.4h3.4v28h-3.3Z" fill="#a6a6a6"/><path d="M248.9,116.4a15.4,15.4,0,1,1-15.3-14.9A15.1,15.1,0,0,1,248.9,116.4Zm-27.2-.1a11.9,11.9,0,1,0,11.9-11.7A12,12,0,0,0,221.7,116.3Z" fill="#a6a6a6"/><path d="M176.8,168.4l-7-2.2-.3-.4c-.1-.2,0-.4,0-.6V133.6l4.2,1c2.9.9,5.8,1.8,8.6,2.9s5.6,4.7,5.6,8.7a14,14,0,0,1-.5,4.1c-1.1,3.8-4.4,4.2-7.4,2.8-.2-.1-.2-.5-.2-.7-.1-3.5,0-6.9-.1-10.3a8.8,8.8,0,0,0-.2-1.7,1.7,1.7,0,0,0-1.7-1.1c-.5.1-.9.7-1,1.5v27.6Z" fill="#666"/><path d="M178.2,160.9v-4l.5-.5a23,23,0,0,1,9.4-1.2,20.3,20.3,0,0,1,6.8,1.5,7.2,7.2,0,0,1,2.1,1.2,1.5,1.5,0,0,1,0,2.6,7.8,7.8,0,0,1-2.8,1.6l-15.5,5.7h-.5V165c0-1.3,0-1.3,1.2-1.7l10.4-3.7,1-.5c.6-.4.5-.9-.1-1.1a7.7,7.7,0,0,0-3-.2,62.1,62.1,0,0,0-6.1,2Z" fill="#a6a6a6"/><path d="M168,160.3c0,1.1,0,2.2-.1,3.4s-.2.3-.3.4a24.7,24.7,0,0,1-12.9-1.3,4.5,4.5,0,0,1-1.4-1,1.7,1.7,0,0,1,.2-2.9,35.9,35.9,0,0,1,3.4-1.7l10.4-3.7.7-.2c0,1.4,0,2.6-.1,3.9s-.3.4-.5.5l-6.9,2.5-.8.4a.8.8,0,0,0-.4.6c.1.2.4.5.6.5a11.6,11.6,0,0,0,3.2.1,30.9,30.9,0,0,0,4.3-1.4Z" fill="#a6a6a6"/><path d="M183.4,57.4c-9.7,11.4-13.6,26.7-7.8,40.8a50.6,50.6,0,0,0,7.8,12.8l-.7.7a30.2,30.2,0,0,1-11.2-11.5,33,33,0,0,1,0-32.1,30.9,30.9,0,0,1,11.2-11.5l.7.8Z" fill="#a7a9ac"/><path d="M172.1,46.5c-13.3,16.4-18.7,37.5-10.6,57.4A72.2,72.2,0,0,0,172.3,122l-.7.7c-21-11.5-28.2-40.4-16.1-60.9a42.6,42.6,0,0,1,16-16.1l.6.8Z" fill="#a7a9ac"/><path d="M156.4,31.3c-19.2,22.7-26.8,52.6-15.3,80.5,3.5,9,8.8,17.3,15.3,25.3l-.7.7C127,121.4,117.2,81.5,133.8,53a59.9,59.9,0,0,1,21.9-22.5l.7.8Z" fill="#a7a9ac"/><path d="M134.3,9.9c-27.6,31.5-38.4,74.2-21.9,113.3,5.1,12.6,12.7,24.2,21.9,35.2l-.6.8C94.1,135.5,80.6,80.8,103.5,40.8A85.7,85.7,0,0,1,133.7,9.2l.6.7Z" fill="#a7a9ac"/><path d="M253.1,56.4c20.5,12.1,20.5,43,0,55.1l-.6-.7A53.1,53.1,0,0,0,260.2,98c5.8-14.1,1.9-29.4-7.8-40.8l.7-.8Z" fill="#a7a9ac"/><path d="M264.3,45.5c29.2,16.6,29.1,60.6-.1,77l-.6-.7a74.9,74.9,0,0,0,10.7-18.1,52.9,52.9,0,0,0,.1-39.3,74.9,74.9,0,0,0-10.7-18.1l.6-.8Z" fill="#a7a9ac"/><path d="M280.1,30.3c39.9,23.6,39.9,83.8,0,107.3l-.6-.7a100.5,100.5,0,0,0,15.3-25.3,73.5,73.5,0,0,0,0-55.3,100,100,0,0,0-15.3-25.2l.6-.8Z" fill="#a7a9ac"/><path d="M302.2,9c54.9,33.7,54.9,116.3,0,150l-.7-.8c9.3-11,16.8-22.6,22-35.2a102.6,102.6,0,0,0,0-78.1c-5.2-12.5-12.8-24.2-22-35.2l.7-.7Z" fill="#a7a9ac"/><path d="M347.2,165.8h8.3c1.1,0,1.8-.9,1.4-1.8a1.3,1.3,0,0,0-1.4-.9h-7.1a1.1,1.1,0,0,1-1.2-1.1v-2.8c0-.2.1-.2.2-.2h10.7c.2,0,.3,0,.3.3s0,.5-.6.5h-8.6q-.4,0-.3.3v1.5c0,.5.2.7.7.7h6.9a2.1,2.1,0,0,1,2.1,1.9,2.3,2.3,0,0,1-2.2,2.6h-8.9a.3.3,0,0,1-.3-.3Z" fill="#b1b3b6"/><path d="M322.3,159.7v-.8h9.3a2.1,2.1,0,0,1,2.1,1.8,2.2,2.2,0,0,1-1.5,2.3h-6.9a1.3,1.3,0,0,0-1.4.9v2.4c0,.2-.1.3-.2.3h-1.4v-.3a7.4,7.4,0,0,1,0-2.1,2,2,0,0,1,2-2.1h6.4a1.2,1.2,0,0,0,1.3-.9,1.3,1.3,0,0,0-1.3-1.6h-8.4Z" fill="#b1b3b6"/><path d="M345.5,159.7h-4a1.3,1.3,0,0,0-1.4,1.3v3.4a2.1,2.1,0,0,1-2.2,2.3h-4.5c-.2,0-.2-.1-.2-.3s0-.6.5-.6h3.4a1.2,1.2,0,0,0,1.4-1.3v-3.4a2.1,2.1,0,0,1,2.2-2.2h4.5c.3,0,.3,0,.3.2Z" fill="#b1b3b6"/><path d="M364.7,166.7v-7.8h4.1l1.1.5a5,5,0,0,1,1,1.4,4.8,4.8,0,0,1,.3,1.8,7.8,7.8,0,0,1-.2,1.6,5.4,5.4,0,0,1-.6,1.1,1.6,1.6,0,0,1-.7.7,2.5,2.5,0,0,1-.9.4l-1.3.2Zm1.1-1h2.8l.7-.4a1.7,1.7,0,0,0,.6-1,6.1,6.1,0,0,0,.2-1.5,3.6,3.6,0,0,0-.4-1.9,1.9,1.9,0,0,0-1-.8,2.4,2.4,0,0,0-1.3-.2h-1.6Z" fill="#b1b3b6"/><path d="M372.5,160v-1.1h.9V160Zm0,6.7V161h.9v5.7Z" fill="#b1b3b6"/><path d="M374.7,167.1l.9.2a1.6,1.6,0,0,0,.3.6,1.7,1.7,0,0,0,1,.3,1.3,1.3,0,0,0,1-.3,1.1,1.1,0,0,0,.5-.8,3.1,3.1,0,0,0,.1-1.2,1.9,1.9,0,0,1-1.6.8,2.3,2.3,0,0,1-1.8-.9,3.2,3.2,0,0,1-.6-2,4,4,0,0,1,.3-1.5,2.7,2.7,0,0,1,.8-1,2,2,0,0,1,1.3-.4,2.1,2.1,0,0,1,1.7.8V161h.9v4.9a4.4,4.4,0,0,1-.3,1.9,3,3,0,0,1-.8.8,3.3,3.3,0,0,1-1.5.3,2.7,2.7,0,0,1-1.6-.4A1.7,1.7,0,0,1,374.7,167.1Zm.8-3.4a2.7,2.7,0,0,0,.4,1.7,1.6,1.6,0,0,0,1.1.5,1.4,1.4,0,0,0,1.1-.5,2.8,2.8,0,0,0,0-3.2,1.5,1.5,0,0,0-2.2,0A2.2,2.2,0,0,0,375.5,163.7Z" fill="#b1b3b6"/><path d="M380.9,160v-1.1h1V160Zm0,6.7V161h1v5.7Z" fill="#b1b3b6"/><path d="M385.4,165.8l.2.8H384a1,1,0,0,1-.4-.5,2.5,2.5,0,0,1-.1-1.1v-3.2h-.7V161h.7v-1.4l1-.5V161h.9v.8h-.9v3.8l.2.2h.7Z" fill="#b1b3b6"/><path d="M390,166a2.7,2.7,0,0,1-1,.6l-1,.2a2.3,2.3,0,0,1-1.5-.5,1.6,1.6,0,0,1-.5-1.1,1.9,1.9,0,0,1,.2-.8l.5-.5a.9.9,0,0,1,.7-.3l.9-.2,1.7-.3v-.3a1,1,0,0,0-.3-.8,1.8,1.8,0,0,0-1.1-.3l-1,.2a1.9,1.9,0,0,0-.5.9l-.9-.2a1.9,1.9,0,0,1,.4-.9,1.5,1.5,0,0,1,.9-.6l1.2-.2,1.2.2.7.4.3.6v2.2a6.7,6.7,0,0,0,.1,1.7,2.5,2.5,0,0,0,.2.7h-1C390.1,166.5,390.1,166.2,390,166Zm0-2.2-1.6.4a1.3,1.3,0,0,0-.8.2l-.4.3a.6.6,0,0,0-.1.4.8.8,0,0,0,.2.7c.2.2.5.2.9.2a1.6,1.6,0,0,0,1-.2,1.3,1.3,0,0,0,.6-.7,2,2,0,0,0,.2-.9Z" fill="#b1b3b6"/><path d="M392.4,166.7v-7.8h.9v7.8Z" fill="#b1b3b6"/><path d="M398,166.7v-7.8h5.6v.9H399v2.4h4.3v.9H399v2.6h4.8v1Z" fill="#b1b3b6"/><path d="M408.8,166.7v-.8a1.8,1.8,0,0,1-1.6.9,2,2,0,0,1-1.3-.4,2.7,2.7,0,0,1-.8-1,4.2,4.2,0,0,1-.4-1.6,4,4,0,0,1,.3-1.5,2.2,2.2,0,0,1,.9-1,1.7,1.7,0,0,1,1.2-.4l.9.2a2,2,0,0,1,.7.6v-2.8h.9v7.8Zm-3.1-2.9a2.6,2.6,0,0,0,.5,1.7,1.6,1.6,0,0,0,1.1.5,1.4,1.4,0,0,0,1-.5,2.5,2.5,0,0,0,.5-1.6,2.9,2.9,0,0,0-.5-1.7,1.4,1.4,0,0,0-1.1-.5,1.2,1.2,0,0,0-1,.5A2.5,2.5,0,0,0,405.7,163.8Z" fill="#b1b3b6"/><path d="M411.1,160v-1.1h1V160Zm0,6.7V161h1v5.7Z" fill="#b1b3b6"/><path d="M415.6,165.8l.2.8h-1.5a1.2,1.2,0,0,1-.5-.5,8,8,0,0,1-.1-1.1v-3.2H413V161h.7v-1.4l1-.5V161h.9v.8h-.9v3.8l.2.2h.7Z" fill="#b1b3b6"/><path d="M416.6,160v-1.1h.9V160Zm0,6.7V161h.9v5.7Z" fill="#b1b3b6"/><path d="M418.6,163.8a2.9,2.9,0,0,1,.9-2.3,2.8,2.8,0,0,1,1.8-.6,2.2,2.2,0,0,1,1.9.8,2.8,2.8,0,0,1,.7,2.1,4,4,0,0,1-.3,1.7,1.8,1.8,0,0,1-1,.9,2,2,0,0,1-1.3.4,2.6,2.6,0,0,1-1.9-.8A2.9,2.9,0,0,1,418.6,163.8Zm1,0a2.6,2.6,0,0,0,.5,1.7,1.7,1.7,0,0,0,2.4,0,2.9,2.9,0,0,0,.4-1.7,2.5,2.5,0,0,0-.4-1.6,1.8,1.8,0,0,0-1.2-.5,1.7,1.7,0,0,0-1.2.5A2.5,2.5,0,0,0,419.6,163.8Z" fill="#b1b3b6"/><path d="M425,166.7V161h.9v.8a2,2,0,0,1,1.8-.9l.9.2a1.8,1.8,0,0,1,.7.5l.3.7v4.4h-.9v-3.5c0-.4-.1-.6-.1-.8a1,1,0,0,0-.4-.5l-.7-.2a2.1,2.1,0,0,0-1.1.4,2.1,2.1,0,0,0-.4,1.5v3.1Z" fill="#b1b3b6"/></svg>