<svg id="Layer_1" data-name="Layer 1" xmlns="http://www.w3.org/2000/svg" width="536.1" height="235.2" viewBox="0 0 536.1 235.2"><rect width="533.6" height="188.64" fill="#00468b"/><rect x="31.4" y="148.3" width="86.4" height="86.4" fill="none" stroke="#231f20" stroke-miterlimit="10"/><rect x="31.4" y="148.3" width="86.4" height="86.4" fill="#00468b" stroke="#fff"/><path d="M66.3,218.2h-.2V224h-3V208.1h4.1c3.2,0,5.8,1.4,5.8,5.1a4.7,4.7,0,0,1-3.3,4.5l4.9,6.3H70.9Zm-.2-7.4v4.9h1.1a2.5,2.5,0,0,0,2.8-2.5,2.4,2.4,0,0,0-2.7-2.4Z" fill="#808285"/><path d="M92.4,216a8.8,8.8,0,1,1-8.7-8.4A8.5,8.5,0,0,1,92.4,216ZM78,216a5.7,5.7,0,0,0,11.4,0A5.7,5.7,0,0,0,78,216Z" fill="#808285"/><path d="M99.9,224H94.4V208.1h5.1c3.6,0,4.8,1.8,4.8,4.1a4.2,4.2,0,0,1-1.9,3.4,4.5,4.5,0,0,1,2.6,4.1C105,221.9,103.4,224,99.9,224Zm-2.4-13.4v4.1h1.2c1.8,0,2.9-.8,2.9-2.1s-.7-2-2.8-2Zm0,6.3v4.6h1.6c2.1,0,2.8-1,2.8-2.2s-1.1-2.4-2.9-2.4Z" fill="#808285"/><path d="M64.7,159.8v11.3H62.9V157h1.9l7.8,11.1V157h1.7v14.1H72.6Z" fill="#b1b3b6"/><path d="M91.2,164a7.7,7.7,0,1,1-7.7-7.4A7.5,7.5,0,0,1,91.2,164Zm-13.6,0a5.9,5.9,0,1,0,5.9-5.8A5.9,5.9,0,0,0,77.6,164Z" fill="#b1b3b6"/><path d="M75.1,176.8a6,6,0,0,0-3.5-1,5.7,5.7,0,1,0,0,11.3,6.4,6.4,0,0,0,3.5-1l1.3,2.3a8.7,8.7,0,0,1-13.6-7c0-4.7,3.5-8.4,8.7-8.4a8.5,8.5,0,0,1,4.9,1.5Z" fill="#808285"/><path d="M78.5,173.5h4.4c4.3,0,8.3,2.6,8.3,7.9s-3.9,8-8.2,8H78.5Zm3.1,13.1h1.5a4.8,4.8,0,0,0,5-5.2,4.9,4.9,0,0,0-5-5.2H81.6Z" fill="#808285"/><path d="M64.6,194.6v11.2H62.9v-14h1.8l7.9,11v-11h1.7v14H72.6Z" fill="#b1b3b6"/><path d="M91.1,198.8a7.7,7.7,0,1,1-7.6-7.5A7.5,7.5,0,0,1,91.1,198.8Zm-13.5-.1a6,6,0,0,0,5.9,6,6.1,6.1,0,0,0,5.9-6,6,6,0,0,0-5.9-5.8A5.9,5.9,0,0,0,77.6,198.7Z" fill="#b1b3b6"/><path d="M55.1,224.8l-3.5-1.1-.2-.2V207.4l2.1.5,4.3,1.4a4.3,4.3,0,0,1,2.8,4.4,6.5,6.5,0,0,1-.2,2c-.6,1.9-2.2,2.1-3.7,1.4s-.1-.2-.1-.3c0-1.8,0-3.5-.1-5.2a1.9,1.9,0,0,0-.1-.8.8.8,0,0,0-.8-.6.8.8,0,0,0-.5.8v13.8Z" fill="#808285"/><path d="M55.8,221v-1.9c0-.1.1-.3.2-.3a12.4,12.4,0,0,1,4.7-.6,10.4,10.4,0,0,1,3.5.7l1,.6a.7.7,0,0,1,0,1.3,4.2,4.2,0,0,1-1.4.9L56,224.5h-.2v-1.4c0-.7,0-.7.6-.9l5.2-1.8.5-.3c.3-.2.2-.4-.1-.5a3.8,3.8,0,0,0-1.5-.1,17.6,17.6,0,0,0-3,1Z" fill="#b1b3b6"/><path d="M50.7,220.7v1.7l-.2.2A12,12,0,0,1,44,222l-.7-.5a.9.9,0,0,1,.1-1.5l1.8-.8,5.2-1.9h.3v2l-.3.2-3.5,1.3-.4.2c-.1,0-.2.2-.2.3l.3.2a4.5,4.5,0,0,0,1.6.1l2.2-.7Z" fill="#b1b3b6"/><path d="M259.8,112l-12.1-3.4a1.1,1.1,0,0,1-.6-.7c-.1-.2,0-.5,0-.8V58.9l7.3,1.6c5,1.4,10.1,2.7,14.9,4.5,6.7,2.3,9.6,7.1,9.6,13.2a18.2,18.2,0,0,1-.8,6.2c-1.9,5.8-7.7,6.4-12.8,4.2-.3-.1-.4-.7-.4-1,0-5.3,0-10.5-.1-15.8a7.3,7.3,0,0,0-.4-2.5,2.9,2.9,0,0,0-2.9-1.7,2.3,2.3,0,0,0-1.7,2.3,5.6,5.6,0,0,0,0,1.3V112Z" fill="#b1b3b6"/><path d="M262.2,100.6c0-2.2,0-4.1.1-6.1a1.1,1.1,0,0,1,.7-.8,49.6,49.6,0,0,1,16.3-1.9,39.2,39.2,0,0,1,11.8,2.3,11.1,11.1,0,0,1,3.6,1.8c1.7,1.2,1.7,2.9,0,4.1a18,18,0,0,1-4.8,2.4L263,110.9l-.8.3v-4.5c0-1.9,0-1.9,2.1-2.6l17.9-5.6,1.8-.7c.9-.6.9-1.4-.2-1.6a13.2,13.2,0,0,0-5.2-.3c-3.6.7-7.1,1.9-10.6,2.9Z" fill="#808285"/><path d="M244.5,99.6v5.1a.9.9,0,0,1-.7.6,46.4,46.4,0,0,1-22.2-1.9,10.4,10.4,0,0,1-2.5-1.5c-1.8-1.4-1.7-3.2.4-4.4a44.1,44.1,0,0,1,5.9-2.6l18-5.7,1.1-.2v5.9c-.1.3-.6.6-1,.8l-11.9,3.7-1.4.6c-.3.3-.7.7-.7,1a2,2,0,0,0,1,.8,26.3,26.3,0,0,0,5.6.1,70,70,0,0,0,7.5-2.1Z" fill="#808285"/><path d="M14.8,107V77.2h6.9v24.7H38.9V107Z" fill="#b1b3b6"/><path d="M43.7,82.2V76.9h6.6v5.3Zm0,24.8V85.2h6.6V107Z" fill="#b1b3b6"/><path d="M56.5,85.2h6.1v3a10.1,10.1,0,0,1,7.7-3.5,8.8,8.8,0,0,1,4.1.9,6.6,6.6,0,0,1,2.9,2.6,10.2,10.2,0,0,1,7.5-3.5,9.6,9.6,0,0,1,4.7,1,6.3,6.3,0,0,1,2.8,2.8,12.6,12.6,0,0,1,.7,4.6V107H86.4V94.5c0-2.1-.2-3.5-.7-4.1a3.1,3.1,0,0,0-2.8-1.3,5,5,0,0,0-2.6.8A3.9,3.9,0,0,0,78.6,92a13.2,13.2,0,0,0-.5,4.5V107H71.5V95a12.3,12.3,0,0,0-.4-4.1,2.2,2.2,0,0,0-1-1.3,3.9,3.9,0,0,0-2-.5,6.8,6.8,0,0,0-2.8.7,4.4,4.4,0,0,0-1.7,2.1,15.4,15.4,0,0,0-.5,4.5V107H56.5Z" fill="#b1b3b6"/><path d="M99.5,82.2V76.9H106v5.3Zm0,24.8V85.2H106V107Z" fill="#b1b3b6"/><path d="M124.1,85.2v4.6h-4.5v8.8a14.3,14.3,0,0,0,.2,3.1c0,.3.2.5.5.7a2,2,0,0,0,1.1.3,12.1,12.1,0,0,0,2.7-.5l.5,4.4a13.6,13.6,0,0,1-5.1.9,10.2,10.2,0,0,1-3.2-.5,4.3,4.3,0,0,1-2.1-1.4,3.7,3.7,0,0,1-.9-2.2,20.2,20.2,0,0,1-.2-4.1V89.8H110V85.2h3.1V80.9l6.5-3.4v7.7Z" fill="#b1b3b6"/><path d="M128.7,107V76.9h6.5V107Z" fill="#b1b3b6"/><path d="M156.3,100.1l6.5.9a9.5,9.5,0,0,1-4,4.8,12.9,12.9,0,0,1-6.8,1.7c-4.3,0-7.5-1.3-9.5-3.7a11.1,11.1,0,0,1-2.5-7.5c0-3.7,1.1-6.5,3.2-8.5a11.3,11.3,0,0,1,8.2-3.1,11.8,11.8,0,0,1,8.7,3.2c2.1,2.2,3.1,5.4,3,9.9H146.7a5.8,5.8,0,0,0,1.6,4,5.6,5.6,0,0,0,3.8,1.4,4.5,4.5,0,0,0,2.6-.8A4.5,4.5,0,0,0,156.3,100.1Zm.3-5.9a5.2,5.2,0,0,0-1.4-3.8,5.3,5.3,0,0,0-3.4-1.3,5.1,5.1,0,0,0-3.6,1.4,5.1,5.1,0,0,0-1.4,3.7Z" fill="#b1b3b6"/><path d="M166.2,100.8l6.6-.9a3.5,3.5,0,0,0,1.7,2.5,5.8,5.8,0,0,0,3.5.9,8.1,8.1,0,0,0,3.9-.8,1.9,1.9,0,0,0,.8-1.5,1.4,1.4,0,0,0-.4-1.1,5.3,5.3,0,0,0-2.2-.8c-5.3-1-8.7-1.9-10.1-2.8a5.6,5.6,0,0,1-2.9-4.9,5.8,5.8,0,0,1,2.5-4.8c1.7-1.3,4.3-1.9,7.9-1.9s5.9.5,7.6,1.5a7.8,7.8,0,0,1,3.4,4.3l-6.2,1a3.8,3.8,0,0,0-1.5-2,7,7,0,0,0-3.2-.6,8.6,8.6,0,0,0-3.7.6,1.3,1.3,0,0,0-.7,1.2,1.2,1.2,0,0,0,.6,1c.6.4,2.7.9,6.1,1.6s6,1.6,7.4,2.6a5.1,5.1,0,0,1,2,4.3,6.1,6.1,0,0,1-2.8,5.1c-1.9,1.5-4.7,2.2-8.5,2.2a15.5,15.5,0,0,1-8-1.8A8.7,8.7,0,0,1,166.2,100.8Z" fill="#b1b3b6"/><path d="M192.7,100.8l6.6-.9a4.2,4.2,0,0,0,1.7,2.5,6.4,6.4,0,0,0,3.6.9,7.4,7.4,0,0,0,3.8-.8,1.8,1.8,0,0,0,.9-1.5,1.4,1.4,0,0,0-.5-1.1,4.3,4.3,0,0,0-2.2-.8c-5.2-1-8.6-1.9-10-2.8a5.5,5.5,0,0,1-3-4.9,5.9,5.9,0,0,1,2.6-4.8c1.7-1.3,4.3-1.9,7.9-1.9s5.9.5,7.5,1.5a7,7,0,0,1,3.4,4.3l-6.1,1a3.5,3.5,0,0,0-1.6-2,6.3,6.3,0,0,0-3.1-.6,8.3,8.3,0,0,0-3.7.6,1.4,1.4,0,0,0-.8,1.2c0,.4.3.7.7,1s2.6.9,6.1,1.6,5.9,1.6,7.3,2.6a4.9,4.9,0,0,1,2.1,4.3,6.2,6.2,0,0,1-2.9,5.1c-1.9,1.5-4.7,2.2-8.4,2.2a15.3,15.3,0,0,1-8-1.8A8.5,8.5,0,0,1,192.7,100.8Z" fill="#b1b3b6"/><path d="M278,95.6a10.6,10.6,0,0,1,1.6-5.6,11.2,11.2,0,0,1,4.5-4.1,15.9,15.9,0,0,1,6.6-1.4,13.4,13.4,0,0,1,9.2,3.2,11.1,11.1,0,0,1,0,16.4,13.5,13.5,0,0,1-9.1,3.2,15.7,15.7,0,0,1-6.5-1.3,10.4,10.4,0,0,1-4.7-4A11.9,11.9,0,0,1,278,95.6Zm6.7.3a7,7,0,0,0,1.7,5,6.1,6.1,0,0,0,4.3,1.7,6,6,0,0,0,4.3-1.7,6.7,6.7,0,0,0,1.8-5A6.3,6.3,0,0,0,295,91a5.7,5.7,0,0,0-4.3-1.8,5.8,5.8,0,0,0-4.3,1.8A6.8,6.8,0,0,0,284.7,95.9Z" fill="#b1b3b6"/><path d="M306.3,100.6l6.6-.9a4.8,4.8,0,0,0,1.7,2.6,7.4,7.4,0,0,0,3.6.8,6.5,6.5,0,0,0,3.8-.8,1.8,1.8,0,0,0,.9-1.5,1.4,1.4,0,0,0-.5-1.1,5.6,5.6,0,0,0-2.2-.8c-5.3-1-8.6-1.9-10-2.8a5.5,5.5,0,0,1-3-4.9,5.6,5.6,0,0,1,2.6-4.7c1.7-1.3,4.3-2,7.9-2s5.9.5,7.5,1.5a7.3,7.3,0,0,1,3.4,4.3l-6.2,1a3.3,3.3,0,0,0-1.5-2,6.3,6.3,0,0,0-3.1-.6,8.3,8.3,0,0,0-3.7.6,1.4,1.4,0,0,0-.8,1.2c0,.4.2.7.7,1s2.6.9,6.1,1.6,5.9,1.6,7.3,2.6a5,5,0,0,1,2.1,4.3,6.5,6.5,0,0,1-2.9,5.2q-2.9,2.1-8.4,2.1a15.3,15.3,0,0,1-8-1.8A8.2,8.2,0,0,1,306.3,100.6Z" fill="#b1b3b6"/><path d="M332.9,100.6l6.6-.9a4.3,4.3,0,0,0,1.7,2.6,6.9,6.9,0,0,0,3.6.8,6.7,6.7,0,0,0,3.8-.8,1.8,1.8,0,0,0,.9-1.5,1.4,1.4,0,0,0-.5-1.1,6.4,6.4,0,0,0-2.2-.8c-5.3-1-8.6-1.9-10.1-2.8a5.6,5.6,0,0,1-2.9-4.9,5.7,5.7,0,0,1,2.5-4.7c1.7-1.3,4.4-2,7.9-2s5.9.5,7.6,1.5a7.7,7.7,0,0,1,3.4,4.3l-6.2,1a4.3,4.3,0,0,0-1.5-2,6.7,6.7,0,0,0-3.2-.6,8.6,8.6,0,0,0-3.7.6,1.3,1.3,0,0,0-.7,1.2,1.2,1.2,0,0,0,.6,1c.6.4,2.7.9,6.2,1.6s5.9,1.6,7.3,2.6a5.2,5.2,0,0,1,2,4.3,6.4,6.4,0,0,1-2.8,5.2q-2.8,2.1-8.4,2.1c-3.4,0-6.1-.6-8-1.8A8.2,8.2,0,0,1,332.9,100.6Z" fill="#b1b3b6"/><path d="M361.8,82.1V76.7h6.5v5.4Zm0,24.7V85h6.5v21.8Z" fill="#b1b3b6"/><path d="M374.8,106.8V76.7h6.5V87.6a9.5,9.5,0,0,1,7.2-3.1,10.5,10.5,0,0,1,7.5,2.9c2,1.9,2.9,4.7,2.9,8.3s-1,6.6-3,8.6a9.9,9.9,0,0,1-7.3,3,10.6,10.6,0,0,1-4.2-.9,9.8,9.8,0,0,1-3.6-2.8v3.2Zm6.5-11.4a8.7,8.7,0,0,0,1.2,5.1,5.3,5.3,0,0,0,4.5,2.3,5,5,0,0,0,3.7-1.7q1.5-1.6,1.5-5.1t-1.5-5.4a5.3,5.3,0,0,0-4-1.7,5.7,5.7,0,0,0-3.9,1.6A7.2,7.2,0,0,0,381.3,95.4Z" fill="#b1b3b6"/><path d="M404.2,82.1V76.7h6.6v5.4Zm0,24.7V85h6.6v21.8Z" fill="#b1b3b6"/><path d="M417.5,106.8V76.7H424v30.1Z" fill="#b1b3b6"/><path d="M430.7,82.1V76.7h6.6v5.4Zm0,24.7V85h6.6v21.8Z" fill="#b1b3b6"/><path d="M455.4,85v4.6h-4.5v8.8a18.8,18.8,0,0,0,.1,3.1,1.3,1.3,0,0,0,.6.7,2,2,0,0,0,1.1.3,11.4,11.4,0,0,0,2.6-.5l.6,4.4a13.8,13.8,0,0,1-5.2.9,10.7,10.7,0,0,1-3.2-.5,5.5,5.5,0,0,1-2.1-1.4,5.6,5.6,0,0,1-.9-2.2,31.3,31.3,0,0,1-.2-4.1V89.6h-3V85h3V80.7l6.6-3.4V85Z" fill="#b1b3b6"/><path d="M459.9,82.1V76.7h6.6v5.4Zm0,24.7V85h6.6v21.8Z" fill="#b1b3b6"/><path d="M487.5,99.9l6.6.9a10.3,10.3,0,0,1-4,4.9,12.9,12.9,0,0,1-6.8,1.6c-4.3,0-7.5-1.2-9.6-3.7a11.6,11.6,0,0,1-2.4-7.5c0-3.6,1-6.5,3.2-8.5a11.1,11.1,0,0,1,8.1-3.1,12.2,12.2,0,0,1,8.8,3.2q3.2,3.3,3,9.9H478a5.1,5.1,0,0,0,5.4,5.4,4.1,4.1,0,0,0,2.5-.7A4.3,4.3,0,0,0,487.5,99.9Zm.4-5.9a4.8,4.8,0,0,0-4.9-5.1,4.8,4.8,0,0,0-3.5,1.4,4.8,4.8,0,0,0-1.4,3.7Z" fill="#b1b3b6"/><path d="M497.4,100.6l6.6-.9a4.8,4.8,0,0,0,1.7,2.6,7.4,7.4,0,0,0,3.6.8,6.5,6.5,0,0,0,3.8-.8,1.8,1.8,0,0,0,.9-1.5,1.4,1.4,0,0,0-.5-1.1,5.6,5.6,0,0,0-2.2-.8c-5.2-1-8.6-1.9-10-2.8a5.5,5.5,0,0,1-3-4.9,5.6,5.6,0,0,1,2.6-4.7c1.7-1.3,4.3-2,7.9-2s5.9.5,7.5,1.5a7.3,7.3,0,0,1,3.4,4.3l-6.1,1a3.9,3.9,0,0,0-1.6-2,6.3,6.3,0,0,0-3.1-.6,8.3,8.3,0,0,0-3.7.6,1.4,1.4,0,0,0-.8,1.2c0,.4.3.7.7,1s2.6.9,6.1,1.6,5.9,1.6,7.3,2.6a5,5,0,0,1,2.1,4.3,6.5,6.5,0,0,1-2.9,5.2q-2.9,2.1-8.4,2.1a15.3,15.3,0,0,1-8-1.8A8.2,8.2,0,0,1,497.4,100.6Z" fill="#b1b3b6"/><path d="M225.7,157.5h12.8a2.1,2.1,0,0,0,2.1-2.9,2.4,2.4,0,0,0-2.2-1.4H229a6.6,6.6,0,0,1-1.4,0,1.9,1.9,0,0,1-1.9-1.7v-4.4c0-.2.1-.2.3-.2h16.3c.4,0,.5,0,.5.4s0,.8-.8.8H228.7c-.4,0-.5.1-.5.5a17.7,17.7,0,0,1,0,2.3,1,1,0,0,0,1.1,1.1h10.6a3.3,3.3,0,0,1,3.3,2.8,3.5,3.5,0,0,1-3.4,4h-8.6c-1.7,0-3.4-.1-5.1,0s-.4-.1-.4-.4Z" fill="#b1b3b6"/><path d="M187.6,148.1v-1.2h14.3a3.1,3.1,0,0,1,3.1,2.8,3.1,3.1,0,0,1-2.2,3.4H192.2a2.1,2.1,0,0,0-2.1,1.5v3.7c0,.3-.1.4-.4.4a14.7,14.7,0,0,0-2.1,0v-3.6a3.2,3.2,0,0,1,3.2-3.2h9.7a2,2,0,0,0,2-1.5,1.9,1.9,0,0,0-1.9-2.4h-13Z" fill="#b1b3b6"/><path d="M223.1,148.1H217a1.9,1.9,0,0,0-2.1,2v5.2a3.2,3.2,0,0,1-3.4,3.5h-6.8c-.4,0-.5-.1-.5-.5s0-.8.9-.8h5.1a2,2,0,0,0,2.2-2.1v-5.1a3.2,3.2,0,0,1,3.4-3.4h6.9c.3,0,.5.1.4.4Z" fill="#b1b3b6"/><path d="M249.4,158.8V146.6h4.2l2.1.2a3.7,3.7,0,0,1,1.8.8,6.2,6.2,0,0,1,1.5,2.1,8.8,8.8,0,0,1,.4,2.9,9.5,9.5,0,0,1-.3,2.5,5.4,5.4,0,0,1-.8,1.7,3.8,3.8,0,0,1-1.1,1.1,5.2,5.2,0,0,1-1.5.7l-1.9.2Zm1.6-1.5h2.6a5.3,5.3,0,0,0,1.9-.2,3.9,3.9,0,0,0,1.1-.6,5.5,5.5,0,0,0,1.2-3.9,4.6,4.6,0,0,0-.7-2.9,2.9,2.9,0,0,0-1.5-1.4,5.1,5.1,0,0,0-2.1-.3H251Z" fill="#b1b3b6"/><path d="M261.5,148.3v-1.7H263v1.7Zm0,10.5V150H263v8.8Z" fill="#b1b3b6"/><path d="M265,159.5l1.4.2c.1.5.2.8.5,1a2.4,2.4,0,0,0,1.5.4,2.4,2.4,0,0,0,1.6-.4,2,2,0,0,0,.8-1.2,8.2,8.2,0,0,0,.1-1.9,3,3,0,0,1-2.4,1.2,3.4,3.4,0,0,1-2.8-1.3,5.1,5.1,0,0,1-1-3.2,5.9,5.9,0,0,1,.4-2.3,4.5,4.5,0,0,1,1.3-1.7,3.6,3.6,0,0,1,2.1-.5,3.4,3.4,0,0,1,2.6,1.2v-1h1.3v7.6a7.1,7.1,0,0,1-.4,2.9,2.7,2.7,0,0,1-1.3,1.3,4.1,4.1,0,0,1-2.3.5,3.9,3.9,0,0,1-2.5-.7A2.2,2.2,0,0,1,265,159.5Zm1.2-5.3a3.4,3.4,0,0,0,.7,2.5,2.2,2.2,0,0,0,3.4,0,3.3,3.3,0,0,0,.7-2.4,3.7,3.7,0,0,0-.7-2.5,2.2,2.2,0,0,0-3.4,0A3.3,3.3,0,0,0,266.2,154.2Z" fill="#b1b3b6"/><path d="M274.7,148.3v-1.7h1.5v1.7Zm0,10.5V150h1.5v8.8Z" fill="#b1b3b6"/><path d="M281.7,157.4l.2,1.4h-1.1a2.1,2.1,0,0,1-1.2-.3,1.2,1.2,0,0,1-.7-.7,4.9,4.9,0,0,1-.2-1.7v-5.1h-1.1V150h1.1v-2.2l1.5-.9V150h1.5v1.1h-1.5v5.2a5.4,5.4,0,0,0,.1.8c.1.1.1.2.3.3h1.1Z" fill="#b1b3b6"/><path d="M288.9,157.7a5.4,5.4,0,0,1-1.6,1,4.1,4.1,0,0,1-1.6.3,3.4,3.4,0,0,1-2.2-.7,2.2,2.2,0,0,1-.8-1.9,2,2,0,0,1,.3-1.1,1.8,1.8,0,0,1,.8-.9,3.1,3.1,0,0,1,1-.5l1.4-.2a17,17,0,0,0,2.6-.5v-.4c0-.6-.1-1.1-.4-1.3a2.6,2.6,0,0,0-1.7-.5,2.5,2.5,0,0,0-1.6.4,2.2,2.2,0,0,0-.7,1.3l-1.5-.2a3.5,3.5,0,0,1,.7-1.5,2.5,2.5,0,0,1,1.3-.9,6.4,6.4,0,0,1,2-.3,5.3,5.3,0,0,1,1.9.2,2.6,2.6,0,0,1,1,.7,3.1,3.1,0,0,1,.5,1v3.4c0,1.4.1,2.2.1,2.6a4.9,4.9,0,0,0,.4,1.1h-1.6Zm-.1-3.4a5.9,5.9,0,0,1-2.4.6l-1.3.3a1,1,0,0,0-.6.5.8.8,0,0,0-.2.7,1.3,1.3,0,0,0,.4,1,2,2,0,0,0,1.4.4,2.8,2.8,0,0,0,1.5-.4,2.4,2.4,0,0,0,1-1,6.1,6.1,0,0,0,.2-1.5Z" fill="#b1b3b6"/><path d="M292.6,158.8V146.6h1.5v12.2Z" fill="#b1b3b6"/><path d="M301.4,158.8V146.6h8.8V148H303v3.8h6.7v1.4H303v4.1h7.5v1.5Z" fill="#b1b3b6"/><path d="M318.2,158.8v-1.1a3,3,0,0,1-2.5,1.3,3.3,3.3,0,0,1-1.9-.6,4.4,4.4,0,0,1-1.4-1.6,6,6,0,0,1,0-4.8,3.7,3.7,0,0,1,1.3-1.7,3.3,3.3,0,0,1,2-.5,3.2,3.2,0,0,1,1.4.3,2.8,2.8,0,0,1,1,.9v-4.4h1.5v12.2Zm-4.7-4.4a3.7,3.7,0,0,0,.7,2.5,2,2,0,0,0,1.7.8,1.8,1.8,0,0,0,1.6-.8,3.3,3.3,0,0,0,.7-2.4,4.1,4.1,0,0,0-.7-2.7,2.1,2.1,0,0,0-1.7-.8,2.3,2.3,0,0,0-1.7.8A4.3,4.3,0,0,0,313.5,154.4Z" fill="#b1b3b6"/><path d="M321.9,148.3v-1.7h1.5v1.7Zm0,10.5V150h1.5v8.8Z" fill="#b1b3b6"/><path d="M329,157.4l.2,1.4h-1.1a2.3,2.3,0,0,1-1.3-.3,1.1,1.1,0,0,1-.6-.7,4.9,4.9,0,0,1-.2-1.7v-5.1h-1.1V150H326v-2.2l1.5-.9V150H329v1.1h-1.5v5.2c0,.4,0,.7.1.8l.2.3H329Z" fill="#b1b3b6"/><path d="M330.4,148.3v-1.7h1.5v1.7Zm0,10.5V150h1.5v8.8Z" fill="#b1b3b6"/><path d="M333.7,154.4a4.6,4.6,0,0,1,1.3-3.7,4.5,4.5,0,0,1,2.8-.9,4,4,0,0,1,3,1.1,4.9,4.9,0,0,1,1.1,3.3,6.2,6.2,0,0,1-.5,2.7,2.8,2.8,0,0,1-1.5,1.5,3.7,3.7,0,0,1-2.1.6,4.1,4.1,0,0,1-3-1.2A4.7,4.7,0,0,1,333.7,154.4Zm1.5,0a3.7,3.7,0,0,0,.7,2.5,2.2,2.2,0,0,0,1.9.8,2.1,2.1,0,0,0,1.8-.8,3.8,3.8,0,0,0,.8-2.6,3.7,3.7,0,0,0-.8-2.5,2.5,2.5,0,0,0-1.8-.8,2.6,2.6,0,0,0-1.9.8A3.8,3.8,0,0,0,335.2,154.4Z" fill="#b1b3b6"/><path d="M343.7,158.8V150H345v1.2a3.1,3.1,0,0,1,2.8-1.4,3.6,3.6,0,0,1,1.5.2,2.7,2.7,0,0,1,1,.8,3.7,3.7,0,0,1,.5,1.1v6.9h-1.5v-5.4a5.3,5.3,0,0,0-.1-1.4,1.6,1.6,0,0,0-.7-.7,1.5,1.5,0,0,0-1-.3,2,2,0,0,0-1.6.7c-.5.4-.7,1.1-.7,2.3v4.8Z" fill="#b1b3b6"/></svg>