<svg id="Layer_1" data-name="Layer 1" xmlns="http://www.w3.org/2000/svg" width="433" height="217" viewBox="0 0 433 217"><rect x="0.5" y="0.5" width="432" height="216" fill="#fff" stroke="#231f20" stroke-miterlimit="10"/><path d="M191.8,193.1h-.6v17.7h-9.3V162.4h12.6c9.9,0,17.8,4.3,17.8,15.4,0,7-4.5,11.6-10.3,13.8l15.1,19.2H205.9Zm-.6-22.4v14.8h3.4c5.2,0,8.5-2.9,8.5-7.6s-3-7.2-8.4-7.2Z" fill="#666"/><path d="M271.4,186.5c0,14.3-11.8,25.9-26.7,25.9S218,200.8,218,186.5s11.7-25.7,26.7-25.7S271.4,172.3,271.4,186.5Zm-44.1,0a17.4,17.4,0,1,0,34.7,0,17.4,17.4,0,0,0-34.7,0Z" fill="#666"/><path d="M294.2,210.8H277.6V162.4h15.2c11.1,0,14.9,5.5,14.9,12.4a12.6,12.6,0,0,1-5.9,10.4,13.7,13.7,0,0,1,7.8,12.4C309.6,204.3,304.9,210.8,294.2,210.8Zm-7.4-40.9v12.7h3.8c5.5,0,8.6-2.6,8.6-6.6s-1.9-6.1-8.3-6.1Zm0,19.4v14h4.8c6.7,0,8.6-3.1,8.6-6.8s-3.2-7.2-8.7-7.2Z" fill="#666"/><path d="M186.8,15.2V49.5h-5.2V6.7h5.5L211,40.4V6.7h5.3V49.5h-5.2Z" fill="#a6a6a6"/><path d="M267.6,28a23,23,0,0,1-23.3,22.8c-13.1,0-23.4-10.2-23.4-22.8S231.2,5.3,244.3,5.3A22.9,22.9,0,0,1,267.6,28Zm-41.4,0a18.1,18.1,0,0,0,36.1,0,18.1,18.1,0,0,0-36.1,0Z" fill="#a6a6a6"/><path d="M218.5,67a18.7,18.7,0,0,0-10.7-3.2A16.9,16.9,0,0,0,190.5,81c0,9.3,6.9,17.4,17.3,17.4a19.6,19.6,0,0,0,10.7-3.1l4.2,7a27.3,27.3,0,0,1-15.2,4.6c-15.7,0-26.3-11.6-26.3-25.8s10.6-25.8,26.3-25.8a26.9,26.9,0,0,1,15.2,4.6Z" fill="#666"/><path d="M229,56.9h13.5c13.1,0,25.1,7.9,25.1,24.2s-11.9,24.2-25,24.2H229ZM238.3,97h4.5c8.2,0,15.5-5.4,15.5-15.9S251,65.3,242.8,65.3h-4.5Z" fill="#666"/><path d="M186.7,121.1v34.2h-5.3V112.6H187l23.9,33.7V112.6h5.3v42.7H211Z" fill="#a6a6a6"/><path d="M267.5,133.9c0,12.6-10.3,22.8-23.4,22.8s-23.4-10.2-23.4-22.8,10.4-22.7,23.4-22.7S267.5,121.3,267.5,133.9Zm-41.4-.1a18,18,0,1,0,18-17.8A18.3,18.3,0,0,0,226.1,133.8Z" fill="#a6a6a6"/><path d="M338.3,207.2v-9.3h1.2l4.9,7.3v-7.3h1.2v9.3h-1.3l-4.9-7.3v7.3Z" fill="#a6a6a6"/><path d="M347.1,203.8a3.6,3.6,0,0,1,1-2.8,3.1,3.1,0,0,1,2.1-.7,3,3,0,0,1,2.3.9,3.3,3.3,0,0,1,.9,2.5,4.1,4.1,0,0,1-.4,2.1,2.9,2.9,0,0,1-1.1,1.1,3.3,3.3,0,0,1-1.7.4,2.8,2.8,0,0,1-2.2-.9A3.6,3.6,0,0,1,347.1,203.8Zm1.2,0a2.6,2.6,0,0,0,.5,1.9,1.7,1.7,0,0,0,1.4.7,1.8,1.8,0,0,0,1.5-.7,3.9,3.9,0,0,0,0-3.8,1.8,1.8,0,0,0-1.5-.7,1.7,1.7,0,0,0-1.4.7A2.6,2.6,0,0,0,348.3,203.8Z" fill="#a6a6a6"/><path d="M356.6,207.2l-2.6-6.8h1.2l1.5,4.1.4,1.3.4-1.2,1.5-4.2h1.2l-2.5,6.8Z" fill="#a6a6a6"/><path d="M365.8,205l1.2.2a3.4,3.4,0,0,1-1,1.6,3.8,3.8,0,0,1-1.9.5,3.2,3.2,0,0,1-2.4-.9,3.3,3.3,0,0,1-.9-2.5,3.8,3.8,0,0,1,.9-2.7,3.2,3.2,0,0,1,2.3-.9,2.9,2.9,0,0,1,2.2.9,3.6,3.6,0,0,1,.9,2.6v.3H362a2.9,2.9,0,0,0,.7,1.7,1.9,1.9,0,0,0,2.4.3A2.1,2.1,0,0,0,365.8,205Zm-3.7-1.8h3.8a2.2,2.2,0,0,0-.5-1.3,1.5,1.5,0,0,0-1.4-.7,1.6,1.6,0,0,0-1.3.6A1.7,1.7,0,0,0,362.1,203.2Z" fill="#a6a6a6"/><path d="M368.5,207.2v-6.8h1v1a3,3,0,0,1,.8-.8l1.2-.3a2.1,2.1,0,0,1,1.2.3,1.3,1.3,0,0,1,.7.9,2.5,2.5,0,0,1,2.1-1.2,2.1,2.1,0,0,1,1.5.5,2.4,2.4,0,0,1,.6,1.8v4.6h-1.2v-4.3a2.8,2.8,0,0,0-.1-1c0-.2-.2-.3-.4-.4a.7.7,0,0,0-.6-.2,1.6,1.6,0,0,0-1.2.4,2.5,2.5,0,0,0-.5,1.6v3.9h-1.1v-4.4a1.6,1.6,0,0,0-.3-1.1,1,1,0,0,0-.9-.4l-.9.2a1.2,1.2,0,0,0-.6.8,4.6,4.6,0,0,0-.2,1.4v3.5Z" fill="#a6a6a6"/><path d="M380.3,207.2h-1v-9.3h1.1v3.3a2.3,2.3,0,0,1,1.9-.9l1.1.2a2.2,2.2,0,0,1,.9.7,2.4,2.4,0,0,1,.6,1.1,6.8,6.8,0,0,1,.2,1.4,4.1,4.1,0,0,1-.8,2.7,2.9,2.9,0,0,1-2.1.9,2.2,2.2,0,0,1-1.9-1Zm0-3.4a3.7,3.7,0,0,0,.3,1.7,1.8,1.8,0,0,0,1.5.9,1.6,1.6,0,0,0,1.3-.7,3.9,3.9,0,0,0,0-3.8,1.3,1.3,0,0,0-1.2-.7,1.5,1.5,0,0,0-1.3.7A2.5,2.5,0,0,0,380.3,203.8Z" fill="#a6a6a6"/><path d="M391.1,205l1.2.2a3.4,3.4,0,0,1-1,1.6,3.9,3.9,0,0,1-2,.5,3,3,0,0,1-2.3-.9,3.3,3.3,0,0,1-.9-2.5,3.8,3.8,0,0,1,.9-2.7,3,3,0,0,1,2.3-.9,2.9,2.9,0,0,1,2.2.9,4,4,0,0,1,.8,2.6v.3h-5a2.9,2.9,0,0,0,.6,1.7,2,2,0,0,0,1.4.6,1.8,1.8,0,0,0,1.1-.3A3,3,0,0,0,391.1,205Zm-3.7-1.8h3.7a2.2,2.2,0,0,0-.4-1.3,1.7,1.7,0,0,0-2.7-.1A1.7,1.7,0,0,0,387.4,203.2Z" fill="#a6a6a6"/><path d="M393.7,207.2v-6.8h1v1.1a2.9,2.9,0,0,1,.8-1l.7-.2a1.9,1.9,0,0,1,1.2.4l-.4,1a1.5,1.5,0,0,0-.9-.2.7.7,0,0,0-.6.2,1.5,1.5,0,0,0-.5.6,5.7,5.7,0,0,0-.1,1.3v3.6Z" fill="#a6a6a6"/><path d="M405.7,207.2h-1.2v-7.3l-1.1.8-1.2.6v-1.1a7.1,7.1,0,0,0,1.7-1.1,3.8,3.8,0,0,0,1-1.3h.8Z" fill="#a6a6a6"/><path d="M414.6,206.1v1.1h-6.2a1.9,1.9,0,0,1,.2-.8,5.6,5.6,0,0,1,.7-1.3l1.5-1.4a14.4,14.4,0,0,0,2.1-1.9,3,3,0,0,0,.5-1.4,1.8,1.8,0,0,0-.5-1.2,1.7,1.7,0,0,0-1.3-.4,1.5,1.5,0,0,0-1.3.5,1.9,1.9,0,0,0-.5,1.3h-1.2a3,3,0,0,1,1-2,3.3,3.3,0,0,1,2.1-.7,2.9,2.9,0,0,1,2.1.8,2.5,2.5,0,0,1,.8,1.8,2,2,0,0,1-.3,1.1,3.7,3.7,0,0,1-.7,1.2l-1.8,1.6-1.3,1.2-.5.6Z" fill="#a6a6a6"/><path d="M418.6,206.2l.2,1h-.9l-1-.2-.4-.5a4.1,4.1,0,0,1-.2-1.4v-3.9h-.8v-.9h.8v-1.6l1.2-.7v2.3h1.1v.9h-1.1v4.6l.2.2h.9Z" fill="#a6a6a6"/><path d="M419.7,207.2v-9.3h1.2v3.3a2.5,2.5,0,0,1,2-.9,2.8,2.8,0,0,1,1.3.3,2,2,0,0,1,.8.8,4.9,4.9,0,0,1,.2,1.5v4.3h-1.1v-4.3a1.7,1.7,0,0,0-.4-1.2,1.2,1.2,0,0,0-1-.4l-1,.2a1.3,1.3,0,0,0-.6.7,2.5,2.5,0,0,0-.2,1.3v3.7Z" fill="#a6a6a6"/><path d="M157.6,213.3l-10.7-3.4a1.3,1.3,0,0,1-.5-.7c-.1-.2,0-.5,0-.8V160.1l6.4,1.6c4.4,1.4,8.9,2.7,13.2,4.5,5.8,2.3,8.4,7.1,8.4,13.2a22.2,22.2,0,0,1-.7,6.3c-1.7,5.7-6.7,6.3-11.3,4.2-.2-.1-.3-.7-.3-1.1-.1-5.2,0-10.5-.1-15.7a7.5,7.5,0,0,0-.4-2.6,2,2,0,1,0-4,.6,5.7,5.7,0,0,0,0,1.3v40.9Z" fill="#666"/><path d="M159.7,201.8c0-2.1,0-4.1.1-6a1.1,1.1,0,0,1,.6-.9,39.1,39.1,0,0,1,14.4-1.8,33.3,33.3,0,0,1,10.4,2.2,12.9,12.9,0,0,1,3.2,1.9,2.4,2.4,0,0,1,0,4,18.6,18.6,0,0,1-4.3,2.5l-23.7,8.5-.7.3V208c0-1.9,0-1.9,1.8-2.6l15.8-5.6a4.8,4.8,0,0,0,1.6-.8c.9-.6.8-1.4-.2-1.6a11.6,11.6,0,0,0-4.5-.3c-3.2.8-6.3,1.9-9.4,2.9Z" fill="#a6a6a6"/><path d="M144.1,200.9V206a.9.9,0,0,1-.6.6,35.5,35.5,0,0,1-19.6-2,6.4,6.4,0,0,1-2.2-1.4c-1.6-1.4-1.5-3.3.3-4.4a37.1,37.1,0,0,1,5.3-2.6l15.9-5.7.9-.3v6c0,.3-.5.6-.9.7l-10.5,3.8a4.5,4.5,0,0,0-1.2.6,1.5,1.5,0,0,0-.6,1,1.8,1.8,0,0,0,.9.8,20.1,20.1,0,0,0,4.9.1c2.2-.5,4.4-1.4,6.6-2.1Z" fill="#a6a6a6"/><path d="M407.2,191.5h13.1a2.2,2.2,0,0,0,2.2-2.9,2.3,2.3,0,0,0-2.2-1.5H409.1a1.9,1.9,0,0,1-1.9-1.7v-4.6c0-.2.1-.2.3-.2h16.8c.3,0,.5,0,.4.4s0,.9-.8.9H410.3c-.4,0-.5.2-.5.5v2.4c0,.8.3,1.1,1.1,1.1h10.8a3.5,3.5,0,1,1,0,6.9H407.6c-.3,0-.4-.1-.4-.4Z" fill="#a6a6a6"/><path d="M368,181.9v-1.3h14.7a3.2,3.2,0,0,1,3.2,2.9,3.3,3.3,0,0,1-2.3,3.5H372.7a2.1,2.1,0,0,0-2.1,1.6,1.3,1.3,0,0,0-.1.6v3.2c0,.2,0,.3-.3.3H368c0-.1-.1-.3-.1-.4v-3.3a3.3,3.3,0,0,1,3.3-3.2h10.1a2,2,0,0,0,2-1.5,1.9,1.9,0,0,0-2-2.4H368Z" fill="#a6a6a6"/><path d="M404.5,181.9h-6.3a1.9,1.9,0,0,0-2.1,2v5.3a3.4,3.4,0,0,1-3.6,3.6h-7c-.3,0-.4-.1-.4-.4s0-.9.8-.9h5.4a2,2,0,0,0,2.2-2.2v-5.2a3.2,3.2,0,0,1,3.5-3.5h7.1c.3,0,.5.1.4.4Z" fill="#a6a6a6"/></svg>