<svg id="Layer_1" data-name="Layer 1" xmlns="http://www.w3.org/2000/svg" width="306" height="378" viewBox="0 0 306 378"><rect width="306" height="378" fill="#00468b"/><path d="M120.4,252.8c-11.6,13-16.1,30.8-9.2,47.2a54.2,54.2,0,0,0,9.2,14.6l-.7.8c-16.6-10.1-22.2-33.1-12.6-50A36.3,36.3,0,0,1,119.8,252l.6.8Z" fill="#a7a9ac"/><path d="M107.4,240.2c-15.9,18.6-22.2,43.5-12.6,66.4a80.6,80.6,0,0,0,12.8,20.7l-.6.7c-23.7-13.7-31.8-46.3-18.2-69.9a50.2,50.2,0,0,1,18-18.6l.6.7Z" fill="#a7a9ac"/><path d="M89.3,222.7c-22.8,25.8-31.8,60.9-18.1,93.1a107.1,107.1,0,0,0,18.1,28.8l-.7.8C56.2,325.8,45.2,280.9,63.9,248a70.4,70.4,0,0,1,24.8-26l.6.7Z" fill="#a7a9ac"/><path d="M63.9,198.2C31.2,233.9,18.5,283.8,38,329c6.1,14.4,15,27.8,25.9,40.2l-.7.7C18.6,342,3.3,280,29.2,234.1a100.3,100.3,0,0,1,34.1-36.7l.6.8Z" fill="#a7a9ac"/><path d="M185.6,251.8c23.1,14.3,23.1,49,0,63.3l-.6-.7a58.3,58.3,0,0,0,9.2-14.7c6.9-16.3,2.4-34.1-9.2-47.2l.6-.7Z" fill="#a7a9ac"/><path d="M198.6,239.3c32.8,19.6,32.6,69-.2,88.5l-.6-.8a78.1,78.1,0,0,0,12.7-20.6,59.8,59.8,0,0,0,.1-45.7A77.6,77.6,0,0,0,197.9,240l.7-.7Z" fill="#a7a9ac"/><path d="M216.7,221.7c45.1,27.9,45,95.6,0,123.5l-.6-.8c7.6-9,13.9-18.5,18.1-28.8a83.4,83.4,0,0,0,0-64.3c-4.2-10.3-10.5-19.8-18.1-28.8l.6-.8Z" fill="#a7a9ac"/><path d="M242.1,197.2c62.1,39.7,62.1,132.8,0,172.5l-.6-.7c10.8-12.4,19.8-25.8,25.8-40.3a115.6,115.6,0,0,0,0-90.5c-6-14.5-15-27.9-25.8-40.2l.6-.8Z" fill="#a7a9ac"/><path d="M185.8,48.5h40.8c5.1,0,8.4-4.6,6.7-9.2a7,7,0,0,0-6.8-4.4H191.9a5.9,5.9,0,0,1-6-5.6c-.1-4.6,0-9.3-.1-14,0-.7.4-.8,1.1-.8h52c1.1,0,1.5.2,1.5,1.4s0,2.6-2.6,2.6H195.4c-1.2,0-1.6.4-1.5,1.6s0,4.9,0,7.4,1.1,3.5,3.5,3.5H231a10.8,10.8,0,1,1,0,21.6H187.1c-1,0-1.3-.3-1.3-1.3A24.2,24.2,0,0,0,185.8,48.5Z" fill="#b1b3b6"/><path d="M63.9,18.5V14.6h45.8c5.2,0,9.3,3.8,10.1,9.1a10.2,10.2,0,0,1-7.3,10.8,11.9,11.9,0,0,1-3.3.4H78.6c-3.4,0-5.7,1.7-6.5,4.7a12.3,12.3,0,0,0-.2,2v9.8c.1.9-.2,1.1-1,1.1H64a5.3,5.3,0,0,1-.1-1.2V41.1A10,10,0,0,1,74.1,30.9h31.2a6.3,6.3,0,0,0,6.3-4.8,6.2,6.2,0,0,0-6.2-7.6c-6.5-.1-12.9,0-19.4,0H63.9Z" fill="#b1b3b6"/><path d="M177.6,18.5H157.8c-3.9,0-6.5,2.5-6.5,6.4V41.4c0,6.8-4.3,11.1-11,11.1H118.5c-1,0-1.3-.3-1.3-1.3,0-2.7,0-2.7,2.6-2.7h16.5c4.3,0,6.9-2.4,6.9-6.7s0-11,0-16.4,4.3-10.9,10.9-10.9h22.2c1,0,1.4.3,1.3,1.3A24.2,24.2,0,0,0,177.6,18.5Z" fill="#b1b3b6"/><path d="M64,118V70H80.6a45,45,0,0,1,8.5.6,16.4,16.4,0,0,1,7.1,3.5,20.2,20.2,0,0,1,5.7,8.2,33.2,33.2,0,0,1,1.9,11.4,35,35,0,0,1-1.3,9.7,21.7,21.7,0,0,1-3.3,7,16.7,16.7,0,0,1-4.4,4.4,15.6,15.6,0,0,1-5.7,2.4,29.9,29.9,0,0,1-7.7.8Zm6.4-5.6H80.7a24.4,24.4,0,0,0,7.4-.9,10,10,0,0,0,4.3-2.5,16.5,16.5,0,0,0,3.6-6.1,31.4,31.4,0,0,0,1.2-9.3c0-5-.8-8.9-2.5-11.6a11.9,11.9,0,0,0-6-5.4,26,26,0,0,0-8.2-1H70.4Z" fill="#b1b3b6"/><path d="M111.8,76.7V70h5.9v6.7Zm0,41.3V83.2h5.9V118Z" fill="#b1b3b6"/><path d="M125.6,120.9l5.8.9a5.3,5.3,0,0,0,2,3.8,9.5,9.5,0,0,0,6,1.7,10.5,10.5,0,0,0,6.3-1.7,7.8,7.8,0,0,0,3-4.6,32.8,32.8,0,0,0,.4-7.5,12.1,12.1,0,0,1-9.6,4.5c-4.8,0-8.5-1.7-11.1-5.2a19.2,19.2,0,0,1-4-12.4,23.2,23.2,0,0,1,1.8-9.2,14,14,0,0,1,13.3-8.8,12.7,12.7,0,0,1,10.2,5V83.2h5.4v30.1c0,5.4-.5,9.3-1.6,11.5a12,12,0,0,1-5.3,5.4,18.2,18.2,0,0,1-8.8,2,17.2,17.2,0,0,1-10.1-2.8C126.8,127.5,125.5,124.7,125.6,120.9Zm4.9-20.9c0,4.6.9,7.9,2.7,10a8.6,8.6,0,0,0,6.8,3.1,8.8,8.8,0,0,0,6.9-3.1c1.8-2.1,2.7-5.4,2.7-9.8s-.9-7.5-2.8-9.7a9,9,0,0,0-6.9-3.2,8.4,8.4,0,0,0-6.6,3.2C131.4,92.6,130.5,95.8,130.5,100Z" fill="#b1b3b6"/><path d="M164.1,76.7V70H170v6.7Zm0,41.3V83.2H170V118Z" fill="#b1b3b6"/><path d="M191.9,112.8l.8,5.2a24.7,24.7,0,0,1-4.4.5,9.8,9.8,0,0,1-5-1,5.9,5.9,0,0,1-2.5-2.7c-.5-1.1-.7-3.4-.7-7v-20h-4.4V83.2h4.4V74.6l5.8-3.6V83.2h6v4.6h-6v20.4a10.8,10.8,0,0,0,.3,3.2,2.5,2.5,0,0,0,1.1,1.2,4.6,4.6,0,0,0,2,.4Z" fill="#b1b3b6"/><path d="M220.4,113.7a21.7,21.7,0,0,1-6.4,4,19.3,19.3,0,0,1-6.5,1.1c-3.8,0-6.7-.9-8.8-2.8a9.4,9.4,0,0,1-3.1-7.2,9,9,0,0,1,1.2-4.6,10,10,0,0,1,3-3.4,15.4,15.4,0,0,1,4.3-2,33.9,33.9,0,0,1,5.2-.8,55.6,55.6,0,0,0,10.6-2.1V94.4c0-2.4-.6-4.1-1.7-5.1s-3.7-2-6.7-2-4.8.5-6.1,1.5-2.3,2.7-3,5.1l-5.7-.8a13.9,13.9,0,0,1,2.5-5.9,11.6,11.6,0,0,1,5.3-3.6,23.4,23.4,0,0,1,7.9-1.2,21,21,0,0,1,7.2,1.1,9.1,9.1,0,0,1,4.1,2.6,8.7,8.7,0,0,1,1.8,4,32.8,32.8,0,0,1,.3,5.5v7.8a92.3,92.3,0,0,0,.4,10.4,15,15,0,0,0,1.5,4.2h-6.2A10.9,10.9,0,0,1,220.4,113.7Zm-.5-13.1a49,49,0,0,1-9.7,2.2,17.2,17.2,0,0,0-5.1,1.2,4.3,4.3,0,0,0-2.3,1.9,4.7,4.7,0,0,0-.9,2.8,4.8,4.8,0,0,0,1.8,3.9,7.5,7.5,0,0,0,5.2,1.6,12.3,12.3,0,0,0,6.1-1.5,9.1,9.1,0,0,0,3.9-4.1,13.1,13.1,0,0,0,1-5.9Z" fill="#b1b3b6"/><path d="M235.4,118V70h5.9v48Z" fill="#b1b3b6"/><path d="M89.2,210.5V196.9h1.9l7.1,10.6V196.9h1.7v13.6H98.1l-7.2-10.7v10.7Z" fill="#b1b3b6"/><path d="M102.1,205.5a5.1,5.1,0,0,1,1.5-4,4.4,4.4,0,0,1,3.1-1.1,4.5,4.5,0,0,1,3.4,1.3,5.4,5.4,0,0,1,1.3,3.7,6.1,6.1,0,0,1-.6,3,4.6,4.6,0,0,1-1.7,1.7,4.8,4.8,0,0,1-2.4.6,4.7,4.7,0,0,1-3.3-1.3A5.3,5.3,0,0,1,102.1,205.5Zm1.7,0a4.2,4.2,0,0,0,.9,2.9,2.5,2.5,0,0,0,2,.9,2.6,2.6,0,0,0,2.1-.9,4.2,4.2,0,0,0,.8-2.9,3.9,3.9,0,0,0-.8-2.8,2.6,2.6,0,0,0-2.1-.9,2.5,2.5,0,0,0-2,.9A3.9,3.9,0,0,0,103.8,205.5Z" fill="#b1b3b6"/><path d="M116,210.5l-3.7-9.9h1.8l2.1,5.9.6,2c.2-.5.4-1.2.6-1.9l2.2-6h1.7l-3.7,9.9Z" fill="#b1b3b6"/><path d="M129.6,207.3l1.7.2a4.2,4.2,0,0,1-1.5,2.3,4.6,4.6,0,0,1-2.9.9,4.9,4.9,0,0,1-3.4-1.3,6.6,6.6,0,0,1,0-7.6,4.7,4.7,0,0,1,6.6-.1,5.6,5.6,0,0,1,1.2,3.8v.5H124a3.1,3.1,0,0,0,.9,2.4,2.6,2.6,0,0,0,2.1.9,2.5,2.5,0,0,0,1.5-.5A3,3,0,0,0,129.6,207.3Zm-5.5-2.7h5.5a3.3,3.3,0,0,0-.7-1.9,2.5,2.5,0,0,0-2-.9,2.6,2.6,0,0,0-2.8,2.8Z" fill="#b1b3b6"/><path d="M133.4,210.5v-9.9h1.5V202a3.8,3.8,0,0,1,4.8-1.2,3,3,0,0,1,.9,1.3,3.7,3.7,0,0,1,3.1-1.7,2.9,2.9,0,0,1,2.2.8,3.2,3.2,0,0,1,.8,2.5v6.8h-1.6v-6.2a4.9,4.9,0,0,0-.2-1.5,1.3,1.3,0,0,0-.6-.7,1.7,1.7,0,0,0-1-.3,2.4,2.4,0,0,0-1.7.7,2.9,2.9,0,0,0-.7,2.2v5.8h-1.7v-6.4a2.7,2.7,0,0,0-.4-1.7,1.5,1.5,0,0,0-1.3-.6,2.8,2.8,0,0,0-1.3.4,2,2,0,0,0-.9,1.1,5.6,5.6,0,0,0-.3,2v5.2Z" fill="#b1b3b6"/><path d="M150.7,210.5h-1.5V196.9h1.7v4.8a3.2,3.2,0,0,1,2.7-1.3,3.5,3.5,0,0,1,1.7.4,2.6,2.6,0,0,1,1.3,1,4,4,0,0,1,.8,1.6,6.4,6.4,0,0,1,.3,2,5.7,5.7,0,0,1-1.2,3.9,4.1,4.1,0,0,1-3,1.4,3.2,3.2,0,0,1-2.8-1.5Zm0-5a5.2,5.2,0,0,0,.5,2.5,2.3,2.3,0,0,0,2.1,1.3,2.3,2.3,0,0,0,1.9-.9,4.2,4.2,0,0,0,.8-2.9,4.3,4.3,0,0,0-.7-2.8,2.5,2.5,0,0,0-1.9-.9,2.6,2.6,0,0,0-1.9.9A4.4,4.4,0,0,0,150.7,205.5Z" fill="#b1b3b6"/><path d="M166.5,207.3l1.7.2a3.4,3.4,0,0,1-1.5,2.3,4.1,4.1,0,0,1-2.8.9,4.8,4.8,0,0,1-3.4-1.3,6.2,6.2,0,0,1,0-7.6,4.6,4.6,0,0,1,6.5-.1,5.2,5.2,0,0,1,1.3,3.8v.5h-7.4a3.5,3.5,0,0,0,1,2.4,2.5,2.5,0,0,0,2,.9,2.8,2.8,0,0,0,1.6-.5A2.8,2.8,0,0,0,166.5,207.3Zm-5.5-2.7h5.5a3.3,3.3,0,0,0-.6-1.9,2.6,2.6,0,0,0-2.1-.9,2.6,2.6,0,0,0-1.9.7A3.4,3.4,0,0,0,161,204.6Z" fill="#b1b3b6"/><path d="M170.3,210.5v-9.9h1.5v1.5a4.5,4.5,0,0,1,1.1-1.4,2,2,0,0,1,1.1-.3,4.1,4.1,0,0,1,1.7.5l-.6,1.6a1.9,1.9,0,0,0-1.2-.4,1.7,1.7,0,0,0-1,.3,2.1,2.1,0,0,0-.6,1,5.4,5.4,0,0,0-.3,1.9v5.2Z" fill="#b1b3b6"/><path d="M187.8,210.5h-1.7V199.8a7.4,7.4,0,0,1-1.6,1.2,8.5,8.5,0,0,1-1.7.8v-1.6a10,10,0,0,0,2.4-1.6,6,6,0,0,0,1.5-1.8h1.1Z" fill="#b1b3b6"/><path d="M200.8,208.9v1.6h-9a5,5,0,0,1,.2-1.2,8.7,8.7,0,0,1,1.1-1.8,23.2,23.2,0,0,1,2.2-2.1,17.1,17.1,0,0,0,3-2.8,4,4,0,0,0,.8-2.1,2,2,0,0,0-.7-1.6,2.9,2.9,0,0,0-3.8,0,2.7,2.7,0,0,0-.7,2l-1.8-.2a4.7,4.7,0,0,1,1.4-2.9,4.3,4.3,0,0,1,3.1-1,4.5,4.5,0,0,1,3.1,1.1,3.7,3.7,0,0,1,1.1,2.7,4.5,4.5,0,0,1-.3,1.6,7.6,7.6,0,0,1-1.1,1.6c-.6.6-1.4,1.4-2.6,2.4a23,23,0,0,0-1.9,1.7,3,3,0,0,0-.7,1Z" fill="#b1b3b6"/><path d="M206.7,209l.3,1.4-1.3.2a2.6,2.6,0,0,1-1.4-.3,1.4,1.4,0,0,1-.7-.8,6.6,6.6,0,0,1-.2-1.9v-5.7h-1.2v-1.3h1.2v-2.4l1.6-1v3.4h1.7v1.3H205v5.8c0,.4.1.7.1.9l.3.3h1.3Z" fill="#b1b3b6"/><path d="M208.4,210.5V196.9H210v4.8a3.8,3.8,0,0,1,3-1.3,4.1,4.1,0,0,1,1.9.4A2.5,2.5,0,0,1,216,202a4.6,4.6,0,0,1,.4,2.2v6.3h-1.7v-6.3a3,3,0,0,0-.5-1.8,2.1,2.1,0,0,0-1.6-.6,3.7,3.7,0,0,0-1.4.4,2.4,2.4,0,0,0-.9,1.1,4.2,4.2,0,0,0-.3,1.8v5.4Z" fill="#b1b3b6"/><path d="M64.6,179V136H95.7v5H70.3v13.2H94.1v5H70.3v14.7H96.7V179Z" fill="#b1b3b6"/><path d="M124.5,179v-4a9.8,9.8,0,0,1-8.7,4.7,12.2,12.2,0,0,1-6.9-2.1,13.4,13.4,0,0,1-4.8-5.7,19.3,19.3,0,0,1-1.7-8.5,23.4,23.4,0,0,1,1.5-8.5,12.3,12.3,0,0,1,4.7-5.8,12.7,12.7,0,0,1,6.9-2,10.5,10.5,0,0,1,8.6,4.3V136h5.3v43Zm-16.7-15.6c0,4,.8,7,2.5,9a7.9,7.9,0,0,0,6,2.9,7.2,7.2,0,0,0,5.8-2.8c1.7-1.9,2.5-4.8,2.5-8.6s-.9-7.4-2.5-9.4a7.6,7.6,0,0,0-6.1-3,7.4,7.4,0,0,0-5.9,2.8C108.6,156.3,107.8,159.3,107.8,163.4Z" fill="#b1b3b6"/><path d="M138.1,142v-6h5.3v6Zm0,37V147.8h5.3V179Z" fill="#b1b3b6"/><path d="M163.2,174.2l.7,4.7a20.8,20.8,0,0,1-4,.5,8.8,8.8,0,0,1-4.4-.9,5.3,5.3,0,0,1-2.3-2.4q-.6-1.5-.6-6.3V151.9h-3.9v-4.1h3.9v-7.7l5.3-3.2v10.9h5.3v4.1h-5.3v18.2a9.5,9.5,0,0,0,.2,2.9,2.4,2.4,0,0,0,.9,1.1,4.8,4.8,0,0,0,1.8.3A11.5,11.5,0,0,0,163.2,174.2Z" fill="#b1b3b6"/><path d="M168.9,142v-6h5.3v6Zm0,37V147.8h5.3V179Z" fill="#b1b3b6"/><path d="M180.8,163.4c0-5.8,1.6-10.1,4.8-12.8a14.7,14.7,0,0,1,9.8-3.5,13.9,13.9,0,0,1,10.5,4.2c2.7,2.8,4.1,6.7,4.1,11.6s-.6,7.2-1.8,9.5a13.1,13.1,0,0,1-5.3,5.4,16.1,16.1,0,0,1-7.5,1.9,14,14,0,0,1-10.6-4.2C182.1,172.7,180.8,168.6,180.8,163.4Zm5.4,0c0,4,.9,7,2.6,9a8.8,8.8,0,0,0,6.6,2.9,8.5,8.5,0,0,0,6.6-3c1.7-2,2.6-5,2.6-9.1s-.9-6.8-2.7-8.7a8.2,8.2,0,0,0-6.5-3,8.8,8.8,0,0,0-6.6,2.9C187.1,156.4,186.2,159.4,186.2,163.4Z" fill="#b1b3b6"/><path d="M216.2,179V147.8h4.7v4.4a11.3,11.3,0,0,1,10-5.1,12.2,12.2,0,0,1,5.1,1,8.6,8.6,0,0,1,3.6,2.7,9.7,9.7,0,0,1,1.6,3.9,28.9,28.9,0,0,1,.3,5.1V179h-5.3V160a14.8,14.8,0,0,0-.6-4.8,5,5,0,0,0-2.2-2.6,7.2,7.2,0,0,0-3.7-.9,8.6,8.6,0,0,0-5.8,2.1c-1.6,1.4-2.4,4.2-2.4,8.1V179Z" fill="#b1b3b6"/><path d="M122.5,312.3v-14c0-5.9-.1-11.8-.1-17.6s-.1-12.4-.1-18.6c-.1-3.3-.1-6.7-.1-10.1s-.1-5.4-.1-8a3.6,3.6,0,0,1,1.9-3.5c1.7-1,3.5-2.1,5.3-3,4-2,7.9-4.1,11.9-5.9s6.7-3.1,10.1-4.4l9.6-3.6a3.7,3.7,0,0,1,3.9.6,2.8,2.8,0,0,1,1.2,2c.1,1.2.2,2.4.4,3.6s.3,3.3.5,4.9.3,3,.4,4.5.3,3.1.4,4.6a24.4,24.4,0,0,0,.1,2.7c.2,3,.4,5.9.5,8.9l.3,4.8.6,8.2c0,.9.1,1.8.1,2.7l.6,10.1c0,1,.1,1.9.1,2.9.2,4,.4,8.1.5,12.1l.3,6.2.3,11.6.3,9.3c.1,4.9.1,9.8.2,14.7a6.1,6.1,0,0,1,0,1.9,3.4,3.4,0,0,1-3.1,2.5h-1.8l-7.9-1c-2.5-.3-4.9-.6-7.3-1.1l-11.9-2.6-9.4-2.5-5.2-1.8a17.7,17.7,0,0,1-1.7-1.2,2.1,2.1,0,0,1-.7-1.5v-.3c0-6-.1-12-.1-18Z" fill="#b1b3b6"/><path d="M126.7,249.7l-1-.4h-.1v-5.9l.6.2,1.2.5a1.6,1.6,0,0,1,.8,1.6v.8a.7.7,0,0,1-1.1.5h0a13.4,13.4,0,0,0-.1-2v-.3l-.2-.2c-.1,0-.2.2-.2.3v.2c0,1.6,0,3.2.1,4.8Z" fill="#808285"/><path d="M126.9,248.3a1.6,1.6,0,0,1,0-.7h0a2.2,2.2,0,0,1,1.4-.2l.9.2.3.3c.2.1.2.3,0,.5l-.4.3-2.2,1h0v-.5c0-.2,0-.2.1-.3l1.5-.7h.1c.1-.1.1-.2,0-.2s-.3-.1-.4,0l-.9.3Z" fill="#808285"/><path d="M125.4,248.2v.7h-.1a2.3,2.3,0,0,1-1.8-.2l-.2-.2a.3.3,0,0,1,0-.5l.5-.3,1.5-.7h.1v.8a.1.1,0,0,0-.1.1l-1,.4h-.1s-.1.1,0,.1h.5l.6-.2A.1.1,0,0,0,125.4,248.2Z" fill="#808285"/><path d="M171.2,231.7l.8-.5s4.9-2.8,6.4-3.8c3.5-2.2,4.2-.5,4.2,2.9-1.5,26.3-5.5,66.5-5.1,107.5.1,3.4-1.3,3.5-5.8,1.5" fill="#b1b3b6" stroke="#b1b3b6" stroke-miterlimit="10" stroke-width="0.75"/><path d="M171.6,338.4V338c-.1-4.9-.1-9.8-.2-14.7l-.3-9.3-.3-11.6-.3-6.2c-.1-4-.3-8.1-.5-12.1,0-1-.1-1.9-.1-2.9l-.6-10.1c0-.9-.1-1.8-.1-2.7l-.6-8.2-.3-4.8c-.1-3-.3-5.9-.5-8.9a24.4,24.4,0,0,1-.1-2.7c-.1-1.5-.3-3.1-.4-4.6s-.3-3-.4-4.5-.3-2.7-.5-4.1c6.4.4,11.7.9,11.2,8.9-.2,3.5-2,37.5-2.6,94.5-.1,4.9-2.1,4.3-3.4,4.3" fill="#808285"/></svg>